<?xml version="1.0" encoding="UTF-8"?>
<svg version="1.1" xmlns="http://www.w3.org/2000/svg" width="500" height="500">
<path d="M0 0 C2.6875 2.25 2.6875 2.25 3.625 4.8125 C3.6875 7.25 3.6875 7.25 2.6875 10.25 C0.28204362 11.45272819 -1.26246953 11.35071472 -3.9375 11.3125 C-5.16339844 11.29896484 -5.16339844 11.29896484 -6.4140625 11.28515625 C-7.35378906 11.26775391 -7.35378906 11.26775391 -8.3125 11.25 C-8.0959375 11.806875 -7.879375 12.36375 -7.65625 12.9375 C-5.55566893 18.69464811 -3.75326716 24.14234359 -6.0390625 30.1640625 C-9.10532384 36.02236668 -13.44717044 39.50503198 -19.64453125 41.72265625 C-25.75170907 42.9297851 -32.11872631 42.45295132 -38.3125 42.25 C-37.9825 43.24 -37.6525 44.23 -37.3125 45.25 C-36.35210815 45.26401855 -36.35210815 45.26401855 -35.37231445 45.27832031 C-32.45577625 45.33218847 -29.54081375 45.41580199 -26.625 45.5 C-25.61759766 45.51417969 -24.61019531 45.52835938 -23.57226562 45.54296875 C-19.09408599 45.69076346 -16.08246829 45.81488278 -12.1328125 48.046875 C-10.18662544 50.40234603 -9.69351235 51.25252658 -9.875 54.25 C-9.89691406 54.91 -9.91882813 55.57 -9.94140625 56.25 C-10.53599265 59.45450777 -11.4845766 61.56101547 -14.01171875 63.6640625 C-14.99591797 64.26347656 -14.99591797 64.26347656 -16 64.875 C-16.64324219 65.27976562 -17.28648437 65.68453125 -17.94921875 66.1015625 C-24.97564342 69.51605647 -31.55178027 69.58612867 -39.25 69.5625 C-40.29607422 69.57861328 -41.34214844 69.59472656 -42.41992188 69.61132812 C-49.83103544 69.61598627 -55.28867091 68.62302741 -61.75 64.8125 C-63.65560664 62.90689336 -64.15416612 61.94167603 -64.3125 59.25 C-63.24514504 55.27167696 -61.82338238 53.3778075 -58.3125 51.25 C-56.8275 50.755 -56.8275 50.755 -55.3125 50.25 C-54.39728813 48.24939943 -54.39728813 48.24939943 -53.8125 45.875 C-52.88184358 42.47367237 -52.00553356 40.56900112 -49.3125 38.25 C-49.8075 37.59 -50.3025 36.93 -50.8125 36.25 C-52.69787533 32.47924935 -52.98462751 29.34528856 -52.3125 25.25 C-49.70866358 18.68380382 -45.54478833 15.43201388 -39.3125 12.25 C-31.6664318 9.08711031 -23.33054813 10.46826672 -15.3125 11.25 C-15.50199219 10.15300781 -15.69148438 9.05601562 -15.88671875 7.92578125 C-16.3125 4.25 -16.3125 4.25 -15.125 1.4375 C-10.53697132 -4.09977599 -6.04700843 -3.19464596 0 0 Z M-26.3125 18.25 C-31.06862527 21.85809503 -31.92054595 26.72436423 -33.3125 32.25 C-32.3225 33.24 -31.3325 34.23 -30.3125 35.25 C-25.95740572 30.31422648 -23.92187677 25.89059485 -24.3125 19.25 C-24.9725 18.92 -25.6325 18.59 -26.3125 18.25 Z M-45.3125 56.25 C-44.67270151 58.28241727 -44.67270151 58.28241727 -43.3125 60.25 C-40.17062293 61.47184108 -38.37261697 61.26271705 -35.0625 60.5625 C-34.155 60.129375 -33.2475 59.69625 -32.3125 59.25 C-31.60251508 57.21873931 -31.60251508 57.21873931 -31.3125 55.25 C-33.08163824 55.02773136 -34.85294371 54.82266127 -36.625 54.625 C-38.10419922 54.45097656 -38.10419922 54.45097656 -39.61328125 54.2734375 C-42.53907416 53.99523005 -42.53907416 53.99523005 -45.3125 56.25 Z " fill="#C96CE3" transform="translate(233.3125,208.75)"/>
<path d="M0 0 C2.5 2.0625 2.5 2.0625 4 4 C4.825 3.360625 5.65 2.72125 6.5 2.0625 C10.19712276 -0.37325146 13.58309551 -1.18795338 18 -1 C21.59998014 -0.10000497 23.94572379 0.700037 26.32421875 3.6328125 C30.28717047 10.50192882 29.77546732 17.63528317 27.9375 25.125 C25.69990673 31.77504356 21.41300708 36.8326287 15.4375 40.5 C9.14188116 43.31319976 0.46093305 43.15364435 -6 41 C-6.19601608 42.74906659 -6.38147403 44.49931846 -6.5625 46.25 C-6.66691406 47.22453125 -6.77132813 48.1990625 -6.87890625 49.203125 C-6.99025489 51.77491944 -6.66816416 53.55193634 -6 56 C-7 57 -7 57 -9.50024414 57.11352539 C-10.58426514 57.10828857 -11.66828613 57.10305176 -12.78515625 57.09765625 C-14.53989258 57.09282227 -14.53989258 57.09282227 -16.33007812 57.08789062 C-17.56177734 57.07951172 -18.79347656 57.07113281 -20.0625 57.0625 C-21.91584961 57.05573242 -21.91584961 57.05573242 -23.80664062 57.04882812 C-26.87114117 57.03699608 -29.93554721 57.02051173 -33 57 C-33 53 -33 53 -31.68676758 51.29882812 C-29.20337914 47.91431726 -28.24236411 44.20249917 -27.01171875 40.21875 C-26.74486771 39.36825073 -26.47801666 38.51775146 -26.20307922 37.64147949 C-25.64346847 35.8474166 -25.08815388 34.0520087 -24.53686523 32.25537109 C-23.68892119 29.5046104 -22.8168936 26.76225672 -21.94335938 24.01953125 C-21.40215822 22.27389801 -20.86239511 20.52781815 -20.32421875 18.78125 C-19.92912361 17.55142395 -19.92912361 17.55142395 -19.52604675 16.29675293 C-19.29532974 15.52915649 -19.06461273 14.76156006 -18.8269043 13.97070312 C-18.61833298 13.29881958 -18.40976166 12.62693604 -18.19487 11.93469238 C-17.9420091 9.42425943 -18.81511554 8.18074866 -20 6 C-19.625 3.75 -19.625 3.75 -19 2 C-12.3293097 -0.17042681 -6.89767373 -1.8151773 0 0 Z M4 12 C1.41134932 15.90151936 0.06012525 19.62207669 -1.1875 24.125 C-1.53167969 25.34445313 -1.87585938 26.56390625 -2.23046875 27.8203125 C-3.11761205 30.94072367 -3.11761205 30.94072367 -3 34 C-0.53328994 33.65976413 0.74885917 33.24109519 2.5625 31.5 C5.86256553 25.76075561 7.30503778 19.53264483 8 13 C6.68 12.67 5.36 12.34 4 12 Z " fill="#C96CE3" transform="translate(311,220)"/>
<path d="M0 0 C0.84954254 -0.00570007 1.69908508 -0.01140015 2.57437134 -0.01727295 C4.37150835 -0.02671605 6.16866263 -0.03325419 7.96582031 -0.03710938 C10.70929287 -0.04681391 13.45201577 -0.07784285 16.1953125 -0.109375 C17.94270389 -0.11590551 19.69010063 -0.12115579 21.4375 -0.125 C22.2553598 -0.1373468 23.0732196 -0.1496936 23.91586304 -0.16241455 C28.58416806 -0.14423736 31.49773784 0.26844576 35.3515625 3.203125 C34.9670884 9.04978294 34.41789675 14.12781314 31.3515625 19.203125 C28.3515625 20.328125 28.3515625 20.328125 25.3515625 20.203125 C22.42521789 18.53092808 22.20974391 16.76274095 21.1640625 13.515625 C20.8959375 12.4225 20.6278125 11.329375 20.3515625 10.203125 C17.3815625 10.203125 14.4115625 10.203125 11.3515625 10.203125 C10.0315625 14.163125 8.7115625 18.123125 7.3515625 22.203125 C12.07052995 20.61993836 12.07052995 20.61993836 14.3515625 18.515625 C16.3515625 17.203125 16.3515625 17.203125 19.1015625 17.515625 C19.8440625 17.7425 20.5865625 17.969375 21.3515625 18.203125 C22.91549606 22.17689329 21.71301542 25.01690403 20.4140625 28.953125 C19.84365234 30.70882812 19.84365234 30.70882812 19.26171875 32.5 C18.96136719 33.39203125 18.66101563 34.2840625 18.3515625 35.203125 C14.8865625 35.698125 14.8865625 35.698125 11.3515625 36.203125 C10.9184375 35.378125 10.4853125 34.553125 10.0390625 33.703125 C9.4821875 32.878125 8.9253125 32.053125 8.3515625 31.203125 C7.3615625 31.203125 6.3715625 31.203125 5.3515625 31.203125 C4.0315625 36.153125 2.7115625 41.103125 1.3515625 46.203125 C8.45838634 45.26033778 8.45838634 45.26033778 13.6640625 40.703125 C14.09332031 40.0946875 14.52257812 39.48625 14.96484375 38.859375 C16.59931543 36.90721727 17.98235185 36.10546109 20.3515625 35.203125 C24.87787829 35.72944079 24.87787829 35.72944079 26.3515625 37.203125 C26.29695513 43.6877503 25.07060506 49.48408244 20.3515625 54.203125 C18.45410156 54.48832703 18.45410156 54.48832703 16.1171875 54.5378418 C14.80572754 54.57248787 14.80572754 54.57248787 13.46777344 54.60783386 C12.52192383 54.62252213 11.57607422 54.63721039 10.6015625 54.65234375 C9.1479834 54.68495049 9.1479834 54.68495049 7.66503906 54.71821594 C5.6140264 54.76217359 3.56290693 54.80136407 1.51171875 54.83618164 C-1.63576179 54.89040662 -4.78258324 54.96058143 -7.9296875 55.03320312 C-9.91925175 55.07386144 -11.90883493 55.1136058 -13.8984375 55.15234375 C-14.84428711 55.17310471 -15.79013672 55.19386566 -16.76464844 55.21525574 C-17.63895508 55.22889664 -18.51326172 55.24253754 -19.4140625 55.2565918 C-20.18524414 55.27054489 -20.95642578 55.28449799 -21.75097656 55.2988739 C-23.6484375 55.203125 -23.6484375 55.203125 -25.6484375 54.203125 C-25.28587695 51.0307202 -24.84699519 49.43644304 -22.74902344 46.97119141 C-20.2984532 43.74192998 -19.40245634 40.99239536 -18.2890625 37.1015625 C-17.99790558 36.08589706 -17.99790558 36.08589706 -17.7008667 35.04971313 C-17.2950825 33.6209282 -16.89538167 32.19040299 -16.50146484 30.75830078 C-15.90442565 28.59977445 -15.27989007 26.45060802 -14.65234375 24.30078125 C-12.44853829 16.54443484 -10.98511767 9.32987676 -11.6484375 1.203125 C-7.76138918 -0.09255777 -4.05292397 0.02095664 0 0 Z " fill="#C96CE3" transform="translate(143.6484375,207.796875)"/>
<path d="M0 0 C7.59488466 7.6365385 7.45751752 20.78636432 8 31 C11.33287546 27.83751695 13.13434854 25.61680777 14 21 C13.02248365 19.65009646 12.01800576 18.31963709 11 17 C9.82133542 12.51763325 9.64230503 9.01660676 11.1875 4.625 C13.01117729 1.98381221 14.11396056 0.40179059 17 -1 C20.89336438 -1 22.46943779 -0.50188318 25.3125 2.1875 C28.1781002 6.96350033 28.3174176 11.17044697 27 16.5 C22.69357737 32.03388163 14.46972587 44.87661109 0.5 53.1875 C-7.02075666 57.25464604 -13.49642646 57.73138534 -22 57 C-25.29378641 55.77642794 -27.3925168 54.2149664 -29 51 C-29.57142857 43.91428571 -29.57142857 43.91428571 -27.4375 40.5 C-24.05111671 38.41607182 -21.90614682 38.44197903 -18 39 C-15.1057388 41.05644875 -14.18411875 42.3248979 -13.25 45.75 C-13.12625 46.86375 -13.12625 46.86375 -13 48 C-10.69 47.34 -8.38 46.68 -6 46 C-6 45.34 -6 44.68 -6 44 C-6.8971875 43.9071875 -6.8971875 43.9071875 -7.8125 43.8125 C-10.9394371 42.65106622 -11.49595807 40.92601733 -13 38 C-13.70776367 35.32104492 -13.70776367 35.32104492 -14.16796875 32.48046875 C-14.33876953 31.45888672 -14.50957031 30.43730469 -14.68554688 29.38476562 C-14.85119141 28.32966797 -15.01683594 27.27457031 -15.1875 26.1875 C-15.45336914 24.57584961 -15.45336914 24.57584961 -15.72460938 22.93164062 C-16.15915327 20.28914394 -16.58393549 17.6454583 -17 15 C-18.32 15 -19.64 15 -21 15 C-20.7742115 9.46818182 -19.48806977 6.48709275 -15.66796875 2.44921875 C-10.8417154 -1.74408334 -5.85105306 -1.41557735 0 0 Z " fill="#C96DE2" transform="translate(255,220)"/>
<path d="M0 0 C0.66 0.66 1.32 1.32 2 2 C1.96712417 4.72869407 1.43602229 7.2966618 1 10 C2.98 10 4.96 10 7 10 C7.495 12.475 7.495 12.475 8 15 C4.63824835 18.10315537 2.47353123 18.147075 -2 18 C-2.64881448 20.54093855 -3.29412899 23.08268273 -3.9375 25.625 C-4.11990234 26.33785156 -4.30230469 27.05070312 -4.49023438 27.78515625 C-5.51316799 31.83969313 -6.37957367 35.85947059 -7 40 C-4.36 40.33 -1.72 40.66 1 41 C0.9375 43.1875 0.9375 43.1875 0 46 C-5.01670957 50.65560966 -9.55829438 52.15640679 -16.375 52.25 C-17.49648438 52.27578125 -18.61796875 52.3015625 -19.7734375 52.328125 C-23.35435126 51.96396428 -25.14851793 51.1562444 -28 49 C-30.51408635 45.22887048 -30.33490846 43.48685582 -30 39 C-29.13489738 35.51386795 -27.89881206 32.16378305 -26.68945312 28.78515625 C-25.33917418 24.80658786 -24.59628151 22.02837962 -26 18 C-27.46771271 15.73545927 -27.46771271 15.73545927 -29 14 C-28.26171875 12.05078125 -28.26171875 12.05078125 -27 10 C-25.08203125 9.41796875 -25.08203125 9.41796875 -22.8125 9.1875 C-17.90867589 8.33466102 -15.6980061 6.26507472 -12.5078125 2.55859375 C-9.10874862 -0.95494638 -4.51431484 -0.21496737 0 0 Z " fill="#C96CE3" transform="translate(375,210)"/>
<path d="M0 0 C-3.08809695 1.76462683 -4.23312136 2 -8 2 C-7.51466797 2.69222656 -7.51466797 2.69222656 -7.01953125 3.3984375 C-5.0105855 6.68816743 -3.83169195 8.84635451 -4.40234375 12.7578125 C-5.16593244 15.22803952 -6.00301672 17.61505961 -7 20 C-7.66 20 -8.32 20 -9 20 C-9.99 22.475 -9.99 22.475 -11 25 C-13.4375 24.625 -13.4375 24.625 -16 24 C-16.33 23.34 -16.66 22.68 -17 22 C-15.68 22.33 -14.36 22.66 -13 23 C-9.10640794 18.10160999 -8.2757735 14.2049038 -8 8 C-8.99 8.33 -9.98 8.66 -11 9 C-12.24950052 11.55401848 -12.24950052 11.55401848 -13.1875 14.5625 C-13.70376953 16.08037109 -13.70376953 16.08037109 -14.23046875 17.62890625 C-14.61138672 18.80259766 -14.61138672 18.80259766 -15 20 C-15.66 20 -16.32 20 -17 20 C-16.40042459 16.31689393 -15.73175258 12.65876291 -15 9 C-15 6.97549079 -15.59466775 4.97599474 -16 3 C-19.3 3.33 -22.6 3.66 -26 4 C-17.86526459 -2.10105155 -9.77422321 -1.11791734 0 0 Z " fill="#C46EDC" transform="translate(216,220)"/>
<path d="M0 0 C0.33 0 0.66 0 1 0 C1.33 1.98 1.66 3.96 2 6 C1.34 6 0.68 6 0 6 C0.3403125 7.3921875 0.3403125 7.3921875 0.6875 8.8125 C0.790625 9.864375 0.89375 10.91625 1 12 C0.01 12.99 -0.98 13.98 -2 15 C10.87 15 23.74 15 37 15 C37 14.01 37 13.02 37 12 C37.3062434 10.66018514 37.63451555 9.32488113 38 8 C39.32 8.33 40.64 8.66 42 9 C42.33 8.01 42.66 7.02 43 6 C44 9 44 9 42.6875 12.0625 C41 15 41 15 39 17 C37.10253906 17.28520203 37.10253906 17.28520203 34.765625 17.3347168 C33.45416504 17.36936287 33.45416504 17.36936287 32.11621094 17.40470886 C31.17036133 17.41939713 30.22451172 17.43408539 29.25 17.44921875 C28.28094727 17.47095657 27.31189453 17.4926944 26.31347656 17.51509094 C24.2624639 17.55904859 22.21134443 17.59823907 20.16015625 17.63305664 C17.01267571 17.68728162 13.86585426 17.75745643 10.71875 17.83007812 C8.72918575 17.87073644 6.73960257 17.9104808 4.75 17.94921875 C3.80415039 17.96997971 2.85830078 17.99074066 1.88378906 18.01213074 C1.00948242 18.02577164 0.13517578 18.03941254 -0.765625 18.0534668 C-1.92239746 18.07439644 -1.92239746 18.07439644 -3.10253906 18.0957489 C-5 18 -5 18 -7 17 C-6.63148006 13.77545054 -6.14297389 12.17525832 -4.0625 9.625 C-1.53672036 6.41037137 -0.92857894 3.9464605 0 0 Z " fill="#B66DC9" transform="translate(125,245)"/>
<path d="M0 0 C2.8942612 2.05644875 3.81588125 3.3248979 4.75 6.75 C4.87375 7.86375 4.87375 7.86375 5 9 C6.65 8.67 8.3 8.34 10 8 C9.67 8.99 9.34 9.98 9 11 C7.68 10.67 6.36 10.34 5 10 C5.66 11.98 6.32 13.96 7 16 C10.465 15.505 10.465 15.505 14 15 C14 14.01 14 13.02 14 12 C16.475 12.495 16.475 12.495 19 13 C11.99003124 18.7118264 4.77903509 18.86351165 -4 18 C-7.29101984 16.76732119 -9.39160865 15.2167827 -11 12 C-11.57142857 4.91428571 -11.57142857 4.91428571 -9.4375 1.5 C-6.05111671 -0.58392818 -3.90614682 -0.55802097 0 0 Z M-7 1 C-9.13586678 4.20380017 -9.23132175 5.01939967 -9.125 8.6875 C-9.10695312 9.49574219 -9.08890625 10.30398438 -9.0703125 11.13671875 C-9.04710937 11.75160156 -9.02390625 12.36648438 -9 13 C-7.57086153 13.72505558 -6.13129342 14.42958435 -4.6875 15.125 C-3.88699219 15.51945312 -3.08648437 15.91390625 -2.26171875 16.3203125 C-1.51535156 16.54460937 -0.76898438 16.76890625 0 17 C0.99 16.34 1.98 15.68 3 15 C3.77837147 11.04709389 3.50914203 7.19798126 1.9375 3.5 C-0.86989755 1.32653093 -3.52525065 1.26224523 -7 1 Z " fill="#BB74CD" transform="translate(237,259)"/>
<path d="M0 0 C1.15119069 3.45357208 0.85908953 6.01128919 0.1875 9.5625 C0.01605469 10.51253906 -0.15539062 11.46257812 -0.33203125 12.44140625 C-1 15 -1 15 -3 18 C3.93 18 10.86 18 18 18 C18 17.34 18 16.68 18 16 C17.01 15.67 16.02 15.34 15 15 C14.75 12.6875 14.75 12.6875 15 10 C17 8.1875 17 8.1875 19 7 C18.979375 8.2375 18.95875 9.475 18.9375 10.75 C18.9270909 13.69057162 19.20463391 16.15940684 20 19 C19 20 19 20 16.49975586 20.11352539 C15.41573486 20.10828857 14.33171387 20.10305176 13.21484375 20.09765625 C12.04501953 20.09443359 10.87519531 20.09121094 9.66992188 20.08789062 C8.43822266 20.07951172 7.20652344 20.07113281 5.9375 20.0625 C4.08415039 20.05573242 4.08415039 20.05573242 2.19335938 20.04882812 C-0.87114117 20.03699608 -3.93554721 20.02051173 -7 20 C-7 15.49351545 -6.54969936 15.33469033 -4 12 C-3.20282104 9.94173191 -2.47607764 7.85514287 -1.8125 5.75 C-1.46832031 4.67234375 -1.12414062 3.5946875 -0.76953125 2.484375 C-0.51558594 1.66453125 -0.26164062 0.8446875 0 0 Z " fill="#C172D6" transform="translate(285,257)"/>
<path d="M0 0 C0.33 0.66 0.66 1.32 1 2 C-0.175625 2.5259375 -0.175625 2.5259375 -1.375 3.0625 C-4.83547272 5.61665844 -5.14536744 7.88222494 -6 12 C-5.01 12 -4.02 12 -3 12 C-2 13 -1 14 0 15 C4.82987888 17.67899842 9.82705171 17.26019701 15.1875 17.1875 C16.55938477 17.1865332 16.55938477 17.1865332 17.95898438 17.18554688 C22.6357108 17.32127853 22.6357108 17.32127853 27 16 C29.3329866 15.95977609 31.66706666 15.95679753 34 16 C29.47402772 20.52597228 22.23656026 19.22128748 16.25 19.25 C15.19039062 19.270625 14.13078125 19.29125 13.0390625 19.3125 C5.54485081 19.34969212 0.09757374 18.41651785 -6.4375 14.5625 C-8.34310664 12.65689336 -8.84166612 11.69167603 -9 9 C-7.93264504 5.02167696 -6.51088238 3.1278075 -3 1 C-2.01 0.67 -1.02 0.34 0 0 Z " fill="#BA74CD" transform="translate(178,259)"/>
<path d="M0 0 C2.375 1 2.375 1 3.875 3.0625 C4.59005294 7.26343602 3.12451263 10.2093893 1.375 14 C0.715 14 0.055 14 -0.625 14 C-1.285 15.65 -1.945 17.3 -2.625 19 C-5.0625 18.625 -5.0625 18.625 -7.625 18 C-7.955 17.34 -8.285 16.68 -8.625 16 C-7.305 16.33 -5.985 16.66 -4.625 17 C-0.73140794 12.10160999 0.0992265 8.2049038 0.375 2 C-0.615 2.33 -1.605 2.66 -2.625 3 C-3.87450052 5.55401848 -3.87450052 5.55401848 -4.8125 8.5625 C-5.15667969 9.57441406 -5.50085938 10.58632812 -5.85546875 11.62890625 C-6.10941406 12.41136719 -6.36335937 13.19382813 -6.625 14 C-7.285 14 -7.945 14 -8.625 14 C-8.29921616 11.99875639 -7.96444795 9.99897128 -7.625 8 C-7.521875 7.113125 -7.41875 6.22625 -7.3125 5.3125 C-6.625 3 -6.625 3 -4.875 1.125 C-2.625 0 -2.625 0 0 0 Z " fill="#BB73CF" transform="translate(207.625,226)"/>
<path d="M0 0 C3.125 -0.1875 3.125 -0.1875 6 0 C6 0.66 6 1.32 6 2 C5.34 2 4.68 2 4 2 C3.34 4.97 2.68 7.94 2 11 C2.99 11.33 3.98 11.66 5 12 C3.68 12.99 2.36 13.98 1 15 C0.34 14.67 -0.32 14.34 -1 14 C-1.484375 11.6015625 -1.484375 11.6015625 -1.75 8.625 C-1.84796875 7.64789063 -1.9459375 6.67078125 -2.046875 5.6640625 C-2 3 -2 3 0 0 Z " fill="#CC6AE7" transform="translate(184,229)"/>
<path d="M0 0 C3.42154736 5.13232103 3.14383738 9.01507313 2 15 C1.38001259 17.01495907 0.72045764 19.0187415 0 21 C-0.34342449 22.33076989 -0.67619874 23.66431979 -1 25 C-1.66152556 27.3347961 -2.32741333 29.66836622 -3 32 C-3.66 32 -4.32 32 -5 32 C-5.33 32.66 -5.66 33.32 -6 34 C-4.9836638 28.19618539 -3.61285857 22.63263381 -1.875 17 C-0.1527907 11.17000258 0.50180961 6.04959358 0 0 Z " fill="#B973CC" transform="translate(132,210)"/>
<path d="M0 0 C4.52205979 0.53200703 7.4836455 2.12298268 11 5 C12.22600107 8.35106958 12.13764556 9.58706332 11 13 C8.59454362 14.20272819 7.05003047 14.10071472 4.375 14.0625 C3.14910156 14.04896484 3.14910156 14.04896484 1.8984375 14.03515625 C0.95871094 14.01775391 0.95871094 14.01775391 0 14 C0 15.32 0 16.64 0 18 C-0.66 18 -1.32 18 -2 18 C-2.33 16.02 -2.66 14.04 -3 12 C1.29 12 5.58 12 10 12 C10 10.02 10 8.04 10 6 C7.66785852 4.79371992 5.50357861 3.8345262 3 3 C2.67 4.32 2.34 5.64 2 7 C1.67 7 1.34 7 1 7 C0.67 4.69 0.34 2.38 0 0 Z " fill="#BA77D1" transform="translate(225,206)"/>
<path d="M0 0 C1.00000429 4.00001715 0.80688405 6.05523353 0 10 C2.64 10.33 5.28 10.66 8 11 C7.9375 13.1875 7.9375 13.1875 7 16 C4.8282781 17.93157957 2.47398953 19.48201687 0 21 C-0.66 20.67 -1.32 20.34 -2 20 C-1.67 19.01 -1.34 18.02 -1 17 C-0.34 17 0.32 17 1 17 C1.33 16.34 1.66 15.68 2 15 C3.32 15 4.64 15 6 15 C6 14.01 6 13.02 6 12 C5.0925 12.2475 4.185 12.495 3.25 12.75 C0 13 0 13 -2.375 11.0625 C-2.91125 10.381875 -3.4475 9.70125 -4 9 C-2.68 6.03 -1.36 3.06 0 0 Z " fill="#B576C6" transform="translate(368,240)"/>
<path d="M0 0 C1.963557 2.9453355 2.36749605 4.18825217 2.8515625 7.5625 C2.98046875 8.44164062 3.109375 9.32078125 3.2421875 10.2265625 C3.36851562 11.14179688 3.49484375 12.05703125 3.625 13 C3.7590625 13.91523438 3.893125 14.83046875 4.03125 15.7734375 C5 22.51514668 5 22.51514668 5 26 C6.65 24.68 8.3 23.36 10 22 C10 23.65 10 25.3 10 27 C8.35 27.66 6.7 28.32 5 29 C5 28.34 5 27.68 5 27 C4.34 27 3.68 27 3 27 C2.92652344 25.87464844 2.92652344 25.87464844 2.8515625 24.7265625 C2.41703882 18.77808322 1.74986455 13.06693394 0.40234375 7.25390625 C-0.0364535 4.7957896 -0.06592228 2.49186209 0 0 Z " fill="#BC75CF" transform="translate(258,225)"/>
<path d="M0 0 C0.99 0.33 1.98 0.66 3 1 C-0.95110067 6.79494764 -5.11052807 9.49589948 -12 11 C-17.33093802 11.42997665 -22.66380842 11.23834106 -28 11 C-27.67 12.32 -27.34 13.64 -27 15 C-27.99 14.67 -28.98 14.34 -30 14 C-29.67 12.68 -29.34 11.36 -29 10 C-27.9378125 9.96261719 -26.875625 9.92523438 -25.78125 9.88671875 C-15.04058479 9.51596574 -15.04058479 9.51596574 -5 6 C-4.34 5.01 -3.68 4.02 -3 3 C-2.01 3 -1.02 3 0 3 C0 2.01 0 1.02 0 0 Z " fill="#B776C9" transform="translate(223,240)"/>
<path d="M0 0 C0.87785156 0.00515625 1.75570312 0.0103125 2.66015625 0.015625 C3.53542969 0.01046875 4.41070312 0.0053125 5.3125 0 C7.72265625 0.265625 7.72265625 0.265625 10.72265625 2.265625 C11.453125 4.6484375 11.453125 4.6484375 11.91015625 7.390625 C12.06871094 8.30070313 12.22726563 9.21078125 12.390625 10.1484375 C12.50019531 10.84710938 12.60976562 11.54578125 12.72265625 12.265625 C12.06265625 12.265625 11.40265625 12.265625 10.72265625 12.265625 C9.73265625 9.295625 8.74265625 6.325625 7.72265625 3.265625 C4.75265625 3.265625 1.78265625 3.265625 -1.27734375 3.265625 C-1.93734375 5.245625 -2.59734375 7.225625 -3.27734375 9.265625 C-3.60734375 9.265625 -3.93734375 9.265625 -4.27734375 9.265625 C-4.40234375 5.890625 -4.40234375 5.890625 -4.27734375 2.265625 C-2.27734375 0.265625 -2.27734375 0.265625 0 0 Z " fill="#B875CC" transform="translate(156.27734375,214.734375)"/>
<path d="M0 0 C1.98 0 3.96 0 6 0 C6.33 1.65 6.66 3.3 7 5 C4.64031256 7.09749995 3.45383006 7.96905704 0.25 8.1875 C-0.4925 8.125625 -1.235 8.06375 -2 8 C-1.34 5.36 -0.68 2.72 0 0 Z " fill="#C670DB" transform="translate(376,220)"/>
<path d="M0 0 C0.66 0.66 1.32 1.32 2 2 C1.625 5.625 1.625 5.625 1 9 C0.67 9 0.34 9 0 9 C0 7.02 0 5.04 0 3 C-0.99 3.33 -1.98 3.66 -3 4 C-3.33 3.01 -3.66 2.02 -4 1 C-8.67239145 3.13206212 -12.59287819 5.02502456 -16 9 C-16.66 8.67 -17.32 8.34 -18 8 C-16.90220176 6.84806377 -15.79650554 5.70365063 -14.6875 4.5625 C-14.07261719 3.92441406 -13.45773437 3.28632813 -12.82421875 2.62890625 C-9.00232769 -0.78378876 -4.82648169 -0.22983246 0 0 Z " fill="#BB77CC" transform="translate(375,210)"/>
<path d="M0 0 C1.65 0.33 3.3 0.66 5 1 C5.1875 3.375 5.1875 3.375 5 6 C1.66602694 8.22264871 0.40485109 8.29675463 -3.5 8.3125 C-4.4590625 8.32925781 -5.418125 8.34601563 -6.40625 8.36328125 C-9 8 -9 8 -10.86328125 6.6171875 C-12 5 -12 5 -11.6875 2.8125 C-11.460625 2.214375 -11.23375 1.61625 -11 1 C-10.6596875 1.9590625 -10.6596875 1.9590625 -10.3125 2.9375 C-9.16372903 5.19177559 -9.16372903 5.19177559 -6.75 5.875 C-3.35971781 6.02910374 -1.08174713 5.40079415 2 4 C2.33 3.01 2.66 2.02 3 1 C2.01 0.67 1.02 0.34 0 0 Z " fill="#B871CD" transform="translate(199,263)"/>
<path d="M0 0 C0.99053728 2.97161185 1 4.91471992 1 8 C1.185625 8.7425 1.37125 9.485 1.5625 10.25 C1.7790625 11.11625 1.7790625 11.11625 2 12 C1 13 1 13 -2.81640625 13.09765625 C-4.39846682 13.09098089 -5.98051159 13.07901875 -7.5625 13.0625 C-8.36880859 13.05798828 -9.17511719 13.05347656 -10.00585938 13.04882812 C-12.00393756 13.03700518 -14.00197783 13.01906914 -16 13 C-16 12.67 -16 12.34 -16 12 C-10.72 12 -5.44 12 0 12 C0 11.01 0 10.02 0 9 C-0.99 8.67 -1.98 8.34 -3 8 C-3.36923077 3.44615385 -3.36923077 3.44615385 -1.5 1.1875 C-1.005 0.795625 -0.51 0.40375 0 0 Z " fill="#B478C1" transform="translate(303,264)"/>
<path d="M0 0 C2 1 4 2 6 3 C9.2366963 3.70758326 9.2366963 3.70758326 12 4 C12 4.99 12 5.98 12 7 C9.69 7.33 7.38 7.66 5 8 C4.5875 7.175 4.175 6.35 3.75 5.5 C3.1725 4.675 2.595 3.85 2 3 C0.68 3 -0.64 3 -2 3 C-2 2.34 -2 1.68 -2 1 C-1.34 0.67 -0.68 0.34 0 0 Z " fill="#BD70D3" transform="translate(150,236)"/>
<path d="M0 0 C0.12375 0.61875 0.2475 1.2375 0.375 1.875 C0.87197356 4.19120832 0.87197356 4.19120832 3 6 C2.38125 6.515625 1.7625 7.03125 1.125 7.5625 C-1.52526109 10.60250537 -2.02535563 13.10142254 -3 17 C-3.9467009 19.68938416 -4.97318961 22.33962764 -6 25 C-7.18878413 21.43364762 -6.72013686 20.39620485 -5.56640625 16.89453125 C-5.24736328 15.91162109 -4.92832031 14.92871094 -4.59960938 13.91601562 C-4.25736328 12.89185547 -3.91511719 11.86769531 -3.5625 10.8125 C-3.22412109 9.77673828 -2.88574219 8.74097656 -2.53710938 7.67382812 C-1.69929252 5.1131766 -0.85331644 2.5555198 0 0 Z " fill="#B978CD" transform="translate(293,231)"/>
<path d="M0 0 C0.99 1.485 0.99 1.485 2 3 C1.67 3.66 1.34 4.32 1 5 C1.66 5 2.32 5 3 5 C3.33 4.34 3.66 3.68 4 3 C5.0625 4.875 5.0625 4.875 6 7 C5.67 7.66 5.34 8.32 5 9 C5.66 9 6.32 9 7 9 C7 9.99 7 10.98 7 12 C4.41851492 11.64393309 3.17954253 11.16671807 1.25 9.375 C-0.43754802 6.16865877 -0.20576047 3.56651486 0 0 Z " fill="#BA72CD" transform="translate(345,249)"/>
<path d="M0 0 C0.33 0 0.66 0 1 0 C1.03738281 0.75925781 1.07476562 1.51851562 1.11328125 2.30078125 C1.17902344 3.29464844 1.24476563 4.28851563 1.3125 5.3125 C1.37050781 6.29863281 1.42851562 7.28476563 1.48828125 8.30078125 C2.06024383 11.31777469 2.80678953 11.99750348 5 14 C4.6875 16.6875 4.6875 16.6875 4 19 C2.35 19 0.7 19 -1 19 C-0.01 17.68 0.98 16.36 2 15 C1.505 14.34 1.01 13.68 0.5 13 C-1.50517029 8.98965941 -1.29224382 6.45671818 -1 2 C-0.67 1.34 -0.34 0.68 0 0 Z " fill="#B379D1" transform="translate(182,232)"/>
<path d="M0 0 C0.33 0 0.66 0 1 0 C1.33 1.98 1.66 3.96 2 6 C1.34 6 0.68 6 0 6 C0.3403125 7.3921875 0.3403125 7.3921875 0.6875 8.8125 C1 12 1 12 -0.25 13.875 C-2 15 -2 15 -5 15 C-4.70351562 14.45859375 -4.40703125 13.9171875 -4.1015625 13.359375 C-2.85906483 10.69813886 -2.11876874 8.08984426 -1.375 5.25 C-1.11460938 4.26515625 -0.85421875 3.2803125 -0.5859375 2.265625 C-0.39257812 1.51796875 -0.19921875 0.7703125 0 0 Z " fill="#C36FD6" transform="translate(125,245)"/>
<path d="M0 0 C1 3 1 3 -0.4375 6.1875 C-1.2109375 7.5796875 -1.2109375 7.5796875 -2 9 C-2.99 8.67 -3.98 8.34 -5 8 C-5.33 6.02 -5.66 4.04 -6 2 C-3.525 2.495 -3.525 2.495 -1 3 C-0.67 2.01 -0.34 1.02 0 0 Z " fill="#BF6FD3" transform="translate(168,251)"/>
<path d="M0 0 C0.66 0 1.32 0 2 0 C0.90301833 5.69139902 -0.54053077 10.74567937 -3 16 C-3.33 15.01 -3.66 14.02 -4 13 C-4.66 12.67 -5.32 12.34 -6 12 C-5.54625 11.649375 -5.0925 11.29875 -4.625 10.9375 C-2.35246528 8.22793938 -1.86336896 5.39180663 -1 2 C-0.67 1.34 -0.34 0.68 0 0 Z " fill="#BB73CF" transform="translate(280,234)"/>
<path d="M0 0 C-0.33 0.99 -0.66 1.98 -1 3 C-4.96 3 -8.92 3 -13 3 C-12.67 2.34 -12.34 1.68 -12 1 C-4.35711773 -1.38056989 -4.35711773 -1.38056989 0 0 Z " fill="#BD73CE" transform="translate(307,220)"/>
<path d="M0 0 C0.66 0.33 1.32 0.66 2 1 C-3.96583144 8.66742597 -3.96583144 8.66742597 -9 10 C-9.33 9.34 -9.66 8.68 -10 8 C-9.21625 7.938125 -8.4325 7.87625 -7.625 7.8125 C-6.75875 7.544375 -5.8925 7.27625 -5 7 C-3.83046584 4.57616923 -3.83046584 4.57616923 -3 2 C-2.01 1.34 -1.02 0.68 0 0 Z " fill="#B774C9" transform="translate(334,250)"/>
<path d="M0 0 C2 2 2 2 2 6 C-4.4 6.49230769 -4.4 6.49230769 -7.4375 4 C-7.953125 3.34 -8.46875 2.68 -9 2 C-8.13375 2.2784375 -8.13375 2.2784375 -7.25 2.5625 C-4.75807903 3.04704019 -3.36040848 2.89532735 -1 2 C-0.67 1.34 -0.34 0.68 0 0 Z " fill="#CD6CE8" transform="translate(160,234)"/>
<path d="M0 0 C1.09889948 4.39559793 1.0851259 7.63167266 0 12 C-1.5625 14 -1.5625 14 -3 15 C-3.66 14.67 -4.32 14.34 -5 14 C-3.35 9.38 -1.7 4.76 0 0 Z " fill="#B772CD" transform="translate(285,257)"/>
<path d="M0 0 C1.65 0 3.3 0 5 0 C5 3 5 3 3 6 C2.34 6 1.68 6 1 6 C1 5.34 1 4.68 1 4 C0.34 3.67 -0.32 3.34 -1 3 C-0.67 2.01 -0.34 1.02 0 0 Z " fill="#CA6DE7" transform="translate(159,227)"/>
<path d="M0 0 C0.66 0 1.32 0 2 0 C1.6875 2.375 1.6875 2.375 1 5 C-2.22791555 7.1519437 -3.28400809 7.20086443 -7 7 C-7 6.34 -7 5.68 -7 5 C-5.02 5 -3.04 5 -1 5 C-0.67 3.35 -0.34 1.7 0 0 Z " fill="#BA7CCD" transform="translate(381,221)"/>
<path d="M0 0 C0.66 0.33 1.32 0.66 2 1 C-0.66666667 3.66666667 -3.33333333 6.33333333 -6 9 C-6.66 8.67 -7.32 8.34 -8 8 C-7.04578192 6.85073734 -6.08647955 5.70569459 -5.125 4.5625 C-4.59132812 3.92441406 -4.05765625 3.28632813 -3.5078125 2.62890625 C-2 1 -2 1 0 0 Z " fill="#B870D2" transform="translate(162,244)"/>
<path d="M0 0 C1.32 0.33 2.64 0.66 4 1 C3.979375 1.94875 3.95875 2.8975 3.9375 3.875 C3.77448174 6.90666283 3.77448174 6.90666283 5 9 C2 8 2 8 0.8125 6.1875 C0 4 0 4 0 0 Z " fill="#C272D7" transform="translate(242,254)"/>
<path d="M0 0 C1.98 0 3.96 0 6 0 C5.67 0.66 5.34 1.32 5 2 C4.01 2.33 3.02 2.66 2 3 C1.67 3.66 1.34 4.32 1 5 C0.01 4.67 -0.98 4.34 -2 4 C-1.34 2.68 -0.68 1.36 0 0 Z " fill="#B676C9" transform="translate(348,220)"/>
<path d="M0 0 C1.15941038 3.47823115 0.70820884 5.45895578 0 9 C-0.99 8.67 -1.98 8.34 -3 8 C-3.36923077 3.44615385 -3.36923077 3.44615385 -1.5 1.1875 C-1.005 0.795625 -0.51 0.40375 0 0 Z " fill="#BA71CF" transform="translate(303,264)"/>
<path d="M0 0 C7.50769231 0.49230769 7.50769231 0.49230769 10 3.0625 C10.33 3.701875 10.66 4.34125 11 5 C9.53932801 4.54917531 8.08151968 4.08906463 6.625 3.625 C5.81289062 3.36976563 5.00078125 3.11453125 4.1640625 2.8515625 C2 2 2 2 0 0 Z " fill="#B478C3" transform="translate(247,219)"/>
<path d="M0 0 C2.4375 0.375 2.4375 0.375 5 1 C5.33 1.66 5.66 2.32 6 3 C5.01 3 4.02 3 3 3 C2.67 4.32 2.34 5.64 2 7 C1.67 7 1.34 7 1 7 C0.67 4.69 0.34 2.38 0 0 Z " fill="#C37ADD" transform="translate(225,206)"/>
<path d="M0 0 C1 2 2 4 3 6 C0.03 5.505 0.03 5.505 -3 5 C-3 3.68 -3 2.36 -3 1 C-2.01 0.67 -1.02 0.34 0 0 Z " fill="#C06FDC" transform="translate(251,262)"/>
<path d="M0 0 C1.32 0.33 2.64 0.66 4 1 C2.35 2.65 0.7 4.3 -1 6 C-1.66 5.67 -2.32 5.34 -3 5 C-2.67 4.01 -2.34 3.02 -2 2 C-1.34 2 -0.68 2 0 2 C0 1.34 0 0.68 0 0 Z " fill="#BF6FD3" transform="translate(369,255)"/>
<path d="M0 0 C0.33 0.99 0.66 1.98 1 3 C2.98 2.01 4.96 1.02 7 0 C7 1.65 7 3.3 7 5 C4.69 4.67 2.38 4.34 0 4 C0 2.68 0 1.36 0 0 Z " fill="#BC70D0" transform="translate(307,251)"/>
<path d="M0 0 C0.66 0 1.32 0 2 0 C1.67 2.97 1.34 5.94 1 9 C-1 5 -1 5 -2 2 C-1.34 2 -0.68 2 0 2 C0 1.34 0 0.68 0 0 Z " fill="#BE70D3" transform="translate(162,231)"/>
<path d="M0 0 C0.33 0.66 0.66 1.32 1 2 C2.32 1.67 3.64 1.34 5 1 C5.33 2.65 5.66 4.3 6 6 C5.01 5.67 4.02 5.34 3 5 C3 4.34 3 3.68 3 3 C1.35 3.33 -0.3 3.66 -2 4 C-1.34 2.68 -0.68 1.36 0 0 Z " fill="#CE66EA" transform="translate(173,211)"/>
<path d="M0 0 C2.97 0.495 2.97 0.495 6 1 C5.67 2.32 5.34 3.64 5 5 C4.34 5 3.68 5 3 5 C1.375 2.5 1.375 2.5 0 0 Z " fill="#C56FD9" transform="translate(196,255)"/>
<path d="M0 0 C1.25541557 3.76624671 0.37061958 5.37188934 -1 9 C-1.66 8.67 -2.32 8.34 -3 8 C-1.125 1.125 -1.125 1.125 0 0 Z " fill="#BE75CF" transform="translate(310,241)"/>
</svg>
