<?xml version="1.0" encoding="UTF-8"?>
<svg version="1.1" xmlns="http://www.w3.org/2000/svg" width="500" height="500">
<path d="M0 0 C0.82830322 -0.0033284 1.65660645 -0.0066568 2.51000977 -0.01008606 C4.25829514 -0.01514028 6.00659013 -0.01749485 7.75488281 -0.01733398 C10.42789562 -0.01952338 13.1004975 -0.03770279 15.7734375 -0.05664062 C17.47395692 -0.05957428 19.17447831 -0.06155926 20.875 -0.0625 C21.67301025 -0.06968552 22.47102051 -0.07687103 23.29321289 -0.08427429 C30.44745383 -0.05483119 30.44745383 -0.05483119 33.4375 2.16796875 C34.84904704 6.03640662 34.27228012 8.95770489 33.1875 12.85546875 C32.80851562 14.28439453 32.80851562 14.28439453 32.421875 15.7421875 C31.4375 18.16796875 31.4375 18.16796875 28.4375 20.16796875 C25.75 20.29296875 25.75 20.29296875 23.4375 20.16796875 C21.66492965 16.7769646 20.37161993 13.90444845 19.4375 10.16796875 C16.1375 9.83796875 12.8375 9.50796875 9.4375 9.16796875 C8.7775 13.45796875 8.1175 17.74796875 7.4375 22.16796875 C9.9125 20.68296875 9.9125 20.68296875 12.4375 19.16796875 C14.42201771 18.45653787 16.41952112 17.77805539 18.4375 17.16796875 C19.4275 18.15796875 20.4175 19.14796875 21.4375 20.16796875 C20.82054511 22.46208255 20.19437956 24.75296553 19.5625 27.04296875 C19.38847656 27.69394531 19.21445313 28.34492188 19.03515625 29.015625 C17.6640625 33.94140625 17.6640625 33.94140625 15.4375 36.16796875 C12.8125 36.29296875 12.8125 36.29296875 10.4375 36.16796875 C9.7775 34.51796875 9.1175 32.86796875 8.4375 31.16796875 C7.1175 31.16796875 5.7975 31.16796875 4.4375 31.16796875 C2.7875 36.11796875 1.1375 41.06796875 -0.5625 46.16796875 C6.02649022 45.65081413 6.02649022 45.65081413 11.37890625 42.25390625 C12.48788656 40.79756552 13.59598214 39.34055059 14.703125 37.8828125 C16.82132992 35.78846124 17.87461211 35.61067777 20.8125 35.60546875 C24.4375 36.16796875 24.4375 36.16796875 25.4375 37.16796875 C25.04960327 42.79247128 24.16026685 47.20864341 21.4375 52.16796875 C16.95864767 55.88511886 12.58628751 55.57512959 7.05078125 55.49609375 C6.15256149 55.49422058 5.25434174 55.49234741 4.3289032 55.49041748 C2.4369229 55.48371282 0.54495608 55.46982992 -1.34692383 55.44921875 C-4.25029306 55.4179656 -7.15311957 55.40823573 -10.05664062 55.40234375 C-11.89583999 55.39317722 -13.73503381 55.38280257 -15.57421875 55.37109375 C-16.44503586 55.36684387 -17.31585297 55.36259399 -18.21305847 55.35821533 C-24.32804926 55.28519412 -24.32804926 55.28519412 -26.5625 54.16796875 C-25.93314664 49.51075385 -25.93314664 49.51075385 -24.12695312 47.84033203 C-22.05191571 45.62216625 -21.62016748 43.64971142 -20.84375 40.72265625 C-20.55113281 39.645 -20.25851563 38.56734375 -19.95703125 37.45703125 C-19.66183594 36.33039063 -19.36664063 35.20375 -19.0625 34.04296875 C-18.47087051 31.83146287 -17.87715409 29.62051414 -17.28125 27.41015625 C-16.99612549 26.34498779 -16.71100098 25.27981934 -16.41723633 24.18237305 C-15.65429251 21.49169401 -14.79139163 18.87642218 -13.85546875 16.2421875 C-12.66330047 12.77103707 -12.23445033 9.80661018 -12.375 6.10546875 C-12.40207031 5.16574219 -12.42914063 4.22601563 -12.45703125 3.2578125 C-12.49183594 2.56816406 -12.52664062 1.87851563 -12.5625 1.16796875 C-8.38035372 -0.00018127 -4.31436269 0.00601637 0 0 Z " fill="#39B6FD" transform="translate(109.5625,207.83203125)"/>
<path d="M0 0 C1.21816406 -0.0299707 1.21816406 -0.0299707 2.4609375 -0.06054688 C8.31939505 -0.0558526 12.72121535 1.18097574 17.625 4.4375 C21.05195468 8.07863935 21.0596691 11.80218816 20.9296875 16.58984375 C20.38602043 21.67103984 19.03936183 26.53774653 17.625 31.4375 C18.615 31.1075 19.605 30.7775 20.625 30.4375 C21.375 32.0625 21.375 32.0625 21.625 34.4375 C19.70519229 38.71343535 17.66555612 40.76730082 13.375 42.4375 C8.46074389 43.81381555 5.3769686 43.2094205 0.625 41.4375 C-1.875 39.8125 -1.875 39.8125 -3.375 38.4375 C-4.2 39.076875 -5.025 39.71625 -5.875 40.375 C-10.18563205 43.20827928 -14.53546271 44.01150307 -19.55859375 42.99609375 C-22.89046149 41.92622796 -24.95926756 40.87921572 -27.375 38.3125 C-29.11556178 33.30838489 -29.11238077 28.64964232 -27.4375 23.625 C-23.06577527 18.98832225 -18.31419187 17.40807419 -12.00390625 17.19140625 C-7.78846566 17.14778001 -3.58663242 17.26342564 0.625 17.4375 C0.99772228 16.1488923 1.35722932 14.85645603 1.7109375 13.5625 C1.91251465 12.84320313 2.1140918 12.12390625 2.32177734 11.3828125 C2.87319738 9.30821218 2.87319738 9.30821218 1.25 7.4375 C0.71375 7.1075 0.1775 6.7775 -0.375 6.4375 C-0.395625 7.530625 -0.41625 8.62375 -0.4375 9.75 C-1.375 13.4375 -1.375 13.4375 -4.4375 15.5 C-8.07818581 16.7035325 -11.05879718 16.51332657 -14.6953125 15.3671875 C-16.375 14.4375 -16.375 14.4375 -18.0625 11.625 C-18.375 8.4375 -18.375 8.4375 -17.375 5.75 C-12.5514869 0.17281298 -6.88654398 -0.05955345 0 0 Z M-4.375 24.4375 C-5.695 25.4275 -7.015 26.4175 -8.375 27.4375 C-8.045 29.0875 -7.715 30.7375 -7.375 32.4375 C-5.34258273 31.79770151 -5.34258273 31.79770151 -3.375 30.4375 C-2.56328772 27.88230079 -2.56328772 27.88230079 -2.375 25.4375 C-3.035 25.1075 -3.695 24.7775 -4.375 24.4375 Z " fill="#3BB5FA" transform="translate(389.375,219.5625)"/>
<path d="M0 0 C2.67498395 2.76722477 3.82059027 5.14269089 4 9 C2.72437442 13.84737719 1.875131 15.37731063 -2.25 18.3125 C-8.39611369 21.00431295 -15.38313461 21.34520603 -22 22 C-21.67 22.99 -21.34 23.98 -21 25 C-14.50448709 26.20287276 -9.39014027 25.58444052 -3 24 C-2.51761606 28.05202513 -2.81095269 29.70783598 -5.0625 33.1875 C-9.53405918 37.97219358 -15.32076907 39.49533227 -21.671875 39.9921875 C-28.59929589 40.01543388 -33.39800671 38.30861347 -38.58984375 33.73046875 C-42.25129852 29.23732619 -42.4397075 24.48348197 -42.3046875 18.91015625 C-41.57701174 11.9599198 -39.23513183 6.73261589 -34.0625 2 C-24.9895782 -5.13111566 -9.82862275 -6.80443114 0 0 Z M-18 5 C-21.19560041 9.06573561 -21.19560041 9.06573561 -22 14 C-18.83884224 12.63016497 -18.0072908 12.0109362 -16 9 C-16 7.68 -16 6.36 -16 5 C-16.66 5 -17.32 5 -18 5 Z " fill="#3CB5F9" transform="translate(356,223)"/>
<path d="M0 0 C0.474375 0.474375 0.94875 0.94875 1.4375 1.4375 C1.97375 0.963125 2.51 0.48875 3.0625 0 C6.0214959 -1.94670783 7.89256508 -2.42348294 11.4375 -2.5625 C15.78736291 -1.1125457 17.8700645 -0.41365325 20.4375 3.4375 C21.27321542 8.13510034 21.06525298 11.47625324 18.4375 15.5 C14.25645862 18.20025589 12.35633328 18.21826719 7.4375 17.4375 C4.9375 15.0625 4.9375 15.0625 3.4375 12.4375 C3.4375 11.7775 3.4375 11.1175 3.4375 10.4375 C2.4475 10.4375 1.4575 10.4375 0.4375 10.4375 C0.25574219 11.17613281 0.07398438 11.91476563 -0.11328125 12.67578125 C-1.83487517 19.62395775 -3.64804151 26.54001836 -5.5625 33.4375 C-5.06492187 33.88867188 -4.56734375 34.33984375 -4.0546875 34.8046875 C-3.31605469 35.61292969 -3.31605469 35.61292969 -2.5625 36.4375 C-2.6875 38.5625 -2.6875 38.5625 -3.5625 40.4375 C-6.38381331 41.37793777 -8.13325934 41.56614329 -11.0546875 41.5703125 C-12.35986328 41.57224609 -12.35986328 41.57224609 -13.69140625 41.57421875 C-14.59761719 41.57035156 -15.50382812 41.56648438 -16.4375 41.5625 C-17.33597656 41.56636719 -18.23445313 41.57023437 -19.16015625 41.57421875 C-23.41614451 41.56793221 -27.41639036 41.53040756 -31.5625 40.4375 C-31.17784074 37.66795336 -30.85583219 35.8209181 -29.13793945 33.57543945 C-26.30217477 29.72718417 -25.20608223 25.13501536 -23.75 20.625 C-23.41291016 19.65240234 -23.07582031 18.67980469 -22.72851562 17.67773438 C-20.8178214 11.78609476 -20.09503388 8.20027917 -22.5625 2.4375 C-16.32600295 -3.0506174 -7.1775548 -4.3765578 0 0 Z " fill="#3CB5F9" transform="translate(291.5625,221.5625)"/>
<path d="M0 0 C0.7734375 0.7115625 0.7734375 0.7115625 1.5625 1.4375 C2.09875 0.963125 2.635 0.48875 3.1875 0 C6.1464959 -1.94670783 8.01756508 -2.42348294 11.5625 -2.5625 C15.91236291 -1.1125457 17.9950645 -0.41365325 20.5625 3.4375 C21.39821542 8.13510034 21.19025298 11.47625324 18.5625 15.5 C14.38145862 18.20025589 12.48133328 18.21826719 7.5625 17.4375 C5.0625 15.0625 5.0625 15.0625 3.5625 12.4375 C3.5625 11.7775 3.5625 11.1175 3.5625 10.4375 C2.5725 10.4375 1.5825 10.4375 0.5625 10.4375 C0.315 11.654375 0.0675 12.87125 -0.1875 14.125 C-1.33863697 19.41014711 -3.01576169 24.49124343 -4.73046875 29.6171875 C-5.71890391 32.48899688 -5.71890391 32.48899688 -4.4375 35.4375 C-3.7775 35.7675 -3.1175 36.0975 -2.4375 36.4375 C-2.75 38.375 -2.75 38.375 -3.4375 40.4375 C-6.39663412 41.42387804 -8.35148898 41.5663877 -11.4375 41.5703125 C-12.406875 41.57160156 -13.37625 41.57289063 -14.375 41.57421875 C-15.8909375 41.56841797 -15.8909375 41.56841797 -17.4375 41.5625 C-18.448125 41.56636719 -19.45875 41.57023437 -20.5 41.57421875 C-21.469375 41.57292969 -22.43875 41.57164062 -23.4375 41.5703125 C-24.7678125 41.56862061 -24.7678125 41.56862061 -26.125 41.56689453 C-28.4375 41.4375 -28.4375 41.4375 -31.4375 40.4375 C-31.05334969 37.67161774 -30.73825879 35.82727515 -29.01293945 33.59130859 C-26.09239383 29.59858373 -25.06144613 24.7477036 -23.625 20.0625 C-23.28791016 19.03382813 -22.95082031 18.00515625 -22.60351562 16.9453125 C-20.28072987 9.63786125 -20.28072987 9.63786125 -22.4375 2.4375 C-16.71418299 -3.03697714 -6.66506193 -4.2724756 0 0 Z " fill="#3BB5FA" transform="translate(170.4375,221.5625)"/>
<path d="M0 0 C2.76223278 2.76223278 2.57856291 5.20706617 3 9 C5.475 9.99 5.475 9.99 8 11 C7.6875 13.375 7.6875 13.375 7 16 C4.08235 17.9451 2.37462715 18.45276317 -1 19 C-1.8175507 21.54013909 -2.62915186 24.08193231 -3.4375 26.625 C-3.66759766 27.33785156 -3.89769531 28.05070312 -4.13476562 28.78515625 C-5.41873606 32.84175851 -6.41945974 36.76939625 -7 41 C-4.36 41 -1.72 41 1 41 C0.72524783 44.29702607 0.27233527 45.71941215 -2.0625 48.125 C-8.34375359 52.1343108 -13.25599414 53.56541082 -20.7265625 52.51953125 C-23.60543124 51.86164544 -25.70169502 50.85347176 -28 49 C-31.35748378 42.28503245 -28.05787039 34.59755178 -25.90234375 28.03125 C-24.8048417 24.34440329 -24.42302386 21.79155749 -25 18 C-25.98020375 16.9805881 -26.97803008 15.97753644 -28 15 C-27.6875 12.3125 -27.6875 12.3125 -27 10 C-25.2365625 9.9690625 -25.2365625 9.9690625 -23.4375 9.9375 C-18.72215489 9.38668093 -16.65413777 7.19498056 -13.640625 3.69140625 C-9.53511029 -0.54118391 -5.58583594 -0.36037651 0 0 Z " fill="#3AB5FB" transform="translate(256,210)"/>
<path d="M0 0 C2.42073443 1.31966459 3.64976952 2.15656331 4.71166992 4.71386719 C5.11582489 7.91836096 4.25113107 10.23291395 3.27734375 13.3046875 C2.90416016 14.52800781 2.53097656 15.75132812 2.14648438 17.01171875 C1.54462837 18.94462604 0.93733059 20.87553101 0.32202148 22.80419922 C-0.27046993 24.67464609 -0.84057359 26.55213772 -1.41015625 28.4296875 C-1.76215088 29.54585449 -2.11414551 30.66202148 -2.47680664 31.81201172 C-3.08327934 35.50744825 -2.44765817 37.59030367 -1 41 C-5.90512814 43.59622891 -10.72783594 43.26106249 -16.125 43.1875 C-17.03121094 43.18685547 -17.93742188 43.18621094 -18.87109375 43.18554688 C-25.57748724 43.14083759 -25.57748724 43.14083759 -29 42 C-28.37171524 37.35069279 -28.37171524 37.35069279 -26.57543945 35.65600586 C-23.30741063 32.22085329 -22.52910686 27.01184528 -21.1875 22.5625 C-20.68186523 20.98758789 -20.68186523 20.98758789 -20.16601562 19.38085938 C-19.85728516 18.36958984 -19.54855469 17.35832031 -19.23046875 16.31640625 C-18.94582764 15.39287354 -18.66118652 14.46934082 -18.36791992 13.51782227 C-17.9360897 10.56263639 -18.49605439 9.50907634 -20 7 C-20 4.9375 -20 4.9375 -19 3 C-13.66401309 -1.15021204 -6.44914064 -0.84988675 0 0 Z " fill="#3AB5FC" transform="translate(218,220)"/>
<path d="M0 0 C3.96 0 7.92 0 12 0 C12.91145833 2.79947917 13.82291667 5.59895833 14.734375 8.3984375 C16.1449349 11.29792173 17.01316544 11.95837282 20 13 C18.35 13 16.7 13 15 13 C13.22742965 9.60899585 11.93411993 6.7364797 11 3 C7.7 2.67 4.4 2.34 1 2 C0.34 6.29 -0.32 10.58 -1 15 C0.65 14.01 2.3 13.02 4 12 C5.98451771 11.28856912 7.98202112 10.61008664 10 10 C10.99 10.99 11.98 11.98 13 13 C12.38304511 15.2941138 11.75687956 17.58499678 11.125 19.875 C10.95097656 20.52597656 10.77695313 21.17695313 10.59765625 21.84765625 C9.2265625 26.7734375 9.2265625 26.7734375 7 29 C4.375 29.125 4.375 29.125 2 29 C1.34 27.35 0.68 25.7 0 24 C-1.32 24 -2.64 24 -4 24 C-4.66 24.66 -5.32 25.32 -6 26 C-5.25 21.25 -5.25 21.25 -3 19 C0.125 18.875 0.125 18.875 3 19 C3 18.34 3 17.68 3 17 C2.05125 17.04125 1.1025 17.0825 0.125 17.125 C-3 17 -3 17 -5 15 C-4.54625 13.824375 -4.0925 12.64875 -3.625 11.4375 C-2.20671892 7.66661997 -1.05286822 3.88751343 0 0 Z " fill="#4CB2EE" transform="translate(118,215)"/>
<path d="M0 0 C3.80484394 0.71340824 5.4511805 1.6388541 8 4.5625 C8.79720496 8.94712729 8.51613309 10.80442952 6 14.5 C1.88387501 17.32983593 -0.07775886 17.19762789 -5 16.5625 C-7 15.5625 -7 15.5625 -8 13.5625 C-8.64003318 8.60224283 -8.78789129 6.67481711 -5.875 2.5625 C-3 0.5625 -3 0.5625 0 0 Z " fill="#42B3F3" transform="translate(218,201.4375)"/>
<path d="M0 0 C2.97 0.66 5.94 1.32 9 2 C5.46939899 4.35373401 2.41404244 4.65778415 -1.6875 5.125 C-2.38939453 5.21136719 -3.09128906 5.29773438 -3.81445312 5.38671875 C-5.54211145 5.59826875 -7.2709566 5.800086 -9 6 C-8.67 6.99 -8.34 7.98 -8 9 C-1.50448709 10.20287276 3.60985973 9.58444052 10 8 C10.48238394 12.05202513 10.18904731 13.70783598 7.9375 17.1875 C3.4597757 21.97879043 -2.30135583 23.44790534 -8.64453125 24.015625 C-12.574163 23.98955779 -16.23825147 23.07605573 -20 22 C-16.45049966 20.83693557 -13.44176052 21.07634951 -9.75 21.4375 C-8.67234375 21.53933594 -7.5946875 21.64117187 -6.484375 21.74609375 C-5.66453125 21.82988281 -4.8446875 21.91367187 -4 22 C-4 21.01 -4 20.02 -4 19 C-3.360625 18.87625 -2.72125 18.7525 -2.0625 18.625 C-1.381875 18.41875 -0.70125 18.2125 0 18 C0.33 17.34 0.66 16.68 1 16 C2.97888961 15.27306096 4.97954558 14.60183749 7 14 C7 13.34 7 12.68 7 12 C5.96359375 12.02320313 4.9271875 12.04640625 3.859375 12.0703125 C2.48959056 12.08907667 1.1197983 12.10727618 -0.25 12.125 C-0.93191406 12.14175781 -1.61382812 12.15851563 -2.31640625 12.17578125 C-6.0608235 12.21213482 -8.82352727 12.07944349 -12 10 C-11.67 7.69 -11.34 5.38 -11 3 C-7.7 3 -4.4 3 -1 3 C-0.67 2.01 -0.34 1.02 0 0 Z " fill="#50B0EA" transform="translate(343,239)"/>
<path d="M0 0 C0.33 0 0.66 0 1 0 C1 2.64 1 5.28 1 8 C0.34 8 -0.32 8 -1 8 C-1 10.31 -1 12.62 -1 15 C-1.66 15 -2.32 15 -3 15 C-3.103125 15.556875 -3.20625 16.11375 -3.3125 16.6875 C-4 19 -4 19 -7 24 C7.52 23.67 22.04 23.34 37 23 C37.495 21.515 37.495 21.515 38 20 C38.96989861 17.65314689 39.98902044 15.32964856 41 13 C42 16 42 16 40.875 19.5 C38.78200696 23.40692035 37.98248472 24.25416357 34 26 C30.86579361 26.40602876 27.76956733 26.37319038 24.61328125 26.328125 C23.71506149 26.32625183 22.81684174 26.32437866 21.8914032 26.32244873 C19.9994229 26.31574407 18.10745608 26.30186117 16.21557617 26.28125 C13.31220694 26.24999685 10.40938043 26.24026698 7.50585938 26.234375 C5.66666001 26.22520847 3.82746619 26.21483382 1.98828125 26.203125 C1.11746414 26.19887512 0.24664703 26.19462524 -0.65055847 26.19024658 C-6.76554926 26.11722537 -6.76554926 26.11722537 -9 25 C-8.37343489 20.3634182 -8.37343489 20.3634182 -6.54370117 18.58276367 C-4.7540931 16.74787056 -4.2954564 15.44042436 -3.61328125 12.98828125 C-3.2894043 11.85229492 -3.2894043 11.85229492 -2.95898438 10.69335938 C-2.74564453 9.90767578 -2.53230469 9.12199219 -2.3125 8.3125 C-2.08755859 7.51521484 -1.86261719 6.71792969 -1.63085938 5.89648438 C-1.07839099 3.93345841 -0.53801131 1.96703739 0 0 Z " fill="#54AEE1" transform="translate(92,237)"/>
<path d="M0 0 C1.3186509 3.9559527 0.17470036 6.06129881 -1 10 C-1 11.32 -1 12.64 -1 14 C-0.34 14 0.32 14 1 14 C0.41070989 17.03063487 -0.25044562 20.0017825 -1 23 C5.27 23 11.54 23 18 23 C18 22.34 18 21.68 18 21 C16.68 20.67 15.36 20.34 14 20 C14.33 19.34 14.66 18.68 15 18 C16.65 18.66 18.3 19.32 20 20 C19.6875 21.9375 19.6875 21.9375 19 24 C16.17868669 24.94043777 14.42924066 25.12864329 11.5078125 25.1328125 C10.20263672 25.13474609 10.20263672 25.13474609 8.87109375 25.13671875 C7.96488281 25.13285156 7.05867188 25.12898438 6.125 25.125 C5.22652344 25.12886719 4.32804687 25.13273437 3.40234375 25.13671875 C-0.85364451 25.13043221 -4.85389036 25.09290756 -9 24 C-8.62558558 21.30421617 -8.36763082 19.45118328 -6.625 17.3125 C-4.44043044 14.20368948 -3.43521772 10.83862644 -2.3125 7.25 C-2.08755859 6.55261719 -1.86261719 5.85523438 -1.63085938 5.13671875 C-1.08036634 3.42667656 -0.53923763 1.71362471 0 0 Z " fill="#43B5F0" transform="translate(269,238)"/>
<path d="M0 0 C1.58294782 -0.05437607 3.16644256 -0.09296271 4.75 -0.125 C5.63171875 -0.14820313 6.5134375 -0.17140625 7.421875 -0.1953125 C10.1135858 0.00860498 11.69904974 0.63448279 14 2 C13.34 2 12.68 2 12 2 C12.33 2.515625 12.66 3.03125 13 3.5625 C15.10572341 8.69520082 14.14559607 14.68860004 13 20 C12.01 20.66 11.02 21.32 10 22 C9.525625 21.030625 9.05125 20.06125 8.5625 19.0625 C7.29806053 16.19522563 7.29806053 16.19522563 6 15 C5.95919217 13.00041636 5.95745644 10.99954746 6 9 C6.66 9 7.32 9 8 9 C8.33 7.68 8.66 6.36 9 5 C8.01 4.67 7.02 4.34 6 4 C6.33 3.67 6.66 3.34 7 3 C4.69 2.67 2.38 2.34 0 2 C0 1.34 0 0.68 0 0 Z M11 7 C9.68 7.99 8.36 8.98 7 10 C7.33 11.65 7.66 13.3 8 15 C10.03241727 14.36020151 10.03241727 14.36020151 12 13 C12.81171228 10.44480079 12.81171228 10.44480079 13 8 C12.34 7.67 11.68 7.34 11 7 Z " fill="#4AB1EA" transform="translate(374,237)"/>
<path d="M0 0 C-1.09570312 0.17015625 -2.19140625 0.3403125 -3.3203125 0.515625 C-7.30638609 1.65141164 -7.30638609 1.65141164 -8.7421875 5.484375 C-9.14984133 6.89792789 -9.52663529 8.32068007 -9.875 9.75 C-10.07351562 10.45382813 -10.27203125 11.15765625 -10.4765625 11.8828125 C-11.57813559 15.88717955 -12.39231687 19.88844183 -13 24 C-10.36 24 -7.72 24 -5 24 C-5.35049575 27.24208567 -5.56221181 28.61527704 -8.0625 30.8125 C-9.0215625 31.4003125 -9.0215625 31.4003125 -10 32 C-10 30.68 -10 29.36 -10 28 C-9.01 28 -8.02 28 -7 28 C-7 27.01 -7 26.02 -7 25 C-8.7015625 25.0309375 -8.7015625 25.0309375 -10.4375 25.0625 C-14 25 -14 25 -15 24 C-15.47851836 19.21481642 -14.32005729 15.60275246 -12.7265625 11.1796875 C-11.88262192 8.83672668 -11.88262192 8.83672668 -11.4375 5.625 C-11 3 -11 3 -9 0 C-5.66131116 -1.05432279 -3.31481265 -1.10493755 0 0 Z " fill="#56AEE3" transform="translate(262,227)"/>
<path d="M0 0 C4.41661151 -0.05804281 8.83312496 -0.09361104 13.25 -0.125 C14.50425781 -0.14175781 15.75851563 -0.15851563 17.05078125 -0.17578125 C18.25605469 -0.18222656 19.46132812 -0.18867188 20.703125 -0.1953125 C21.81333008 -0.20578613 22.92353516 -0.21625977 24.06738281 -0.22705078 C26.9672998 -0.00253173 28.61069311 0.37372415 31 2 C32.46983122 5.95828967 31.75514897 8.85290542 30.5625 12.8125 C30.13130859 14.27623047 30.13130859 14.27623047 29.69140625 15.76953125 C29.46324219 16.50558594 29.23507813 17.24164063 29 18 C28.01 18 27.02 18 26 18 C26.33 16.68 26.66 15.36 27 14 C27.66 14 28.32 14 29 14 C28.67 10.37 28.34 6.74 28 3 C24.5750464 2.1437616 21.84918455 1.81353347 18.359375 1.68359375 C17.28945312 1.64169922 16.21953125 1.59980469 15.1171875 1.55664062 C14.00601563 1.51732422 12.89484375 1.47800781 11.75 1.4375 C10.06003906 1.37272461 10.06003906 1.37272461 8.3359375 1.30664062 C5.55741046 1.20067985 2.77879609 1.09860858 0 1 C0 0.67 0 0.34 0 0 Z " fill="#4FA9E0" transform="translate(112,208)"/>
<path d="M0 0 C1 1 1 1 1.0625 3.5625 C1.041875 4.366875 1.02125 5.17125 1 6 C0.34 4.68 -0.32 3.36 -1 2 C-2.98 2 -4.96 2 -7 2 C-7.66 3.32 -8.32 4.64 -9 6 C-7.68 6 -6.36 6 -5 6 C-4.67 7.65 -4.34 9.3 -4 11 C-8.44209357 11.10834375 -12.61414671 10.70173653 -17 10 C-16.06409496 8.8944811 -15.12620142 7.79064547 -14.1875 6.6875 C-13.66542969 6.07261719 -13.14335938 5.45773438 -12.60546875 4.82421875 C-12.07566406 4.22222656 -11.54585938 3.62023437 -11 3 C-10.52433594 2.43410156 -10.04867187 1.86820313 -9.55859375 1.28515625 C-6.68436605 -1.08482097 -3.57757111 -0.23081104 0 0 Z " fill="#48B0EF" transform="translate(134,244)"/>
<path d="M0 0 C0 0.66 0 1.32 0 2 C-0.99 2.495 -0.99 2.495 -2 3 C-2.65213292 5.02463255 -2.65213292 5.02463255 -3 7 C-2.34 7.33 -1.68 7.66 -1 8 C-1.33 8.99 -1.66 9.98 -2 11 C-3.32 11 -4.64 11 -6 11 C-4.92289822 15.30840713 -3.96052484 18.63576723 -1 22 C-3.85278483 21.70488433 -4.83578823 21.18767059 -6.75 19 C-8.45270461 14.91350893 -8.59469584 11.3690321 -8 7 C-6.36268344 3.33552961 -4.47023191 0 0 0 Z " fill="#49B4EA" transform="translate(369,239)"/>
<path d="M0 0 C0.66 0 1.32 0 2 0 C4.68689048 4.03033572 4.78752505 7.26655998 4 12 C1.99100519 15.07627331 0.65032178 16.64039681 -3.0078125 17.4375 C-5.125 17.5625 -5.125 17.5625 -9 17 C-11 15 -11 15 -12 13 C-10.68 12.67 -9.36 12.34 -8 12 C-8 12.99 -8 13.98 -8 15 C-5.69 15 -3.38 15 -1 15 C-1 14.34 -1 13.68 -1 13 C-0.01 13 0.98 13 2 13 C2 9.7 2 6.4 2 3 C1.01 3.33 0.02 3.66 -1 4 C-0.67 2.68 -0.34 1.36 0 0 Z " fill="#53AEE8" transform="translate(187,222)"/>
<path d="M0 0 C1.76923828 0.01353516 1.76923828 0.01353516 3.57421875 0.02734375 C4.47785156 0.03894531 5.38148438 0.05054688 6.3125 0.0625 C6.3125 0.3925 6.3125 0.7225 6.3125 1.0625 C0.3725 1.5575 0.3725 1.5575 -5.6875 2.0625 C-7.0075 5.6925 -8.3275 9.3225 -9.6875 13.0625 C-10.3475 13.0625 -11.0075 13.0625 -11.6875 13.0625 C-11.831875 12.32 -11.97625 11.5775 -12.125 10.8125 C-12.58937492 8.54222261 -13.10613569 6.30490521 -13.6875 4.0625 C-9.07131153 0.40138501 -5.84702603 -0.05789135 0 0 Z " fill="#4AB2ED" transform="translate(211.6875,219.9375)"/>
<path d="M0 0 C1.10844919 3.32534757 0.84454356 5.62182575 0 9 C0.99 9.66 1.98 10.32 3 11 C2.6875 12.9375 2.6875 12.9375 2 15 C-0.94131891 15.98043964 -2.82501665 16.11621202 -5.88671875 16.09765625 C-6.82451172 16.09443359 -7.76230469 16.09121094 -8.72851562 16.08789062 C-9.70498047 16.07951172 -10.68144531 16.07113281 -11.6875 16.0625 C-12.67556641 16.05798828 -13.66363281 16.05347656 -14.68164062 16.04882812 C-17.12115474 16.03704303 -19.56054689 16.02059011 -22 16 C-22 15.67 -22 15.34 -22 15 C-14.41 14.67 -6.82 14.34 1 14 C1 13.34 1 12.68 1 12 C0.01 12 -0.98 12 -2 12 C-2.17835515 7.45194365 -1.99785435 4.1205746 0 0 Z " fill="#54AADD" transform="translate(165,247)"/>
<path d="M0 0 C1.65 0.66 3.3 1.32 5 2 C4.6875 3.9375 4.6875 3.9375 4 6 C1.17588235 6.94137255 -0.52918032 7.11725382 -3.44921875 7.09765625 C-4.29677734 7.09443359 -5.14433594 7.09121094 -6.01757812 7.08789062 C-6.89865234 7.07951172 -7.77972656 7.07113281 -8.6875 7.0625 C-9.58017578 7.05798828 -10.47285156 7.05347656 -11.39257812 7.04882812 C-13.59511987 7.03704983 -15.79752599 7.02060164 -18 7 C-16 5 -16 5 -14.02880859 4.77294922 C-13.24328613 4.78342285 -12.45776367 4.79389648 -11.6484375 4.8046875 C-10.37226563 4.81435547 -10.37226563 4.81435547 -9.0703125 4.82421875 C-7.73613281 4.84935547 -7.73613281 4.84935547 -6.375 4.875 C-5.02921875 4.88853516 -5.02921875 4.88853516 -3.65625 4.90234375 C-1.43723414 4.9259503 0.78125077 4.9588769 3 5 C3 4.34 3 3.68 3 3 C1.68 2.67 0.36 2.34 -1 2 C-0.67 1.34 -0.34 0.68 0 0 Z " fill="#54ACDF" transform="translate(284,256)"/>
<path d="M0 0 C0.66 0.33 1.32 0.66 2 1 C1.71076468 4.37441212 1.02445309 5.96813689 -1.0625 8.6875 C-4.6018125 11.47376729 -7.54983743 12.5334507 -12 13 C-15 12.625 -15 12.625 -17 12 C-17 11.67 -17 11.34 -17 11 C-16.32453125 10.93941406 -15.6490625 10.87882812 -14.953125 10.81640625 C-14.06109375 10.73261719 -13.1690625 10.64882813 -12.25 10.5625 C-11.36828125 10.48128906 -10.4865625 10.40007812 -9.578125 10.31640625 C-7.30649548 10.03761535 -5.20148177 9.61209423 -3 9 C-3 8.01 -3 7.02 -3 6 C-3.66 6 -4.32 6 -5 6 C-5 5.34 -5 4.68 -5 4 C-4.01 3.67 -3.02 3.34 -2 3 C-2 2.34 -2 1.68 -2 1 C-1.34 0.67 -0.68 0.34 0 0 Z " fill="#50AFE4" transform="translate(409,250)"/>
<path d="M0 0 C0.66 0 1.32 0 2 0 C2.5745952 3.73486879 3 7.21293268 3 11 C0.0751367 11.84191782 -2.50741656 12.11819313 -5.546875 12.09765625 C-6.39121094 12.09443359 -7.23554688 12.09121094 -8.10546875 12.08789062 C-8.97816406 12.07951172 -9.85085937 12.07113281 -10.75 12.0625 C-12.08224609 12.05573242 -12.08224609 12.05573242 -13.44140625 12.04882812 C-15.62767329 12.037074 -17.81380179 12.02064249 -20 12 C-20 11.67 -20 11.34 -20 11 C-9.605 10.505 -9.605 10.505 1 10 C0.67 9.01 0.34 8.02 0 7 C-0.03954234 4.66700175 -0.04401732 2.33291811 0 0 Z " fill="#59A9D8" transform="translate(213,251)"/>
<path d="M0 0 C0 1.32 0 2.64 0 4 C-0.66 4 -1.32 4 -2 4 C-2 5.98 -2 7.96 -2 10 C-3.32 10 -4.64 10 -6 10 C-6 8.68 -6 7.36 -6 6 C-6.66 6 -7.32 6 -8 6 C-6.72879117 2.18637351 -4.19078006 0 0 0 Z " fill="#36B6FD" transform="translate(127,233)"/>
<path d="M0 0 C0.33 0 0.66 0 1 0 C1 2.31 1 4.62 1 7 C0.34 7 -0.32 7 -1 7 C-1.16894443 8.74978157 -1.33506309 10.49983612 -1.5 12.25 C-1.5928125 13.22453125 -1.685625 14.1990625 -1.78125 15.203125 C-1.95800168 17.46302153 -2 19.73320193 -2 22 C-3.32 22 -4.64 22 -6 22 C-4.47536437 14.50387484 -2.31993846 7.28640866 0 0 Z " fill="#57AEE2" transform="translate(150,231)"/>
<path d="M0 0 C0.33 0.66 0.66 1.32 1 2 C0.67 2.66 0.34 3.32 0 4 C-2.31 4 -4.62 4 -7 4 C-6.50243908 6.75641416 -6.50243908 6.75641416 -5 9 C-4.95907063 11.33297433 -4.95758277 13.66705225 -5 16 C-5.33 16 -5.66 16 -6 16 C-6.28875 14.88625 -6.5775 13.7725 -6.875 12.625 C-7.69241329 8.99708908 -7.69241329 8.99708908 -10 7 C-9.625 4.375 -9.625 4.375 -9 2 C-6.94921875 1.77213542 -4.8984375 1.54427083 -2.84765625 1.31640625 C-0.98859771 1.18113386 -0.98859771 1.18113386 0 0 Z " fill="#53AFE9" transform="translate(238,218)"/>
<path d="M0 0 C-3.10968897 2.9801186 -5.88921162 3.52803828 -10 4.08203125 C-12.42187436 3.98269656 -13.92050611 3.20220741 -16 2 C-10.20377279 -0.32637691 -6.13909603 -1.43680971 0 0 Z " fill="#4CB1E8" transform="translate(384,259)"/>
<path d="M0 0 C1.18771723 3.42943519 0.80226223 5.37784675 -0.4375 8.75 C-0.72496094 9.54921875 -1.01242188 10.3484375 -1.30859375 11.171875 C-1.53675781 11.77515625 -1.76492187 12.3784375 -2 13 C-2.66 13 -3.32 13 -4 13 C-3.67 10.69 -3.34 8.38 -3 6 C-3.66 6 -4.32 6 -5 6 C-5 5.01 -5 4.02 -5 3 C-4.34 3 -3.68 3 -3 3 C-3 2.34 -3 1.68 -3 1 C-2.01 0.67 -1.02 0.34 0 0 Z " fill="#48B1ED" transform="translate(111,241)"/>
<path d="M0 0 C3.3 0 6.6 0 10 0 C7.37473699 2.62526301 5.63845591 3.15535845 2 4 C-1.36663038 3.87437946 -4.66795778 3.48729471 -8 3 C-8 2.67 -8 2.34 -8 2 C-5.36 2 -2.72 2 0 2 C0 1.34 0 0.68 0 0 Z " fill="#4FB6ED" transform="translate(241,259)"/>
<path d="M0 0 C0.84755859 0.00322266 1.69511719 0.00644531 2.56835938 0.00976562 C3.8899707 0.02233398 3.8899707 0.02233398 5.23828125 0.03515625 C6.57729492 0.04192383 6.57729492 0.04192383 7.94335938 0.04882812 C10.14590112 0.06060642 12.34830724 0.07705461 14.55078125 0.09765625 C14.55078125 0.42765625 14.55078125 0.75765625 14.55078125 1.09765625 C12.68873047 1.15373047 12.68873047 1.15373047 10.7890625 1.2109375 C9.14710614 1.27661575 7.50518038 1.34306245 5.86328125 1.41015625 C4.63834961 1.44399414 4.63834961 1.44399414 3.38867188 1.47851562 C-1.48522769 1.69557188 -4.30293892 2.35141896 -8.44921875 5.09765625 C-9.43921875 4.76765625 -10.42921875 4.43765625 -11.44921875 4.09765625 C-7.63782258 1.07482481 -4.85791529 -0.03260346 0 0 Z " fill="#54AEE2" transform="translate(384.44921875,219.90234375)"/>
<path d="M0 0 C1.85625 0.0309375 1.85625 0.0309375 3.75 0.0625 C3.75 0.3925 3.75 0.7225 3.75 1.0625 C1.44 1.0625 -0.87 1.0625 -3.25 1.0625 C-3.25 1.7225 -3.25 2.3825 -3.25 3.0625 C-4.24 3.0625 -5.23 3.0625 -6.25 3.0625 C-6.25 6.3625 -6.25 9.6625 -6.25 13.0625 C-7.24 13.5575 -7.24 13.5575 -8.25 14.0625 C-8.25 9.7725 -8.25 5.4825 -8.25 1.0625 C-5.12110801 0.280277 -3.1099909 -0.05183318 0 0 Z " fill="#4FABD8" transform="translate(105.25,207.9375)"/>
<path d="M0 0 C1.56393356 3.97376829 0.36145292 6.81377903 -0.9375 10.75 C-1.31777344 11.92046875 -1.69804687 13.0909375 -2.08984375 14.296875 C-2.39019531 15.18890625 -2.69054687 16.0809375 -3 17 C-3.33 17 -3.66 17 -4 17 C-4 14.03 -4 11.06 -4 8 C-3.34 8 -2.68 8 -2 8 C-1.855625 7.236875 -1.71125 6.47375 -1.5625 5.6875 C-1 3 -1 3 0 0 Z " fill="#4FB0E6" transform="translate(221,227)"/>
<path d="M0 0 C0.99 0 1.98 0 3 0 C2.71517632 1.41805831 2.42181856 2.83440379 2.125 4.25 C1.88136719 5.43335938 1.88136719 5.43335938 1.6328125 6.640625 C1.00849925 8.96831144 0.15161458 10.89031952 -1 13 C-1.33 13 -1.66 13 -2 13 C-2 11.02 -2 9.04 -2 7 C-1.34 7 -0.68 7 0 7 C-0.185625 6.030625 -0.37125 5.06125 -0.5625 4.0625 C-0.706875 3.051875 -0.85125 2.04125 -1 1 C-0.67 0.67 -0.34 0.34 0 0 Z " fill="#4EAEEA" transform="translate(127,230)"/>
<path d="M0 0 C1 3 1 3 -0.125 6.5 C-2.08364817 10.15614325 -3.30265167 11.30121834 -7 13 C-7.99 12.34 -8.98 11.68 -10 11 C-8.02 10.67 -6.04 10.34 -4 10 C-3.67 9.01 -3.34 8.02 -3 7 C-2.03010139 4.65314689 -1.01097956 2.32964856 0 0 Z " fill="#51AEE8" transform="translate(133,250)"/>
<path d="M0 0 C0.33 0 0.66 0 1 0 C1.33 2.31 1.66 4.62 2 7 C4.475 7.99 4.475 7.99 7 9 C6.67 10.65 6.34 12.3 6 14 C5.34 12.68 4.68 11.36 4 10 C2.35 10.33 0.7 10.66 -1 11 C-0.67 7.37 -0.34 3.74 0 0 Z " fill="#52B0E9" transform="translate(257,212)"/>
<path d="M0 0 C1.46534385 3.80989402 0.55203911 6.3241179 -1 10 C-1.99 10.495 -1.99 10.495 -3 11 C-3.33 11.99 -3.66 12.98 -4 14 C-4.66 14 -5.32 14 -6 14 C-5.47692667 10.12925735 -4.69586272 8.69586272 -2 6 C-0.79950593 2.89992799 -0.79950593 2.89992799 0 0 Z " fill="#56ACE3" transform="translate(195,248)"/>
<path d="M0 0 C1.1446875 0.2475 1.1446875 0.2475 2.3125 0.5 C5.03596236 1.09145396 5.03596236 1.09145396 8 1 C8.66 1.66 9.32 2.32 10 3 C3.375 4.25 3.375 4.25 0 2 C0 1.34 0 0.68 0 0 Z " fill="#46B1F1" transform="translate(387,257)"/>
<path d="M0 0 C2 3 2 3 2 7 C0.68 7 -0.64 7 -2 7 C-1.125 1.125 -1.125 1.125 0 0 Z " fill="#4BB1EF" transform="translate(146,246)"/>
<path d="M0 0 C3 2 3 2 3.6875 4.125 C3.790625 4.74375 3.89375 5.3625 4 6 C3.34 6 2.68 6 2 6 C1.67 6.99 1.34 7.98 1 9 C-0.61949011 6.42786866 -1.04408751 5.32330841 -0.625 2.25 C-0.41875 1.5075 -0.2125 0.765 0 0 Z " fill="#41B5EF" transform="translate(219,221)"/>
<path d="M0 0 C0 0.66 0 1.32 0 2 C-0.99 2.495 -0.99 2.495 -2 3 C-2.33 3.99 -2.66 4.98 -3 6 C-5.0625 6.6875 -5.0625 6.6875 -7 7 C-4.60526316 0 -4.60526316 0 0 0 Z " fill="#4FB1E5" transform="translate(369,239)"/>
<path d="M0 0 C0.33 0 0.66 0 1 0 C1.36629408 4.27343092 0.40814077 6.48812804 -2 10 C-2.6875 8.375 -2.6875 8.375 -3 6 C-1.5625 2.75 -1.5625 2.75 0 0 Z " fill="#5BB4E2" transform="translate(318,229)"/>
<path d="M0 0 C0.66 0 1.32 0 2 0 C1.67 2.31 1.34 4.62 1 7 C0.01 7.33 -0.98 7.66 -2 8 C-2 7.01 -2 6.02 -2 5 C-1.34 5 -0.68 5 0 5 C0 3.35 0 1.7 0 0 Z " fill="#58ADE8" transform="translate(387,226)"/>
</svg>
