<?xml version="1.0" encoding="UTF-8"?>
<svg version="1.1" xmlns="http://www.w3.org/2000/svg" width="500" height="500">
<path d="M0 0 C0.845625 -0.01417969 1.69125 -0.02835938 2.5625 -0.04296875 C5.18683965 0.20516593 6.76761827 0.8125894 9 2.1875 C11.23109231 4.94980477 10.98295894 6.45163644 10.75 10.0625 C10.20285686 13.58267391 9.25268201 16.84701464 8 20.1875 C8.99 19.5275 9.98 18.8675 11 18.1875 C16.15881272 17.10327495 21.34843548 16.31447486 26 19.1875 C29.22983255 21.52015684 29.91733476 22.8017289 30.76171875 26.7421875 C31.2935274 31.73483882 30.03930901 35.95245701 28.5625 40.6875 C28.31951172 41.50992188 28.07652344 42.33234375 27.82617188 43.1796875 C27.23115611 45.18640735 26.61749569 47.18758316 26 49.1875 C26.99 49.5175 27.98 49.8475 29 50.1875 C28.875 52.9375 28.875 52.9375 28 56.1875 C22.79498028 60.3741463 18.64131758 61.73187029 12 61.1875 C7.48043187 59.83326117 4.69428264 58.35290301 2.25 54.25 C1.15068542 48.47859845 4.08588626 42.52997498 6 37.1875 C6.67010801 35.18865041 7.33784969 33.18899979 8 31.1875 C6.02780309 31.35276082 6.02780309 31.35276082 4 32.1875 C2.95421182 34.08939676 2.95421182 34.08939676 2.4375 36.5 C2.20417969 37.39203125 1.97085938 38.2840625 1.73046875 39.203125 C1.48941406 40.18796875 1.24835938 41.1728125 1 42.1875 C0.70738281 43.27546875 0.41476563 44.3634375 0.11328125 45.484375 C-1.04498764 49.81267916 -1.04498764 49.81267916 -2 54.1875 C-1.505 54.6825 -1.505 54.6825 -1 55.1875 C-0.95936168 56.85367115 -0.957279 58.52138095 -1 60.1875 C-4.9886832 62.1818416 -10.05234082 61.37235036 -14.4375 61.375 C-16.03174805 61.39336914 -16.03174805 61.39336914 -17.65820312 61.41210938 C-18.67720703 61.41404297 -19.69621094 61.41597656 -20.74609375 61.41796875 C-21.68122803 61.42207764 -22.6163623 61.42618652 -23.57983398 61.43041992 C-26 61.1875 -26 61.1875 -29 59.1875 C-27.84826645 56.71949953 -26.95216435 55.13966435 -25 53.1875 C-23.97333741 50.31929517 -23.0331033 47.46967012 -22.14453125 44.55859375 C-21.74568977 43.26309349 -21.74568977 43.26309349 -21.33879089 41.94142151 C-20.77804817 40.10908673 -20.22096214 38.27562957 -19.66723633 36.44116211 C-18.82165255 33.65515557 -17.95143914 30.8776436 -17.08007812 28.09960938 C-16.53751762 26.31557326 -15.9964547 24.53108089 -15.45703125 22.74609375 C-15.19565872 21.92386826 -14.93428619 21.10164276 -14.66499329 20.25450134 C-12.96519577 14.48580322 -13.00581802 10.12399571 -14 4.1875 C-9.19582135 1.11816364 -5.67864138 0.04328233 0 0 Z " fill="#80D756" transform="translate(165,201.8125)"/>
<path d="M0 0 C2.625 2.0625 2.625 2.0625 4 4 C4.825 3.360625 5.65 2.72125 6.5 2.0625 C10.16768192 -0.3595541 13.60916017 -1.21954199 18 -1 C23.36336752 0.8565503 26.47249444 3.94498889 29 9 C30.05457385 18.80235037 27.99999945 27.61835177 21.875 35.4375 C16.77782683 40.74160968 10.49467715 43.15614944 3.1875 43.375 C-0.24225909 43.3106518 -2.86452555 42.36800805 -6 41 C-6.19601608 42.74906659 -6.38147403 44.49931846 -6.5625 46.25 C-6.66691406 47.22453125 -6.77132813 48.1990625 -6.87890625 49.203125 C-7.13723866 51.93439013 -7.13723866 51.93439013 -6.40234375 54.234375 C-6.20318359 55.10835938 -6.20318359 55.10835938 -6 56 C-8 58 -8 58 -10.3984375 58.24291992 C-11.38070313 58.23881104 -12.36296875 58.23470215 -13.375 58.23046875 C-14.44234375 58.22853516 -15.5096875 58.22660156 -16.609375 58.22460938 C-17.72828125 58.21236328 -18.8471875 58.20011719 -20 58.1875 C-21.67835938 58.1865332 -21.67835938 58.1865332 -23.390625 58.18554688 C-31.71943681 58.14028159 -31.71943681 58.14028159 -34 57 C-33.36794334 52.44919204 -33.36794334 52.44919204 -31.62792969 50.32495117 C-29.40527092 47.15062912 -28.39815152 43.71520356 -27.265625 40.05078125 C-27.02334167 39.27872849 -26.78105835 38.50667572 -26.53143311 37.71122742 C-26.02299195 36.07941115 -25.51895437 34.44621713 -25.01904297 32.81176758 C-24.25617908 30.33258102 -23.46677995 27.86290894 -22.67578125 25.39257812 C-22.18323858 23.79999076 -21.69230137 22.20690582 -21.203125 20.61328125 C-20.96676331 19.88482498 -20.73040161 19.15636871 -20.48687744 18.40583801 C-18.87827922 13.00498911 -19.0167211 8.53026002 -20 3 C-12.95177179 -0.68430111 -7.85455496 -1.74835609 0 0 Z M4 12 C0.39547042 19.08097943 -1.41643485 26.23813142 -3 34 C-0.54560216 33.63543463 0.65820269 33.44791086 2.1953125 31.43359375 C5.10977653 25.17606804 7.43992241 19.03875852 7 12 C6.01 12 5.02 12 4 12 Z " fill="#7ED856" transform="translate(316,220)"/>
<path d="M0 0 C0.87411026 -0.00807175 1.74822052 -0.01614349 2.64881897 -0.02445984 C4.49722315 -0.03828398 6.34565268 -0.0490136 8.1940918 -0.05688477 C11.02115976 -0.07413335 13.84706875 -0.11803744 16.67382812 -0.16210938 C18.47004349 -0.17223361 20.26626878 -0.18075055 22.0625 -0.1875 C22.90739487 -0.20500809 23.75228973 -0.22251617 24.62278748 -0.24055481 C30.47828682 -0.2188936 30.47828682 -0.2188936 33.64282227 2.11694336 C35.93599937 5.46069498 35.27987368 7.89368737 34.703125 11.75390625 C33.83200231 15.32831934 32.66662055 17.59988549 30.09765625 20.23828125 C27.03515625 20.86328125 27.03515625 20.86328125 24.09765625 20.23828125 C20.93829568 17.40575109 20.56390984 14.34131283 20.09765625 10.23828125 C16.79765625 10.23828125 13.49765625 10.23828125 10.09765625 10.23828125 C10.09765625 11.88828125 10.09765625 13.53828125 10.09765625 15.23828125 C9.48197083 17.5855819 8.8240658 19.92285082 8.09765625 22.23828125 C8.54496094 21.87734375 8.99226563 21.51640625 9.453125 21.14453125 C14.42837064 17.32557937 14.42837064 17.32557937 17.97265625 16.86328125 C20.09765625 17.23828125 20.09765625 17.23828125 21.09765625 18.23828125 C21.62023487 24.37858008 20.05479908 29.44840037 18.09765625 35.23828125 C19.04640625 35.19703125 19.99515625 35.15578125 20.97265625 35.11328125 C24.09765625 35.23828125 24.09765625 35.23828125 26.09765625 37.23828125 C26.93964124 44.09444474 25.12529034 48.66061829 21.09765625 54.23828125 C18.77547946 55.39936965 17.43204094 55.36501972 14.84741211 55.36767578 C13.96987778 55.37082794 13.09234344 55.3739801 12.18821716 55.37722778 C10.76473717 55.37419144 10.76473717 55.37419144 9.3125 55.37109375 C8.34107559 55.37205048 7.36965118 55.3730072 6.36878967 55.37399292 C4.31348608 55.37467408 2.25818033 55.37282424 0.20288086 55.36865234 C-2.95528964 55.36329745 -6.11331829 55.36860247 -9.27148438 55.375 C-11.26432323 55.37433932 -13.257162 55.37305837 -15.25 55.37109375 C-16.20101089 55.37311798 -17.15202179 55.37514221 -18.1318512 55.37722778 C-19.00623337 55.37407562 -19.88061554 55.37092346 -20.78149414 55.36767578 C-21.55489639 55.36688019 -22.32829865 55.36608459 -23.12513733 55.36526489 C-24.90234375 55.23828125 -24.90234375 55.23828125 -25.90234375 54.23828125 C-26.21484375 51.92578125 -26.21484375 51.92578125 -25.90234375 49.23828125 C-25.28979736 48.68374268 -24.67725098 48.1292041 -24.04614258 47.55786133 C-21.24529807 44.52736097 -20.37036557 41.32240387 -19.2890625 37.4375 C-19.07039017 36.68289993 -18.85171783 35.92829987 -18.62641907 35.15083313 C-18.16882515 33.55822451 -17.71787873 31.96369268 -17.27319336 30.36743164 C-16.59342774 27.93858708 -15.88525418 25.51934387 -15.17382812 23.09960938 C-14.73133397 21.54606717 -14.29052295 19.99204437 -13.8515625 18.4375 C-13.64021164 17.72059494 -13.42886078 17.00368988 -13.21110535 16.26506042 C-11.93034256 11.5671863 -12.02808937 8.10334851 -12.90234375 3.23828125 C-10.6480791 -1.27024804 -4.41992748 0.03855115 0 0 Z M4.09765625 31.23828125 C3.10765625 35.85828125 2.11765625 40.47828125 1.09765625 45.23828125 C6.6548045 46.8229342 6.6548045 46.8229342 9.36328125 44.91015625 C10.018125 44.2759375 10.67296875 43.64171875 11.34765625 42.98828125 C12.0128125 42.364375 12.67796875 41.74046875 13.36328125 41.09765625 C15.27247404 39.15145821 15.27247404 39.15145821 17.09765625 36.23828125 C16.16953125 36.15578125 15.24140625 36.07328125 14.28515625 35.98828125 C10.54578206 35.1084285 10.22183198 34.23143796 8.09765625 31.23828125 C6.77765625 31.23828125 5.45765625 31.23828125 4.09765625 31.23828125 Z " fill="#7ED856" transform="translate(68.90234375,207.76171875)"/>
<path d="M0 0 C4.00309516 3.68204492 4.76331786 7.44244673 5.05859375 12.68359375 C4.79900725 20.64424637 1.62605385 26.80353974 -4.06640625 32.30859375 C-11.01788286 37.82543166 -18.9183996 40.14059476 -27.73828125 39.75 C-35.86379045 38.79889271 -41.22412656 36.85486106 -46.44140625 30.43359375 C-48.40125914 24.55403508 -48.48981415 17.85210593 -45.81640625 12.18359375 C-41.10743351 4.1487032 -35.94992085 -0.72115712 -26.90625 -3.28515625 C-17.7275991 -5.29257343 -7.8803426 -5.78328677 0 0 Z M-19.3359375 6.0078125 C-21.88117209 8.94026275 -22.86990293 11.58028913 -24.12890625 15.24609375 C-24.54527344 16.42816406 -24.96164062 17.61023438 -25.390625 18.828125 C-26.43804706 22.42206761 -27.00953743 25.72711519 -27.44140625 29.43359375 C-26.12140625 29.43359375 -24.80140625 29.43359375 -23.44140625 29.43359375 C-17.94584298 17.38792688 -17.94584298 17.38792688 -16.44140625 4.43359375 C-17.72375318 4.32707844 -17.72375318 4.32707844 -19.3359375 6.0078125 Z " fill="#7FD757" transform="translate(281.44140625,223.56640625)"/>
<path d="M0 0 C2.39278017 2.27620883 3.39220034 4.36651214 3.7890625 7.640625 C3.74659474 14.08510751 2.86470526 20.15005051 1.5234375 26.44921875 C2.1834375 26.44921875 2.8434375 26.44921875 3.5234375 26.44921875 C4.5234375 29.44921875 4.5234375 29.44921875 3.9609375 31.88671875 C2.01963962 35.34729324 0.0183798 36.60283414 -3.4765625 38.44921875 C-9.18886618 40.03596977 -13.33585644 39.13184007 -18.4765625 36.44921875 C-19.1365625 35.78921875 -19.7965625 35.12921875 -20.4765625 34.44921875 C-21.20359375 34.990625 -21.20359375 34.990625 -21.9453125 35.54296875 C-27.09125639 39.10554529 -30.22141987 40.34281055 -36.4765625 39.44921875 C-39.8075547 38.16001352 -42.69505729 36.69441706 -44.6484375 33.58203125 C-46.08493878 29.88236285 -46.01820293 26.34902988 -45.4765625 22.44921875 C-43.1066983 17.52719311 -40.59142977 15.32814958 -35.4765625 13.44921875 C-32.6015625 13.26171875 -32.6015625 13.26171875 -30.4765625 13.44921875 C-30.4765625 12.78921875 -30.4765625 12.12921875 -30.4765625 11.44921875 C-31.1159375 11.24296875 -31.7553125 11.03671875 -32.4140625 10.82421875 C-34.4765625 9.44921875 -34.4765625 9.44921875 -35.4765625 6.63671875 C-35.4765625 3.44921875 -35.4765625 3.44921875 -33.7890625 0.69921875 C-25.39929632 -7.463797 -9.15788686 -6.12457834 0 0 Z M-16.4765625 3.44921875 C-17.1365625 5.75921875 -17.7965625 8.06921875 -18.4765625 10.44921875 C-21.7765625 11.10921875 -25.0765625 11.76921875 -28.4765625 12.44921875 C-28.4765625 12.77921875 -28.4765625 13.10921875 -28.4765625 13.44921875 C-24.5165625 13.77921875 -20.5565625 14.10921875 -16.4765625 14.44921875 C-14.84705838 10.32753186 -14.21391649 7.74221518 -15.4765625 3.44921875 C-15.8065625 3.44921875 -16.1365625 3.44921875 -16.4765625 3.44921875 Z M-24.4765625 23.44921875 C-24.4765625 24.76921875 -24.4765625 26.08921875 -24.4765625 27.44921875 C-22.4603392 26.73358609 -22.4603392 26.73358609 -20.4765625 25.44921875 C-19.67127361 23.39921004 -19.67127361 23.39921004 -19.4765625 21.44921875 C-21.80013761 21.26431868 -21.80013761 21.26431868 -24.4765625 23.44921875 Z " fill="#80D558" transform="translate(426.4765625,223.55078125)"/>
<path d="M0 0 C1.19109375 -0.03867188 1.19109375 -0.03867188 2.40625 -0.078125 C3.0971875 0.03015625 3.788125 0.1384375 4.5 0.25 C6.6519437 3.47791555 6.70086443 4.53400809 6.5 8.25 C7.304375 8.518125 8.10875 8.78625 8.9375 9.0625 C9.783125 9.454375 10.62875 9.84625 11.5 10.25 C12.5 13.25 12.5 13.25 11.5 15.8125 C9.5 18.25 9.5 18.25 6.05859375 18.8046875 C2.46732473 19.82384106 2.46732473 19.82384106 1.46142578 22.1706543 C0.6802876 24.70380334 0.09035535 27.21484624 -0.4375 29.8125 C-0.7478418 31.14571289 -0.7478418 31.14571289 -1.06445312 32.50585938 C-2.07034557 36.33747527 -2.07034557 36.33747527 -2.5 40.25 C-0.52 40.25 1.46 40.25 3.5 40.25 C4.16 41.57 4.82 42.89 5.5 44.25 C2.11926094 49.78211846 -2.50332513 51.52072632 -8.5 53.25 C-13.90056755 53.90179263 -18.81005942 53.05342515 -23.5 50.25 C-25.92749118 47.01334509 -26.51815771 45.1578855 -26.4375 41.125 C-25.36617888 36.69687269 -23.91717814 32.48655716 -22.33984375 28.21484375 C-21.4435739 25.05080274 -21.2404741 22.5218801 -21.5 19.25 C-22.015625 18.569375 -22.53125 17.88875 -23.0625 17.1875 C-24.5 15.25 -24.5 15.25 -24.1875 12.5 C-23.960625 11.7575 -23.73375 11.015 -23.5 10.25 C-22.365625 10.25 -21.23125 10.25 -20.0625 10.25 C-14.84100301 9.6543212 -12.02770994 6.6184975 -8.3828125 3.0625 C-5.57682971 0.36130495 -3.80195333 0.07406403 0 0 Z " fill="#7FD657" transform="translate(129.5,209.75)"/>
<path d="M0 0 C2.5625 2.0625 2.5625 2.0625 4 5 C4.08202836 9.5935883 3.55116432 11.39506355 0.4375 14.8125 C-0.366875 15.534375 -1.17125 16.25625 -2 17 C-2 17.66 -2 18.32 -2 19 C-1.34 19.66 -0.68 20.32 0 21 C0.80305242 28.9402936 -1.93196216 35.49222308 -4.59960938 42.8671875 C-6.6320275 48.79610018 -7.32910421 52.84109089 -6 59 C-9.35119519 61.23413013 -10.4177755 61.23847762 -14.32421875 61.1953125 C-15.86625977 61.18564453 -15.86625977 61.18564453 -17.43945312 61.17578125 C-18.51130859 61.15902344 -19.58316406 61.14226562 -20.6875 61.125 C-21.77095703 61.11597656 -22.85441406 61.10695313 -23.97070312 61.09765625 C-26.6473571 61.0740734 -29.32356797 61.04116126 -32 61 C-32.66 59.68 -33.32 58.36 -34 57 C-33.41992188 56.40960938 -32.83984375 55.81921875 -32.2421875 55.2109375 C-29.07272341 50.67208823 -27.71675302 45.89104957 -26.125 40.625 C-25.79242188 39.60921875 -25.45984375 38.5934375 -25.1171875 37.546875 C-23.28681271 31.57488945 -22.4956428 27.81076345 -25 22 C-20.20186518 18.30912706 -15.94074887 17.00332648 -10 16 C-10.495 15.484375 -10.99 14.96875 -11.5 14.4375 C-13.59311615 11.03618625 -13.55147685 8.92927257 -13 5 C-9.29725595 -0.43840533 -6.16104373 -0.97794345 0 0 Z " fill="#80D557" transform="translate(379,202)"/>
<path d="M0 0 C2.5 1.5625 2.5 1.5625 4 4 C4.61662496 8.23929657 4.51870379 10.22194432 2.125 13.8125 C0.75976661 15.21788731 -0.61454417 16.61454417 -2 18 C-1.46117187 18.97453125 -0.92234375 19.9490625 -0.3671875 20.953125 C1.64326735 25.66549855 0.43601917 29.05644235 -1.125 33.75 C-1.36492676 34.53914795 -1.60485352 35.3282959 -1.85205078 36.14135742 C-2.54965126 38.43377487 -3.27293608 40.71679145 -4 43 C-4.63882297 45.10001133 -5.2666759 47.20345184 -5.875 49.3125 C-6.11992187 50.11300781 -6.36484375 50.91351563 -6.6171875 51.73828125 C-7.15361507 54.07349075 -7.15361507 54.07349075 -6.4453125 56.66796875 C-6.22488281 57.82232422 -6.22488281 57.82232422 -6 59 C-8.56382279 61.56382279 -9.56374315 61.25703311 -13.12109375 61.265625 C-14.13880859 61.26820313 -15.15652344 61.27078125 -16.20507812 61.2734375 C-17.27177734 61.26570313 -18.33847656 61.25796875 -19.4375 61.25 C-21.03174805 61.26160156 -21.03174805 61.26160156 -22.65820312 61.2734375 C-23.67720703 61.27085937 -24.69621094 61.26828125 -25.74609375 61.265625 C-27.14879517 61.26224121 -27.14879517 61.26224121 -28.57983398 61.25878906 C-31 61 -31 61 -34 59 C-32.98148389 56.88462039 -31.94261115 54.91481599 -30.62890625 52.96484375 C-28.39095846 48.89145677 -27.10118776 44.6839948 -25.75 40.25 C-25.46898437 39.3940625 -25.18796875 38.538125 -24.8984375 37.65625 C-23.05928388 31.64713423 -22.92147036 27.1952749 -24 21 C-14.58997722 16.59225513 -14.58997722 16.59225513 -10 16 C-10.495 15.484375 -10.99 14.96875 -11.5 14.4375 C-13.59311615 11.03618625 -13.55147685 8.92927257 -13 5 C-9.28222104 -0.46048784 -6.17499257 -0.8821418 0 0 Z " fill="#80D557" transform="translate(231,202)"/>
<path d="M0 0 C0 0.66 0 1.32 0 2 C-0.639375 2.268125 -1.27875 2.53625 -1.9375 2.8125 C-4.33131686 3.88667752 -4.33131686 3.88667752 -5 7 C-5.804375 7.268125 -6.60875 7.53625 -7.4375 7.8125 C-10.28638162 8.78801252 -10.28638162 8.78801252 -11.25 11.875 C-11.4975 12.90625 -11.745 13.9375 -12 15 C-12.17660156 15.5775 -12.35320312 16.155 -12.53515625 16.75 C-13.18400832 19.89066214 -13.17077751 22.92097036 -13.1875 26.125 C-13.20167969 27.36507812 -13.21585938 28.60515625 -13.23046875 29.8828125 C-13.33360843 33.10175457 -13.33360843 33.10175457 -11 35 C-3.36479029 38.97667173 4.52654904 39.18420546 13 39 C13 38.34 13 37.68 13 37 C14.98 37 16.96 37 19 37 C15.11271743 40.88728257 9.95909439 41.1556962 4.6875 41.3125 C-2.48392681 41.14503536 -9.22582842 40.10795708 -14.5625 35 C-18.80826354 29.77444487 -18.63221043 24.49128735 -18 18 C-15.87870791 11.00579695 -10.9827326 4.77816751 -4.75 1.0625 C-2 0 -2 0 0 0 Z " fill="#82D05D" transform="translate(252,222)"/>
<path d="M0 0 C0 3 0 3 -1 7 C11.54 6.67 24.08 6.34 37 6 C36.34 5.01 35.68 4.02 35 3 C36.65 2.34 38.3 1.68 40 1 C40.495 1.99 40.495 1.99 41 3 C41.99 3.33 42.98 3.66 44 4 C44 3.01 44 2.02 44 1 C44.66 1 45.32 1 46 1 C44.375 6.75 44.375 6.75 41 9 C38.97555542 9.24723816 38.97555542 9.24723816 36.63623047 9.24291992 C35.32004227 9.24753487 35.32004227 9.24753487 33.9772644 9.25224304 C33.03343903 9.24505753 32.08961365 9.23787201 31.1171875 9.23046875 C30.14717804 9.23001053 29.17716858 9.22955231 28.17776489 9.2290802 C26.12842586 9.22605958 24.07908909 9.21817897 22.02978516 9.20581055 C18.88045186 9.18753164 15.7314121 9.18530102 12.58203125 9.18554688 C10.59374744 9.18063256 8.60546563 9.17480463 6.6171875 9.16796875 C5.66931366 9.16685593 4.72143982 9.1657431 3.74484253 9.16459656 C2.43811081 9.15502678 2.43811081 9.15502678 1.10498047 9.14526367 C0.33459442 9.14145187 -0.43579163 9.13764008 -1.22952271 9.13371277 C-3 9 -3 9 -4 8 C-4.3125 5.625 -4.3125 5.625 -4 3 C-2 1.1875 -2 1.1875 0 0 Z " fill="#88C663" transform="translate(47,254)"/>
<path d="M0 0 C0 0.99 0 1.98 0 3 C1.98 3 3.96 3 6 3 C6.66 4.32 7.32 5.64 8 7 C4.61926094 12.53211846 -0.00332513 14.27072632 -6 16 C-11.7599517 16.69516658 -15.80537044 15.32862705 -21 13 C-21.33 12.34 -21.66 11.68 -22 11 C-20.20793453 11.14084796 -18.41635083 11.28783701 -16.625 11.4375 C-15.12839844 11.55931641 -15.12839844 11.55931641 -13.6015625 11.68359375 C-11 12 -11 12 -9 13 C-6.5 13.33333333 -6.5 13.33333333 -4 13 C-3.34 12.01 -2.68 11.02 -2 10 C-2.66 9.67 -3.32 9.34 -4 9 C-4.40729228 6.67843403 -4.74438677 4.3431213 -5 2 C-2 0 -2 0 0 0 Z " fill="#7CD754" transform="translate(127,247)"/>
<path d="M0 0 C1 1 1 1 1.25 3.9375 C1.15862645 8.83106098 0.09523162 13.5721863 -2 18 C-4.6875 19.625 -4.6875 19.625 -7 20 C-7.763125 19.195625 -8.52625 18.39125 -9.3125 17.5625 C-11.79430898 14.83200976 -11.79430898 14.83200976 -15 14 C-14.67 13.01 -14.34 12.02 -14 11 C-12.0625 11.375 -12.0625 11.375 -10 12 C-9.67 12.66 -9.34 13.32 -9 14 C-8.34 13.67 -7.68 13.34 -7 13 C-7 14.32 -7 15.64 -7 17 C-5.68 15.68 -4.36 14.36 -3 13 C-3.99 12.67 -4.98 12.34 -6 12 C-5.67 11.01 -5.34 10.02 -5 9 C-5 7.68 -5 6.36 -5 5 C-6.32 5 -7.64 5 -9 5 C-9 5.66 -9 6.32 -9 7 C-9.99 6.67 -10.98 6.34 -12 6 C-11.34 6 -10.68 6 -10 6 C-9.67 5.01 -9.34 4.02 -9 3 C-6.06063601 0.16561329 -4.04953872 -0.43778797 0 0 Z " fill="#83CC5C" transform="translate(89,225)"/>
<path d="M0 0 C2.5625 2.0625 2.5625 2.0625 4 5 C4.08254987 9.62279272 3.49422915 11.43344463 0.4375 14.9375 C-0.7690625 15.9584375 -0.7690625 15.9584375 -2 17 C-2.66 16.34 -3.32 15.68 -4 15 C-3.34 15 -2.68 15 -2 15 C-2 14.01 -2 13.02 -2 12 C-2.66 11.67 -3.32 11.34 -4 11 C-3.67 10.01 -3.34 9.02 -3 8 C-2.64763503 6.00326516 -2.31165441 4.00349261 -2 2 C-4.31 2.66 -6.62 3.32 -9 4 C-9.33 5.65 -9.66 7.3 -10 9 C-10.66 9 -11.32 9 -12 9 C-12.33 9.66 -12.66 10.32 -13 11 C-13.45761159 7.0645403 -13.29742742 5.42755191 -11 2.125 C-6.83726829 -0.82360163 -5.02455429 -0.7975483 0 0 Z " fill="#87CE5E" transform="translate(379,202)"/>
<path d="M0 0 C8.19256018 0.35010941 8.19256018 0.35010941 11.5625 3.0625 C12.036875 3.701875 12.51125 4.34125 13 5 C13.61875 4.505 14.2375 4.01 14.875 3.5 C17 2 17 2 19 2 C17.768606 5.69418201 15.79208646 7.35109746 13 10 C13.99 10 14.98 10 16 10 C18.49310643 13.73965964 18.0603261 15.29070641 17.625 19.6875 C17.45871094 21.45673828 17.45871094 21.45673828 17.2890625 23.26171875 C17.14597656 24.61716797 17.14597656 24.61716797 17 26 C16.01 26.33 15.02 26.66 14 27 C14 27.99 14 28.98 14 30 C13.34 30 12.68 30 12 30 C13.32 24.39 14.64 18.78 16 13 C14.02 13.33 12.04 13.66 10 14 C10 11.36 10 8.72 10 6 C9.34 6 8.68 6 8 6 C7.67 5.01 7.34 4.02 7 3 C4.69 3 2.38 3 0 3 C0 2.01 0 1.02 0 0 Z " fill="#86CA64" transform="translate(307,219)"/>
<path d="M0 0 C0.66 0 1.32 0 2 0 C1.125 3.875 1.125 3.875 0 5 C-3.18584506 5.06018125 -6.35590889 5.02008526 -9.54101562 4.9609375 C-13.39606823 4.83271185 -13.39606823 4.83271185 -17 6 C-19.125 5.5625 -19.125 5.5625 -21 5 C-21 5.66 -21 6.32 -21 7 C-23.375 9.625 -23.375 9.625 -26 12 C-26.66 12 -27.32 12 -28 12 C-27.85831863 13.43791516 -27.71148957 14.8753237 -27.5625 16.3125 C-27.48128906 17.11300781 -27.40007812 17.91351563 -27.31640625 18.73828125 C-27.04734307 21.16087179 -27.04734307 21.16087179 -26 24 C-23.60931266 25.10636395 -23.60931266 25.10636395 -21 26 C-20.01 26.66 -19.02 27.32 -18 28 C-20.6875 28.3125 -20.6875 28.3125 -24 28 C-29.73704291 23.15538599 -29.73704291 23.15538599 -30.23828125 19.046875 C-30.41708799 13.513277 -29.86787679 10.27502171 -26 6 C-21.49189097 3.2548023 -18.18390159 2.63582369 -12.9375 2.75 C-11.75027344 2.76546875 -10.56304687 2.7809375 -9.33984375 2.796875 C-6.45146505 2.97254248 -3.8113736 3.34100127 -1 4 C-0.67 2.68 -0.34 1.36 0 0 Z " fill="#87C764" transform="translate(411,234)"/>
<path d="M0 0 C2.65696068 0.15182632 4.44234524 0.47324024 6.41015625 2.33203125 C10.67867913 7.4467919 11.32658273 10.38865287 11.30078125 16.890625 C10.81281761 21.93502832 9.00225872 26.37871536 7 31 C6.02408417 27.61682513 6.14143345 25.4342662 7 22 C6.67 22 6.34 22 6 22 C5.72781065 13.83431953 5.72781065 13.83431953 8 10 C8 9.01 8 8.02 8 7 C7.01 7.33 6.02 7.66 5 8 C5 7.34 5 6.68 5 6 C4.34 6 3.68 6 3 6 C3.33 4.68 3.66 3.36 4 2 C2.68 1.67 1.36 1.34 0 1 C0 0.67 0 0.34 0 0 Z " fill="#83D35A" transform="translate(334,220)"/>
<path d="M0 0 C-0.33 1.98 -0.66 3.96 -1 6 C-1.66 6 -2.32 6 -3 6 C-2.67 6.66 -2.34 7.32 -2 8 C1.55671096 8.08083434 4.57417939 7.91355216 8 7 C9.32 7 10.64 7 12 7 C12 6.34 12 5.68 12 5 C13.32 5.33 14.64 5.66 16 6 C14.730447 6.64834654 13.45930294 7.29357815 12.1875 7.9375 C11.47980469 8.29714844 10.77210938 8.65679687 10.04296875 9.02734375 C4.51057998 11.66131087 -1.25493542 11.89634762 -7.0625 10 C-7.701875 9.67 -8.34125 9.34 -9 9 C-9 8.01 -9 7.02 -9 6 C-8.34 6 -7.68 6 -7 6 C-6.731875 5.38125 -6.46375 4.7625 -6.1875 4.125 C-4.67436553 1.41728569 -3.21502868 0 0 0 Z " fill="#87D458" transform="translate(319,252)"/>
<path d="M0 0 C0.33 1.32 0.66 2.64 1 4 C0.34 4 -0.32 4 -1 4 C-1.33 5.32 -1.66 6.64 -2 8 C5.59 8 13.18 8 21 8 C21 7.01 21 6.02 21 5 C21.66 5 22.32 5 23 5 C23 6.32 23 7.64 23 9 C19.0113168 10.9943416 13.94765918 10.18485036 9.5625 10.1875 C7.96825195 10.20586914 7.96825195 10.20586914 6.34179688 10.22460938 C5.32279297 10.22654297 4.30378906 10.22847656 3.25390625 10.23046875 C2.31877197 10.23457764 1.3836377 10.23868652 0.42016602 10.24291992 C-2 10 -2 10 -5 8 C-3.62845496 5.04590299 -2.01136276 2.55991624 0 0 Z " fill="#89BF68" transform="translate(141,253)"/>
<path d="M0 0 C1.32 0 2.64 0 4 0 C4.66 0.99 5.32 1.98 6 3 C6.66 3 7.32 3 8 3 C7.34 5.31 6.68 7.62 6 10 C4.68 10 3.36 10 2 10 C2 10.66 2 11.32 2 12 C1.34 12 0.68 12 0 12 C-0.33 11.01 -0.66 10.02 -1 9 C-1.33 8.67 -1.66 8.34 -2 8 C-2.1875 5.0625 -2.1875 5.0625 -2 2 C-1.34 1.34 -0.68 0.68 0 0 Z " fill="#7AD853" transform="translate(396,225)"/>
<path d="M0 0 C0.66 0 1.32 0 2 0 C2.556875 0.928125 3.11375 1.85625 3.6875 2.8125 C6.92123743 7.26981376 10.19219329 8.53955581 15.4296875 9.3984375 C20.29327689 9.94540652 25.10998219 10.10630474 30 10 C30 9.34 30 8.68 30 8 C31.98 8 33.96 8 36 8 C32.11271743 11.88728257 26.95909439 12.1556962 21.6875 12.3125 C14.48949717 12.14441477 7.76637115 11.0757171 2.375 6 C0 3 0 3 0 0 Z " fill="#90C46D" transform="translate(235,251)"/>
<path d="M0 0 C0 0.66 0 1.32 0 2 C-0.66 2 -1.32 2 -2 2 C-3.41377341 4.63904371 -4.37240135 7.07120629 -5 10 C-5.66 10 -6.32 10 -7 10 C-7.33 10.66 -7.66 11.32 -8 12 C-8 11.34 -8 10.68 -8 10 C-11.3 10.33 -14.6 10.66 -18 11 C-17.67 12.65 -17.34 14.3 -17 16 C-17.99 15.34 -18.98 14.68 -20 14 C-19.67 12.35 -19.34 10.7 -19 9 C-17.865625 9 -16.73125 9 -15.5625 9 C-10.31416481 8.41061477 -7.51298839 5.3133979 -3.8828125 1.71484375 C-2 0 -2 0 0 0 Z " fill="#8DCD63" transform="translate(125,211)"/>
<path d="M0 0 C3.96 0 7.92 0 12 0 C12.99 2.97 13.98 5.94 15 9 C17.41619823 9.25030977 17.41619823 9.25030977 20 9 C20.66 8.01 21.32 7.02 22 6 C22.66 6.33 23.32 6.66 24 7 C22.875 9.5 22.875 9.5 21 12 C18 12.5625 18 12.5625 15 12 C11.84063943 9.16746984 11.46625359 6.10303158 11 2 C7.7 2 4.4 2 1 2 C0.67 2.99 0.34 3.98 0 5 C0 3.35 0 1.7 0 0 Z " fill="#8DC662" transform="translate(78,216)"/>
<path d="M0 0 C0.99 0 1.98 0 3 0 C3 0.66 3 1.32 3 2 C2.01 2.495 2.01 2.495 1 3 C0.67 3.99 0.34 4.98 0 6 C1.98 5.67 3.96 5.34 6 5 C6 8 6 8 5 11 C4.01 11.495 4.01 11.495 3 12 C2.505 12.845625 2.01 13.69125 1.5 14.5625 C1.005 15.366875 0.51 16.17125 0 17 C-0.66 17 -1.32 17 -2 17 C-1.91621094 16.33613281 -1.83242187 15.67226562 -1.74609375 14.98828125 C-1.21016756 10.34132632 -0.99473447 6.59549958 -2 2 C-1.34 1.34 -0.68 0.68 0 0 Z " fill="#83D25B" transform="translate(153,204)"/>
<path d="M0 0 C-6.22665778 4.4476127 -11.26356137 6.66693436 -19 6 C-21.84199488 5.21337642 -24.2880141 4.21571782 -27 3 C-27.33 2.34 -27.66 1.68 -28 1 C-26.20793453 1.14084796 -24.41635083 1.28783701 -22.625 1.4375 C-21.12839844 1.55931641 -21.12839844 1.55931641 -19.6015625 1.68359375 C-17 2 -17 2 -15 3 C-12.5 3.25 -12.5 3.25 -10 3 C-9.34 2.34 -8.68 1.68 -8 1 C-2.41860465 -1.20930233 -2.41860465 -1.20930233 0 0 Z " fill="#88C46C" transform="translate(133,257)"/>
<path d="M0 0 C2.97 0.495 2.97 0.495 6 1 C7 4 7 4 5.9375 6.6875 C4 9 4 9 0.8125 9.3125 C-0.115625 9.209375 -1.04375 9.10625 -2 9 C-2.33 8.34 -2.66 7.68 -3 7 C-2.01 7 -1.02 7 0 7 C-0.2784375 5.824375 -0.2784375 5.824375 -0.5625 4.625 C-1 2 -1 2 0 0 Z " fill="#89CE62" transform="translate(135,219)"/>
<path d="M0 0 C0.66 0.33 1.32 0.66 2 1 C1.67 1.66 1.34 2.32 1 3 C1.96486328 2.73896484 1.96486328 2.73896484 2.94921875 2.47265625 C6.97625611 1.84874905 10.76240413 2.14214515 14.8125 2.4375 C15.99489258 2.51581055 15.99489258 2.51581055 17.20117188 2.59570312 C19.13451529 2.72459269 21.06732164 2.86149494 23 3 C23 3.66 23 4.32 23 5 C15.74 5 8.48 5 1 5 C0.34 3.68 -0.32 2.36 -1 1 C-0.67 0.67 -0.34 0.34 0 0 Z " fill="#89BA68" transform="translate(346,258)"/>
<path d="M0 0 C0.66 0.33 1.32 0.66 2 1 C1.67 2.98 1.34 4.96 1 7 C0.34 7 -0.32 7 -1 7 C-1.04898438 7.86882812 -1.09796875 8.73765625 -1.1484375 9.6328125 C-1.26058594 11.36144531 -1.26058594 11.36144531 -1.375 13.125 C-1.44460937 14.26195312 -1.51421875 15.39890625 -1.5859375 16.5703125 C-1.99443876 19.95393616 -2.80967569 22.81612441 -4 26 C-4.66 25.34 -5.32 24.68 -6 24 C-5.65292646 18.19440628 -4.25523502 12.99903031 -2.4375 7.5 C-2.08655273 6.40945312 -2.08655273 6.40945312 -1.72851562 5.296875 C-1.15867219 3.52919739 -0.58024596 1.76429031 0 0 Z " fill="#90CE61" transform="translate(56,223)"/>
<path d="M0 0 C0.33 0 0.66 0 1 0 C1 1.65 1 3.3 1 5 C1.99 5.33 2.98 5.66 4 6 C3.34 6.66 2.68 7.32 2 8 C1.30251417 9.31747324 0.63040043 10.64914193 0 12 C-0.66 12 -1.32 12 -2 12 C-2 10.35 -2 8.7 -2 7 C-3.32 7 -4.64 7 -6 7 C-5.67 5.35 -5.34 3.7 -5 2 C-3.35 2 -1.7 2 0 2 C0 1.34 0 0.68 0 0 Z " fill="#84DA52" transform="translate(408,219)"/>
<path d="M0 0 C1.90625 0.37890625 1.90625 0.37890625 4.40625 1.94140625 C6.46646138 5.28924974 6.39750459 7.51904872 5.90625 11.37890625 C4.91625 12.36890625 3.92625 13.35890625 2.90625 14.37890625 C2.57625 10.74890625 2.24625 7.11890625 1.90625 3.37890625 C-1.44833155 2.61367824 -1.44833155 2.61367824 -5.09375 2.37890625 C-7.05806405 3.67155324 -7.05806405 3.67155324 -8.09375 5.37890625 C-8.75375 5.04890625 -9.41375 4.71890625 -10.09375 4.37890625 C-7.11450432 0.40657868 -4.75351288 -0.27492332 0 0 Z " fill="#8AC169" transform="translate(229.09375,201.62109375)"/>
<path d="M0 0 C0.19078125 0.64324219 0.3815625 1.28648437 0.578125 1.94921875 C1.88883509 4.34047716 1.88883509 4.34047716 5.046875 4.64453125 C6.87992188 4.72767578 6.87992188 4.72767578 8.75 4.8125 C9.96171875 4.88082031 11.1734375 4.94914062 12.421875 5.01953125 C15.74744663 5.00137857 18.74609551 4.65377529 22 4 C17.36507444 7.67597544 13.93402002 8.48639508 8 8 C5.13860279 6.97335304 2.46172314 5.79525663 0 4 C-0.33 3.01 -0.66 2.02 -1 1 C-0.67 0.67 -0.34 0.34 0 0 Z " fill="#8ABC6B" transform="translate(169,255)"/>
<path d="M0 0 C0 0.66 0 1.32 0 2 C-0.639375 2.268125 -1.27875 2.53625 -1.9375 2.8125 C-4.33131686 3.88667752 -4.33131686 3.88667752 -5 7 C-6.2065625 7.4640625 -6.2065625 7.4640625 -7.4375 7.9375 C-10.14157493 8.76608159 -10.14157493 8.76608159 -11.3125 11.125 C-11.539375 11.74375 -11.76625 12.3625 -12 13 C-12.99 13 -13.98 13 -15 13 C-12.79402405 7.78587503 -9.63960012 3.96447066 -4.8125 1.125 C-2 0 -2 0 0 0 Z " fill="#86C666" transform="translate(252,222)"/>
<path d="M0 0 C7.92 0 15.84 0 24 0 C18.66488622 3.55674252 13.31426885 3.08426976 7.125 2.5625 C6.43664062 2.51029297 5.74828125 2.45808594 5.0390625 2.40429688 C3.35887242 2.27594902 1.67935251 2.13887775 0 2 C0 1.34 0 0.68 0 0 Z " fill="#7DC359" transform="translate(62,208)"/>
<path d="M0 0 C2.34856431 6.9817864 -2.18367911 14.79150073 -5.1328125 21.08984375 C-6.10730836 23.14821676 -6.10730836 23.14821676 -7 26 C-7.66 25.67 -8.32 25.34 -9 25 C-8.36694466 20.44200152 -8.36694466 20.44200152 -6.625 18.34375 C-4.34290732 15.05227017 -3.42899857 11.56835765 -2.3125 7.75 C-2.08755859 7.00492187 -1.86261719 6.25984375 -1.63085938 5.4921875 C-1.07995041 3.6636386 -0.53897854 1.83210095 0 0 Z " fill="#89C06A" transform="translate(291,252)"/>
<path d="M0 0 C2.65696068 0.15182632 4.44234524 0.47324024 6.41015625 2.33203125 C9.91314509 6.52949018 11.13140852 8.75013518 11.0625 14.125 C11.05347656 15.03507813 11.04445313 15.94515625 11.03515625 16.8828125 C11.02355469 17.58148438 11.01195312 18.28015625 11 19 C10.67 19 10.34 19 10 19 C9.855625 17.7625 9.71125 16.525 9.5625 15.25 C9.21311498 12.43495501 8.79620634 9.7298503 8 7 C7.01 7.33 6.02 7.66 5 8 C5 7.34 5 6.68 5 6 C4.34 6 3.68 6 3 6 C3.33 4.68 3.66 3.36 4 2 C2.68 1.67 1.36 1.34 0 1 C0 0.67 0 0.34 0 0 Z " fill="#84CD5F" transform="translate(334,220)"/>
<path d="M0 0 C1.32 0.66 2.64 1.32 4 2 C1.80774144 6.50630926 -0.33913203 8.19272467 -5 10 C-6.32 10 -7.64 10 -9 10 C-9 9.01 -9 8.02 -9 7 C-6.10765685 6.17361624 -4.11257569 6 -1 6 C-0.67 4.02 -0.34 2.04 0 0 Z " fill="#84CA61" transform="translate(403,253)"/>
<path d="M0 0 C0.33 0.99 0.66 1.98 1 3 C0.505 3.33 0.01 3.66 -0.5 4 C-2.88179561 7.17572747 -2.19168226 10.10246066 -2 14 C-2.99 14 -3.98 14 -5 14 C-4.979375 12.9275 -4.95875 11.855 -4.9375 10.75 C-4.98654872 7.8070768 -5.28127127 5.77223939 -6 3 C-4.60722783 0.21445565 -3.01148006 0 0 0 Z " fill="#93D065" transform="translate(62,208)"/>
<path d="M0 0 C0.99 0.33 1.98 0.66 3 1 C3 1.66 3 2.32 3 3 C4.32 3 5.64 3 7 3 C8.125 4.5625 8.125 4.5625 9 7 C8.125 10.75 8.125 10.75 7 14 C6.34 14 5.68 14 5 14 C5.03255208 11.98177083 5.06510417 9.96354167 5.09765625 7.9453125 C5.12649242 5.91814596 5.12649242 5.91814596 4 4 C2.35 4.33 0.7 4.66 -1 5 C-0.67 3.35 -0.34 1.7 0 0 Z " fill="#85CD61" transform="translate(259,223)"/>
<path d="M0 0 C9.87616099 -0.6130031 9.87616099 -0.6130031 13.75 1.5 C15.64173492 5.28346985 14.82115072 7.89424641 14 12 C13.67 12 13.34 12 13 12 C13 9.03 13 6.06 13 3 C12.14535156 2.95101562 11.29070312 2.90203125 10.41015625 2.8515625 C8.75306641 2.73941406 8.75306641 2.73941406 7.0625 2.625 C5.96035156 2.55539063 4.85820313 2.48578125 3.72265625 2.4140625 C2.82417969 2.27742187 1.92570312 2.14078125 1 2 C0.67 1.34 0.34 0.68 0 0 Z " fill="#80C05F" transform="translate(89,208)"/>
<path d="M0 0 C0.99 0.33 1.98 0.66 3 1 C2.125 4.875 2.125 4.875 1 6 C-0.63472882 6.08700342 -2.27314055 6.10701063 -3.91015625 6.09765625 C-4.89951172 6.09443359 -5.88886719 6.09121094 -6.90820312 6.08789062 C-7.94912109 6.07951172 -8.99003906 6.07113281 -10.0625 6.0625 C-11.10728516 6.05798828 -12.15207031 6.05347656 -13.22851562 6.04882812 C-15.8190666 6.03699913 -18.40950559 6.02051689 -21 6 C-21 5.67 -21 5.34 -21 5 C-19.73542969 4.93941406 -18.47085937 4.87882812 -17.16796875 4.81640625 C-15.50780129 4.73199096 -13.84764563 4.64734345 -12.1875 4.5625 C-11.35412109 4.52318359 -10.52074219 4.48386719 -9.66210938 4.44335938 C-8.85966797 4.40146484 -8.05722656 4.35957031 -7.23046875 4.31640625 C-6.49207764 4.27974854 -5.75368652 4.24309082 -4.99291992 4.20532227 C-2.792505 4.05157859 -2.792505 4.05157859 0 3 C0 2.01 0 1.02 0 0 Z " fill="#7FBC62" transform="translate(307,272)"/>
<path d="M0 0 C1.32 0.33 2.64 0.66 4 1 C2.730447 1.64834654 1.45930294 2.29357815 0.1875 2.9375 C-0.52019531 3.29714844 -1.22789062 3.65679687 -1.95703125 4.02734375 C-5.16201599 5.55323515 -7.67979266 6.1200034 -11.1875 6.0625 C-13.0746875 6.0315625 -13.0746875 6.0315625 -15 6 C-14.67 5.34 -14.34 4.68 -14 4 C-11.85546875 3.3671875 -11.85546875 3.3671875 -9.1875 2.875 C-7.87845703 2.62363281 -7.87845703 2.62363281 -6.54296875 2.3671875 C-4 2 -4 2 0 2 C0 1.34 0 0.68 0 0 Z " fill="#8DC161" transform="translate(331,257)"/>
<path d="M0 0 C0.66 0 1.32 0 2 0 C3 3 3 3 2.3125 5.5 C0.84929276 8.28706141 -0.22321736 9.5299386 -3 11 C-5.25 10.6875 -5.25 10.6875 -7 10 C-5.35 9.67 -3.7 9.34 -2 9 C-2.04125 7.88625 -2.0825 6.7725 -2.125 5.625 C-2 2 -2 2 0 0 Z " fill="#88C567" transform="translate(428,250)"/>
<path d="M0 0 C0.99 0 1.98 0 3 0 C2.5359375 0.7425 2.5359375 0.7425 2.0625 1.5 C0.86022722 4.32887712 0.59766694 6.987467 0.28515625 10.02734375 C-0.07888366 12.54570201 -0.92366631 14.70382146 -2 17 C-2.99 16.67 -3.98 16.34 -5 16 C-3.35 10.72 -1.7 5.44 0 0 Z " fill="#85C364" transform="translate(297,233)"/>
<path d="M0 0 C0.89130413 2.6739124 1.47731534 5.23723823 2 8 C1.01 8.495 1.01 8.495 0 9 C-0.80362048 11.2960585 -1.40557569 13.61640867 -2.0234375 15.96875 C-3 18 -3 18 -5.1015625 18.78125 C-5.72804687 18.8534375 -6.35453125 18.925625 -7 19 C-6.74605469 18.38253906 -6.49210938 17.76507813 -6.23046875 17.12890625 C-3.935003 11.480513 -1.85206994 5.80876483 0 0 Z " fill="#86C667" transform="translate(206,239)"/>
<path d="M0 0 C0 0.66 0 1.32 0 2 C-0.99 2 -1.98 2 -3 2 C-3.66 5.3 -4.32 8.6 -5 12 C-6.64350079 8.71299843 -7.41321669 6.52069985 -8 3 C-2.25 0 -2.25 0 0 0 Z " fill="#84CE59" transform="translate(304,220)"/>
<path d="M0 0 C2.8125 0.4375 2.8125 0.4375 4.8125 2.4375 C4.9375 5.5625 4.9375 5.5625 4.8125 8.4375 C2.8125 4.6875 2.8125 4.6875 2.8125 2.4375 C2.26980469 2.6540625 1.72710937 2.870625 1.16796875 3.09375 C0.45253906 3.3721875 -0.26289062 3.650625 -1 3.9375 C-2.06154297 4.35515625 -2.06154297 4.35515625 -3.14453125 4.78125 C-5.1875 5.4375 -5.1875 5.4375 -8.1875 5.4375 C-4.0365566 0.55403718 -4.0365566 0.55403718 0 0 Z " fill="#7EB766" transform="translate(90.1875,242.5625)"/>
<path d="M0 0 C0.66 0.33 1.32 0.66 2 1 C1.34 1.66 0.68 2.32 0 3 C-0.02308597 5.22128555 -0.02308597 5.22128555 0.375 7.625 C0.48585937 8.44226563 0.59671875 9.25953125 0.7109375 10.1015625 C0.80632812 10.72804687 0.90171875 11.35453125 1 12 C0.34 12 -0.32 12 -1 12 C-1.33 13.32 -1.66 14.64 -2 16 C-3 14 -3 14 -2.5 10.6875 C-2.04485517 7.33080689 -2.12218442 5.21865714 -3 2 C-2.01 1.34 -1.02 0.68 0 0 Z " fill="#89C167" transform="translate(210,221)"/>
<path d="M0 0 C0.66 0 1.32 0 2 0 C2 0.66 2 1.32 2 2 C2.66 2 3.32 2 4 2 C2.50079488 5.11373372 0.91847864 8.12228205 -1 11 C-1.66 11 -2.32 11 -3 11 C-2.01 7.37 -1.02 3.74 0 0 Z " fill="#88C761" transform="translate(263,238)"/>
<path d="M0 0 C0.33 0.99 0.66 1.98 1 3 C-3.81578947 7.97631579 -3.81578947 7.97631579 -8.125 8.0625 C-9.548125 8.0315625 -9.548125 8.0315625 -11 8 C-7.25 6 -7.25 6 -5 6 C-4.67 4.68 -4.34 3.36 -4 2 C-3.01 2.33 -2.02 2.66 -1 3 C-0.67 2.01 -0.34 1.02 0 0 Z " fill="#84BC5F" transform="translate(409,228)"/>
<path d="M0 0 C2.64 0 5.28 0 8 0 C8.66 1.32 9.32 2.64 10 4 C7.45297384 5.27351308 6.5717055 4.80191925 3.875 4.0625 C3.15054688 3.86785156 2.42609375 3.67320312 1.6796875 3.47265625 C1.12539062 3.31667969 0.57109375 3.16070312 0 3 C0 2.01 0 1.02 0 0 Z " fill="#8CCD61" transform="translate(125,250)"/>
<path d="M0 0 C0.33 0 0.66 0 1 0 C0.88529863 1.75070517 0.75780972 3.50057536 0.625 5.25 C0.55539063 6.22453125 0.48578125 7.1990625 0.4140625 8.203125 C0.01534751 10.89633189 -0.63507063 12.66963279 -2 15 C-3.38766322 8.94474232 -2.49118146 5.67989374 0 0 Z " fill="#94C474" transform="translate(106,242)"/>
<path d="M0 0 C0.99 0 1.98 0 3 0 C4.15837626 4.05431692 3.83691257 6.21812119 2 10 C1.34 10 0.68 10 0 10 C0 9.34 0 8.68 0 8 C-0.66 7.67 -1.32 7.34 -2 7 C-1.01 6.67 -0.02 6.34 1 6 C1 4.68 1 3.36 1 2 C0.34 1.67 -0.32 1.34 -1 1 C-0.67 0.67 -0.34 0.34 0 0 Z " fill="#7ECC5E" transform="translate(75,218)"/>
<path d="M0 0 C1.43861294 0.08746284 2.87597508 0.19565348 4.3125 0.3125 C5.11300781 0.37050781 5.91351563 0.42851562 6.73828125 0.48828125 C9.36272334 1.08206694 10.30820672 1.95780294 12 4 C11.67 4.66 11.34 5.32 11 6 C10.01 5.67 9.02 5.34 8 5 C7.67 4.34 7.34 3.68 7 3 C4.69 3 2.38 3 0 3 C0 2.01 0 1.02 0 0 Z " fill="#89C16C" transform="translate(307,219)"/>
<path d="M0 0 C0.33 0.66 0.66 1.32 1 2 C1.66 2.33 2.32 2.66 3 3 C1.75 4.5625 1.75 4.5625 0 6 C-2.1875 5.6875 -2.1875 5.6875 -4 5 C-4 5.66 -4 6.32 -4 7 C-4.99 6.67 -5.98 6.34 -7 6 C-6.34 6 -5.68 6 -5 6 C-4.67 5.01 -4.34 4.02 -4 3 C-1.9375 1.3125 -1.9375 1.3125 0 0 Z " fill="#90D055" transform="translate(84,225)"/>
<path d="M0 0 C4.89157798 1.2228945 7.34618634 2.6477456 10 7 C9.67 7.99 9.34 8.98 9 10 C9 9.34 9 8.68 9 8 C8.34 8 7.68 8 7 8 C6.67 7.01 6.34 6.02 6 5 C4.7625 4.505 4.7625 4.505 3.5 4 C2.2625 3.505 2.2625 3.505 1 3 C0.67 2.01 0.34 1.02 0 0 Z " fill="#92CA60" transform="translate(275,221)"/>
<path d="M0 0 C2.0625 1.5625 2.0625 1.5625 4 4 C3.875 7.6875 3.875 7.6875 3 11 C2.01 11.495 2.01 11.495 1 12 C1.33 10.35 1.66 8.7 2 7 C1.34 6.67 0.68 6.34 0 6 C0 4.02 0 2.04 0 0 Z " fill="#8CBC67" transform="translate(379,203)"/>
<path d="M0 0 C0.66 0 1.32 0 2 0 C2.25 3.3125 2.25 3.3125 2 7 C0 8.9375 0 8.9375 -2 10 C-1.54177532 6.53058454 -1.10868317 3.32604951 0 0 Z " fill="#87C762" transform="translate(147,232)"/>
<path d="M0 0 C-0.5859375 6.15234375 -0.5859375 6.15234375 -1 8 C-1.99 8.495 -1.99 8.495 -3 9 C-3.33 6.36 -3.66 3.72 -4 1 C-2 0 -2 0 0 0 Z " fill="#9ED64C" transform="translate(176,208)"/>
<path d="M0 0 C0.185625 0.639375 0.37125 1.27875 0.5625 1.9375 C1.94246056 4.42126213 1.94246056 4.42126213 5.625 4.75 C6.73875 4.8325 7.8525 4.915 9 5 C8.67 5.66 8.34 6.32 8 7 C3.68607774 6.5206753 1.83430453 5.2542015 -1 2 C-0.67 1.34 -0.34 0.68 0 0 Z " fill="#87C968" transform="translate(169,255)"/>
<path d="M0 0 C2.51236985 2.40313638 3.95013095 3.78319518 4.09765625 7.3828125 C4.08605469 8.28773438 4.07445312 9.19265625 4.0625 10.125 C4.05347656 11.03507813 4.04445313 11.94515625 4.03515625 12.8828125 C4.02355469 13.58148438 4.01195312 14.28015625 4 15 C3.67 15 3.34 15 3 15 C2.814375 13.14375 2.814375 13.14375 2.625 11.25 C2.23914672 8.07929264 1.55997304 5.80795147 0 3 C0 2.01 0 1.02 0 0 Z " fill="#87BC65" transform="translate(341,224)"/>
<path d="M0 0 C0.33 1.32 0.66 2.64 1 4 C0.34 4 -0.32 4 -1 4 C-1 4.66 -1 5.32 -1 6 C-1.99 6.33 -2.98 6.66 -4 7 C-4.33 5.68 -4.66 4.36 -5 3 C-4.01 3 -3.02 3 -2 3 C-2 2.34 -2 1.68 -2 1 C-1.34 0.67 -0.68 0.34 0 0 Z " fill="#86D94E" transform="translate(306,219)"/>
<path d="M0 0 C1.65 0 3.3 0 5 0 C5 2.64 5 5.28 5 8 C4.34 8 3.68 8 3 8 C3.33 6.02 3.66 4.04 4 2 C2.68 2.33 1.36 2.66 0 3 C0 2.01 0 1.02 0 0 Z " fill="#88BF6B" transform="translate(169,231)"/>
<path d="M0 0 C1.65 0 3.3 0 5 0 C4.00102287 2.99693138 3.34869747 4.02709413 1 6 C0.34 6 -0.32 6 -1 6 C-0.67 4.02 -0.34 2.04 0 0 Z " fill="#85CD63" transform="translate(144,243)"/>
<path d="M0 0 C0.66 0.33 1.32 0.66 2 1 C1.75 3.875 1.75 3.875 1 7 C-0.98 7.99 -0.98 7.99 -3 9 C-2.01 6.03 -1.02 3.06 0 0 Z " fill="#86C365" transform="translate(355,237)"/>
<path d="M0 0 C0.66 0 1.32 0 2 0 C1.54803755 1.60597325 1.08817673 3.20972508 0.625 4.8125 C0.36976563 5.70582031 0.11453125 6.59914062 -0.1484375 7.51953125 C-1 10 -1 10 -3 13 C-2.45144652 8.428721 -1.58255197 4.32564205 0 0 Z " fill="#88BB67" transform="translate(259,230)"/>
<path d="M0 0 C-0.33 1.98 -0.66 3.96 -1 6 C-1.99 5.67 -2.98 5.34 -4 5 C-4.33 4.01 -4.66 3.02 -5 2 C-2 0 -2 0 0 0 Z " fill="#83CD63" transform="translate(319,252)"/>
<path d="M0 0 C-0.33 2.31 -0.66 4.62 -1 7 C-2.32 6.34 -3.64 5.68 -5 5 C-4.625 3.0625 -4.625 3.0625 -4 1 C-2 0 -2 0 0 0 Z " fill="#8CDA4B" transform="translate(127,247)"/>
<path d="M0 0 C1 2 1 2 0.44140625 3.9453125 C0.15136719 4.66460937 -0.13867188 5.38390625 -0.4375 6.125 C-0.72496094 6.84945312 -1.01242188 7.57390625 -1.30859375 8.3203125 C-1.53675781 8.87460938 -1.76492187 9.42890625 -2 10 C-2.33 10 -2.66 10 -3 10 C-3.29296875 3.9453125 -3.29296875 3.9453125 -3 2 C-2.01 1.34 -1.02 0.68 0 0 Z " fill="#86C867" transform="translate(168,234)"/>
<path d="M0 0 C0.99 0 1.98 0 3 0 C3 0.66 3 1.32 3 2 C2.01 2.495 2.01 2.495 1 3 C1 4.65 1 6.3 1 8 C0.01 7.34 -0.98 6.68 -2 6 C-1.125 1.125 -1.125 1.125 0 0 Z " fill="#8CBF6D" transform="translate(153,204)"/>
<path d="M0 0 C0.66 0.33 1.32 0.66 2 1 C1.38461538 6.53846154 1.38461538 6.53846154 -0.5625 8.875 C-1.036875 9.24625 -1.51125 9.6175 -2 10 C-2.17942163 6.05272412 -2.09350689 3.4019487 0 0 Z " fill="#86CB61" transform="translate(254,243)"/>
<path d="M0 0 C0 0.66 0 1.32 0 2 C-2.64738916 3.4606285 -3.89448334 4 -7 4 C-7.33 4.99 -7.66 5.98 -8 7 C-7.8125 4.625 -7.8125 4.625 -7 2 C-4.54236535 0.67665827 -2.79402354 0 0 0 Z " fill="#8EBC6B" transform="translate(304,220)"/>
<path d="M0 0 C2 3 2 3 1.625 5.6875 C1.41875 6.450625 1.2125 7.21375 1 8 C0.34 8 -0.32 8 -1 8 C-1.93065133 5.39417629 -2.14917407 4.35801776 -1.0625 1.75 C-0.711875 1.1725 -0.36125 0.595 0 0 Z " fill="#85D950" transform="translate(378,202)"/>
<path d="M0 0 C0.99 0.33 1.98 0.66 3 1 C2.625 3.9375 2.625 3.9375 2 7 C1.01 7.495 1.01 7.495 0 8 C0 5.36 0 2.72 0 0 Z " fill="#86BF67" transform="translate(191,251)"/>
<path d="M0 0 C0.66 0 1.32 0 2 0 C1.34 2.64 0.68 5.28 0 8 C-0.66 8 -1.32 8 -2 8 C-1.125 2.25 -1.125 2.25 0 0 Z " fill="#8FC661" transform="translate(150,223)"/>
<path d="M0 0 C0.66 0.33 1.32 0.66 2 1 C0.875 3.5 0.875 3.5 -1 6 C-4.1875 6.3125 -4.1875 6.3125 -7 6 C-7 5.67 -7 5.34 -7 5 C-5.35 5 -3.7 5 -2 5 C-1.34 3.35 -0.68 1.7 0 0 Z " fill="#82B766" transform="translate(100,222)"/>
<path d="M0 0 C0.66 1.32 1.32 2.64 2 4 C0.35 4.66 -1.3 5.32 -3 6 C-3.66 5.34 -4.32 4.68 -5 4 C-3.68 4 -2.36 4 -1 4 C-0.67 2.68 -0.34 1.36 0 0 Z " fill="#87DC50" transform="translate(61,218)"/>
</svg>
