<?xml version="1.0" encoding="UTF-8"?>
<svg version="1.1" xmlns="http://www.w3.org/2000/svg" width="500" height="500">
<path d="M0 0 C2 1.5625 2 1.5625 3 2.5625 C3.16407956 7.40284716 2.95348275 11.79508627 2 16.5625 C2.64066406 16.45550781 3.28132813 16.34851563 3.94140625 16.23828125 C9.97901991 15.4014734 13.79041638 15.22836649 19 18.5625 C22.7827765 23.53983751 24.24600509 28.2996203 24 34.5625 C22.61115481 43.0424682 18.69229986 50.56250636 12 56 C6.03008987 59.10932819 0.55417227 60.84361924 -6.15234375 58.95703125 C-9.36580233 57.81227295 -11.55926082 57.00323918 -14 54.5625 C-14.763125 55.201875 -15.52625 55.84125 -16.3125 56.5 C-20.88237191 60.007111 -24.46229476 59.82620025 -30 59.5625 C-30.66 58.9025 -31.32 58.2425 -32 57.5625 C-31.84579655 48.70543927 -28.65966648 40.36564293 -26 32 C-25.29916168 29.79027807 -24.60099665 27.57988885 -23.91113281 25.36671448 C-23.48469636 23.99889554 -23.05219473 22.6329457 -22.61230469 21.26939392 C-20.69034203 15.10996169 -19.21336664 8.91497418 -21 2.5625 C-14.03821465 -1.12411919 -7.48662277 -3.58734008 0 0 Z M-1.88671875 28.0234375 C-4.7528235 31.46700144 -5.64774302 34.9155298 -6.8125 39.1875 C-7.15571289 40.35152344 -7.15571289 40.35152344 -7.50585938 41.5390625 C-8.91127706 45.59476339 -8.91127706 45.59476339 -8 49.5625 C-5.46734428 48.56961401 -4.22096774 47.9195558 -2.76953125 45.57421875 C-0.03730167 38.93880406 1.14213467 33.81136837 1 26.5625 C-0.26592457 26.46046013 -0.26592457 26.46046013 -1.88671875 28.0234375 Z " fill="#80D757" transform="translate(243,203.4375)"/>
<path d="M0 0 C7.3263413 5.94027673 7.70566224 19.27464075 9 28 C9.66 28 10.32 28 11 28 C12.32087692 25.82443801 13.07112439 24.56899513 12.75 22 C12.04880555 19.98085006 12.04880555 19.98085006 10.97265625 18.1484375 C8.82808965 13.41144301 9.55006808 8.37479199 11.125 3.5625 C13.50564479 0.30895212 15.04387564 -0.3670201 19 -1 C22.0083978 -0.30037261 23.50574288 0.46846315 25.60546875 2.7265625 C28.48773251 7.42537905 27.753514 12.71994176 27 18 C22.88386633 32.46275684 13.36879573 45.86118427 0.34765625 53.5703125 C-6.45205746 57.06502586 -13.27405234 59.64734605 -20.96875 57.43359375 C-27.1900122 54.91609146 -27.1900122 54.91609146 -29 52 C-30.65825977 45.1458596 -30.65825977 45.1458596 -28.3125 41.0625 C-24.98003802 38.09030418 -24.98003802 38.09030418 -22 38 C-18.03419931 39.09059519 -15.60037801 40.82176021 -13 44 C-13 44.99 -13 45.98 -13 47 C-10.525 46.505 -10.525 46.505 -8 46 C-8.61875 45.278125 -9.2375 44.55625 -9.875 43.8125 C-12.95567575 39.73513504 -14.17308965 35.94483576 -14.8515625 30.91796875 C-14.98046875 29.98662109 -15.109375 29.05527344 -15.2421875 28.09570312 C-15.36851562 27.13599609 -15.49484375 26.17628906 -15.625 25.1875 C-15.7590625 24.20845703 -15.893125 23.22941406 -16.03125 22.22070312 C-16.35989962 19.81451838 -16.68262087 17.40769281 -17 15 C-18.32 15 -19.64 15 -21 15 C-21.56777582 11.75556675 -21.44239924 9.69245099 -19.65234375 6.890625 C-13.88152834 -0.05971972 -8.82938618 -2.13614182 0 0 Z " fill="#81D657" transform="translate(293,220)"/>
<path d="M0 0 C4.12538296 6.00055703 3.10948119 12.04223659 2 19 C1.45727128 21.41392773 0.7995254 23.65472549 0 26 C0.99 26.33 1.98 26.66 3 27 C3.50232738 30.51629163 3.17269561 31.76045447 1.0625 34.6875 C-2.84803232 37.64035094 -6.0980894 38.84187385 -11 39 C-14.19035184 38.39324597 -17.12138234 37.51641466 -20 36 C-20.33 35.34 -20.66 34.68 -21 34 C-22.3921875 34.9590625 -22.3921875 34.9590625 -23.8125 35.9375 C-28.4113145 38.9132035 -31.57269478 39.3679529 -37 39 C-41.0969656 37.424244 -43.96600223 35.96094302 -46 32 C-47.04536779 27.37051406 -47.42750376 25.13288496 -45.75 20.6875 C-42.95710739 16.39841493 -40.935308 14.53945387 -36 13 C-32.89098843 12.76218382 -29.80321029 12.81106277 -26.6875 12.875 C-25.85154297 12.88402344 -25.01558594 12.89304688 -24.15429688 12.90234375 C-22.10274031 12.92579011 -20.05133223 12.96165734 -18 13 C-16.64560332 10.29120665 -16.93498549 7.99066732 -17 5 C-17.61875 5.969375 -18.2375 6.93875 -18.875 7.9375 C-21 11 -21 11 -23 12 C-27.31448031 12.50807587 -30.82998515 12.74196064 -34.5625 10.375 C-36.46543651 7.23101795 -36.6646293 5.61853729 -36 2 C-33.30244923 -2.09283566 -30.57460125 -3.36984799 -25.9375 -4.375 C-17.27643294 -5.5889501 -7.13048648 -5.81134648 0 0 Z M-23 21 C-23.66 21.66 -24.32 22.32 -25 23 C-25 24.32 -25 25.64 -25 27 C-24.01 26.67 -23.02 26.34 -22 26 C-21.67 24.35 -21.34 22.7 -21 21 C-21.66 21 -22.32 21 -23 21 Z " fill="#80D657" transform="translate(369,224)"/>
<path d="M0 0 C0.97066406 -0.00257813 1.94132812 -0.00515625 2.94140625 -0.0078125 C4.45154297 0.00378906 4.45154297 0.00378906 5.9921875 0.015625 C7.00667969 0.00789062 8.02117187 0.00015625 9.06640625 -0.0078125 C10.03449219 -0.00523437 11.00257813 -0.00265625 12 0 C13.32862061 0.00338379 13.32862061 0.00338379 14.68408203 0.00683594 C16.8671875 0.265625 16.8671875 0.265625 18.8671875 2.265625 C18.66864368 5.14451034 17.81474653 6.32703284 15.92822266 8.53613281 C13.72663885 11.45175789 12.92296737 13.60940033 12.015625 17.125 C11.57476562 18.79949219 11.57476562 18.79949219 11.125 20.5078125 C10.83367187 21.66539062 10.54234375 22.82296875 10.2421875 24.015625 C9.943125 25.15773437 9.6440625 26.29984375 9.3359375 27.4765625 C7.7157381 33.71361329 6.22101937 39.96561532 4.8671875 46.265625 C11.05103919 44.33317135 14.07569564 41.195177 18.16796875 36.2265625 C19.8671875 34.265625 19.8671875 34.265625 21.8671875 33.265625 C27.40564904 33.03485577 27.40564904 33.03485577 29.8671875 34.265625 C30.44276424 40.74086338 28.84722363 46.48950558 25.8671875 52.265625 C24.04314425 54.28732843 22.56929302 55.17041394 19.85913086 55.53793335 C17.28136351 55.64709472 14.72059923 55.65491274 12.140625 55.62890625 C11.19659821 55.62940475 10.25257141 55.62990326 9.27993774 55.63041687 C7.28784069 55.62807928 5.29574051 55.61836937 3.30371094 55.60180664 C0.24647801 55.57815819 -2.80988602 55.581255 -5.8671875 55.58789062 C-7.80208855 55.58231567 -9.73698593 55.57520694 -11.671875 55.56640625 C-13.04842758 55.56777336 -13.04842758 55.56777336 -14.45278931 55.56916809 C-15.72453506 55.55487007 -15.72453506 55.55487007 -17.02197266 55.5402832 C-18.14304916 55.53337212 -18.14304916 55.53337212 -19.28677368 55.52632141 C-21.1328125 55.265625 -21.1328125 55.265625 -23.1328125 53.265625 C-23.0078125 51.390625 -23.0078125 51.390625 -22.1328125 49.265625 C-21.50866455 48.73243652 -20.8845166 48.19924805 -20.24145508 47.64990234 C-17.35511187 44.38626593 -16.60664171 41.15124257 -15.51953125 36.9921875 C-15.30085892 36.19082367 -15.08218658 35.38945984 -14.85688782 34.56381226 C-14.39916926 32.8727762 -13.94822953 31.17989251 -13.50366211 29.48535156 C-12.8231206 26.90128756 -12.11539689 24.32580055 -11.40429688 21.75 C-10.96189073 20.10200481 -10.52108193 18.45357981 -10.08203125 16.8046875 C-9.87068039 16.0388736 -9.65932953 15.27305969 -9.4415741 14.48403931 C-8.30201379 10.06011618 -7.98860028 6.80383931 -9.1328125 2.265625 C-5.97323295 0.41526349 -3.64385348 0.00925675 0 0 Z " fill="#7FD756" transform="translate(144.1328125,207.734375)"/>
<path d="M0 0 C2.5 1.5 2.5 1.5 4 4 C4.80139373 8.96864111 4.80139373 8.96864111 4 12 C2.21147331 14.45017819 0.35970568 16.0335786 -2 18 C-1.34 18.66 -0.68 19.32 0 20 C1.91962685 29.05452309 -1.46188809 37.29015683 -4.68530273 45.61254883 C-6.72345928 50.98562864 -6.72345928 50.98562864 -6.2109375 56.6328125 C-5.81132812 57.41398437 -5.41171875 58.19515625 -5 59 C-8.16682546 60.85874882 -10.47936075 61.24737367 -14.1328125 61.23046875 C-15.10347656 61.22853516 -16.07414062 61.22660156 -17.07421875 61.22460938 C-18.08097656 61.21236328 -19.08773437 61.20011719 -20.125 61.1875 C-21.64673828 61.1865332 -21.64673828 61.1865332 -23.19921875 61.18554688 C-30.71902375 61.14048812 -30.71902375 61.14048812 -33 60 C-32.36546262 55.43133089 -32.36546262 55.43133089 -30.65625 53.4140625 C-28.16586412 49.7842076 -27.10330402 45.80656757 -25.8125 41.625 C-25.53986328 40.78710938 -25.26722656 39.94921875 -24.98632812 39.0859375 C-23.13247218 33.1759005 -22.13185334 28.07147663 -24 22 C-19.20186518 18.30912706 -14.94074887 17.00332648 -9 16 C-9.72896484 15.39478516 -9.72896484 15.39478516 -10.47265625 14.77734375 C-12.83278195 12.03090591 -12.48206122 9.6569235 -12.33984375 6.1640625 C-12 4 -12 4 -10.5 1.4375 C-6.95397683 -0.60146332 -3.99298467 -0.78550518 0 0 Z " fill="#7ED756" transform="translate(209,202)"/>
<path d="M0 0 C1.74216797 0.02707031 1.74216797 0.02707031 3.51953125 0.0546875 C4.39996094 0.07789063 5.28039062 0.10109375 6.1875 0.125 C6.1875 0.455 6.1875 0.785 6.1875 1.125 C4.86685547 1.32416016 4.86685547 1.32416016 3.51953125 1.52734375 C1.77736328 1.79224609 1.77736328 1.79224609 0 2.0625 C-1.72283203 2.32353516 -1.72283203 2.32353516 -3.48046875 2.58984375 C-6.27575212 3.03879313 -9.04183586 3.54582162 -11.8125 4.125 C-11.915625 4.888125 -12.01875 5.65125 -12.125 6.4375 C-12.8125 9.125 -12.8125 9.125 -14.40625 10.5 C-16.08251384 12.05318539 -16.08251384 12.05318539 -15.66796875 14.38671875 C-15.44753906 15.18722656 -15.22710937 15.98773438 -15 16.8125 C-14.78730469 17.62074219 -14.57460938 18.42898437 -14.35546875 19.26171875 C-14.17628906 19.87660156 -13.99710937 20.49148438 -13.8125 21.125 C-12.23120971 21.34831199 -10.64728911 21.55304644 -9.0625 21.75 C-8.18078125 21.86601562 -7.2990625 21.98203125 -6.390625 22.1015625 C-3.58390122 22.12707817 -2.17865134 21.57343844 0.1875 20.125 C0.1875 20.785 0.1875 21.445 0.1875 22.125 C0.8475 22.125 1.5075 22.125 2.1875 22.125 C2.1875 21.465 2.1875 20.805 2.1875 20.125 C6.8125 18 6.8125 18 10.1875 19.125 C11.1775 19.785 12.1675 20.445 13.1875 21.125 C13.1875 22.115 13.1875 23.105 13.1875 24.125 C11.25 23.75 11.25 23.75 9.1875 23.125 C8.8575 22.465 8.5275 21.805 8.1875 21.125 C7.259375 21.764375 6.33125 22.40375 5.375 23.0625 C0.7761855 26.0382035 -2.38519478 26.4929529 -7.8125 26.125 C-11.9094656 24.549244 -14.77850223 23.08594302 -16.8125 19.125 C-17.85786779 14.49551406 -18.24000376 12.25788496 -16.5625 7.8125 C-12.25356916 1.19521336 -7.86848391 -0.15895927 0 0 Z " fill="#86C763" transform="translate(339.8125,236.875)"/>
<path d="M0 0 C0.66 0.33 1.32 0.66 2 1 C1.60418903 3.12898327 1.18264558 5.2531956 0.75 7.375 C0.40195313 9.15003906 0.40195313 9.15003906 0.046875 10.9609375 C-1 14 -1 14 -3.109375 15.4140625 C-3.73328125 15.60742188 -4.3571875 15.80078125 -5 16 C-5 16.66 -5 17.32 -5 18 C9.19 18 23.38 18 38 18 C38.66 16.68 39.32 15.36 40 14 C40.66 14 41.32 14 42 14 C40.75023244 17.65316671 40.32901247 18.78065836 37 21 C35.02024841 21.25396729 35.02024841 21.25396729 32.74389648 21.25878906 C31.88968613 21.26509338 31.03547577 21.27139771 30.15538025 21.27789307 C29.2365657 21.2738446 28.31775116 21.26979614 27.37109375 21.265625 C25.95293114 21.26849518 25.95293114 21.26849518 24.50611877 21.27142334 C22.5080641 21.27278418 20.51000057 21.26909478 18.51196289 21.26074219 C15.44592547 21.25002944 12.38047242 21.26064705 9.31445312 21.2734375 C7.3749987 21.27211612 5.43554464 21.26955417 3.49609375 21.265625 C2.57525497 21.26967346 1.6544162 21.27372192 0.70567322 21.27789307 C-0.14538498 21.27158875 -0.99644318 21.26528442 -1.87329102 21.25878906 C-2.62369156 21.25719788 -3.3740921 21.25560669 -4.14723206 21.25396729 C-6 21 -6 21 -8 19 C-7.80997697 16.1496545 -7.17839226 15.1626307 -5.0546875 13.2265625 C-2.6383847 10.60813551 -2.06902088 8.6898877 -1.25 5.25 C-1.00765625 4.26515625 -0.7653125 3.2803125 -0.515625 2.265625 C-0.34546875 1.51796875 -0.1753125 0.7703125 0 0 Z " fill="#89BE66" transform="translate(129,242)"/>
<path d="M0 0 C0.66 0.66 1.32 1.32 2 2 C-0.31 2 -2.62 2 -5 2 C-4.34 3.32 -3.68 4.64 -3 6 C-6.81489674 7.46726798 -9.29011622 6.43336419 -13 5 C-13 5.99 -13 6.98 -13 8 C-13.66 8 -14.32 8 -15 8 C-15 7.34 -15 6.68 -15 6 C-15.66 5.67 -16.32 5.34 -17 5 C-16.67 4.34 -16.34 3.68 -16 3 C-19.55780196 3.60990891 -22.6828589 4.5783681 -26 6 C-25.67 8.64 -25.34 11.28 -25 14 C-25.66 14 -26.32 14 -27 14 C-28.44430855 11.11138291 -28.37688506 9.20352299 -28 6 C-25.30244923 1.90716434 -22.57460125 0.63015201 -17.9375 -0.375 C-11.95339525 -1.23684117 -5.94107928 -1.18249411 0 0 Z " fill="#85D45B" transform="translate(361,220)"/>
<path d="M0 0 C2.5 1.5 2.5 1.5 4 4 C4.8032596 9.06053551 4.8032596 9.06053551 4 12 C2.17787297 14.19603171 0.41222884 15.39184744 -2 17 C-2.33 16.01 -2.66 15.02 -3 14 C-2.01 13.67 -1.02 13.34 0 13 C1.41666667 10.66666667 1.41666667 10.66666667 2 8 C0.33075929 4.95865509 0.33075929 4.95865509 -2 4 C-2 3.34 -2 2.68 -2 2 C-3.98 2.33 -5.96 2.66 -8 3 C-8.33 3.99 -8.66 4.98 -9 6 C-9.66 6 -10.32 6 -11 6 C-10.67 8.31 -10.34 10.62 -10 13 C-10.66 13 -11.32 13 -12 13 C-12.61189802 5.04532578 -12.61189802 5.04532578 -10.5 1.4375 C-6.95397683 -0.60146332 -3.99298467 -0.78550518 0 0 Z " fill="#8CCA5F" transform="translate(209,202)"/>
<path d="M0 0 C0.66 0.33 1.32 0.66 2 1 C2.25 7.625 2.25 7.625 0 11 C-0.33 9.68 -0.66 8.36 -1 7 C-1.66 7 -2.32 7 -3 7 C-2.67 5.68 -2.34 4.36 -2 3 C-5.84174552 3.54882079 -7.42558923 5.18423822 -10 8 C-12.57441077 10.81576178 -14.15825448 12.45117921 -18 13 C-8.1276771 -1.1083196 -8.1276771 -1.1083196 0 0 Z " fill="#88C963" transform="translate(172,241)"/>
<path d="M0 0 C0.66 0.33 1.32 0.66 2 1 C1.34 2.98 0.68 4.96 0 7 C10.395 6.505 10.395 6.505 21 6 C21.33 4.68 21.66 3.36 22 2 C22.66 3.65 23.32 5.3 24 7 C20.83317454 8.85874882 18.52063925 9.24737367 14.8671875 9.23046875 C13.41119141 9.22756836 13.41119141 9.22756836 11.92578125 9.22460938 C10.91902344 9.21236328 9.91226563 9.20011719 8.875 9.1875 C7.35326172 9.1865332 7.35326172 9.1865332 5.80078125 9.18554688 C-1.71902375 9.14048812 -1.71902375 9.14048812 -4 8 C-3.50168276 4.31245243 -2.89932357 2.39509338 0 0 Z " fill="#90B864" transform="translate(180,254)"/>
<path d="M0 0 C0 0.66 0 1.32 0 2 C-0.99902344 2.18175781 -1.99804688 2.36351562 -3.02734375 2.55078125 C-4.31769531 2.80214844 -5.60804688 3.05351562 -6.9375 3.3125 C-8.86916016 3.67794922 -8.86916016 3.67794922 -10.83984375 4.05078125 C-11.88269531 4.36402344 -12.92554688 4.67726562 -14 5 C-14.33 5.99 -14.66 6.98 -15 8 C-14.34 8 -13.68 8 -13 8 C-12.875 14.625 -12.875 14.625 -14 18 C-14.66 18 -15.32 18 -16 18 C-15.98839844 17.39671875 -15.97679687 16.7934375 -15.96484375 16.171875 C-15.95582031 15.37265625 -15.94679687 14.5734375 -15.9375 13.75 C-15.92589844 12.96109375 -15.91429687 12.1721875 -15.90234375 11.359375 C-15.99614694 9.09308998 -16.36758937 7.1711105 -17 5 C-10.80852 0.63782091 -7.52800531 -0.14476933 0 0 Z " fill="#8BC364" transform="translate(202,219)"/>
<path d="M0 0 C4.32483175 0.48053686 6.23076498 1.65781981 9 5 C11.68655102 8.76117143 11.14843501 12.5469496 11 17 C10.34 17 9.68 17 9 17 C8.9175 15.88625 8.835 14.7725 8.75 13.625 C8.42126213 9.94246056 8.42126213 9.94246056 5.9375 8.5625 C5.298125 8.376875 4.65875 8.19125 4 8 C4.33 7.01 4.66 6.02 5 5 C4.67 4.01 4.34 3.02 4 2 C1.98491642 1.26676204 1.98491642 1.26676204 0 1 C0 0.67 0 0.34 0 0 Z " fill="#87C866" transform="translate(255,220)"/>
<path d="M0 0 C0.66 0.33 1.32 0.66 2 1 C-2.65188666 8.72015232 -6.90863368 13.72715842 -16 16 C-19.375 16.125 -19.375 16.125 -22 16 C-22 15.34 -22 14.68 -22 14 C-18.92382812 13.70703125 -18.92382812 13.70703125 -15.84765625 13.4140625 C-15.23792969 13.27742188 -14.62820312 13.14078125 -14 13 C-13.67 12.34 -13.34 11.68 -13 11 C-11.22265625 10.2890625 -11.22265625 10.2890625 -9.0625 9.625 C-5.72661404 8.49906558 -5.72661404 8.49906558 -3.5 5.8125 C-3.335 5.214375 -3.17 4.61625 -3 4 C-2.34 4 -1.68 4 -1 4 C-0.67 2.68 -0.34 1.36 0 0 Z " fill="#8BC169" transform="translate(262,247)"/>
<path d="M0 0 C0.66 0.99 1.32 1.98 2 3 C1.4609375 5.62890625 1.4609375 5.62890625 0.375 8.5625 C0.03210938 9.53316406 -0.31078125 10.50382813 -0.6640625 11.50390625 C-2.15861578 14.29636106 -3.02915851 15.03112046 -6 16 C-8.1875 15.8125 -8.1875 15.8125 -10 15 C-11.41687119 10.74938644 -10.19320039 8.28148375 -9 4 C-7 7 -7 7 -7.375 10.1875 C-7.58125 11.115625 -7.7875 12.04375 -8 13 C-5.01316544 11.95837282 -4.1449349 11.29792173 -2.734375 8.3984375 C-2.40953125 7.40070313 -2.0846875 6.40296875 -1.75 5.375 C-1.41484375 4.37210938 -1.0796875 3.36921875 -0.734375 2.3359375 C-0.49203125 1.56507813 -0.2496875 0.79421875 0 0 Z " fill="#89BD67" transform="translate(243,239)"/>
<path d="M0 0 C3.27760318 3.02547986 4.49621607 5.59189062 5 10 C3.5 8.6875 3.5 8.6875 2 7 C2 6.01 2 5.02 2 4 C-1.34939881 1.97441119 -3.86962551 1.78261013 -7.75 1.875 C-8.73484375 1.89304688 -9.7196875 1.91109375 -10.734375 1.9296875 C-11.48203125 1.95289063 -12.2296875 1.97609375 -13 2 C-13.33 2.99 -13.66 3.98 -14 5 C-16.0625 6.6875 -16.0625 6.6875 -18 8 C-18.66 7.67 -19.32 7.34 -20 7 C-18.75803878 5.84545838 -17.50607155 4.70167438 -16.25 3.5625 C-15.55390625 2.92441406 -14.8578125 2.28632813 -14.140625 1.62890625 C-9.82778069 -1.6529479 -5.06433469 -1.5182605 0 0 Z " fill="#8BBF6F" transform="translate(293,220)"/>
<path d="M0 0 C0.66 0.33 1.32 0.66 2 1 C1.01 3.31 0.02 5.62 -1 8 C-1.556875 7.649375 -2.11375 7.29875 -2.6875 6.9375 C-5.58531848 5.76270872 -7.0517025 6.06895868 -10 7 C-10.66 7.66 -11.32 8.32 -12 9 C-12.99 9 -13.98 9 -15 9 C-12.99922358 4.99844716 -9.15785481 2.3859516 -5 1 C-4.01 1.66 -3.02 2.32 -2 3 C-1.34 2.01 -0.68 1.02 0 0 Z " fill="#85CB60" transform="translate(316,242)"/>
<path d="M0 0 C1.2065625 0.0309375 1.2065625 0.0309375 2.4375 0.0625 C2.2209375 0.8978125 2.2209375 0.8978125 2 1.75 C1.40980872 4.17634195 0.914071 6.61156345 0.4375 9.0625 C-0.2225 9.0625 -0.8825 9.0625 -1.5625 9.0625 C-1.5625 11.0425 -1.5625 13.0225 -1.5625 15.0625 C-2.2225 15.0625 -2.8825 15.0625 -3.5625 15.0625 C-3.376875 13.86625 -3.19125 12.67 -3 11.4375 C-2.52452675 7.77049398 -2.85212494 4.70317216 -3.5625 1.0625 C-2.5625 0.0625 -2.5625 0.0625 0 0 Z " fill="#86CE66" transform="translate(138.5625,208.9375)"/>
<path d="M0 0 C-2.58155132 2.27176516 -4.2106488 3.05084626 -7.625 3.875 C-11.18841643 4.63768188 -11.18841643 4.63768188 -12.4375 7.625 C-12.7159375 8.800625 -12.7159375 8.800625 -13 10 C-13.99 9.34 -14.98 8.68 -16 8 C-16 5.6875 -16 5.6875 -15 3 C-10.29730117 0.06368073 -5.40233869 -0.33764617 0 0 Z " fill="#87C567" transform="translate(238,202)"/>
<path d="M0 0 C6.56485356 3.58082921 6.56485356 3.58082921 7.6875 7.2421875 C7.94731112 9.84841779 8.02317561 12.38115562 8 15 C8.01289063 15.87398437 8.02578125 16.74796875 8.0390625 17.6484375 C8.05909846 19.76557023 8.03414439 21.8830478 8 24 C7.67 24 7.34 24 7 24 C6.49685437 21.22970414 5.99736162 18.4588348 5.5 15.6875 C5.35691406 14.90181641 5.21382813 14.11613281 5.06640625 13.30664062 C4.93105469 12.54931641 4.79570312 11.79199219 4.65625 11.01171875 C4.53056641 10.31522217 4.40488281 9.61872559 4.27539062 8.90112305 C4 7 4 7 4 4 C2.68 4 1.36 4 0 4 C0 2.68 0 1.36 0 0 Z " fill="#8BC168" transform="translate(272,231)"/>
<path d="M0 0 C0 0.33 0 0.66 0 1 C-1.36125 1.4021875 -1.36125 1.4021875 -2.75 1.8125 C-5.73497101 2.90316248 -7.54112724 4.06802855 -10 6 C-10.66 6 -11.32 6 -12 6 C-11.67 8.64 -11.34 11.28 -11 14 C-11.66 14 -12.32 14 -13 14 C-14.44430855 11.11138291 -14.37688506 9.20352299 -14 6 C-9.68546775 0.75259591 -6.62386275 -0.14719695 0 0 Z " fill="#87C16C" transform="translate(347,220)"/>
<path d="M0 0 C0.33 0.99 0.66 1.98 1 3 C-0.0828125 4.1446875 -0.0828125 4.1446875 -1.1875 5.3125 C-5.53794411 10.06396271 -6.50688789 16.91077183 -8 23 C-8.33 23 -8.66 23 -9 23 C-9 20.36 -9 17.72 -9 15 C-8.34 15 -7.68 15 -7 15 C-6.95875 13.824375 -6.9175 12.64875 -6.875 11.4375 C-6.28277064 6.32610508 -3.57530071 3.49876522 0 0 Z " fill="#8EC363" transform="translate(162,210)"/>
<path d="M0 0 C0.99 0.33 1.98 0.66 3 1 C-4.11389522 10.59453303 -4.11389522 10.59453303 -9 14 C-8.6875 12.125 -8.6875 12.125 -8 10 C-7.01 9.34 -6.02 8.68 -5 8 C-4.27034634 5.43717258 -4.27034634 5.43717258 -4 3 C-3.01 3 -2.02 3 -1 3 C-0.67 2.01 -0.34 1.02 0 0 Z " fill="#89C764" transform="translate(309,254)"/>
<path d="M0 0 C1.90318884 2.85478326 2.4619099 4.41941308 3.125 7.6875 C3.29257813 8.49574219 3.46015625 9.30398437 3.6328125 10.13671875 C3.75398437 10.75160156 3.87515625 11.36648437 4 12 C3.01 12 2.02 12 1 12 C0.67 10.35 0.34 8.7 0 7 C-0.45375 7.45375 -0.9075 7.9075 -1.375 8.375 C-2.58333333 9.58333333 -3.79166667 10.79166667 -5 12 C-4.625 9.0625 -4.625 9.0625 -4 6 C-3.34 5.67 -2.68 5.34 -2 5 C-1.27840576 3.35636866 -0.60648579 1.68949614 0 0 Z " fill="#89C961" transform="translate(243,224)"/>
<path d="M0 0 C0.99 0.66 1.98 1.32 3 2 C3.29296875 4.6015625 3.29296875 4.6015625 3.1875 7.625 C3.16042969 8.62789062 3.13335937 9.63078125 3.10546875 10.6640625 C3.07066406 11.43492187 3.03585938 12.20578125 3 13 C2.34 13 1.68 13 1 13 C0.96261719 12.38511719 0.92523438 11.77023438 0.88671875 11.13671875 C0.82097656 10.32847656 0.75523437 9.52023438 0.6875 8.6875 C0.62949219 7.88699219 0.57148438 7.08648437 0.51171875 6.26171875 C-0.08206694 3.63727666 -0.95780294 2.69179328 -3 1 C-2.01 0.67 -1.02 0.34 0 0 Z " fill="#85C565" transform="translate(206,220)"/>
<path d="M0 0 C0.19622241 4.21878192 -0.19769832 7.17010894 -2 11 C-2.33 11 -2.66 11 -3 11 C-3 8.69 -3 6.38 -3 4 C-3.66 4 -4.32 4 -5 4 C-5.33 3.01 -5.66 2.02 -6 1 C-3.92446352 0.4465236 -2.15634036 0 0 0 Z " fill="#7DCE5E" transform="translate(151,239)"/>
<path d="M0 0 C2.9502636 0.65561413 5.31635923 0.10006289 8.25 -0.5 C6.19766315 1.7477975 5.24332739 2.5022242 2.25 3.5 C0.25038436 3.53920815 -1.75049364 3.54443347 -3.75 3.5 C-3.75 2.51 -3.75 1.52 -3.75 0.5 C-1.75 -0.5 -1.75 -0.5 0 0 Z " fill="#92D653" transform="translate(285.75,272.5)"/>
<path d="M0 0 C0 3.41099168 -0.49145406 6.63088314 -1 10 C-1.99 10 -2.98 10 -4 10 C-4.8125 8.375 -4.8125 8.375 -5 6 C-3.53181864 3.75390165 -1.84147142 1.97621323 0 0 Z " fill="#7CD951" transform="translate(269,261)"/>
<path d="M0 0 C-1.65215996 3.57967992 -3.73124352 6.77982952 -6 10 C-6.33 10 -6.66 10 -7 10 C-6.39169139 3.55192878 -6.39169139 3.55192878 -4.625 1.0625 C-3 0 -3 0 0 0 Z " fill="#86C268" transform="translate(270,259)"/>
<path d="M0 0 C2 3 2 3 1.625 6.1875 C1.41875 7.115625 1.2125 8.04375 1 9 C2.32 9.66 3.64 10.32 5 11 C3.35 11.33 1.7 11.66 0 12 C-1.125 10.5 -1.125 10.5 -2 8 C-1.57598348 5.2226918 -0.81108065 2.70360217 0 0 Z " fill="#86CA66" transform="translate(234,243)"/>
<path d="M0 0 C0.66 0.33 1.32 0.66 2 1 C2.20086443 4.71599191 2.1519437 5.77208445 0 9 C-0.66 9 -1.32 9 -2 9 C-2.25 3.375 -2.25 3.375 0 0 Z " fill="#85C865" transform="translate(370,250)"/>
<path d="M0 0 C1.485 0.99 1.485 0.99 3 2 C3.27060777 6.1944205 3.34152439 9.97542684 2 14 C1.34 14 0.68 14 0 14 C0.09539062 13.22914063 0.19078125 12.45828125 0.2890625 11.6640625 C0.39992187 10.66117188 0.51078125 9.65828125 0.625 8.625 C0.74101562 7.62726563 0.85703125 6.62953125 0.9765625 5.6015625 C0.98816406 4.31378906 0.98816406 4.31378906 1 3 C0.34 2.34 -0.32 1.68 -1 1 C-0.67 0.67 -0.34 0.34 0 0 Z " fill="#8AC56D" transform="translate(243,204)"/>
<path d="M0 0 C0.66 0.33 1.32 0.66 2 1 C1.25 3.9375 1.25 3.9375 0 7 C-2.125 7.875 -2.125 7.875 -4 8 C-3.50168276 4.31245243 -2.89932357 2.39509338 0 0 Z " fill="#89C268" transform="translate(180,254)"/>
<path d="M0 0 C0.66 0 1.32 0 2 0 C2.19622241 4.21878192 1.80230168 7.17010894 0 11 C-2 8 -2 8 -1.7578125 5.95703125 C-1.171875 3.97135417 -0.5859375 1.98567708 0 0 Z " fill="#90CA5E" transform="translate(205,234)"/>
<path d="M0 0 C0 3 0 3 -1 6 C-1.66 6 -2.32 6 -3 6 C-2.67 8.31 -2.34 10.62 -2 13 C-2.66 13 -3.32 13 -4 13 C-4.63019694 4.80743982 -4.63019694 4.80743982 -2 1.4375 C-1.34 0.963125 -0.68 0.48875 0 0 Z " fill="#9AC873" transform="translate(201,202)"/>
<path d="M0 0 C1.65 0.33 3.3 0.66 5 1 C4.67 1.99 4.34 2.98 4 4 C2.02 4 0.04 4 -2 4 C-1.34 2.68 -0.68 1.36 0 0 Z " fill="#8BD559" transform="translate(309,250)"/>
<path d="M0 0 C2.64 0.33 5.28 0.66 8 1 C7.34 2.32 6.68 3.64 6 5 C5.67 4.01 5.34 3.02 5 2 C3.35 2.66 1.7 3.32 0 4 C0 2.68 0 1.36 0 0 Z " fill="#77C754" transform="translate(350,226)"/>
<path d="M0 0 C1.98 0 3.96 0 6 0 C6 0.99 6 1.98 6 3 C3.69 3.33 1.38 3.66 -1 4 C-0.67 2.68 -0.34 1.36 0 0 Z " fill="#95CE57" transform="translate(249,219)"/>
<path d="M0 0 C0 0.33 0 0.66 0 1 C-1.36125 1.4021875 -1.36125 1.4021875 -2.75 1.8125 C-5.71471963 2.89576294 -7.6169754 3.98359457 -10 6 C-10.66 5.67 -11.32 5.34 -12 5 C-8.62270271 0.0144659 -5.847905 -0.12995344 0 0 Z " fill="#88CA62" transform="translate(347,220)"/>
<path d="M0 0 C0.99 0.495 0.99 0.495 2 1 C2.38932033 2.98985949 2.71887936 4.99199544 3 7 C3.33 7.99 3.66 8.98 4 10 C2.68 9.34 1.36 8.68 0 8 C0 5.36 0 2.72 0 0 Z " fill="#85CA62" transform="translate(198,208)"/>
</svg>
