<?xml version="1.0" encoding="UTF-8"?>
<svg version="1.1" xmlns="http://www.w3.org/2000/svg" width="500" height="500">
<path d="M0 0 C3.10367497 -0.14515677 6.20648027 -0.23400853 9.3125 -0.3125 C10.19357422 -0.35439453 11.07464844 -0.39628906 11.98242188 -0.43945312 C13.25375977 -0.46362305 13.25375977 -0.46362305 14.55078125 -0.48828125 C15.33106689 -0.51446533 16.11135254 -0.54064941 16.9152832 -0.56762695 C19 0 19 0 20.66625977 2.18774414 C21.9703067 4.93739024 22.93855416 7.56444799 23.7890625 10.484375 C24.09070313 11.50144531 24.39234375 12.51851562 24.703125 13.56640625 C25.00734375 14.61699219 25.3115625 15.66757813 25.625 16.75 C26.23944119 18.84976392 26.85648518 20.94876856 27.4765625 23.046875 C27.74549316 23.97338867 28.01442383 24.89990234 28.29150391 25.85449219 C28.80762859 27.95753456 28.80762859 27.95753456 30 29 C30.68964844 28.11699219 31.37929687 27.23398438 32.08984375 26.32421875 C35.04924824 22.54105159 38.02164993 18.76826457 41 15 C41.43683105 14.44618652 41.87366211 13.89237305 42.32373047 13.32177734 C43.50105779 11.83440653 44.68779655 10.35449975 45.875 8.875 C46.89207031 7.60269531 46.89207031 7.60269531 47.9296875 6.3046875 C53.39590872 0.21964878 53.39590872 0.21964878 57.27148438 -0.31103516 C59.96344119 -0.39370075 62.62122 -0.34890216 65.3125 -0.25 C66.70952148 -0.22292969 66.70952148 -0.22292969 68.13476562 -0.1953125 C70.42424197 -0.14834888 72.71158184 -0.08269475 75 0 C75.25 2.3125 75.25 2.3125 75 5 C74.38874268 5.39227783 73.77748535 5.78455566 73.14770508 6.1887207 C70.07552157 8.77966414 69.42538218 11.92581226 68.38671875 15.66796875 C68.05871025 16.79843376 68.05871025 16.79843376 67.72407532 17.95173645 C67.26582799 19.54593966 66.81491355 21.14226648 66.37084961 22.74047852 C65.6929847 25.1678597 64.98410111 27.58457771 64.27148438 30.00195312 C63.82882128 31.55674974 63.38800631 33.11207396 62.94921875 34.66796875 C62.73786789 35.38284958 62.52651703 36.09773041 62.3087616 36.83427429 C60.92081312 41.94865799 61.18912519 45.77479491 62 51 C61.505 51.99 61.505 51.99 61 53 C52.42 53 43.84 53 35 53 C34.505 51.02 34.505 51.02 34 49 C35.66241318 47.32909067 37.32972193 45.66304743 39 44 C40.44206388 40.56372155 40.44206388 40.56372155 41.3125 36.875 C41.63863281 35.65554687 41.96476562 34.43609375 42.30078125 33.1796875 C43.10738511 30.05427763 43.10738511 30.05427763 43 27 C42.33355469 27.87140625 41.66710937 28.7428125 40.98046875 29.640625 C36.20156457 35.84156165 31.34137736 41.98022463 26.1875 47.875 C25.33542969 48.86242187 24.48335937 49.84984375 23.60546875 50.8671875 C21 53 21 53 17.67578125 53.3203125 C16.79277344 53.21460938 15.90976563 53.10890625 15 53 C11.10606706 44.92369464 8.56469379 36.5664977 6 28 C1.67764387 36.25006236 0.64420582 43.74935136 1 53 C-3.95 53 -8.9 53 -14 53 C-13.67 51.35 -13.34 49.7 -13 48 C-11.515 47.505 -11.515 47.505 -10 47 C-9.09557918 44.86784991 -9.09557918 44.86784991 -8.546875 42.2265625 C-7.5099663 38.03696405 -6.39788272 33.90276753 -5.140625 29.7734375 C-4.82996094 28.7215625 -4.51929688 27.6696875 -4.19921875 26.5859375 C-3.56301628 24.43384519 -2.91442804 22.2853781 -2.25390625 20.140625 C-0.33004202 13.53292254 0.12788191 8.78104612 -1 2 C-0.67 1.34 -0.34 0.68 0 0 Z " fill="#1801AA" transform="translate(56,209)"/>
<path d="M0 0 C3.93844054 2.83567719 5.60470967 4.68912902 7.125 9.25 C8.09791542 18.08598594 5.75588292 24.05703035 1.125 31.4375 C-4.72654671 37.7107798 -12.33699059 40.5409077 -20.75512695 40.85400391 C-21.92821411 40.86439697 -21.92821411 40.86439697 -23.125 40.875 C-24.24104614 40.89119385 -24.24104614 40.89119385 -25.37963867 40.90771484 C-32.15793459 40.73458791 -37.56287508 38.56212492 -42.375 33.75 C-44.95879906 27.72113553 -44.97183776 21.7152308 -42.9921875 15.4609375 C-39.58155802 7.98465698 -34.82975286 3.45898782 -27.5 -0.125 C-19.41374637 -3.07673062 -7.88307595 -3.67876877 0 0 Z M-15.875 6.25 C-21.16728421 12.22515959 -24.125 21.63223915 -24.125 29.5625 C-24.0425 30.449375 -23.96 31.33625 -23.875 32.25 C-21.9277717 32.05472009 -21.9277717 32.05472009 -19.875 31.25 C-18.62185054 29.48804086 -18.62185054 29.48804086 -17.8125 27.25 C-17.48636719 26.43789062 -17.16023438 25.62578125 -16.82421875 24.7890625 C-16.51097656 23.95117188 -16.19773437 23.11328125 -15.875 22.25 C-15.57207031 21.47398437 -15.26914062 20.69796875 -14.95703125 19.8984375 C-13.21834669 15.1476656 -12.55258826 11.30111724 -12.875 6.25 C-13.865 6.25 -14.855 6.25 -15.875 6.25 Z " fill="#1801AA" transform="translate(278.875,221.75)"/>
<path d="M0 0 C3.55331281 3.02828506 5.14015004 6.08194721 6.41796875 10.51171875 C6.56077376 19.0800195 3.34997844 26.1042191 -2.51953125 32.26171875 C-8.98962781 37.98862854 -15.46064686 39.61178013 -23.95703125 39.57421875 C-25.04467773 39.59838867 -25.04467773 39.59838867 -26.15429688 39.62304688 C-32.70582142 39.62893324 -37.34734728 38.15057438 -42.39453125 33.76171875 C-45.83912218 29.70925884 -45.86035537 26.06551163 -45.80078125 20.95703125 C-45.08129838 14.06198705 -41.46956019 7.99652904 -36.51953125 3.26171875 C-26.35486023 -2.83708386 -10.86205593 -6.8337438 0 0 Z M-17.51953125 5.26171875 C-21.88581597 13.37299867 -26.26652548 21.79979186 -25.51953125 31.26171875 C-24.52953125 31.26171875 -23.53953125 31.26171875 -22.51953125 31.26171875 C-17.32388509 25.22806515 -14.26953125 16.45024928 -14.26953125 8.51171875 C-14.35203125 7.43921875 -14.43453125 6.36671875 -14.51953125 5.26171875 C-15.50953125 5.26171875 -16.49953125 5.26171875 -17.51953125 5.26171875 Z " fill="#1802A7" transform="translate(174.51953125,222.73828125)"/>
<path d="M0 0 C4.24564893 3.16342469 6.75731588 5.48918152 7.5625 10.890625 C7.93090954 19.13378836 5.48542328 24.71268477 1.1875 31.5625 C-4.66404671 37.8357798 -12.27449059 40.6659077 -20.69262695 40.97900391 C-21.86571411 40.98939697 -21.86571411 40.98939697 -23.0625 41 C-24.17854614 41.01619385 -24.17854614 41.01619385 -25.31713867 41.03271484 C-32.09543459 40.85958791 -37.50037508 38.68712492 -42.3125 33.875 C-44.89629906 27.84613553 -44.90933776 21.8402308 -42.9296875 15.5859375 C-39.51905802 8.10965698 -34.76725286 3.58398782 -27.4375 0 C-19.38966237 -2.9377076 -7.89908354 -3.52717051 0 0 Z M-15.8125 6.375 C-21.26960047 12.53624246 -24.0625 22.04085637 -24.0625 30.1875 C-23.98 31.239375 -23.8975 32.29125 -23.8125 33.375 C-20.12669291 31.79267737 -18.48620198 30.24718934 -17.01171875 26.609375 C-16.4895503 25.12086442 -15.98611505 23.62567178 -15.5 22.125 C-15.10458008 21.01705078 -15.10458008 21.01705078 -14.70117188 19.88671875 C-13.10972539 15.19918545 -12.53135554 11.31791193 -12.8125 6.375 C-13.8025 6.375 -14.7925 6.375 -15.8125 6.375 Z " fill="#1902A5" transform="translate(428.8125,221.625)"/>
<path d="M0 0 C2.36328125 2.02734375 2.36328125 2.02734375 4 4 C4.9590625 3.01 4.9590625 3.01 5.9375 2 C10.015024 -0.66287282 13.24958573 -0.98966964 18 0 C21.37882179 2.3933321 22.67073608 4.03278722 24 7.9375 C24 11.74724203 23.033189 13.80498871 21 17 C17.2794164 19.48038907 15.40203429 19.46337203 11 19 C8.63502561 17.13291495 7.33969285 15.67938569 6 13 C5.01 12.67 4.02 12.34 3 12 C2.731875 13.27875 2.46375 14.5575 2.1875 15.875 C1.41971373 19.38251284 0.46965823 22.76863852 -0.625 26.1875 C-1.7801947 29.90850403 -2.31026519 33.06997421 -2 37 C-1.34 37.33 -0.68 37.66 0 38 C-0.33 39.32 -0.66 40.64 -1 42 C-9.91 42 -18.82 42 -28 42 C-28 37.54138328 -27.56490336 37.27586978 -25 34 C-23.51264688 30.43536851 -22.41132794 26.74481759 -21.25 23.0625 C-20.92128906 22.07314453 -20.59257812 21.08378906 -20.25390625 20.06445312 C-19.79564453 18.62682617 -19.79564453 18.62682617 -19.328125 17.16015625 C-19.0487207 16.29011963 -18.76931641 15.42008301 -18.48144531 14.52368164 C-17.93653909 11.66734514 -18.32611165 9.80589273 -19 7 C-19 5.68 -19 4.36 -19 3 C-12.98498312 -0.2809183 -6.79901957 -1.21787798 0 0 Z " fill="#1802A7" transform="translate(210,220)"/>
<path d="M0 0 C3.36437601 2.98206055 4.69343512 5.06030266 5.75 9.4375 C3.82865169 14.89817416 3.82865169 14.89817416 0.75 16.4375 C-6.2468652 16.88891066 -6.2468652 16.88891066 -9.75 15.3125 C-11.85705132 12.67868585 -11.54101222 10.71138743 -11.25 7.4375 C-13.87901288 8.95956009 -16.09365964 10.28115964 -18.25 12.4375 C-19.33924009 16.84048458 -19.99886984 20.93976032 -17.9375 25.0625 C-12.5944587 27.79614903 -5.93442527 26.95334674 -0.25 25.4375 C-0.31829161 28.85208042 -0.44675607 31.47837046 -2.69921875 34.16796875 C-9.1026317 39.79352676 -14.56509112 40.90295084 -23.015625 40.75 C-27.45915057 40.32067386 -30.76245212 39.24643635 -34.25 36.4375 C-38.54826571 31.03711487 -40.02597925 26.28636037 -39.25 19.4375 C-37.41661951 11.29822483 -34.28428406 6.0013331 -27.25 1.4375 C-19.92235652 -3.07555194 -7.70574375 -3.81179648 0 0 Z " fill="#1802A8" transform="translate(377.25,221.5625)"/>
<path d="M0 0 C3.36437601 2.98206055 4.69343512 5.06030266 5.75 9.4375 C3.82865169 14.89817416 3.82865169 14.89817416 0.75 16.4375 C-6.26886792 16.89033019 -6.26886792 16.89033019 -9.6875 15.3125 C-11.78182711 12.79930747 -11.96477553 10.64627528 -12.25 7.4375 C-16.71524209 10.27292174 -16.71524209 10.27292174 -19.01171875 14.85546875 C-19.55099395 18.78116029 -19.72974619 21.47800763 -17.9375 25.0625 C-12.5944587 27.79614903 -5.93442527 26.95334674 -0.25 25.4375 C-0.31829161 28.85208042 -0.44675607 31.47837046 -2.69921875 34.16796875 C-9.1026317 39.79352676 -14.56509112 40.90295084 -23.015625 40.75 C-27.45915057 40.32067386 -30.76245212 39.24643635 -34.25 36.4375 C-38.54826571 31.03711487 -40.02597925 26.28636037 -39.25 19.4375 C-37.41661951 11.29822483 -34.28428406 6.0013331 -27.25 1.4375 C-19.92235652 -3.07555194 -7.70574375 -3.81179648 0 0 Z " fill="#1802A8" transform="translate(330.25,221.5625)"/>
<path d="M0 0 C3.10367497 -0.14515677 6.20648027 -0.23400853 9.3125 -0.3125 C10.19357422 -0.35439453 11.07464844 -0.39628906 11.98242188 -0.43945312 C14.41329251 -0.4856674 16.6129458 -0.46599863 19 0 C21 2.234375 21 2.234375 22 5 C22.31324219 5.76441406 22.62648437 6.52882812 22.94921875 7.31640625 C23.19285156 8.05761719 23.43648437 8.79882812 23.6875 9.5625 C23.93886719 10.30628906 24.19023438 11.05007812 24.44921875 11.81640625 C25 14 25 14 25 18 C24.34 18 23.68 18 23 18 C22.505 16.02 22.505 16.02 22 14 C21.01 14 20.02 14 19 14 C19.32552083 12.046875 19.65104167 10.09375 19.9765625 8.140625 C20.16772267 5.57381334 20.16772267 5.57381334 18 2 C12.39 2 6.78 2 1 2 C1.66 3.98 2.32 5.96 3 8 C3 9.32 3 10.64 3 12 C2.34 12 1.68 12 1 12 C1 14.31 1 16.62 1 19 C0.34 19 -0.32 19 -1 19 C-1.33 22.3 -1.66 25.6 -2 29 C-1.34 28.34 -0.68 27.68 0 27 C1.32 27 2.64 27 4 27 C4.33 26.34 4.66 25.68 5 25 C3.25741525 34.21345339 3.25741525 34.21345339 1.875 38.4375 C0.6613709 43.37870419 0.87449376 47.91699725 1 53 C-3.95 53 -8.9 53 -14 53 C-13.67 51.35 -13.34 49.7 -13 48 C-11.515 47.505 -11.515 47.505 -10 47 C-9.09557918 44.86784991 -9.09557918 44.86784991 -8.546875 42.2265625 C-7.5099663 38.03696405 -6.39788272 33.90276753 -5.140625 29.7734375 C-4.82996094 28.7215625 -4.51929688 27.6696875 -4.19921875 26.5859375 C-3.56301628 24.43384519 -2.91442804 22.2853781 -2.25390625 20.140625 C-0.33004202 13.53292254 0.12788191 8.78104612 -1 2 C-0.67 1.34 -0.34 0.68 0 0 Z " fill="#1E0C8C" transform="translate(56,209)"/>
<path d="M0 0 C1.65 0.33 3.3 0.66 5 1 C5 1.66 5 2.32 5 3 C6.32 3.33 7.64 3.66 9 4 C9 4.66 9 5.32 9 6 C8.34 6 7.68 6 7 6 C7.33 8.31 7.66 10.62 8 13 C7.34 13 6.68 13 6 13 C6 13.66 6 14.32 6 15 C-0.3782235 15.36103152 -0.3782235 15.36103152 -2.9375 13.875 C-4.54576453 11.03688613 -4.44190253 9.21957561 -4 6 C-2 2.625 -2 2.625 0 0 Z " fill="#1801AB" transform="translate(371,222)"/>
<path d="M0 0 C0.99 0.33 1.98 0.66 3 1 C2.84660156 1.66386719 2.69320312 2.32773438 2.53515625 3.01171875 C1.89226979 6.60155922 1.64966009 10.17795419 1.4375 13.8125 C1.39431641 14.50537109 1.35113281 15.19824219 1.30664062 15.91210938 C1.20138547 17.60788686 1.10027137 19.30392052 1 21 C-2.96 21 -6.92 21 -11 21 C-10.67 19.68 -10.34 18.36 -10 17 C-9.01 17 -8.02 17 -7 17 C-6.5196682 15.41701974 -6.04078388 13.83360022 -5.5625 12.25 C-5.16224609 10.92742187 -5.16224609 10.92742187 -4.75390625 9.578125 C-4.11531506 7.39434165 -3.53224167 5.21164502 -3 3 C-2.34 3 -1.68 3 -1 3 C-0.67 2.01 -0.34 1.02 0 0 Z " fill="#1801AB" transform="translate(54,240)"/>
<path d="M0 0 C0.89589844 0.00322266 1.79179688 0.00644531 2.71484375 0.00976562 C4.12056641 0.02233398 4.12056641 0.02233398 5.5546875 0.03515625 C6.49957031 0.03966797 7.44445312 0.04417969 8.41796875 0.04882812 C10.75527137 0.06063268 13.09244811 0.07709866 15.4296875 0.09765625 C15.4296875 1.74765625 15.4296875 3.39765625 15.4296875 5.09765625 C14.9346875 3.11765625 14.9346875 3.11765625 14.4296875 1.09765625 C11.71909605 1.15802577 9.01374773 1.24517535 6.3046875 1.34765625 C5.54414062 1.36183594 4.78359375 1.37601563 4 1.390625 C-2.23017304 1.65916694 -6.05234454 3.39137872 -10.3984375 8.0625 C-12.51801284 11.00311964 -14.36757185 13.57954124 -15.6953125 16.97265625 C-16.5703125 19.09765625 -16.5703125 19.09765625 -18.4453125 19.97265625 C-20.93287369 21.28960041 -21.26034323 22.14312158 -22.5078125 24.59765625 C-23.97378203 27.40694448 -24.37545177 27.99579723 -27.3203125 29.53515625 C-28.0628125 29.72078125 -28.8053125 29.90640625 -29.5703125 30.09765625 C-26.98156844 25.40327882 -23.7126772 21.40834728 -20.3203125 17.28515625 C-19.73983154 16.57609131 -19.15935059 15.86702637 -18.5612793 15.13647461 C-6.09933715 -0.0386034 -6.09933715 -0.0386034 0 0 Z " fill="#1B0D7B" transform="translate(115.5703125,208.90234375)"/>
<path d="M0 0 C0.66 0.33 1.32 0.66 2 1 C0.68 1.33 -0.64 1.66 -2 2 C-2 2.66 -2 3.32 -2 4 C-2.99 4.33 -3.98 4.66 -5 5 C-5 6.32 -5 7.64 -5 9 C-5.33 9.66 -5.66 10.32 -6 11 C-6.66 11 -7.32 11 -8 11 C-8 10.34 -8 9.68 -8 9 C-11.29148243 10.13499394 -11.9959869 10.99283376 -13.75 14.125 C-14.1625 15.07375 -14.575 16.0225 -15 17 C-15.66 17 -16.32 17 -17 17 C-16.67 22.61 -16.34 28.22 -16 34 C-19.40327623 30.59672377 -19.45225165 30.01537317 -19.5 25.4375 C-19.29833229 18.18623075 -17.19543527 12.59012086 -12.35546875 7.15234375 C-8.62970042 3.72934666 -4.78934495 1.59644832 0 0 Z " fill="#1D0A8F" transform="translate(254,221)"/>
<path d="M0 0 C1.17904475 4.24830408 2.0326419 8.9347162 0 13 C-0.66 13 -1.32 13 -2 13 C-2.33 14.65 -2.66 16.3 -3 18 C-3.99 18.33 -4.98 18.66 -6 19 C-6.33 19.99 -6.66 20.98 -7 22 C0.92 22 8.84 22 17 22 C16.67 20.68 16.34 19.36 16 18 C15.87794671 15.32459184 15.95532687 12.68038762 16 10 C16.99 10 17.98 10 19 10 C18.814375 11.0725 18.62875 12.145 18.4375 13.25 C18.05838162 16.49958609 18.11249939 18.00468544 19 21 C18.67 21.66 18.34 22.32 18 23 C9.42 23 0.84 23 -8 23 C-8.33 21.68 -8.66 20.36 -9 19 C-7.33333333 17.33333333 -5.66666667 15.66666667 -4 14 C-2.56005547 10.46022518 -2.56005547 10.46022518 -1.6875 6.6875 C-1.36136719 5.43324219 -1.03523438 4.17898437 -0.69921875 2.88671875 C-0.46847656 1.93410156 -0.23773438 0.98148438 0 0 Z " fill="#1E0A86" transform="translate(99,239)"/>
<path d="M0 0 C0 0.33 0 0.66 0 1 C-3.3 1 -6.6 1 -10 1 C-10 1.66 -10 2.32 -10 3 C-10.66 3 -11.32 3 -12 3 C-12 4.32 -12 5.64 -12 7 C-12.66 7 -13.32 7 -14 7 C-14.33 8.65 -14.66 10.3 -15 12 C-15.66 12 -16.32 12 -17 12 C-18.49821059 8.62902617 -19 6.79557881 -19 3 C-12.68284595 -0.44572039 -7.09629025 -0.31461385 0 0 Z " fill="#1A0699" transform="translate(210,220)"/>
<path d="M0 0 C0.66 0.33 1.32 0.66 2 1 C1.34 2.32 0.68 3.64 0 5 C1.98 4.67 3.96 4.34 6 4 C6 4.66 6 5.32 6 6 C6.99 6.33 7.98 6.66 9 7 C8.01 8.98 7.02 10.96 6 13 C4 9.25 4 9.25 4 7 C2.02 7 0.04 7 -2 7 C-2 6.01 -2 5.02 -2 4 C-3.32 4 -4.64 4 -6 4 C-6 4.66 -6 5.32 -6 6 C-7.65 6.33 -9.3 6.66 -11 7 C-7.71103088 3.18479582 -4.67184669 1.64379791 0 0 Z " fill="#1A0895" transform="translate(404,221)"/>
<path d="M0 0 C-0.06829161 3.41458042 -0.19675607 6.04087046 -2.44921875 8.73046875 C-7.80855305 13.43877762 -12.28615706 15.28370955 -19.5 15.25 C-20.6034375 15.25515625 -21.706875 15.2603125 -22.84375 15.265625 C-25.96392334 15.00303615 -28.18304814 14.32438782 -31 13 C-27.25 11.875 -27.25 11.875 -25 13 C-18.64801314 13.45296092 -13.00277099 13.13431857 -7 11 C-6.67 9.68 -6.34 8.36 -6 7 C-4.68 6.67 -3.36 6.34 -2 6 C-2 4.68 -2 3.36 -2 2 C-2.99 1.67 -3.98 1.34 -5 1 C-2 0 -2 0 0 0 Z " fill="#1D0C84" transform="translate(377,247)"/>
<path d="M0 0 C4.26205106 0.47356123 6.28693793 2.84698192 9 6 C10 7.9375 10 7.9375 10 10 C7.66666667 15.66666667 7.66666667 15.66666667 5 17 C2.3276379 17.13415472 -0.32250488 17.04318541 -3 17 C-3 16.67 -3 16.34 -3 16 C-0.69 16 1.62 16 4 16 C4 15.34 4 14.68 4 14 C4.66 14 5.32 14 6 14 C6 13.01 6 12.02 6 11 C5.34 10.67 4.68 10.34 4 10 C4.33 9.01 4.66 8.02 5 7 C5.66 7 6.32 7 7 7 C6.67 6.34 6.34 5.68 6 5 C5.01 4.67 4.02 4.34 3 4 C3 3.34 3 2.68 3 2 C2.01 1.67 1.02 1.34 0 1 C0 0.67 0 0.34 0 0 Z " fill="#1E0B8F" transform="translate(373,221)"/>
<path d="M0 0 C6.27 0 12.54 0 19 0 C21.44588437 5.75966319 23.45776686 10.76431889 24 17 C23.34 17 22.68 17 22 17 C21.67 15.68 21.34 14.36 21 13 C20.01 13 19.02 13 18 13 C18.32552083 11.046875 18.65104167 9.09375 18.9765625 7.140625 C19.16772267 4.57381334 19.16772267 4.57381334 17 1 C11.39 1 5.78 1 0 1 C0 0.67 0 0.34 0 0 Z " fill="#19068E" transform="translate(57,210)"/>
<path d="M0 0 C0.99 0.33 1.98 0.66 3 1 C2.67 1.70125 2.34 2.4025 2 3.125 C0.86711096 6.382056 0.56301816 8.57697562 1 12 C2.26362699 14.51707157 2.26362699 14.51707157 5 16 C8.32704769 16.62056219 11.62087887 16.87102591 15 17 C15 17.33 15 17.66 15 18 C12.3753399 18.19430855 9.75053235 18.38073238 7.125 18.5625 C6.37863281 18.61857422 5.63226563 18.67464844 4.86328125 18.73242188 C-0.7734375 19.11328125 -0.7734375 19.11328125 -3 18 C-3 17.34 -3 16.68 -3 16 C-2.34 15.67 -1.68 15.34 -1 15 C-1.33 11.7 -1.66 8.4 -2 5 C-1.34 5 -0.68 5 0 5 C0 3.35 0 1.7 0 0 Z " fill="#1D0A8F" transform="translate(357,232)"/>
<path d="M0 0 C2.21436106 2.21436106 2.74398588 2.92783056 3 6 C0.66666667 11.66666667 0.66666667 11.66666667 -2 13 C-8.9968652 13.45141066 -8.9968652 13.45141066 -12.5 11.875 C-14.60705132 9.24118585 -14.29101222 7.27388743 -14 4 C-13.34 3.67 -12.68 3.34 -12 3 C-11.67 5.31 -11.34 7.62 -11 10 C-7.7 10.33 -4.4 10.66 -1 11 C-0.67 7.37 -0.34 3.74 0 0 Z " fill="#200E8A" transform="translate(333,225)"/>
<path d="M0 0 C1 2 1 2 0.0625 4.9375 C-1.50934952 9.91678169 -1.12785984 14.82167662 -1 20 C-5.95 20 -10.9 20 -16 20 C-15.67 18.35 -15.34 16.7 -15 15 C-14.67 15.66 -14.34 16.32 -14 17 C-14.33 17.66 -14.66 18.32 -15 19 C-11.04 19 -7.08 19 -3 19 C-3.03480469 17.96359375 -3.06960937 16.9271875 -3.10546875 15.859375 C-3.13361482 14.48959958 -3.16091411 13.11980659 -3.1875 11.75 C-3.21263672 11.06808594 -3.23777344 10.38617188 -3.26367188 9.68359375 C-3.31137459 6.40800711 -3.21085076 4.34651444 -1.48828125 1.515625 C-0.99714844 1.01546875 -0.50601563 0.5153125 0 0 Z " fill="#1D0C87" transform="translate(58,242)"/>
<path d="M0 0 C0.33 0 0.66 0 1 0 C1.042721 1.66611905 1.04063832 3.33382885 1 5 C0.67 5.33 0.34 5.66 0 6 C0 7.155 0 8.31 0 9.5 C0 10.655 0 11.81 0 13 C-0.33 13.33 -0.66 13.66 -1 14 C-0.74276031 16.02919843 -0.74276031 16.02919843 0 18 C0.66 18.33 1.32 18.66 2 19 C2.73075648 21.3140622 3.40138258 23.64828869 4 26 C0.589266 24.86308867 0.36853434 24.4839887 -1.1875 21.4375 C-4.45893275 14.3661723 -3.22018683 8.71458613 -0.65625 1.6875 C-0.33140625 0.8521875 -0.33140625 0.8521875 0 0 Z " fill="#1C0A84" transform="translate(294,232)"/>
<path d="M0 0 C0.66 0 1.32 0 2 0 C1.75 2.375 1.75 2.375 1 5 C0.401875 5.28875 -0.19625 5.5775 -0.8125 5.875 C-3.3665688 7.1885211 -3.67202363 7.99991254 -4.9375 10.5 C-6.40346953 13.30928823 -6.80513927 13.89814098 -9.75 15.4375 C-10.86375 15.7159375 -10.86375 15.7159375 -12 16 C-9.78528538 12.10466593 -7.26223089 8.6637339 -4.4375 5.1875 C-3.65246094 4.21167969 -2.86742188 3.23585937 -2.05859375 2.23046875 C-1.37925781 1.49441406 -0.69992188 0.75835937 0 0 Z " fill="#1B0790" transform="translate(98,223)"/>
<path d="M0 0 C0.33 0 0.66 0 1 0 C1 2.64 1 5.28 1 8 C0.34 8 -0.32 8 -1 8 C-1.54446652 11.18901821 -2.03616506 14.3435681 -2.375 17.5625 C-3.00738661 21.04062638 -3.9962458 23.12504832 -6 26 C-6.99 25.67 -7.98 25.34 -9 25 C-8.443125 23.845 -7.88625 22.69 -7.3125 21.5 C-4.20902105 14.57000936 -2.17395839 7.2613774 0 0 Z " fill="#200E8A" transform="translate(192,232)"/>
<path d="M0 0 C0.33 0.66 0.66 1.32 1 2 C1.99 2 2.98 2 4 2 C3.71517632 3.41805831 3.42181856 4.83440379 3.125 6.25 C2.96257812 7.03890625 2.80015625 7.8278125 2.6328125 8.640625 C2.00849925 10.96831144 1.15161458 12.89031952 0 15 C-0.12375 14.195625 -0.2475 13.39125 -0.375 12.5625 C-0.684375 11.2940625 -0.684375 11.2940625 -1 10 C-1.66 9.67 -2.32 9.34 -3 9 C-2.44271087 5.65626525 -1.64826111 2.96687001 0 0 Z " fill="#1D069C" transform="translate(405,232)"/>
<path d="M0 0 C-5.76874653 4.70046013 -10.72357 5.34194461 -17.9375 5.3125 C-18.72318359 5.32861328 -19.50886719 5.34472656 -20.31835938 5.36132812 C-25.30726099 5.36550294 -28.62883615 4.65918314 -33 2 C-32.34 1.67 -31.68 1.34 -31 1 C-30.29875 1.30292969 -29.5975 1.60585938 -28.875 1.91796875 C-25.22806625 3.29052398 -21.84075245 3.33021565 -18 3.3125 C-17.30132812 3.32861328 -16.60265625 3.34472656 -15.8828125 3.36132812 C-9.73156118 3.36713119 -5.95927403 -0.51079492 0 0 Z " fill="#1D0B82" transform="translate(274,257)"/>
<path d="M0 0 C0.33 0 0.66 0 1 0 C1.04241723 2.33294775 1.04092937 4.66702567 1 7 C0.67 7.33 0.34 7.66 0 8 C-0.48169513 12.33525617 0.76887467 14.37442134 3 18 C3 19.32 3 20.64 3 22 C4.32 22.66 5.64 23.32 7 24 C6.34 24.33 5.68 24.66 5 25 C0.13744072 20.52132697 -1.8224269 17.75238299 -2.25 11.125 C-2.15917331 7.14376331 -1.25560384 3.76681151 0 0 Z " fill="#1B0987" transform="translate(340,234)"/>
<path d="M0 0 C1.2065625 0.0309375 1.2065625 0.0309375 2.4375 0.0625 C2.4375 0.7225 2.4375 1.3825 2.4375 2.0625 C1.468125 2.7225 0.49875 3.3825 -0.5 4.0625 C-2.7559928 5.83013671 -3.47768288 6.72376497 -4.18359375 9.54296875 C-4.48234376 12.72810352 -4.5625 15.86624938 -4.5625 19.0625 C-5.2225 19.0625 -5.8825 19.0625 -6.5625 19.0625 C-6.5625 18.4025 -6.5625 17.7425 -6.5625 17.0625 C-7.2225 16.7325 -7.8825 16.4025 -8.5625 16.0625 C-7.9025 16.0625 -7.2425 16.0625 -6.5625 16.0625 C-6.5625 12.7625 -6.5625 9.4625 -6.5625 6.0625 C-5.9025 6.0625 -5.2425 6.0625 -4.5625 6.0625 C-4.418125 5.258125 -4.27375 4.45375 -4.125 3.625 C-3.347189 0.08163876 -3.347189 0.08163876 0 0 Z " fill="#200B94" transform="translate(315.5625,226.9375)"/>
<path d="M0 0 C1.0625 1.8125 1.0625 1.8125 2 4 C1.67 4.99 1.34 5.98 1 7 C0.34 7 -0.32 7 -1 7 C-0.9278125 7.83144531 -0.855625 8.66289062 -0.78125 9.51953125 C-0.6884375 10.60621094 -0.595625 11.69289062 -0.5 12.8125 C-0.4071875 13.89144531 -0.314375 14.97039062 -0.21875 16.08203125 C0 19 0 19 0 22 C-3.23730346 17.95337067 -3.43899899 14.50007363 -3.3046875 9.515625 C-2.86549854 5.88950073 -1.68369446 3.22708105 0 0 Z " fill="#1E0D8C" transform="translate(132,234)"/>
<path d="M0 0 C0.66 0.33 1.32 0.66 2 1 C2 1.99 2 2.98 2 4 C1.34 4 0.68 4 0 4 C-0.12117188 4.81984375 -0.24234375 5.6396875 -0.3671875 6.484375 C-0.61855469 8.10085937 -0.61855469 8.10085937 -0.875 9.75 C-1.03742188 10.81734375 -1.19984375 11.8846875 -1.3671875 12.984375 C-1.93844849 15.70668045 -2.47325061 17.68806521 -4 20 C-6.625 20.75 -6.625 20.75 -9 21 C-9 20.34 -9 19.68 -9 19 C-8.39671875 18.45859375 -7.7934375 17.9171875 -7.171875 17.359375 C-4.3854245 14.33236762 -3.40915926 11.1065739 -2.25 7.25 C-1.91935547 6.20392578 -1.91935547 6.20392578 -1.58203125 5.13671875 C-1.04364258 3.42791992 -0.52028943 1.71439632 0 0 Z " fill="#1B088D" transform="translate(265,235)"/>
<path d="M0 0 C2.69527234 0.43025448 4.24721939 1.37634441 6.12890625 3.33984375 C5.79890625 3.99984375 5.46890625 4.65984375 5.12890625 5.33984375 C4.55140625 4.86546875 3.97390625 4.39109375 3.37890625 3.90234375 C1.20308541 2.39135705 -0.29711823 1.79948224 -2.87109375 1.33984375 C-2.87109375 3.31984375 -2.87109375 5.29984375 -2.87109375 7.33984375 C-3.86109375 7.66984375 -4.85109375 7.99984375 -5.87109375 8.33984375 C-5.87109375 6.68984375 -5.87109375 5.03984375 -5.87109375 3.33984375 C-7.52109375 3.66984375 -9.17109375 3.99984375 -10.87109375 4.33984375 C-7.75999158 0.01135378 -5.00576546 -0.20616826 0 0 Z " fill="#1C0791" transform="translate(225.87109375,219.66015625)"/>
<path d="M0 0 C1.13917898 3.98712644 1.03430564 6.9366564 0 11 C-2.3125 13 -2.3125 13 -5 14 C-7.3125 13.6875 -7.3125 13.6875 -9 13 C-9 10.69 -9 8.38 -9 6 C-8.67 6 -8.34 6 -8 6 C-7.67 7.98 -7.34 9.96 -7 12 C-2.82049923 8.54110281 -1.67237866 5.01713599 0 0 Z " fill="#200D8C" transform="translate(157,242)"/>
<path d="M0 0 C1.57156655 3.1431331 0.11705576 5.365464 -0.9375 8.625 C-1.31777344 9.81351563 -1.69804687 11.00203125 -2.08984375 12.2265625 C-2.39019531 13.14179688 -2.69054687 14.05703125 -3 15 C-3.33 15 -3.66 15 -4 15 C-4.33 11.7 -4.66 8.4 -5 5 C-4.01 5 -3.02 5 -2 5 C-2 4.34 -2 3.68 -2 3 C-2.99 3 -3.98 3 -5 3 C-5 2.34 -5 1.68 -5 1 C-3.35 0.67 -1.7 0.34 0 0 Z " fill="#1E0994" transform="translate(153,233)"/>
<path d="M0 0 C1.32 0.33 2.64 0.66 4 1 C2.33248852 4.94139078 -0.22710649 7.7892812 -3 11 C-3.66 10.67 -4.32 10.34 -5 10 C-4.34 8.02 -3.68 6.04 -3 4 C-2.34 4 -1.68 4 -1 4 C-0.67 2.68 -0.34 1.36 0 0 Z " fill="#190897" transform="translate(94,235)"/>
<path d="M0 0 C0.99 0 1.98 0 3 0 C1.68882339 7.11120489 -0.01720516 14.04699943 -2 21 C-3.16180608 17.07240184 -2.75984959 14.02720283 -2 10 C-1.67 9.67 -1.34 9.34 -1 9 C-0.76807135 7.48530552 -0.58784762 5.96245438 -0.4375 4.4375 C-0.35371094 3.61121094 -0.26992187 2.78492188 -0.18359375 1.93359375 C-0.12300781 1.29550781 -0.06242187 0.65742188 0 0 Z " fill="#1E0B88" transform="translate(121,224)"/>
<path d="M0 0 C2.6881249 -0.08164159 5.373723 -0.14079668 8.0625 -0.1875 C8.81466797 -0.21263672 9.56683594 -0.23777344 10.34179688 -0.26367188 C15.66631856 -0.33282151 19.24346434 0.59330666 24 3 C23.01 3.33 22.02 3.66 21 4 C21 4.66 21 5.32 21 6 C20.34 6 19.68 6 19 6 C19 5.01 19 4.02 19 3 C18.01 3 17.02 3 16 3 C16 2.34 16 1.68 16 1 C10.72 1 5.44 1 0 1 C0 0.67 0 0.34 0 0 Z " fill="#180786" transform="translate(257,220)"/>
<path d="M0 0 C1.423125 0.495 1.423125 0.495 2.875 1 C7.51330851 2.34016701 12.20610756 2.39489919 17 2 C17.33 1.67 17.66 1.34 18 1 C19.99958364 0.95919217 22.00045254 0.95745644 24 1 C20.60670921 4.39329079 17.28038816 4.18643061 12.6875 4.25 C7.55079993 4.2270683 4.23211222 3.90201981 0 1 C0 0.67 0 0.34 0 0 Z " fill="#1E0A86" transform="translate(298,258)"/>
<path d="M0 0 C-5.5439852 2.80512399 -9.77270879 3.3935213 -15.9375 3.1875 C-16.71673828 3.17396484 -17.49597656 3.16042969 -18.29882812 3.14648438 C-20.19952404 3.11150224 -22.09985834 3.05770959 -24 3 C-24 2.67 -24 2.34 -24 2 C-22.46279297 1.92652344 -22.46279297 1.92652344 -20.89453125 1.8515625 C-19.5338294 1.77648929 -18.17315356 1.70094345 -16.8125 1.625 C-16.13896484 1.5940625 -15.46542969 1.563125 -14.77148438 1.53125 C-9.586975 1.22776652 -4.88870319 -1.81063081 0 0 Z " fill="#1C0A89" transform="translate(166,259)"/>
<path d="M0 0 C0.33 0 0.66 0 1 0 C1.66 2.97 2.32 5.94 3 9 C1.35 9.33 -0.3 9.66 -2 10 C-2.66 9.01 -3.32 8.02 -4 7 C-3.67 6.34 -3.34 5.68 -3 5 C-2.34 5 -1.68 5 -1 5 C-0.67 3.35 -0.34 1.7 0 0 Z " fill="#180599" transform="translate(206,251)"/>
<path d="M0 0 C2.84767055 4.27150583 2.50971259 7.98413261 2 13 C1.21354982 15.83212985 0.19892564 18.3024173 -1 21 C-1.33 21 -1.66 21 -2 21 C-2.33 18.69 -2.66 16.38 -3 14 C-2.01 13.34 -1.02 12.68 0 12 C0.36498034 9.10391601 0.36498034 9.10391601 0.1875 5.875 C0.16042969 4.77929688 0.13335937 3.68359375 0.10546875 2.5546875 C0.05326172 1.29011719 0.05326172 1.29011719 0 0 Z " fill="#220E8C" transform="translate(284,228)"/>
<path d="M0 0 C0.45375 0.474375 0.9075 0.94875 1.375 1.4375 C2.93258204 3.09027808 2.93258204 3.09027808 5 4 C4.67 5.65 4.34 7.3 4 9 C4.66 9 5.32 9 6 9 C6 9.66 6 10.32 6 11 C7.32 11.33 8.64 11.66 10 12 C8.02 12 6.04 12 4 12 C3.32645501 10.56570999 2.66140299 9.12742943 2 7.6875 C1.62875 6.88699219 1.2575 6.08648437 0.875 5.26171875 C0 3 0 3 0 0 Z " fill="#1B098F" transform="translate(67,250)"/>
<path d="M0 0 C-0.2410148 6.14587738 -0.2410148 6.14587738 -2.40234375 8.578125 C-3.88046971 9.78844931 -5.43647953 10.90220903 -7 12 C-7.33 10.35 -7.66 8.7 -8 7 C-6.35 7 -4.7 7 -3 7 C-3 5.68 -3 4.36 -3 3 C-3.66 2.34 -4.32 1.68 -5 1 C-2 0 -2 0 0 0 Z " fill="#1E0A8B" transform="translate(330,247)"/>
<path d="M0 0 C1.485 0.99 1.485 0.99 3 2 C3.1875 5.125 3.1875 5.125 3 8 C3.66 8 4.32 8 5 8 C5 10.64 5 13.28 5 16 C3.13389074 13.20083611 2.31214617 11.18061731 1.375 8 C1.11460938 7.13375 0.85421875 6.2675 0.5859375 5.375 C0 3 0 3 0 0 Z " fill="#1E0B8B" transform="translate(62,234)"/>
<path d="M0 0 C0.66 0.33 1.32 0.66 2 1 C-0.86536704 5.07763771 -3.43041625 7.02677065 -8 9 C-6.4169423 4.7257442 -3.49431596 2.73468206 0 0 Z " fill="#1B0B89" transform="translate(303,223)"/>
<path d="M0 0 C0.66 0 1.32 0 2 0 C2.36629408 4.27343092 1.40814077 6.48812804 -1 10 C-1.99 9.67 -2.98 9.34 -4 9 C-2.68 6.03 -1.36 3.06 0 0 Z " fill="#190886" transform="translate(187,248)"/>
<path d="M0 0 C0.66 0.33 1.32 0.66 2 1 C-1.465 3.97 -1.465 3.97 -5 7 C-5 6.34 -5 5.68 -5 5 C-5.66 4.67 -6.32 4.34 -7 4 C-5.35 3.67 -3.7 3.34 -2 3 C-2 2.34 -2 1.68 -2 1 C-1.34 0.67 -0.68 0.34 0 0 Z " fill="#180688" transform="translate(83,253)"/>
<path d="M0 0 C0.99 0.33 1.98 0.66 3 1 C-1.625 6.875 -1.625 6.875 -5 8 C-5 7.34 -5 6.68 -5 6 C-4.34 6 -3.68 6 -3 6 C-2.67 5.01 -2.34 4.02 -2 3 C-1.34 3 -0.68 3 0 3 C0 2.01 0 1.02 0 0 Z " fill="#1D0B89" transform="translate(279,249)"/>
<path d="M0 0 C0.33 0.99 0.66 1.98 1 3 C1.66 3 2.32 3 3 3 C3 3.66 3 4.32 3 5 C1.824375 5.2165625 1.824375 5.2165625 0.625 5.4375 C-1.96421018 5.87798925 -1.96421018 5.87798925 -4 7 C-2.92598892 4.08482708 -2.22189824 2.22189824 0 0 Z " fill="#1E068F" transform="translate(137,227)"/>
<path d="M0 0 C-1.65 0.33 -3.3 0.66 -5 1 C-5 2.65 -5 4.3 -5 6 C-5.99 5.34 -6.98 4.68 -8 4 C-5.97675095 -0.48005146 -4.79569304 -1.43870791 0 0 Z " fill="#190B7D" transform="translate(198,222)"/>
<path d="M0 0 C2 4 2 4 1.125 7.75 C0.75375 8.8225 0.3825 9.895 0 11 C-0.33 11 -0.66 11 -1 11 C-0.67 7.37 -0.34 3.74 0 0 Z " fill="#1E0A82" transform="translate(232,225)"/>
<path d="M0 0 C1.98 0 3.96 0 6 0 C3.66666667 2.33333333 1.33333333 4.66666667 -1 7 C-0.67 4.69 -0.34 2.38 0 0 Z " fill="#200D92" transform="translate(260,227)"/>
<path d="M0 0 C0.556875 0.226875 1.11375 0.45375 1.6875 0.6875 C-2.74326923 3.76442308 -2.74326923 3.76442308 -5.625 3.375 C-6.4603125 3.0346875 -6.4603125 3.0346875 -7.3125 2.6875 C-2.88173077 -0.38942308 -2.88173077 -0.38942308 0 0 Z " fill="#17087E" transform="translate(356.3125,221.3125)"/>
</svg>
