<?xml version="1.0" encoding="UTF-8"?>
<svg version="1.1" xmlns="http://www.w3.org/2000/svg" width="500" height="500">
<path d="M0 0 C3 2.5625 3 2.5625 5 5 C5.9590625 4.071875 5.9590625 4.071875 6.9375 3.125 C10.8326547 0.4222396 14.26418865 -0.74005838 19 -1 C24.27400679 0.46980517 26.94842707 2.48367207 30 7 C30.66 6.236875 31.32 5.47375 32 4.6875 C35.19501072 1.51956564 38.61743988 -0.05670611 43 -1 C48.30643743 -0.91006038 51.24195034 0.24195034 55 4 C57.33298859 10.99896578 55.6733002 17.22165288 53.5 24 C53.26152344 24.77472656 53.02304688 25.54945313 52.77734375 26.34765625 C52.19486803 28.23487758 51.59884697 30.11790951 51 32 C51.99 31.67 52.98 31.34 54 31 C54.8125 33.1875 54.8125 33.1875 55 36 C52.33253933 39.9552003 49.63515026 41.36332681 45.125 42.4375 C40.56604531 43.14200414 37.28073783 42.93052882 33 41 C30.0625 38.375 30.0625 38.375 28 36 C27.29875 36.78375 26.5975 37.5675 25.875 38.375 C22.41443408 41.53464715 19.77311694 43.00545889 15.015625 42.99609375 C10.74344611 42.61866441 7.33898257 41.84795572 4 39 C1.79034311 34.17766704 2.01530398 31.51113624 3.75 26.5625 C4.32234375 24.87253906 4.32234375 24.87253906 4.90625 23.1484375 C5.44765625 21.58996094 5.44765625 21.58996094 6 20 C6.42963615 18.56632286 6.84972939 17.12965145 7.25 15.6875 C7.4975 14.800625 7.745 13.91375 8 13 C4.17168874 14.66000724 3.12112444 15.72305869 1.41796875 19.6171875 C0.98861026 21.03076775 0.57893017 22.45045085 0.1875 23.875 C-0.02841797 24.58269531 -0.24433594 25.29039062 -0.46679688 26.01953125 C-2.03826091 31.3774753 -2.5867593 35.64468738 -1 41 C-5.7842069 43.47560604 -10.31236235 43.29798298 -15.5625 43.25 C-16.83770508 43.26160156 -16.83770508 43.26160156 -18.13867188 43.2734375 C-18.96044922 43.27085937 -19.78222656 43.26828125 -20.62890625 43.265625 C-21.37213135 43.26336914 -22.11535645 43.26111328 -22.88110352 43.25878906 C-25.27639255 42.9662431 -26.9153919 42.18716265 -29 41 C-27.98148389 38.88462039 -26.94261115 36.91481599 -25.62890625 34.96484375 C-23.39095846 30.89145677 -22.10118776 26.6839948 -20.75 22.25 C-20.46898437 21.3940625 -20.18796875 20.538125 -19.8984375 19.65625 C-18.05928388 13.64713423 -17.92147036 9.1952749 -19 3 C-12.65038787 -0.39630416 -7.06911131 -2.15208832 0 0 Z M29.38671875 14.5859375 C27.70139171 17.51983077 26.76830581 20.38038716 25.8125 23.625 C25.46832031 24.77226562 25.12414062 25.91953125 24.76953125 27.1015625 C23.91446382 29.822363 23.91446382 29.822363 24 32 C25.65 32 27.3 32 29 32 C30.00605593 29.39802798 31.00502525 26.79370638 32 24.1875 C32.28617188 23.44951172 32.57234375 22.71152344 32.8671875 21.95117188 C33.13789063 21.23896484 33.40859375 20.52675781 33.6875 19.79296875 C33.93886719 19.1383667 34.19023437 18.48376465 34.44921875 17.80932617 C35.14560906 15.83688857 35.14560906 15.83688857 35 13 C31.09837094 12.53264165 31.09837094 12.53264165 29.38671875 14.5859375 Z " fill="#3BB5FA" transform="translate(202,220)"/>
<path d="M0 0 C1.31192492 3.56093908 0.5982481 6.75875948 -0.125 10.375 C-0.4034375 11.86 -0.4034375 11.86 -0.6875 13.375 C-0.831875 14.035 -0.97625 14.695 -1.125 15.375 C0.1125 14.8490625 0.1125 14.8490625 1.375 14.3125 C6.72886667 12.87842857 10.82528506 13.23626948 15.6875 15.9375 C19.92199363 20.65593576 21.18334473 25.31498529 20.9375 31.625 C19.86676013 39.8150209 16.48804772 47.76211068 9.9375 53 C4.06163571 56.77257196 -1.19188911 57.82315492 -8.046875 56.8671875 C-10.77474652 56.22111267 -12.81780538 54.9357493 -15.125 53.375 C-18.12394664 53.06843031 -18.12394664 53.06843031 -19.9921875 54.82421875 C-22.5187703 56.66131284 -24.16296933 56.915657 -27.25 57.1875 C-28.11882812 57.27644531 -28.98765625 57.36539063 -29.8828125 57.45703125 C-32.125 57.375 -32.125 57.375 -34.125 55.375 C-34.68232208 49.51961451 -33.27812393 44.80578684 -31.46484375 39.3359375 C-30.91338504 37.60417508 -30.36195356 35.87240399 -29.81054688 34.140625 C-28.93572182 31.43612783 -28.0569458 28.73295017 -27.17651367 26.03027344 C-26.32545258 23.40599006 -25.48845655 20.77751437 -24.65234375 18.1484375 C-24.25087379 16.94047012 -24.25087379 16.94047012 -23.84129333 15.70809937 C-22.50661384 11.49933004 -21.82504121 8.72491776 -23.125 4.375 C-23.125 3.055 -23.125 1.735 -23.125 0.375 C-15.36780261 -3.12334392 -7.51227835 -5.74468344 0 0 Z M-4.125 24.375 C-6.39310948 27.91689016 -7.97395108 31.32762449 -9.3125 35.3125 C-9.65667969 36.31152344 -10.00085938 37.31054688 -10.35546875 38.33984375 C-11.15019629 41.47437828 -11.26414024 44.15558261 -11.125 47.375 C-8.49173152 47.01179055 -7.37373591 46.65863508 -5.59375 44.62890625 C-1.84220252 38.87187728 -0.68397821 32.13733407 -1.125 25.375 C-2.115 25.045 -3.105 24.715 -4.125 24.375 Z " fill="#3AB6FA" transform="translate(330.125,205.625)"/>
<path d="M0 0 C2.05037671 2.94524778 3.60696392 6.09643188 5.1875 9.3125 C5.84395508 10.59543945 5.84395508 10.59543945 6.51367188 11.90429688 C8.53066716 15.87977918 10.3817587 19.84371838 12 24 C16.83516149 16.74725776 17.53706833 8.38400905 16 0 C20.51492784 -2.33028534 25.01932524 -2.60587815 30 -2 C32.27734375 -0.984375 32.27734375 -0.984375 34 0 C32.3671175 4.64743481 32.3671175 4.64743481 30.50720215 6.43362427 C27.90050599 9.14266075 27.36324011 12.8804694 26.40625 16.4296875 C26.05705505 17.67070724 26.05705505 17.67070724 25.70080566 18.9367981 C24.95776122 21.58033596 24.22772235 24.22720654 23.5 26.875 C22.77140459 29.51537582 22.03983219 32.15475394 21.29919434 34.79177856 C20.83889996 36.43142295 20.38552495 38.07303016 19.94006348 39.71676636 C18.77974349 43.85850423 17.6267645 47.51397467 15 51 C11.16737977 52.73552614 9.09188145 53.3576853 5.0546875 52.03515625 C0.96648024 49.31142737 -0.46960363 46.28536889 -2.5625 41.9375 C-2.945271 41.17832275 -3.32804199 40.41914551 -3.72241211 39.63696289 C-4.83063215 37.43202521 -5.91628919 35.21705724 -7 33 C-8.02005751 30.97877494 -9.04071311 28.95785136 -10.0625 26.9375 C-10.71056312 25.62609955 -11.35746955 24.31412007 -12 23 C-12.8454215 25.68421327 -13.67647233 28.37156768 -14.5 31.0625 C-14.85771484 32.19075195 -14.85771484 32.19075195 -15.22265625 33.34179688 C-16.95735955 39.06631776 -17.94634947 44.1609516 -16 50 C-16.33 50.66 -16.66 51.32 -17 52 C-20.23872132 53.07957377 -22.66028205 53.13326784 -26.0625 53.125 C-27.12597656 53.12757813 -28.18945312 53.13015625 -29.28515625 53.1328125 C-32 53 -32 53 -34 52 C-33.63770633 48.82993041 -33.20015162 47.23499979 -31.1027832 44.77246094 C-27.47615907 39.99085829 -26.37596306 34.15556777 -24.7980957 28.4453125 C-24.19147953 26.26430785 -23.55515987 24.09353802 -22.91601562 21.921875 C-20.83186314 14.62404277 -19.52990641 8.58863953 -21 1 C-20.67 0.34 -20.34 -0.32 -20 -1 C-14.0589501 -2.91646771 -5.37962716 -3.36331278 0 0 Z " fill="#3AB6FB" transform="translate(91,210)"/>
<path d="M0 0 C0.87333984 -0.02900391 1.74667969 -0.05800781 2.64648438 -0.08789062 C8.72178439 -0.14687412 13.24434749 0.8618097 18.3125 4.3125 C21.50234948 7.80139787 21.75571472 11.07278344 21.6171875 15.62109375 C21.01375172 20.95144317 19.65866642 26.1281567 18.3125 31.3125 C19.3025 31.3125 20.2925 31.3125 21.3125 31.3125 C21.25 34.5625 21.25 34.5625 20.3125 38.3125 C17.10559609 41.23415369 12.62722705 43.2097684 8.3125 43.3125 C0.37254619 41.37254619 0.37254619 41.37254619 -2.6875 38.3125 C-3.5125 38.951875 -4.3375 39.59125 -5.1875 40.25 C-9.49813205 43.08327928 -13.84796271 43.88650307 -18.87109375 42.87109375 C-22.20296149 41.80122796 -24.27176756 40.75421572 -26.6875 38.1875 C-28.57703562 32.75508508 -28.52767658 28.20289731 -26.1875 22.9375 C-21.81726116 18.34874922 -17.72033955 17.30770343 -11.609375 17.13671875 C-7.63148349 17.09695751 -3.66317914 17.18222896 0.3125 17.3125 C2.25408017 13.79625245 2.49561068 11.3409349 2.3125 7.3125 C1.6525 6.9825 0.9925 6.6525 0.3125 6.3125 C0.209375 7.240625 0.10625 8.16875 0 9.125 C-0.94734252 13.51722441 -0.94734252 13.51722441 -3.6875 15.3125 C-7.54876867 16.54108548 -9.56324365 16.34712882 -13.5 15.25 C-16.6875 13.3125 -16.6875 13.3125 -17.9375 10.5 C-17.57827828 5.91992304 -15.95394 4.50470273 -12.6875 1.3125 C-8.45920961 -0.09693013 -4.43031469 0.04798175 0 0 Z M-3.6875 24.3125 C-5.0075 25.3025 -6.3275 26.2925 -7.6875 27.3125 C-7.3575 28.9625 -7.0275 30.6125 -6.6875 32.3125 C-4.65508273 31.67270151 -4.65508273 31.67270151 -2.6875 30.3125 C-1.87578772 27.75730079 -1.87578772 27.75730079 -1.6875 25.3125 C-2.3475 24.9825 -3.0075 24.6525 -3.6875 24.3125 Z " fill="#3CB5F9" transform="translate(414.6875,219.6875)"/>
<path d="M0 0 C2.93551617 2.70970724 4.23097159 4.41749799 5.4375 8.25 C5.50743557 14.98712661 3.87306405 21.69936791 2.4375 28.25 C3.4275 28.25 4.4175 28.25 5.4375 28.25 C5.18868125 31.89934161 4.88168394 33.7654357 2.375 36.5 C-2.61061767 39.47015521 -6.55027274 40.61890833 -12.3125 39.5625 C-15.19445773 38.39863245 -17.24456372 37.28978393 -19.5625 35.25 C-20.3875 35.889375 -21.2125 36.52875 -22.0625 37.1875 C-25.75186651 39.61814147 -29.15166676 40.45475822 -33.5625 40.25 C-37.8190331 39.04398229 -40.01353302 37.82641533 -43.0625 34.625 C-45.05568467 30.1403345 -44.88507216 26.92654601 -43.5625 22.25 C-41.21926729 17.93845182 -38.36712277 16.23981946 -33.84375 14.74609375 C-27.79858587 13.43147758 -21.57498901 13.98421284 -15.5625 15.25 C-13.93299588 11.12831311 -13.29985399 8.54299643 -14.5625 4.25 C-15.30435391 5.73370782 -16.00677239 7.23727199 -16.6875 8.75 C-19.2840099 12.2120132 -21.34008254 12.60590242 -25.5625 13.25 C-29.12415623 12.44358727 -30.98006312 11.83243688 -33.5625 9.25 C-34.14552981 5.50195121 -33.86934114 3.75003741 -31.875 0.5 C-23.82225447 -6.52909143 -8.78300775 -4.31445994 0 0 Z M-21.5625 22.25 C-23.46108275 24.55305165 -23.46108275 24.55305165 -24.5625 27.25 C-24.2325 27.91 -23.9025 28.57 -23.5625 29.25 C-20.56925737 28.1524777 -19.71639099 27.57317108 -18.3125 24.625 C-18.065 23.84125 -17.8175 23.0575 -17.5625 22.25 C-18.8825 22.25 -20.2025 22.25 -21.5625 22.25 Z " fill="#3BB5FA" transform="translate(164.5625,222.75)"/>
<path d="M0 0 C1.79824219 -0.02900391 1.79824219 -0.02900391 3.6328125 -0.05859375 C6.875 0.4375 6.875 0.4375 9.3671875 1.90234375 C11.71603509 5.85157194 10.85330622 9.07951287 9.875 13.4375 C8.70789288 17.70257761 7.30436273 21.88249275 5.87109375 26.06445312 C4.05639263 31.69523625 3.70463456 35.61930398 4.875 41.4375 C0.2153073 43.80492452 -4.02570554 43.73716845 -9.125 43.6875 C-9.9190625 43.69523437 -10.713125 43.70296875 -11.53125 43.7109375 C-15.84373638 43.69656255 -19.19628619 43.43354008 -23.125 41.4375 C-22.124756 39.2831283 -21.13382557 37.44860031 -19.65112305 35.58374023 C-18.05165137 33.33434726 -17.30991005 31.48090117 -16.51953125 28.84765625 C-16.25849609 27.98076172 -15.99746094 27.11386719 -15.72851562 26.22070312 C-15.46748047 25.32287109 -15.20644531 24.42503906 -14.9375 23.5 C-14.66486328 22.60603516 -14.39222656 21.71207031 -14.11132812 20.79101562 C-12.26783178 14.56748287 -11.66056028 9.8444238 -13.125 3.4375 C-8.58740649 0.82179243 -5.22698164 0.00564469 0 0 Z " fill="#3DB5F8" transform="translate(283.125,219.5625)"/>
<path d="M0 0 C1.21042969 -0.00773438 2.42085938 -0.01546875 3.66796875 -0.0234375 C6.8125 0.375 6.8125 0.375 8.73828125 1.3984375 C11.5345084 6.54349546 9.71844993 12.15985906 8.2109375 17.44921875 C7.20652231 20.78730494 6.17121919 24.11424545 5.125 27.43945312 C4.80273438 28.51517578 4.48046875 29.59089844 4.1484375 30.69921875 C3.84470215 31.66947998 3.5409668 32.63974121 3.22802734 33.6394043 C2.73833308 36.86327282 3.36101934 38.50114679 4.8125 41.375 C-0.09262814 43.97122891 -4.91533594 43.63606249 -10.3125 43.5625 C-11.21871094 43.56185547 -12.12492187 43.56121094 -13.05859375 43.56054688 C-19.76498724 43.51583759 -19.76498724 43.51583759 -23.1875 42.375 C-23.1875 38.375 -23.1875 38.375 -21.31201172 36.45507812 C-20.61092285 35.76865234 -19.90983398 35.08222656 -19.1875 34.375 C-17.51640687 30.66981557 -16.46500018 26.76949018 -15.3125 22.875 C-14.97992188 21.82957031 -14.64734375 20.78414062 -14.3046875 19.70703125 C-14.00046875 18.70027344 -13.69625 17.69351563 -13.3828125 16.65625 C-13.10453613 15.73908203 -12.82625977 14.82191406 -12.53955078 13.87695312 C-12.12598753 10.93784342 -12.69584738 9.87170525 -14.1875 7.375 C-14.1875 5.3125 -14.1875 5.3125 -13.1875 3.375 C-8.68779692 0.62406045 -5.24021011 -0.0336991 0 0 Z " fill="#3CB5F9" transform="translate(374.1875,219.625)"/>
<path d="M0 0 C0.33 0 0.66 0 1 0 C1 3.3 1 6.6 1 10 C3.3431213 9.74438677 5.67843403 9.40729228 8 9 C8.33 8.34 8.66 7.68 9 7 C8.91621094 7.90363281 8.83242187 8.80726563 8.74609375 9.73828125 C8.64425781 10.91777344 8.54242188 12.09726563 8.4375 13.3125 C8.33308594 14.48425781 8.22867188 15.65601563 8.12109375 16.86328125 C7.81422566 20.03032575 7.81422566 20.03032575 9 23 C8.67 23.66 8.34 24.32 8 25 C4.76127868 26.07957377 2.33971795 26.13326784 -1.0625 26.125 C-2.12597656 26.12757813 -3.18945312 26.13015625 -4.28515625 26.1328125 C-7 26 -7 26 -9 25 C-8.63783198 21.83102985 -8.21906179 20.25138238 -6.09375 17.8125 C-3.59755396 14.45940084 -2.68329688 11.18461162 -1.75 7.1875 C-1.57726562 6.49462891 -1.40453125 5.80175781 -1.2265625 5.08789062 C-0.80619508 3.39474406 -0.40147473 1.69772557 0 0 Z " fill="#44B2EF" transform="translate(66,237)"/>
<path d="M0 0 C2.4375 1.5625 2.4375 1.5625 4 4 C4.71525283 8.37098953 4.50639423 10.25623347 2 13.9375 C-2.11612499 16.76733593 -4.07775886 16.63512789 -9 16 C-11 15 -11 15 -12 13 C-12.63512789 8.07775886 -12.76733593 6.11612499 -9.9375 2 C-6.25623347 -0.50639423 -4.37098953 -0.71525283 0 0 Z " fill="#3CB5F8" transform="translate(384,202)"/>
<path d="M0 0 C3.94010072 0.71638195 5.15489647 1.37667959 7.4375 4.625 C8.375 7.0625 8.375 7.0625 8.4375 9.625 C7.05192213 12.46213564 5.66748296 14.39501704 3.4375 16.625 C-3.55108075 17.17964927 -3.55108075 17.17964927 -6.5 15.5625 C-8.20349902 12.45611944 -8.5625 10.1719368 -8.5625 6.625 C-6.11679293 2.42144097 -4.84581842 0.85014358 0 0 Z " fill="#38B6FB" transform="translate(289.5625,201.375)"/>
<path d="M0 0 C0.99 0 1.98 0 3 0 C3 1.32 3 2.64 3 4 C3.33 3.34 3.66 2.68 4 2 C6.97 2.495 6.97 2.495 10 3 C9.37650642 5.52121432 8.75124639 8.04196931 8.125 10.5625 C7.95097656 11.26697266 7.77695313 11.97144531 7.59765625 12.69726562 C6.48705185 17.16024998 5.28798784 21.58487052 4 26 C3.67 26 3.34 26 3 26 C2.85714286 18.57142857 2.85714286 18.57142857 4 15 C3.34 15 2.68 15 2 15 C2.33 14.34 2.66 13.68 3 13 C3.66 13.33 4.32 13.66 5 14 C4.34 12.68 3.68 11.36 3 10 C2.01 10.33 1.02 10.66 0 11 C-1.71567661 14.50294871 -1.71567661 14.50294871 -3 18 C-4.9375 17.6875 -4.9375 17.6875 -7 17 C-7.33 16.01 -7.66 15.02 -8 14 C-8.66 13.67 -9.32 13.34 -10 13 C-9.979375 12.278125 -9.95875 11.55625 -9.9375 10.8125 C-9.99820559 8.08074862 -10.39258535 5.65743909 -11 3 C-8.13546142 6.41016497 -6.65296434 9.90694544 -5 14 C-2.99006295 10.98509443 -2.27376659 8.7850073 -1.375 5.3125 C-1.11460938 4.31863281 -0.85421875 3.32476562 -0.5859375 2.30078125 C-0.39257812 1.54152344 -0.19921875 0.78226563 0 0 Z " fill="#44B2F0" transform="translate(108,220)"/>
<path d="M0 0 C-0.33 2.64 -0.66 5.28 -1 8 C-1.99 8.33 -2.98 8.66 -4 9 C-4 9.99 -4 10.98 -4 12 C-4.66 12 -5.32 12 -6 12 C-6 12.66 -6 13.32 -6 14 C-4.68 14.33 -3.36 14.66 -2 15 C-6.73314862 18.66819018 -9.97834047 19.80575292 -16 20 C-17.32 19.34 -18.64 18.68 -20 18 C-17.03 17.67 -14.06 17.34 -11 17 C-11 16.01 -11 15.02 -11 14 C-10.34 13.67 -9.68 13.34 -9 13 C-8.64327759 10.48036578 -8.55624883 7.98666757 -8.44140625 5.4453125 C-7.52185611 0.35116748 -4.79371312 -0.38867944 0 0 Z M-3 1 C-4.32 1.99 -5.64 2.98 -7 4 C-6.67 5.65 -6.34 7.3 -6 9 C-3.96758273 8.36020151 -3.96758273 8.36020151 -2 7 C-1.18828772 4.44480079 -1.18828772 4.44480079 -1 2 C-1.66 1.67 -2.32 1.34 -3 1 Z " fill="#4AB2EF" transform="translate(414,243)"/>
<path d="M0 0 C0.33 0 0.66 0 1 0 C2.125 6.75 2.125 6.75 1 9 C7.6 9 14.2 9 21 9 C20.67 6.36 20.34 3.72 20 1 C21.41377341 3.63904371 22.37240135 6.07120629 23 9 C18.2157931 11.47560604 13.68763765 11.29798298 8.4375 11.25 C7.58736328 11.25773437 6.73722656 11.26546875 5.86132812 11.2734375 C5.03955078 11.27085937 4.21777344 11.26828125 3.37109375 11.265625 C2.62786865 11.26336914 1.88464355 11.26111328 1.11889648 11.25878906 C-1.27639255 10.9662431 -2.9153919 10.18716265 -5 9 C-3.50164236 5.88802644 -1.86022073 2.91164984 0 0 Z " fill="#53ADDD" transform="translate(178,252)"/>
<path d="M0 0 C2.84279138 2.84279138 2.71942451 5.30208396 3.0234375 9.21484375 C2.95351599 17.52384927 -0.74616522 24.72102672 -6 31 C-10.20575033 34.57936199 -13.52366806 35.56189345 -19 36 C-18.34 35.01 -17.68 34.02 -17 33 C-13.875 32.8125 -13.875 32.8125 -11 33 C-11 32.34 -11 31.68 -11 31 C-10.01 31 -9.02 31 -8 31 C-8 30.01 -8 29.02 -8 28 C-7.01 28 -6.02 28 -5 28 C-5 27.01 -5 26.02 -5 25 C-4.34 25 -3.68 25 -3 25 C-3 23.68 -3 22.36 -3 21 C-2.34 21 -1.68 21 -1 21 C-1 18.69 -1 16.38 -1 14 C-0.34 14 0.32 14 1 14 C0.67 9.38 0.34 4.76 0 0 Z " fill="#50AEE5" transform="translate(348,226)"/>
<path d="M0 0 C0.66 0.33 1.32 0.66 2 1 C1.67 2.65 1.34 4.3 1 6 C2.98 4.35 4.96 2.7 7 1 C7 2.32 7 3.64 7 5 C6.34 5 5.68 5 5 5 C5 5.66 5 6.32 5 7 C5.66 7.33 6.32 7.66 7 8 C8.46410966 10.28401108 9.78696278 12.57392556 11 15 C10.401875 14.67 9.80375 14.34 9.1875 14 C6.94613529 12.79212012 6.94613529 12.79212012 4 13 C2.7934375 13.7734375 2.7934375 13.7734375 1.5625 14.5625 C-1 16 -1 16 -3.3125 15.6875 C-3.869375 15.460625 -4.42625 15.23375 -5 15 C-3.35 14.67 -1.7 14.34 0 14 C0 11.69 0 9.38 0 7 C-0.66 7 -1.32 7 -2 7 C-2.33 6.01 -2.66 5.02 -3 4 C-2.34 4 -1.68 4 -1 4 C-0.67 2.68 -0.34 1.36 0 0 Z " fill="#4AB2EC" transform="translate(140,246)"/>
<path d="M0 0 C-0.99 0.33 -1.98 0.66 -3 1 C-3 1.66 -3 2.32 -3 3 C-3.99 3.66 -4.98 4.32 -6 5 C-6.57993699 7.19454681 -6.57993699 7.19454681 -6.6875 9.625 C-6.75324219 10.44226563 -6.81898438 11.25953125 -6.88671875 12.1015625 C-6.92410156 12.72804687 -6.96148437 13.35453125 -7 14 C-3.4780279 14.08004482 -0.38018531 14.04005702 3 13 C2 14.5 2 14.5 0 16 C-3.5365162 16.57468388 -6.76507757 16.61746122 -10 15 C-11.64590311 11.70819377 -11.72840366 8.53207058 -11 5 C-7.78053133 0.45486776 -5.5148998 -0.64126742 0 0 Z " fill="#4CB1E9" transform="translate(383,202)"/>
<path d="M0 0 C0.33 0 0.66 0 1 0 C1 2.97 1 5.94 1 9 C1.66 9.33 2.32 9.66 3 10 C2.01 10.33 1.02 10.66 0 11 C-1.71567661 14.50294871 -1.71567661 14.50294871 -3 18 C-4.9375 17.6875 -4.9375 17.6875 -7 17 C-7.33 16.01 -7.66 15.02 -8 14 C-8.66 13.67 -9.32 13.34 -10 13 C-9.979375 12.278125 -9.95875 11.55625 -9.9375 10.8125 C-9.99820559 8.08074862 -10.39258535 5.65743909 -11 3 C-8.13546142 6.41016497 -6.65296434 9.90694544 -5 14 C-2.99006295 10.98509443 -2.27376659 8.7850073 -1.375 5.3125 C-1.11460938 4.31863281 -0.85421875 3.32476562 -0.5859375 2.30078125 C-0.39257812 1.54152344 -0.19921875 0.78226563 0 0 Z " fill="#50B1EC" transform="translate(108,220)"/>
<path d="M0 0 C6.40998489 -0.45785606 10.60802968 0.43434221 16 4 C19.41138338 6.97120488 19.57432352 10.48412953 20.08203125 14.78125 C19.98787039 17.32807713 19.28151054 18.82291646 18 21 C18.01160156 20.37351563 18.02320313 19.74703125 18.03515625 19.1015625 C18.04417969 18.28429687 18.05320313 17.46703125 18.0625 16.625 C18.07410156 15.81289062 18.08570313 15.00078125 18.09765625 14.1640625 C18.14466334 11.95062858 18.14466334 11.95062858 17 10 C15.02111039 9.27306096 13.02045442 8.60183749 11 8 C11.33 6.35 11.66 4.7 12 3 C10.02 3 8.04 3 6 3 C6 2.34 6 1.68 6 1 C4.02 1 2.04 1 0 1 C0 0.67 0 0.34 0 0 Z " fill="#4BAFE7" transform="translate(150,220)"/>
<path d="M0 0 C2.4375 2 2.4375 2 4 4 C3.67 4.66 3.34 5.32 3 6 C2.67 5.01 2.34 4.02 2 3 C-0.97 3 -3.94 3 -7 3 C-7.33 3.99 -7.66 4.98 -8 6 C-7.34 6.33 -6.68 6.66 -6 7 C-6.99 7.33 -7.98 7.66 -9 8 C-8.67 10.31 -8.34 12.62 -8 15 C-8.66 15 -9.32 15 -10 15 C-11.85376666 12.27387255 -11.99513447 10.86376511 -11.875 7.5 C-10.16551348 0.66205391 -6.90763481 -0.98680497 0 0 Z " fill="#55A9DE" transform="translate(293,202)"/>
<path d="M0 0 C0 0.66 0 1.32 0 2 C-1.32 2 -2.64 2 -4 2 C-3.34 3.98 -2.68 5.96 -2 8 C-4.97 7.505 -4.97 7.505 -8 7 C-7.34 6.67 -6.68 6.34 -6 6 C-6 5.34 -6 4.68 -6 4 C-7.32 3.67 -8.64 3.34 -10 3 C-10 2.34 -10 1.68 -10 1 C-13.63 1 -17.26 1 -21 1 C-14.30990884 -2.34504558 -7.21761951 -1.25523818 0 0 Z " fill="#4BB0EB" transform="translate(150,238)"/>
<path d="M0 0 C0.66 0.33 1.32 0.66 2 1 C1.75118125 4.64934161 1.44418394 6.5154357 -1.0625 9.25 C-5.56067521 11.92976396 -9.75994312 13.28000711 -15 12.625 C-15.66 12.41875 -16.32 12.2125 -17 12 C-17 11.67 -17 11.34 -17 11 C-13.7 11 -10.4 11 -7 11 C-6.67 9.68 -6.34 8.36 -6 7 C-4.4375 4.75 -4.4375 4.75 -3 3 C-2.67 3.99 -2.34 4.98 -2 6 C-1.34 6 -0.68 6 0 6 C0 5.01 0 4.02 0 3 C-0.66 2.67 -1.32 2.34 -2 2 C-1.34 1.34 -0.68 0.68 0 0 Z " fill="#48B0E9" transform="translate(168,250)"/>
<path d="M0 0 C-0.30249079 3.32739873 -0.71234171 5.5627594 -2.5625 8.375 C-6.14247133 10.76164755 -8.75147026 10.28323532 -13 10 C-13 9.67 -13 9.34 -13 9 C-11.35 9 -9.7 9 -8 9 C-7.938125 8.071875 -7.87625 7.14375 -7.8125 6.1875 C-7 3 -7 3 -4.5625 1.125 C-2 0 -2 0 0 0 Z " fill="#42B5F1" transform="translate(298,208)"/>
<path d="M0 0 C0.66 0.33 1.32 0.66 2 1 C1.525625 1.804375 1.05125 2.60875 0.5625 3.4375 C-1.29359618 7.66939929 -1.70559978 11.43172078 -2 16 C-0.68 16.33 0.64 16.66 2 17 C2.33 18.32 2.66 19.64 3 21 C-1.66752064 19.52604611 -1.66752064 19.52604611 -3.140625 17.1953125 C-4.59406316 13.48243866 -4.58207562 9.91885794 -4 6 C-2.89681842 3.64494715 -1.66718358 2.03187998 0 0 Z " fill="#53B1E6" transform="translate(391,240)"/>
<path d="M0 0 C1.2380014 3.57644848 0.74926071 6.33694766 0 10 C-0.66 10 -1.32 10 -2 10 C-2 10.66 -2 11.32 -2 12 C2.29 12.66 6.58 13.32 11 14 C11 14.33 11 14.66 11 15 C8.72923158 15.02699725 6.45837179 15.04639453 4.1875 15.0625 C2.29064453 15.07990234 2.29064453 15.07990234 0.35546875 15.09765625 C-3 15 -3 15 -6 14 C-6 10 -6 10 -4.125 8.125 C-3.42375 7.42375 -2.7225 6.7225 -2 6 C-0.73215876 2.86649283 -0.73215876 2.86649283 0 0 Z " fill="#54A9DA" transform="translate(357,248)"/>
<path d="M0 0 C0.33 0 0.66 0 1 0 C0.938125 1.216875 0.87625 2.43375 0.8125 3.6875 C0.78464302 7.62229776 1.78044938 9.71892517 4 13 C3.67 13.66 3.34 14.32 3 15 C1.35 13.35 -0.3 11.7 -2 10 C-3.32 11.32 -4.64 12.64 -6 14 C-6.6875 12.3125 -6.6875 12.3125 -7 10 C-5.75 7.3125 -5.75 7.3125 -4 5 C-3.01 4.67 -2.02 4.34 -1 4 C-0.26676204 1.98491642 -0.26676204 1.98491642 0 0 Z " fill="#4FAEE2" transform="translate(232,246)"/>
<path d="M0 0 C0.33 0 0.66 0 1 0 C1.33292863 6.82503687 -0.81967881 12.61477366 -3 19 C-4.65 18.67 -6.3 18.34 -8 18 C-7.00278506 15.85215244 -6.02698451 14.03330004 -4.53125 12.1875 C-2.81916538 9.74166482 -2.1052102 7.61885597 -1.3125 4.75 C-1.06113281 3.85796875 -0.80976563 2.9659375 -0.55078125 2.046875 C-0.36902344 1.37140625 -0.18726563 0.6959375 0 0 Z " fill="#4DAFE7" transform="translate(268,243)"/>
<path d="M0 0 C0.99 1.485 0.99 1.485 2 3 C0.700625 2.814375 -0.59875 2.62875 -1.9375 2.4375 C-6.63698584 1.92523377 -11.40847215 1.70920904 -16 3 C-17.74342299 4.46072202 -17.74342299 4.46072202 -19 6 C-19.66 5.67 -20.32 5.34 -21 5 C-14.28759008 -1.22125797 -8.79698127 -3.13112893 0 0 Z " fill="#53AFE4" transform="translate(227,221)"/>
<path d="M0 0 C1.36163073 2.72326146 0.64994533 3.83195645 -0.21484375 6.71875 C-0.48876953 7.65074219 -0.76269531 8.58273438 -1.04492188 9.54296875 C-1.33947266 10.51878906 -1.63402344 11.49460938 -1.9375 12.5 C-2.51135364 14.42641776 -3.083076 16.3534721 -3.65234375 18.28125 C-4.03894165 19.56612305 -4.03894165 19.56612305 -4.43334961 20.87695312 C-5.08595901 22.95583146 -5.08595901 22.95583146 -5 25 C-5.66 25 -6.32 25 -7 25 C-7.31467226 19.96524385 -6.65298887 16.51892112 -4.734375 11.8671875 C-3.84971384 9.61788945 -3.37253823 7.38424465 -3 5 C-3.66 4.67 -4.32 4.34 -5 4 C-4.360625 3.896875 -3.72125 3.79375 -3.0625 3.6875 C-2.381875 3.460625 -1.70125 3.23375 -1 3 C-0.67 2.01 -0.34 1.02 0 0 Z " fill="#51AEE4" transform="translate(382,233)"/>
<path d="M0 0 C-0.99 0.33 -1.98 0.66 -3 1 C-3 1.99 -3 2.98 -3 4 C-8.625 5.125 -8.625 5.125 -12 4 C-12.66 4.99 -13.32 5.98 -14 7 C-15.125 3.25 -15.125 3.25 -14 1 C-9.45906828 -0.41904116 -4.7056901 -0.09226843 0 0 Z " fill="#52AFEC" transform="translate(85,208)"/>
<path d="M0 0 C-0.43197635 4.7517398 -1.32769295 6.92000054 -5 10 C-4.34 7.36 -3.68 4.72 -3 2 C-5.47627099 2.63921965 -5.47627099 2.63921965 -8 4 C-9.36078035 6.52372901 -9.36078035 6.52372901 -10 9 C-10.33 9 -10.66 9 -11 9 C-11 6.69 -11 4.38 -11 2 C-7.36576791 -0.32590854 -4.22911669 -0.16265833 0 0 Z " fill="#4CB2F0" transform="translate(240,231)"/>
<path d="M0 0 C-1 3 -1 3 -4 5 C-4 4.34 -4 3.68 -4 3 C-5.65 3 -7.3 3 -9 3 C-8.835 3.515625 -8.67 4.03125 -8.5 4.5625 C-7.84065094 7.77682668 -7.81824783 10.72846085 -8 14 C-8.66 14.66 -9.32 15.32 -10 16 C-9.979375 14.783125 -9.95875 13.56625 -9.9375 12.3125 C-9.93175884 9.08022678 -10.21233685 6.15065259 -11 3 C-7.14243493 0.84694043 -4.44870215 -0.39253254 0 0 Z " fill="#50AEE6" transform="translate(194,220)"/>
<path d="M0 0 C0.33 0 0.66 0 1 0 C2.48897059 7.19669118 2.48897059 7.19669118 0.25 10.875 C-0.4925 11.90625 -1.235 12.9375 -2 14 C-2.88907067 16.58711555 -3.60685686 19.17956192 -4.2890625 21.828125 C-5 24 -5 24 -7 26 C-5.23413932 17.1706966 -2.59122832 8.61435063 0 0 Z " fill="#56AEE5" transform="translate(306,221)"/>
<path d="M0 0 C1.07165134 3.20780966 0.95821741 4.84908352 -0.375 7.9375 C-2.87026967 14.15278178 -3.00577871 18.40656178 -2 25 C-4.5354926 22.79522383 -5.57799369 21.34753651 -6 18 C-5.29296875 14.94140625 -5.29296875 14.94140625 -4.1875 11.5625 C-3.83042969 10.45003906 -3.47335938 9.33757812 -3.10546875 8.19140625 C-2.14630044 5.42235853 -1.11857736 2.70786827 0 0 Z " fill="#56AEE6" transform="translate(210,235)"/>
<path d="M0 0 C0.66 0 1.32 0 2 0 C1.5188509 5.77378925 -0.18467181 9.95859836 -3 15 C-3.66 15 -4.32 15 -5 15 C-5 14.34 -5 13.68 -5 13 C-5.66 13 -6.32 13 -7 13 C-7 12.34 -7 11.68 -7 11 C-5.35 11 -3.7 11 -2 11 C-2 8.69 -2 6.38 -2 4 C-1.34 4 -0.68 4 0 4 C0 2.68 0 1.36 0 0 Z " fill="#50B0E9" transform="translate(109,246)"/>
<path d="M0 0 C0.66 0 1.32 0 2 0 C2 1.32 2 2.64 2 4 C2.99 3.67 3.98 3.34 5 3 C5.75 5.25 5.75 5.25 6 8 C4.0625 10.3125 4.0625 10.3125 2 12 C0.78306124 9.56612247 0.68040104 7.58161154 0.4375 4.875 C0.35371094 3.96492187 0.26992187 3.05484375 0.18359375 2.1171875 C0.12300781 1.41851562 0.06242188 0.71984375 0 0 Z " fill="#51B1EA" transform="translate(251,248)"/>
<path d="M0 0 C0.66 0 1.32 0 2 0 C2 1.65 2 3.3 2 5 C2.99 5 3.98 5 5 5 C4.67 7.31 4.34 9.62 4 12 C3.01 12.33 2.02 12.66 1 13 C1.66 11.35 2.32 9.7 3 8 C2.01 8 1.02 8 0 8 C0 5.36 0 2.72 0 0 Z " fill="#55B0E7" transform="translate(431,246)"/>
<path d="M0 0 C1.11375 0.495 1.11375 0.495 2.25 1 C5.13883312 2.22782871 5.13883312 2.22782871 9 2 C9 2.66 9 3.32 9 4 C10.32 4.66 11.64 5.32 13 6 C9.63111895 7.0899321 8.18976004 7.07069492 4.8125 5.8125 C2.00644659 4.00415447 1.06636703 3.09246438 0 0 Z " fill="#51AEEE" transform="translate(91,256)"/>
<path d="M0 0 C0.33 0 0.66 0 1 0 C2.33554084 6.43487859 2.33554084 6.43487859 0.8125 9 C-1 10 -1 10 -3.1875 9.6875 C-3.785625 9.460625 -4.38375 9.23375 -5 9 C-3.50164236 5.88802644 -1.86022073 2.91164984 0 0 Z " fill="#49B0EB" transform="translate(178,252)"/>
<path d="M0 0 C1 3 1 3 1 5 C2.98 4.67 4.96 4.34 7 4 C7 4.66 7 5.32 7 6 C4.69 6.33 2.38 6.66 0 7 C0 8.65 0 10.3 0 12 C-0.66 11.67 -1.32 11.34 -2 11 C-2.625 8.4375 -2.625 8.4375 -3 6 C-2.34 6 -1.68 6 -1 6 C-0.67 4.02 -0.34 2.04 0 0 Z " fill="#4DB4F0" transform="translate(328,216)"/>
<path d="M0 0 C0.33 0.66 0.66 1.32 1 2 C1.66 2.33 2.32 2.66 3 3 C2.01 3.33 1.02 3.66 0 4 C0.33 6.31 0.66 8.62 1 11 C0.34 11 -0.32 11 -1 11 C-2.83832664 7.89782379 -3.47446226 5.60591321 -3 2 C-2.01 1.34 -1.02 0.68 0 0 Z " fill="#4CB1EA" transform="translate(284,206)"/>
<path d="M0 0 C0.66 0.99 1.32 1.98 2 3 C0.71034824 4.37562854 -0.62689293 5.70766393 -2 7 C-2.66 7 -3.32 7 -4 7 C-4.33 8.32 -4.66 9.64 -5 11 C-5.3125 8.3125 -5.3125 8.3125 -5 5 C-2.5 2.125 -2.5 2.125 0 0 Z " fill="#4BB4EA" transform="translate(136,221)"/>
<path d="M0 0 C2.46800047 1.15173355 4.04783565 2.04783565 6 4 C6 4.66 6 5.32 6 6 C4.68 5.67 3.36 5.34 2 5 C1.67 5.99 1.34 6.98 1 8 C0.67 7.01 0.34 6.02 0 5 C0.33 4.34 0.66 3.68 1 3 C0.01 2.67 -0.98 2.34 -2 2 C-1.34 2 -0.68 2 0 2 C0 1.34 0 0.68 0 0 Z " fill="#35B9FC" transform="translate(110,217)"/>
<path d="M0 0 C0.99 0 1.98 0 3 0 C2.54803755 1.60597325 2.08817673 3.20972508 1.625 4.8125 C1.36976562 5.70582031 1.11453125 6.59914062 0.8515625 7.51953125 C0 10 0 10 -2 13 C-2 10.03 -2 7.06 -2 4 C-1.34 4 -0.68 4 0 4 C0 2.68 0 1.36 0 0 Z " fill="#51AEEC" transform="translate(77,230)"/>
<path d="M0 0 C0.33 0 0.66 0 1 0 C1.02712066 1.43739513 1.04645067 2.87493863 1.0625 4.3125 C1.07410156 5.11300781 1.08570313 5.91351563 1.09765625 6.73828125 C1 9 1 9 0 12 C0 12.99 0 13.98 0 15 C-2 13 -2 13 -2.25 9.75 C-2.00879145 6.1318718 -1.31162801 3.36104678 0 0 Z " fill="#51ACE0" transform="translate(298,248)"/>
<path d="M0 0 C2.97 0.495 2.97 0.495 6 1 C3.93243723 3.7972908 2.85559629 4.02692273 -0.6875 4.6875 C-1.780625 4.790625 -2.87375 4.89375 -4 5 C-4 4.34 -4 3.68 -4 3 C-2.68 3 -1.36 3 0 3 C0 2.01 0 1.02 0 0 Z " fill="#4EAEE8" transform="translate(305,258)"/>
<path d="M0 0 C0.99 0.33 1.98 0.66 3 1 C3 1.66 3 2.32 3 3 C3.66 3 4.32 3 5 3 C5.33 5.97 5.66 8.94 6 12 C3.71540242 9.71540242 3.02870252 7.87462656 1.875 4.875 C1.52179688 3.96492187 1.16859375 3.05484375 0.8046875 2.1171875 C0.53914063 1.41851562 0.27359375 0.71984375 0 0 Z " fill="#51B1E8" transform="translate(80,233)"/>
<path d="M0 0 C1.99996498 1.65168612 2.91796488 2.52102077 3.36328125 5.12109375 C3.34652344 5.88550781 3.32976562 6.64992187 3.3125 7.4375 C3.30863281 8.19933594 3.30476563 8.96117187 3.30078125 9.74609375 C2.9739386 12.19529127 2.21954601 13.86700917 1 16 C1.01160156 15.26394531 1.02320313 14.52789062 1.03515625 13.76953125 C1.04417969 12.79371094 1.05320312 11.81789062 1.0625 10.8125 C1.07410156 9.84957031 1.08570313 8.88664063 1.09765625 7.89453125 C1.00486622 5.14423487 0.62111685 2.67520409 0 0 Z " fill="#59AEE2" transform="translate(433,226)"/>
<path d="M0 0 C2.375 0.1875 2.375 0.1875 5 1 C6.3125 3.5625 6.3125 3.5625 7 6 C4.0625 5.25 4.0625 5.25 1 4 C0.125 1.875 0.125 1.875 0 0 Z " fill="#4BB2EB" transform="translate(86,209)"/>
<path d="M0 0 C1.65 0 3.3 0 5 0 C5.12375 0.61875 5.2475 1.2375 5.375 1.875 C5.87197356 4.19120832 5.87197356 4.19120832 8 6 C5.03824877 5.38722388 3.61941217 4.74627478 1 3 C0.01 3.495 0.01 3.495 -1 4 C-0.67 2.68 -0.34 1.36 0 0 Z " fill="#4CB6EC" transform="translate(312,255)"/>
<path d="M0 0 C0 0.66 0 1.32 0 2 C-0.66 2 -1.32 2 -2 2 C-2 2.99 -2 3.98 -2 5 C-3.65 5.33 -5.3 5.66 -7 6 C-5.52522876 2.59668175 -4.14385429 0 0 0 Z " fill="#50B1E8" transform="translate(129,239)"/>
<path d="M0 0 C0.6875 1.75 0.6875 1.75 1 4 C-0.3125 6.25 -0.3125 6.25 -2 8 C-2.66 8 -3.32 8 -4 8 C-4 7.34 -4 6.68 -4 6 C-4.99 5.67 -5.98 5.34 -7 5 C-5.5459375 4.5978125 -5.5459375 4.5978125 -4.0625 4.1875 C-3.051875 3.795625 -2.04125 3.40375 -1 3 C-0.67 2.01 -0.34 1.02 0 0 Z " fill="#54AEE5" transform="translate(417,233)"/>
<path d="M0 0 C-0.598125 0.20625 -1.19625 0.4125 -1.8125 0.625 C-4.81018767 2.50926082 -5.61361776 4.81132084 -7 8 C-7.33 8 -7.66 8 -8 8 C-8 5.69 -8 3.38 -8 1 C-5.07175348 0.02391783 -3.04386724 -0.08226668 0 0 Z " fill="#51AEE1" transform="translate(237,232)"/>
<path d="M0 0 C3 1.1875 3 1.1875 5 3.1875 C3.68 3.1875 2.36 3.1875 1 3.1875 C1 2.5275 1 1.8675 1 1.1875 C-0.98 1.8475 -2.96 2.5075 -5 3.1875 C-5 2.1975 -5 1.2075 -5 0.1875 C-3 -0.8125 -3 -0.8125 0 0 Z " fill="#49AFEB" transform="translate(428,221.8125)"/>
<path d="M0 0 C0.66 0.33 1.32 0.66 2 1 C1.6875 3.875 1.6875 3.875 1 7 C0.01 7.66 -0.98 8.32 -2 9 C-1.34 7.02 -0.68 5.04 0 3 C-0.66 2.67 -1.32 2.34 -2 2 C-1.34 1.34 -0.68 0.68 0 0 Z " fill="#53AADA" transform="translate(168,250)"/>
<path d="M0 0 C0.99 0 1.98 0 3 0 C3.33 2.97 3.66 5.94 4 9 C3.34 7.68 2.68 6.36 2 5 C1.01 4.34 0.02 3.68 -1 3 C-0.67 2.01 -0.34 1.02 0 0 Z " fill="#50B4EF" transform="translate(149,223)"/>
<path d="M0 0 C2.15377564 2.62198774 3.40072174 4.64404172 4 8 C3.34 8 2.68 8 2 8 C2 7.34 2 6.68 2 6 C0.68 5.34 -0.64 4.68 -2 4 C-1.34 4 -0.68 4 0 4 C0 2.68 0 1.36 0 0 Z " fill="#4FAEE5" transform="translate(93,215)"/>
<path d="M0 0 C3 3 3 3 3.07421875 5.04296875 C2.71614583 7.02864583 2.35807292 9.01432292 2 11 C1.67 11 1.34 11 1 11 C0.67 7.37 0.34 3.74 0 0 Z " fill="#54ACDB" transform="translate(328,205)"/>
</svg>
