<?xml version="1.0" standalone="no"?>
<!DOCTYPE svg PUBLIC "-//W3C//DTD SVG 20010904//EN"
 "http://www.w3.org/TR/2001/REC-SVG-20010904/DTD/svg10.dtd">
<svg version="1.0" xmlns="http://www.w3.org/2000/svg"
 width="500.000000pt" height="500.000000pt" viewBox="0 0 500.000000 500.000000"
 preserveAspectRatio="xMidYMid meet">

<g transform="translate(0.000000,500.000000) scale(0.100000,-0.100000)"
fill="#000000" stroke="none">
<path d="M1560 2950 c-42 -42 -34 -101 17 -121 14 -5 34 -7 44 -4 26 9 59 54
59 81 0 56 -79 85 -120 44z"/>
<path d="M3412 2947 c-22 -23 -29 -71 -14 -93 13 -21 52 -34 77 -28 33 8 55
40 55 80 0 61 -75 87 -118 41z"/>
<path d="M2105 2900 c-14 -16 -17 -30 -12 -70 l6 -51 -37 7 c-55 11 -151 9
-198 -4 -53 -15 -120 -73 -134 -118 -15 -44 -6 -96 20 -119 26 -23 25 -29 -5
-43 -31 -14 -46 -49 -34 -79 7 -20 4 -24 -31 -33 -49 -13 -70 -34 -70 -69 0
-52 62 -85 180 -96 138 -12 259 21 314 85 32 39 33 74 2 105 -24 24 -68 32
-206 38 -48 2 -55 5 -55 22 0 18 7 20 75 21 102 1 157 18 201 63 48 48 63 99
44 155 -7 22 -15 52 -17 66 -3 22 1 25 32 26 60 1 68 3 75 24 10 31 -3 59 -35
75 -41 21 -93 19 -115 -5z m-106 -202 c-1 -77 -54 -159 -89 -138 -12 7 -13 18
-2 66 15 72 35 104 67 104 22 0 25 -4 24 -32z m-62 -345 c9 -25 -35 -53 -85
-53 -53 0 -72 12 -72 47 0 23 2 24 77 21 48 -2 78 -7 80 -15z"/>
<path d="M856 2891 c-3 -4 -1 -21 5 -37 9 -24 4 -55 -35 -194 -26 -91 -49
-174 -53 -184 -3 -11 -17 -30 -30 -42 -39 -36 -25 -54 45 -54 66 0 106 20 85
41 -7 7 -13 22 -13 33 0 29 61 246 69 246 3 0 38 -67 77 -148 79 -164 97 -182
159 -162 41 14 51 37 115 265 40 146 54 184 75 200 44 36 32 45 -55 45 -44 0
-80 -4 -80 -10 0 -5 5 -20 11 -34 10 -20 7 -43 -16 -125 -16 -56 -31 -101 -35
-101 -3 0 -30 50 -60 111 -80 164 -75 159 -175 159 -46 0 -86 -4 -89 -9z"/>
<path d="M1497 2789 c-21 -5 -47 -14 -58 -19 -20 -11 -27 -40 -9 -40 18 0 11
-44 -26 -166 -25 -85 -42 -125 -60 -139 -39 -34 -15 -45 97 -45 54 0 110 5
125 10 25 10 26 11 9 29 -16 18 -15 26 24 153 45 149 50 192 23 207 -29 15
-85 20 -125 10z"/>
<path d="M2418 2786 c-106 -29 -165 -101 -175 -214 -6 -67 18 -127 61 -156 65
-42 196 -38 260 7 26 19 63 83 53 94 -3 2 -29 -3 -58 -11 -66 -20 -120 -8
-137 29 -7 14 -12 27 -12 29 0 2 37 5 83 8 50 3 97 11 120 23 87 41 88 145 3
180 -50 21 -145 26 -198 11z m76 -91 c-2 -40 -30 -75 -61 -75 -19 0 -10 41 19
88 26 42 43 36 42 -13z"/>
<path d="M2837 2786 c-64 -18 -76 -30 -53 -55 17 -19 17 -25 -20 -148 -23 -76
-49 -139 -63 -156 -20 -24 -22 -30 -10 -38 16 -10 218 -12 243 -3 20 8 21 30
1 38 -22 8 -19 35 21 156 38 118 51 131 80 80 42 -69 135 -54 150 25 18 95
-104 150 -170 77 l-18 -21 -22 25 c-26 31 -75 38 -139 20z"/>
<path d="M3337 2786 c-64 -18 -76 -30 -52 -56 18 -20 18 -23 -20 -148 -26 -85
-47 -136 -64 -155 -22 -24 -23 -29 -11 -38 15 -10 234 -9 244 2 3 3 1 19 -5
35 -10 25 -5 49 30 162 23 74 41 141 41 151 0 47 -81 70 -163 47z"/>
<path d="M3749 2790 c-57 -10 -85 -24 -100 -51 -17 -32 -3 -66 32 -78 59 -20
119 10 119 61 0 30 17 37 38 16 16 -16 15 -58 -3 -101 -14 -34 -15 -35 -52
-26 -139 32 -243 -18 -243 -116 0 -103 115 -147 213 -81 33 23 35 23 50 5 22
-25 86 -41 123 -30 54 16 65 23 79 52 19 37 19 42 -4 34 -30 -9 -32 6 -11 76
22 73 25 136 8 173 -23 52 -147 84 -249 66z m49 -260 c-13 -39 -47 -64 -65
-48 -31 25 1 78 48 78 27 0 28 -1 17 -30z"/>
</g>
</svg>
