<?xml version="1.0" encoding="UTF-8"?>
<svg version="1.1" xmlns="http://www.w3.org/2000/svg" width="500" height="500">
<path d="M0 0 C0.73427719 -0.0033284 1.46855438 -0.0066568 2.2250824 -0.01008606 C3.78619764 -0.01516197 5.34732378 -0.01749418 6.90844727 -0.01733398 C9.27443991 -0.01949998 11.63995062 -0.03759064 14.00585938 -0.05664062 C15.524738 -0.05957869 17.04361883 -0.06156072 18.5625 -0.0625 C19.26178116 -0.06968552 19.96106232 -0.07687103 20.68153381 -0.08427429 C27.85501128 -0.0516683 34.46602535 0.88790035 39.74609375 6.16796875 C42.27620521 9.6619322 42.17440146 12.95627624 41.74609375 17.16796875 C39.85307013 22.05913249 37.06857097 25.16624846 32.74609375 28.16796875 C33.28234375 29.13734375 33.81859375 30.10671875 34.37109375 31.10546875 C36.41132671 35.73632309 35.21516749 39.50709452 33.74609375 44.16796875 C35.39609375 44.49796875 37.04609375 44.82796875 38.74609375 45.16796875 C38.55346401 48.63530413 37.94470222 49.96384338 35.49609375 52.48046875 C30.60391621 55.3967303 24.18870446 55.09437057 18.74609375 54.16796875 C16.04677125 52.35604388 14.20554399 51.08686922 12.74609375 48.16796875 C12.83519533 45.60989113 12.97903621 43.09170865 13.18359375 40.54296875 C13.23580078 39.8365625 13.28800781 39.13015625 13.34179688 38.40234375 C13.47150582 36.65716888 13.60814329 34.9125115 13.74609375 33.16796875 C11.76609375 32.50796875 9.78609375 31.84796875 7.74609375 31.16796875 C7.21394965 33.24844172 6.69577589 35.33249168 6.18359375 37.41796875 C5.89355469 38.578125 5.60351562 39.73828125 5.3046875 40.93359375 C4.47335089 45.74720712 5.90153009 48.74101597 7.74609375 53.16796875 C6.74609375 54.16796875 6.74609375 54.16796875 4.06225586 54.28149414 C2.8944458 54.27625732 1.72663574 54.27102051 0.5234375 54.265625 C-0.73662109 54.26240234 -1.99667969 54.25917969 -3.29492188 54.25585938 C-4.63541734 54.24750278 -5.97591213 54.23903782 -7.31640625 54.23046875 C-8.66080567 54.22545535 -10.00520685 54.22089217 -11.34960938 54.21679688 C-14.65108566 54.20496363 -17.95247428 54.18847846 -21.25390625 54.16796875 C-21.8918457 52.32055664 -21.8918457 52.32055664 -22.25390625 50.16796875 C-21.04859519 48.83466006 -19.84274801 47.50183231 -18.63427734 46.17138672 C-15.62787625 41.80801081 -14.80775683 36.31180588 -13.56640625 31.23046875 C-12.9793182 28.92964883 -12.39208278 26.62886651 -11.8046875 24.328125 C-11.5372876 23.25143555 -11.2698877 22.17474609 -10.99438477 21.06542969 C-10.40215489 18.74805938 -9.7566919 16.47152971 -9.05078125 14.1875 C-8.26843776 11.22303176 -8.07411685 8.84249303 -8.19140625 5.79296875 C-8.24494128 4.25209103 -8.27457997 2.70963757 -8.25390625 1.16796875 C-6.3129156 -0.7730219 -2.64814785 0.00413052 0 0 Z M13.74609375 9.16796875 C13.23851513 10.58193777 12.7403445 11.99928604 12.24609375 13.41796875 C11.96765625 14.206875 11.68921875 14.99578125 11.40234375 15.80859375 C10.56744514 18.40209613 10.56744514 18.40209613 10.74609375 22.16796875 C13.620225 22.50194662 13.620225 22.50194662 16.74609375 22.16796875 C19.90545432 19.33543859 20.27984016 16.27100033 20.74609375 12.16796875 C17.69028401 9.58019667 17.69028401 9.58019667 13.74609375 9.16796875 Z " fill="#3BB5FA" transform="translate(76.25390625,207.83203125)"/>
<path d="M0 0 C2.24628236 3.36942354 2.83453207 6.3952842 2.10791016 10.42382812 C1.48532405 12.8457233 0.79292672 15.2334723 0.0625 17.625 C-0.18048828 18.45644531 -0.42347656 19.28789062 -0.67382812 20.14453125 C-1.27131471 22.1830149 -1.88413143 24.21699441 -2.5 26.25 C0.98691148 24.81255497 1.39789128 24.47653769 3.0546875 20.80078125 C3.51105959 19.39319175 3.95062534 17.98006475 4.375 16.5625 C4.6121875 15.86705078 4.849375 15.17160156 5.09375 14.45507812 C6.68395145 9.32524153 6.40656539 6.26623928 4.5 1.25 C7.91536203 -2.05863197 10.65582194 -3.40911063 15.44140625 -3.7890625 C19.49817473 -3.71208397 23.00034403 -2.74977065 26.375 -0.5 C28.51187315 2.8240249 28.74931137 5.93709414 28.015625 9.80078125 C27.25604732 12.76191561 26.42702127 15.69281627 25.5625 18.625 C25.27181641 19.64722656 24.98113281 20.66945312 24.68164062 21.72265625 C23.9654569 24.23516965 23.23799023 26.74382207 22.5 29.25 C28.29108424 27.60120603 31.42261525 25.42764368 34.5 20.25 C34.57819565 16.96578256 33.73060797 15.60052412 31.9375 12.875 C30.04394757 9.41720861 30.08278002 7.14405318 30.5 3.25 C31.5625 0.4375 31.5625 0.4375 33.5 -1.75 C37.06356422 -3.26781439 39.36868163 -3.98678757 43.1875 -3.1875 C46.29422269 -1.256294 47.70973636 0.00100302 49.5 3.25 C51.17962912 12.8923153 47.63570018 19.68083688 42.3125 27.4375 C35.02993044 34.72006956 27.5025352 39.52499095 17 39.5625 C12.14614781 39.48492702 8.50819526 39.25614644 4.5 36.25 C4.17 35.26 3.84 34.27 3.5 33.25 C3.02949219 33.59933594 2.55898437 33.94867188 2.07421875 34.30859375 C1.45160156 34.76363281 0.82898438 35.21867187 0.1875 35.6875 C-0.42738281 36.13996094 -1.04226562 36.59242188 -1.67578125 37.05859375 C-6.17522916 39.99720534 -11.32207241 39.85301952 -16.5 39.25 C-19.6125932 37.93648567 -21.95277974 36.34444052 -23.5 33.25 C-24.38403874 25.68494717 -22.91763304 18.92100942 -20.74731445 11.73388672 C-19.58996995 7.75295093 -19.58996995 7.75295093 -20.3828125 3.77734375 C-20.75148438 3.27332031 -21.12015625 2.76929688 -21.5 2.25 C-17.31911263 -2.40870307 -17.31911263 -2.40870307 -14.25 -3.6875 C-9.06775181 -3.80527837 -4.28526752 -2.99968726 0 0 Z " fill="#3AB5FB" transform="translate(145.5,222.75)"/>
<path d="M0 0 C2 2 2 2 2.26171875 5.63378906 C2.14874335 9.92130188 1.14127399 13.80147541 -0.1875 17.859375 C-0.40946045 18.57103821 -0.6314209 19.28270142 -0.86010742 20.01593018 C-1.56276868 22.26413747 -2.28025855 24.50720835 -3 26.75 C-3.71770073 29.0076264 -4.43203367 31.26618435 -5.13989258 33.5269165 C-5.57885609 34.92677992 -6.02374329 36.32480351 -6.4753418 37.72064209 C-7.51883531 41.02801262 -8 43.48358395 -8 47 C-7.34 46.67 -6.68 46.34 -6 46 C-5.3125 47.6875 -5.3125 47.6875 -5 50 C-6.81769664 54.14030902 -8.79507756 56.33555153 -13 58 C-18.4014731 58.51366163 -23.21767028 58.82438767 -28 56 C-28 55.34 -28 54.68 -28 54 C-28.94875 54.66 -29.8975 55.32 -30.875 56 C-35.48377279 58.61755858 -39.81894159 58.83786093 -45 58 C-48.69527184 56.25314422 -50.47717274 54.71453059 -52.875 51.4375 C-55.42615808 43.64229476 -54.68490034 35.31790068 -51 28 C-47.59133416 22.59433802 -44.26412981 18.04543014 -38 16 C-31.93414066 14.72812627 -27.90781786 15.20655529 -22 17 C-20.92140138 9.45952096 -20.92140138 9.45952096 -22 2 C-14.25414908 -1.56309142 -8.27671499 -2.83063653 0 0 Z M-28 24 C-32.99815477 29.17050494 -35.17298871 35.98544695 -35.1875 43.125 C-35.125625 44.07375 -35.06375 45.0225 -35 46 C-33.68 46 -32.36 46 -31 46 C-28.06158371 39.12380756 -25.819794 32.25160335 -24 25 C-25.32 24.67 -26.64 24.34 -28 24 Z " fill="#3CB5F9" transform="translate(369,204)"/>
<path d="M0 0 C3 2.5625 3 2.5625 5 5 C5.61875 4.38125 6.2375 3.7625 6.875 3.125 C11.42830918 0.02874976 16.55457866 -1.61594125 22.09765625 -0.625 C25.03604177 0.47299544 26.90252419 1.88680228 28.9375 4.25 C31.42460842 10.6872218 29.48928965 16.66317292 27.5 22.9375 C27.26152344 23.71673828 27.02304687 24.49597656 26.77734375 25.29882812 C26.19357822 27.20190376 25.59800024 29.10134922 25 31 C26.32 31.33 27.64 31.66 29 32 C29 36.32991847 26.88494631 37.91377837 24 41 C20.83990467 42.05336511 18.4446864 42.20032888 15.125 42.25 C13.58199219 42.28867187 13.58199219 42.28867187 12.0078125 42.328125 C8.58779313 41.95503198 6.74974147 41.03027507 4 39 C1.36388828 33.72777656 3.06703261 28.34924841 4.79052734 23.0769043 C5.82831737 20.0388865 6.90033561 17.01622234 8 14 C6.04052878 14.27714717 6.04052878 14.27714717 4 15 C2.73281967 17.38229902 1.84959142 19.46492882 1 22 C0.71898437 22.82886719 0.43796875 23.65773437 0.1484375 24.51171875 C-1.47639898 29.59123093 -2.76586646 33.93653414 -1.4375 39.25 C-1.293125 39.8275 -1.14875 40.405 -1 41 C-2 42 -2 42 -4.50024414 42.11352539 C-5.58426514 42.10828857 -6.66828613 42.10305176 -7.78515625 42.09765625 C-9.53989258 42.09282227 -9.53989258 42.09282227 -11.33007812 42.08789062 C-12.56177734 42.07951172 -13.79347656 42.07113281 -15.0625 42.0625 C-16.91584961 42.05573242 -16.91584961 42.05573242 -18.80664062 42.04882812 C-21.87114117 42.03699608 -24.93554721 42.02051173 -28 42 C-28 38 -28 38 -26.61401367 36.55810547 C-25.8150769 35.78684326 -25.8150769 35.78684326 -25 35 C-23.958752 32.68839879 -23.958752 32.68839879 -23.17578125 30.0703125 C-22.86962891 29.10996094 -22.56347656 28.14960938 -22.24804688 27.16015625 C-21.78495117 25.65775391 -21.78495117 25.65775391 -21.3125 24.125 C-20.99216797 23.13113281 -20.67183594 22.13726562 -20.34179688 21.11328125 C-18.28787542 14.57051227 -17.45296017 9.76829924 -19 3 C-12.65038787 -0.39630416 -7.06911131 -2.15208832 0 0 Z " fill="#3CB5FA" transform="translate(279,220)"/>
<path d="M0 0 C2.77851031 3.1258241 3.86954011 5.04950653 4.4375 9.1875 C3.94435515 13.48490513 2.90347012 17.41257126 1.65625 21.546875 C0.87078574 24.05978403 0.87078574 24.05978403 1 27 C1.99 27 2.98 27 4 27 C4.375 29.1875 4.375 29.1875 4 32 C-1.35748935 37.12455503 -4.35215864 38.27570802 -11.5234375 38.234375 C-14.62834687 37.940535 -16.50111739 36.81736917 -19 35 C-22.03519068 34.73142398 -22.03519068 34.73142398 -24.3125 36.47265625 C-28.94366644 39.10461276 -33.82351519 38.63809854 -39 38 C-42.61762934 36.11883274 -43.60405234 34.80989295 -45.375 31.1875 C-46.34381569 26.24653999 -45.93564014 22.64672665 -43.4375 18.25 C-37.823022 13.06740492 -31.92101937 12.66996783 -24.61328125 12.796875 C-22.00726509 12.9994353 -19.54891187 13.43051338 -17 14 C-15.37049588 9.87831311 -14.73735399 7.29299643 -16 3 C-16.74185391 4.48370782 -17.44427239 5.98727199 -18.125 7.5 C-20.7215099 10.9620132 -22.77758254 11.35590242 -27 12 C-30.56165623 11.19358727 -32.41756312 10.58243688 -35 8 C-35.5946363 4.17733807 -35.33135968 2.50275262 -33.1875 -0.75 C-24.03800003 -7.20847057 -9.00579753 -6.65369512 0 0 Z M-24.75 22.5 C-25.1625 22.995 -25.575 23.49 -26 24 C-25.67 24.99 -25.34 25.98 -25 27 C-23.04105639 26.88693303 -23.04105639 26.88693303 -21 26 C-19.70339566 23.50965614 -19.70339566 23.50965614 -19 21 C-22.87797662 20.56613908 -22.87797662 20.56613908 -24.75 22.5 Z " fill="#3CB5F9" transform="translate(243,224)"/>
<path d="M0 0 C3.28466148 4.37954864 3.66471636 8.69079109 3 14 C2.12747071 18.367661 1.10488421 22.68569022 0 27 C0.99 27 1.98 27 3 27 C4 30 4 30 2.9375 32.5 C0.47525516 35.67709012 -1.18720219 36.68285167 -5 38 C-10.81232721 38.67996777 -15.17666287 38.61750285 -20 35 C-22.16985625 34.81711452 -22.16985625 34.81711452 -24.25 36.4765625 C-27.43263449 38.23966968 -29.3878716 38.40264384 -33 38.375 C-34.010625 38.38273437 -35.02125 38.39046875 -36.0625 38.3984375 C-39.45174077 37.93872665 -41.29443672 37.07614404 -44 35 C-46.72258744 30.95737017 -46.63713402 26.70498968 -46 22 C-44.21625835 17.98658129 -42.39913907 15.88211302 -38.4375 14.125 C-31.5694669 11.94263434 -23.96502478 12.4940487 -17 14 C-16.67 10.37 -16.34 6.74 -16 3 C-16.66 2.67 -17.32 2.34 -18 2 C-17.87625 3.11375 -17.87625 3.11375 -17.75 4.25 C-18 7 -18 7 -19.625 9.25 C-22.59776838 11.44046091 -24.30391473 11.92752774 -28 12 C-31.8125 10.9375 -31.8125 10.9375 -35 9 C-36.1875 6.125 -36.1875 6.125 -36 3 C-33.6481149 -0.98011324 -31.43309145 -2.79097506 -27 -4 C-17.71152867 -5.73174889 -8.1068716 -5.35327175 0 0 Z M-24 21 C-24.66 21.66 -25.32 22.32 -26 23 C-25.67958603 25.60280568 -25.67958603 25.60280568 -25 28 C-22.96758273 27.36020151 -22.96758273 27.36020151 -21 26 C-20.18828772 23.44480079 -20.18828772 23.44480079 -20 21 C-21.32 21 -22.64 21 -24 21 Z " fill="#3BB5FA" transform="translate(416,224)"/>
<path d="M0 0 C0.33 0 0.66 0 1 0 C1 2.64 1 5.28 1 8 C0.34 8 -0.32 8 -1 8 C-1 10.97 -1 13.94 -1 17 C-0.34 17 0.32 17 1 17 C1 17.66 1 18.32 1 19 C3.95887459 19.08069658 6.9155659 19.14034665 9.875 19.1875 C10.71675781 19.21263672 11.55851562 19.23777344 12.42578125 19.26367188 C13.23144531 19.27333984 14.03710938 19.28300781 14.8671875 19.29296875 C15.61081543 19.3086792 16.35444336 19.32438965 17.12060547 19.34057617 C17.74080566 19.22818604 18.36100586 19.1157959 19 19 C19.66 18.01 20.32 17.02 21 16 C21.5625 17.9375 21.5625 17.9375 22 20 C21 21 21 21 18.31616211 21.11352539 C17.14835205 21.10828857 15.98054199 21.10305176 14.77734375 21.09765625 C13.51728516 21.09443359 12.25722656 21.09121094 10.95898438 21.08789062 C9.61848891 21.07953403 8.27799412 21.07106907 6.9375 21.0625 C5.59310058 21.0574866 4.2486994 21.05292342 2.90429688 21.04882812 C-0.39717941 21.03699488 -3.69856803 21.02050971 -7 21 C-7.640625 19.16015625 -7.640625 19.16015625 -8 17 C-6.79660125 15.62946254 -5.58805522 14.26292443 -4.34765625 12.92578125 C-1.69395823 9.13368524 -0.97702323 4.4641224 0 0 Z " fill="#49B0EE" transform="translate(62,241)"/>
<path d="M0 0 C0.33 0 0.66 0 1 0 C1.33 2.31 1.66 4.62 2 7 C1.34 7 0.68 7 0 7 C-0.33 7.99 -0.66 8.98 -1 10 C-1.66 10 -2.32 10 -3 10 C-3 12.31 -3 14.62 -3 17 C-4.65 16.67 -6.3 16.34 -8 16 C-12.16408743 22.80134281 -14.02489532 29.03664509 -15 37 C-15.33 37 -15.66 37 -16 37 C-16.0814222 34.77144426 -16.13938079 32.54202345 -16.1875 30.3125 C-16.22230469 29.07113281 -16.25710938 27.82976562 -16.29296875 26.55078125 C-15.79290785 20.49004311 -12.53561165 16.8718636 -8 13 C-6.68 13 -5.36 13 -4 13 C-4 12.01 -4 11.02 -4 10 C-4.99 10 -5.98 10 -7 10 C-7 9.34 -7 8.68 -7 8 C-7.99 7.67 -8.98 7.34 -10 7 C-7.36 7.33 -4.72 7.66 -2 8 C-1.34 5.36 -0.68 2.72 0 0 Z " fill="#51B2EA" transform="translate(349,213)"/>
<path d="M0 0 C0.66 0.66 1.32 1.32 2 2 C0.8553125 3.0828125 0.8553125 3.0828125 -0.3125 4.1875 C-2.71854872 6.70545796 -4.26172335 9.02009717 -6 12 C-6.99 12.495 -6.99 12.495 -8 13 C-8.69571835 15.67298138 -8.69571835 15.67298138 -9.125 18.8125 C-9.29257812 19.87082031 -9.46015625 20.92914063 -9.6328125 22.01953125 C-10.08151565 25.16116397 -10.08151565 25.16116397 -10 29 C-9.01 29.33 -8.02 29.66 -7 30 C-7.33 30.66 -7.66 31.32 -8 32 C-8.35169068 33.32860925 -8.68770276 34.66158328 -9 36 C-12.9780175 29.86722302 -12.83318691 23.60129346 -11.56640625 16.60546875 C-9.83270606 10.45675566 -6.31149605 5.6543379 -2 1 C-1.34 0.67 -0.68 0.34 0 0 Z " fill="#59ADE1" transform="translate(327,222)"/>
<path d="M0 0 C1.32 0.66 2.64 1.32 4 2 C-1.19702187 7.5119929 -6.10866081 12.42258494 -14 13 C-14 12.34 -14 11.68 -14 11 C-13.01 11 -12.02 11 -11 11 C-11 10.34 -11 9.68 -11 9 C-10.34 9 -9.68 9 -9 9 C-8.67 8.01 -8.34 7.02 -8 6 C-6.68 6.33 -5.36 6.66 -4 7 C-4 6.01 -4 5.02 -4 4 C-2 1.8125 -2 1.8125 0 0 Z M-5 3 C-5.33 3.99 -5.66 4.98 -6 6 C-8.97 5.67 -11.94 5.34 -15 5 C-15 4.67 -15 4.34 -15 4 C-11.59437148 3.22157062 -8.49234244 2.90021879 -5 3 Z " fill="#48B2F0" transform="translate(183,248)"/>
<path d="M0 0 C0 0.66 0 1.32 0 2 C-1.32 2.33 -2.64 2.66 -4 3 C-3.67 3.99 -3.34 4.98 -3 6 C-3.99 6.33 -4.98 6.66 -6 7 C-6 8.65 -6 10.3 -6 12 C-6.99 12.33 -7.98 12.66 -9 13 C-9 14.65 -9 16.3 -9 18 C-9.66 18 -10.32 18 -11 18 C-10.79375 16.783125 -10.5875 15.56625 -10.375 14.3125 C-9.90036156 10.65193227 -10.23418616 8.32388488 -12 5 C-8.08072092 1.52863853 -5.248603 0 0 0 Z " fill="#4DB2E8" transform="translate(162,219)"/>
<path d="M0 0 C0.33 0.66 0.66 1.32 1 2 C0.34 2 -0.32 2 -1 2 C-1 2.99 -1 3.98 -1 5 C-1.66 5 -2.32 5 -3 5 C-3 6.32 -3 7.64 -3 9 C-2.01 9 -1.02 9 0 9 C0 9.66 0 10.32 0 11 C1.8871875 11.0309375 1.8871875 11.0309375 3.8125 11.0625 C4.52019531 11.07410156 5.22789062 11.08570313 5.95703125 11.09765625 C8.20305461 11.08263217 8.20305461 11.08263217 11 10 C11 8.35 11 6.7 11 5 C11.99 5 12.98 5 14 5 C13.4375 7.8125 13.4375 7.8125 12 11 C7.94588244 13.54376004 5.92494926 14.16679413 1.1875 13.3125 C-2 12 -2 12 -4 10 C-4.375 7.125 -4.375 7.125 -4 4 C-2 1.625 -2 1.625 0 0 Z " fill="#53B1E4" transform="translate(212,222)"/>
<path d="M0 0 C0.66 0.33 1.32 0.66 2 1 C1.01 4.96 0.02 8.92 -1 13 C-1.66 13 -2.32 13 -3 13 C-3.12375 12.360625 -3.2475 11.72125 -3.375 11.0625 C-3.58125 10.381875 -3.7875 9.70125 -4 9 C-4.66 8.67 -5.32 8.34 -6 8 C-6 5.69 -6 3.38 -6 1 C-5.34 1 -4.68 1 -4 1 C-3.67 1.66 -3.34 2.32 -3 3 C-2.34 3 -1.68 3 -1 3 C-0.67 2.01 -0.34 1.02 0 0 Z " fill="#44B1F1" transform="translate(88,217)"/>
<path d="M0 0 C0.99 0.33 1.98 0.66 3 1 C1.35 1.66 -0.3 2.32 -2 3 C-2 3.66 -2 4.32 -2 5 C-1.34 5 -0.68 5 0 5 C0.56993514 13.26405949 -1.51394597 20.1977858 -4 28 C-4.66 28 -5.32 28 -6 28 C-4.31410567 18.9248667 -4.31410567 18.9248667 -2.875 14.6875 C-1.41820188 10.21304864 -1.96585238 6.52439585 -3 2 C-2.01 1.34 -1.02 0.68 0 0 Z " fill="#54AEE2" transform="translate(263,221)"/>
<path d="M0 0 C0.99 0.33 1.98 0.66 3 1 C2.319375 1.515625 1.63875 2.03125 0.9375 2.5625 C0.298125 3.366875 -0.34125 4.17125 -1 5 C-0.6913753 7.33672984 -0.35543427 9.66993089 0 12 C-0.92824183 14.3627974 -1.93097061 16.69747517 -3 19 C-3.4054103 21.32189536 -3.76072994 23.65515344 -4 26 C-4.66 25.67 -5.32 25.34 -6 25 C-5.80083984 24.02160156 -5.80083984 24.02160156 -5.59765625 23.0234375 C-5.23319829 21.21976964 -4.87403064 19.41502656 -4.51953125 17.609375 C-4.12134171 15.60944557 -3.69236119 13.61562533 -3.25 11.625 C-2.97148827 8.70062683 -3.41190486 7.42885139 -5 5 C-3.35 3.35 -1.7 1.7 0 0 Z " fill="#55B3E7" transform="translate(129,220)"/>
<path d="M0 0 C1.98 0 3.96 0 6 0 C6 0.99 6 1.98 6 3 C7.32 2.67 8.64 2.34 10 2 C10 2.66 10 3.32 10 4 C11.794375 4.2165625 11.794375 4.2165625 13.625 4.4375 C17.1005158 4.87039343 20.54950034 5.39616256 24 6 C24 6.33 24 6.66 24 7 C9.76056338 7.57042254 9.76056338 7.57042254 5 4 C4.67 3.01 4.34 2.02 4 1 C2.02 1.99 2.02 1.99 0 3 C0 2.01 0 1.02 0 0 Z " fill="#50B2EA" transform="translate(145,255)"/>
<path d="M0 0 C1.60495567 0.11442461 3.20898119 0.24194694 4.8125 0.375 C5.70582031 0.44460937 6.59914062 0.51421875 7.51953125 0.5859375 C10 1 10 1 13 3 C11.02 3 9.04 3 7 3 C6.34 6.3 5.68 9.6 5 13 C4.34 11.68 3.68 10.36 3 9 C1.4587688 7.29078411 1.4587688 7.29078411 0 6 C0.66 6 1.32 6 2 6 C1.34 4.02 0.68 2.04 0 0 Z " fill="#4AB4EF" transform="translate(225,219)"/>
<path d="M0 0 C3 1 3 1 4.3125 3.5 C5.21233772 8.08099202 4.27807995 11.57587709 3 16 C2.67 16 2.34 16 2 16 C1.87625 15.21625 1.7525 14.4325 1.625 13.625 C1.20882007 10.85942178 1.20882007 10.85942178 -1 9 C-0.9765625 6.8359375 -0.9765625 6.8359375 -0.625 4.375 C-0.51414062 3.55773437 -0.40328125 2.74046875 -0.2890625 1.8984375 C-0.19367188 1.27195313 -0.09828125 0.64546875 0 0 Z " fill="#49B2EE" transform="translate(107,236)"/>
<path d="M0 0 C6.36989498 0.60093349 6.36989498 0.60093349 8.875 2.1875 C10.88224378 5.42139276 11.28356246 8.42622832 10.609375 12.16796875 C10.12433732 14.12544225 9.56723008 16.06474444 9 18 C8.67 18 8.34 18 8 18 C7.95101562 17.14535156 7.90203125 16.29070312 7.8515625 15.41015625 C7.77679688 14.30542969 7.70203125 13.20070312 7.625 12.0625 C7.52058594 10.40927734 7.52058594 10.40927734 7.4140625 8.72265625 C7.27742187 7.82417969 7.14078125 6.92570313 7 6 C6.34 5.67 5.68 5.34 5 5 C5 4.34 5 3.68 5 3 C4.34 3 3.68 3 3 3 C3 2.34 3 1.68 3 1 C2.01 0.67 1.02 0.34 0 0 Z " fill="#4EAEE7" transform="translate(163,220)"/>
<path d="M0 0 C0.33 0 0.66 0 1 0 C1.25328119 5.06562383 0.33583899 9.15758367 -1 14 C-1.33 13.34 -1.66 12.68 -2 12 C-3.98 12.33 -5.96 12.66 -8 13 C-10 10 -10 10 -9.625 7.8125 C-9.41875 7.214375 -9.2125 6.61625 -9 6 C-8.34 6 -7.68 6 -7 6 C-6.67 5.34 -6.34 4.68 -6 4 C-6.33 6.31 -6.66 8.62 -7 11 C-4.32423308 9.99382318 -3.2214892 9.45785454 -1.953125 6.8359375 C-1.72109375 6.02382812 -1.4890625 5.21171875 -1.25 4.375 C-1.00765625 3.55773437 -0.7653125 2.74046875 -0.515625 1.8984375 C-0.34546875 1.27195313 -0.1753125 0.64546875 0 0 Z " fill="#4FB0E9" transform="translate(150,238)"/>
<path d="M0 0 C0.33 0.99 0.66 1.98 1 3 C1.66 3.33 2.32 3.66 3 4 C3 4.66 3 5.32 3 6 C3.33 6.99 3.66 7.98 4 9 C3.34 9 2.68 9 2 9 C1.67 9.66 1.34 10.32 1 11 C0.34 10.67 -0.32 10.34 -1 10 C-1.12375 10.598125 -1.2475 11.19625 -1.375 11.8125 C-2 14 -2 14 -4 17 C-3.35729017 11.0870696 -1.80996216 5.65755469 0 0 Z " fill="#4BB0EF" transform="translate(68,220)"/>
<path d="M0 0 C2.32758311 0.93103324 3.74357132 1.65382128 5.25 3.6875 C7.43721424 10.43141056 5.17241891 16.57326074 3 23 C2.67 23 2.34 23 2 23 C1.875 17.25 1.875 17.25 3 15 C3.15562268 10.87599885 3.17071087 6.98041696 2 3 C1.34 2.67 0.68 2.34 0 2 C0 1.34 0 0.68 0 0 Z " fill="#54ADE1" transform="translate(303,221)"/>
<path d="M0 0 C4.95 0.99 4.95 0.99 10 2 C8.85814266 6.47959418 7.56984833 10.14522751 5 14 C3.73973202 11.47946405 4.08125555 10.1457902 4.4375 7.375 C4.53933594 6.55773437 4.64117187 5.74046875 4.74609375 4.8984375 C4.82988281 4.27195313 4.91367187 3.64546875 5 3 C4.34 2.67 3.68 2.34 3 2 C2.67 3.32 2.34 4.64 2 6 C2 4.68 2 3.36 2 2 C1.34 2 0.68 2 0 2 C0 1.34 0 0.68 0 0 Z " fill="#4DB2EA" transform="translate(395,224)"/>
<path d="M0 0 C9.09677419 1.81935484 9.09677419 1.81935484 12 6 C12.96557827 9.31055407 13.33735758 11.14536079 12.0625 14.375 C11.711875 14.91125 11.36125 15.4475 11 16 C9.33657163 14.33657163 9.63951903 12.2174291 9.4375 9.9375 C9.35371094 9.01839844 9.26992187 8.09929687 9.18359375 7.15234375 C9.12300781 6.44207031 9.06242188 5.73179687 9 5 C7.68 4.67 6.36 4.34 5 4 C5 3.34 5 2.68 5 2 C3.35 2 1.7 2 0 2 C0 1.34 0 0.68 0 0 Z " fill="#57AADE" transform="translate(135,219)"/>
<path d="M0 0 C0.99 0.495 0.99 0.495 2 1 C2.33 2.32 2.66 3.64 3 5 C6.63 5.33 10.26 5.66 14 6 C14 5.34 14 4.68 14 4 C14.99 4.33 15.98 4.66 17 5 C15.2256972 7.26716469 14.02851124 7.99092824 11.25 8.875 C7.01573733 9.03785626 4.61307291 8.19618157 1 6 C0.0625 2.8125 0.0625 2.8125 0 0 Z " fill="#51B0E2" transform="translate(380,227)"/>
<path d="M0 0 C1.65 0.33 3.3 0.66 5 1 C4.65930765 4.15140423 4.41923159 5.60781561 2.0625 7.8125 C0 9 0 9 -2 9 C-1.41196203 5.97580475 -0.77321882 2.98241547 0 0 Z " fill="#48B1E9" transform="translate(110,252)"/>
<path d="M0 0 C0.66 1.32 1.32 2.64 2 4 C1 5 1 5 -1.68383789 5.11352539 C-2.85164795 5.10828857 -4.01945801 5.10305176 -5.22265625 5.09765625 C-6.48271484 5.09443359 -7.74277344 5.09121094 -9.04101562 5.08789062 C-10.38151109 5.07953403 -11.72200588 5.07106907 -13.0625 5.0625 C-14.40689942 5.0574866 -15.7513006 5.05292342 -17.09570312 5.04882812 C-20.39717941 5.03699488 -23.69856803 5.02050971 -27 5 C-27 4.67 -27 4.34 -27 4 C-18.42 3.67 -9.84 3.34 -1 3 C-0.67 2.01 -0.34 1.02 0 0 Z " fill="#53AEE4" transform="translate(82,257)"/>
<path d="M0 0 C1.65 0 3.3 0 5 0 C3.53113762 3.87245536 1.68378216 5.19903983 -2 7 C-5.11328125 7.29296875 -5.11328125 7.29296875 -8.3125 7.1875 C-9.91544922 7.14689453 -9.91544922 7.14689453 -11.55078125 7.10546875 C-12.35902344 7.07066406 -13.16726563 7.03585937 -14 7 C-14 6.67 -14 6.34 -14 6 C-13.24074219 5.96261719 -12.48148437 5.92523438 -11.69921875 5.88671875 C-10.20841797 5.78810547 -10.20841797 5.78810547 -8.6875 5.6875 C-7.20830078 5.60048828 -7.20830078 5.60048828 -5.69921875 5.51171875 C-2.74350106 4.95137285 -1.74370302 4.41023796 0 2 C0 1.34 0 0.68 0 0 Z " fill="#4EB3E8" transform="translate(302,255)"/>
<path d="M0 0 C0 0.66 0 1.32 0 2 C-1.65 2.66 -3.3 3.32 -5 4 C-4.67 5.32 -4.34 6.64 -4 8 C-1.66924071 7.04134491 -1.66924071 7.04134491 0 4 C0.33 5.32 0.66 6.64 1 8 C-1.35438733 9.42944945 -2.48032433 10.08661261 -5.25 9.625 C-5.8275 9.41875 -6.405 9.2125 -7 9 C-7.36363636 3.54545455 -7.36363636 3.54545455 -5.75 1.125 C-4 0 -4 0 0 0 Z " fill="#53AFE2" transform="translate(396,243)"/>
<path d="M0 0 C0.33 0.66 0.66 1.32 1 2 C1.99 1.34 2.98 0.68 4 0 C4.99 0 5.98 0 7 0 C7 0.66 7 1.32 7 2 C7.66 2.66 8.32 3.32 9 4 C7.04196493 4.05389087 5.08351091 4.09274217 3.125 4.125 C2.03445312 4.14820313 0.94390625 4.17140625 -0.1796875 4.1953125 C-3 4 -3 4 -5 2 C-3.35 1.34 -1.7 0.68 0 0 Z " fill="#4BB2EF" transform="translate(207,258)"/>
<path d="M0 0 C0.144375 0.639375 0.28875 1.27875 0.4375 1.9375 C1.28989171 5.06293628 2.08933409 5.05955606 5 7 C3.92598892 9.91517292 3.22189824 11.77810176 1 14 C1.50603992 11.83125748 1.99983813 10.00032373 3 8 C1.02 8 -0.96 8 -3 8 C-2.67 6.35 -2.34 4.7 -2 3 C-1.34 3 -0.68 3 0 3 C0 2.01 0 1.02 0 0 Z " fill="#54B0E7" transform="translate(415,245)"/>
<path d="M0 0 C-0.33 0.66 -0.66 1.32 -1 2 C-3.00390625 2.23828125 -3.00390625 2.23828125 -5.5625 2.3125 C-11.10283918 2.72702897 -14.62907691 4.69128448 -19 8 C-19 7.01 -19 6.02 -19 5 C-16.0990524 2.17431283 -13.43671914 1.445187 -9.5 0.8125 C-8.5615625 0.65394531 -7.623125 0.49539062 -6.65625 0.33203125 C-4 0 -4 0 0 0 Z " fill="#53ABE4" transform="translate(401,219)"/>
<path d="M0 0 C0.66 0 1.32 0 2 0 C1.67 3.3 1.34 6.6 1 10 C1.99 10 2.98 10 4 10 C4 11.65 4 13.3 4 15 C3.01 15.495 3.01 15.495 2 16 C2 14.68 2 13.36 2 12 C1.01 12 0.02 12 -1 12 C-0.67 8.04 -0.34 4.08 0 0 Z " fill="#58ACDF" transform="translate(243,241)"/>
<path d="M0 0 C0 0.66 0 1.32 0 2 C-1.32 2.33 -2.64 2.66 -4 3 C-3.67 3.99 -3.34 4.98 -3 6 C-4.98 6.66 -6.96 7.32 -9 8 C-9 6.68 -9 5.36 -9 4 C-8.34 4 -7.68 4 -7 4 C-7 3.01 -7 2.02 -7 1 C-2.25 0 -2.25 0 0 0 Z " fill="#42B2F0" transform="translate(162,219)"/>
<path d="M0 0 C6.15222436 0.43173504 9.81917949 1.65405342 15 5 C14.67 5.66 14.34 6.32 14 7 C12.68 6.34 11.36 5.68 10 5 C10 4.34 10 3.68 10 3 C6.7 2.67 3.4 2.34 0 2 C0 1.34 0 0.68 0 0 Z " fill="#53B1E5" transform="translate(402,220)"/>
<path d="M0 0 C1.98 0 3.96 0 6 0 C5.67 0.66 5.34 1.32 5 2 C2.07345473 2.97551509 0.05345004 3.16478088 -3 3.1875 C-4.299375 3.20876953 -4.299375 3.20876953 -5.625 3.23046875 C-8 3 -8 3 -11 1 C-7.37 1.33 -3.74 1.66 0 2 C0 1.34 0 0.68 0 0 Z " fill="#57AFE6" transform="translate(409,259)"/>
<path d="M0 0 C1.35439668 2.70879335 1.06501451 5.00933268 1 8 C0.34 8 -0.32 8 -1 8 C-1 9.98 -1 11.96 -1 14 C-3 12 -3 12 -3.3125 8.6875 C-2.98867205 4.86633018 -2.22414284 3.05819641 0 0 Z " fill="#52AFE4" transform="translate(179,221)"/>
<path d="M0 0 C0.66 0.66 1.32 1.32 2 2 C-2.75 6.875 -2.75 6.875 -5 8 C-4.64950425 4.75791433 -4.43778819 3.38472296 -1.9375 1.1875 C-1.298125 0.795625 -0.65875 0.40375 0 0 Z " fill="#4BB3EE" transform="translate(327,222)"/>
<path d="M0 0 C0.33 0 0.66 0 1 0 C1.05410687 1.77049689 1.09284119 3.54146849 1.125 5.3125 C1.14820313 6.29863281 1.17140625 7.28476563 1.1953125 8.30078125 C1 11 1 11 -1 14 C-1.22331199 12.41870971 -1.42804644 10.83478911 -1.625 9.25 C-1.74101562 8.36828125 -1.85703125 7.4865625 -1.9765625 6.578125 C-2.00207817 3.77140122 -1.44843844 2.36615134 0 0 Z " fill="#55AEE0" transform="translate(194,226)"/>
<path d="M0 0 C1.65 0.33 3.3 0.66 5 1 C5 1.99 5 2.98 5 4 C6.32 4.33 7.64 4.66 9 5 C6.625 5.125 6.625 5.125 4 5 C3.34 4.34 2.68 3.68 2 3 C1.01 3.33 0.02 3.66 -1 4 C-0.67 2.68 -0.34 1.36 0 0 Z " fill="#4AB3EC" transform="translate(393,255)"/>
<path d="M0 0 C1.1875 1.6875 1.1875 1.6875 2 4 C0.625 6.75 0.625 6.75 -1 9 C-1.97812643 5.95694001 -2.04560527 4.0322553 -1 1 C-0.67 0.67 -0.34 0.34 0 0 Z " fill="#53AEE5" transform="translate(362,250)"/>
<path d="M0 0 C0.99 0.33 1.98 0.66 3 1 C2.38125 1.598125 1.7625 2.19625 1.125 2.8125 C-1.13676954 5.00811144 -1.13676954 5.00811144 -3 8 C-3.66 7.01 -4.32 6.02 -5 5 C-3.35 3.35 -1.7 1.7 0 0 Z " fill="#50ACDF" transform="translate(129,220)"/>
<path d="M0 0 C0.33 0.66 0.66 1.32 1 2 C-0.45922693 1.88590407 -1.91740598 1.75834456 -3.375 1.625 C-4.59316406 1.52058594 -4.59316406 1.52058594 -5.8359375 1.4140625 C-8 1 -8 1 -10 -1 C-6.02972626 -2.32342458 -3.88343142 -1.36639254 0 0 Z " fill="#4CADE3" transform="translate(191,221)"/>
<path d="M0 0 C0.33 0 0.66 0 1 0 C1 2.31 1 4.62 1 7 C1.99 7.33 2.98 7.66 4 8 C3.67 9.65 3.34 11.3 3 13 C0.95204577 11.0373772 0.05023362 9.5722693 -0.19921875 6.73046875 C-0.18858877 4.48045617 -0.12958525 2.24614438 0 0 Z " fill="#53B2E6" transform="translate(370,246)"/>
<path d="M0 0 C0.103125 0.639375 0.20625 1.27875 0.3125 1.9375 C0.539375 2.618125 0.76625 3.29875 1 4 C1.99 4.33 2.98 4.66 4 5 C3.67 5.66 3.34 6.32 3 7 C2.64830932 8.32860925 2.31229724 9.66158328 2 11 C-0.32590854 7.36576791 -0.16265833 4.22911669 0 0 Z " fill="#49B0EF" transform="translate(316,247)"/>
<path d="M0 0 C1.27351308 2.54702616 0.80191925 3.4282945 0.0625 6.125 C-0.13214844 6.84945312 -0.32679688 7.57390625 -0.52734375 8.3203125 C-0.68332031 8.87460938 -0.83929688 9.42890625 -1 10 C-1.33 10 -1.66 10 -2 10 C-2.33 7.03 -2.66 4.06 -3 1 C-2.01 0.67 -1.02 0.34 0 0 Z " fill="#4EAEEA" transform="translate(169,242)"/>
<path d="M0 0 C1.485 0.99 1.485 0.99 3 2 C2.67 4.31 2.34 6.62 2 9 C1.34 8.67 0.68 8.34 0 8 C0 5.36 0 2.72 0 0 Z " fill="#4FAFE5" transform="translate(145,226)"/>
<path d="M0 0 C3.16717283 1.58358642 4.73268318 2.45263699 6.3125 5.6875 C6.539375 6.450625 6.76625 7.21375 7 8 C5.0625 7.1875 5.0625 7.1875 3 6 C2.67 5.01 2.34 4.02 2 3 C1.34 2.67 0.68 2.34 0 2 C0 1.34 0 0.68 0 0 Z " fill="#55AFE1" transform="translate(239,222)"/>
<path d="M0 0 C0.99 0 1.98 0 3 0 C3 1.65 3 3.3 3 5 C1.02 5.99 1.02 5.99 -1 7 C-0.67 4.69 -0.34 2.38 0 0 Z " fill="#42B1F0" transform="translate(242,253)"/>
<path d="M0 0 C5.75 -0.125 5.75 -0.125 8 1 C8 1.66 8 2.32 8 3 C5.36 2.67 2.72 2.34 0 2 C0 1.34 0 0.68 0 0 Z " fill="#54ADE1" transform="translate(103,209)"/>
</svg>
