<?xml version="1.0" encoding="UTF-8"?>
<svg version="1.1" xmlns="http://www.w3.org/2000/svg" width="500" height="500">
<path d="M0 0 C2.0625 2.125 2.0625 2.125 3.0625 4.125 C3.53300781 3.77566406 4.00351563 3.42632812 4.48828125 3.06640625 C5.11089844 2.61136719 5.73351562 2.15632812 6.375 1.6875 C6.98988281 1.23503906 7.60476562 0.78257812 8.23828125 0.31640625 C12.08895301 -2.19848644 15.57972889 -2.25489586 20.0625 -1.875 C23.5242684 0.05560161 26.40954787 2.17727542 29.0625 5.125 C30.114375 3.949375 30.114375 3.949375 31.1875 2.75 C34.77741263 -0.52774631 37.38360109 -1.79439596 42.26953125 -1.94140625 C46.61504499 -1.70359207 48.60136525 -1.24967199 52.0625 1.5625 C55.26626941 5.66732956 55.35300722 7.90105761 55.0625 13.125 C54.39926224 16.16095714 53.50125217 19.10162491 52.5625 22.0625 C52.20478516 23.23135742 52.20478516 23.23135742 51.83984375 24.42382812 C51.25607822 26.32690376 50.66050024 28.22634922 50.0625 30.125 C51.0525 30.125 52.0425 30.125 53.0625 30.125 C53.875 31.75 53.875 31.75 54.0625 34.125 C51.26665247 38.23654049 49.05362511 40.99065338 44.0625 42.125 C39.19484282 42.70297785 35.97897949 42.59960545 31.5625 40.3125 C29.0625 38.125 29.0625 38.125 28.0625 35.125 C27.4025 35.125 26.7425 35.125 26.0625 35.125 C25.85625 35.723125 25.65 36.32125 25.4375 36.9375 C23.44140963 40.11309831 21.57650008 40.84718179 18.0625 42.125 C12.35637175 42.88037297 7.96979004 42.35663003 3.0625 39.125 C0.56223953 35.3746093 0.55647761 32.46452538 1.0625 28.125 C1.84094563 25.19249934 2.90986791 22.42869967 4.0625 19.625 C4.49175781 18.53445312 4.49175781 18.53445312 4.9296875 17.421875 C5.62854574 15.65143412 6.34381632 13.88748618 7.0625 12.125 C5.11241297 12.26981866 5.11241297 12.26981866 3.0625 13.125 C1.76884326 15.18847314 1.76884326 15.18847314 0.9375 17.75 C0.61007813 18.65492188 0.28265625 19.55984375 -0.0546875 20.4921875 C-2.33215908 27.28429301 -4.108759 33.06840825 -1.9375 40.125 C-5.2456665 42.33044434 -6.30521832 42.38127135 -10.15625 42.390625 C-11.17074219 42.39320313 -12.18523437 42.39578125 -13.23046875 42.3984375 C-14.28878906 42.39070313 -15.34710938 42.38296875 -16.4375 42.375 C-17.49582031 42.38273437 -18.55414063 42.39046875 -19.64453125 42.3984375 C-21.16626953 42.39457031 -21.16626953 42.39457031 -22.71875 42.390625 C-23.64751953 42.38836914 -24.57628906 42.38611328 -25.53320312 42.38378906 C-27.9375 42.125 -27.9375 42.125 -30.9375 40.125 C-29.937256 37.9706283 -28.94632557 36.13610031 -27.46362305 34.27124023 C-25.86415137 32.02184726 -25.12241005 30.16840117 -24.33203125 27.53515625 C-24.07099609 26.66826172 -23.80996094 25.80136719 -23.54101562 24.90820312 C-23.27998047 24.01037109 -23.01894531 23.11253906 -22.75 22.1875 C-22.47736328 21.29353516 -22.20472656 20.39957031 -21.92382812 19.47851562 C-20.08033178 13.25498287 -19.47306028 8.5319238 -20.9375 2.125 C-14.22292509 -1.38489143 -6.95181183 -4.4373267 0 0 Z M28.515625 13.21875 C26.51270654 15.84623443 25.76477879 18.46968818 24.8125 21.625 C24.45671875 22.7696875 24.1009375 23.914375 23.734375 25.09375 C22.78481021 28.14864331 22.78481021 28.14864331 24.0625 31.125 C26.00327671 31.15439218 26.00327671 31.15439218 28.0625 30.125 C29.66338196 27.03934645 29.66338196 27.03934645 30.8125 23.3125 C31.45445312 21.44658203 31.45445312 21.44658203 32.109375 19.54296875 C33.24157263 16.07422945 33.24157263 16.07422945 33.0625 12.125 C30.15500607 11.83633468 30.15500607 11.83633468 28.515625 13.21875 Z " fill="#FB914E" transform="translate(202.9375,220.875)"/>
<path d="M0 0 C3.74052656 1.45817137 5.00993483 1.76550965 8.6875 0.4375 C9.368125 0.06625 10.04875 -0.305 10.75 -0.6875 C12.6875 -1.5625 12.6875 -1.5625 14.8125 -1.3125 C16.6875 -0.5625 16.6875 -0.5625 18.6875 1.4375 C18.45341202 7.05561163 16.77841938 15.34658062 12.6875 19.4375 C10.3984375 19.77734375 10.3984375 19.77734375 7.6875 19.4375 C5.4765625 17.50390625 5.4765625 17.50390625 3.3125 15 C-0.3586995 10.96706035 -0.3586995 10.96706035 -5.375 9.375 C-6.8290625 9.4059375 -6.8290625 9.4059375 -8.3125 9.4375 C-8.33600244 11.77442253 -8.33600244 11.77442253 -7.3125 14.4375 C-5.06098153 16.27541481 -2.93443538 17.8262587 -0.5 19.375 C5.4397016 23.18686581 9.52045752 26.64461194 11.6875 33.6875 C11.6875 38.94880357 10.51473636 42.9842365 7.6875 47.4375 C1.12486692 53.39915935 -4.85317495 54.72561298 -13.48828125 54.66796875 C-17.55459959 54.33613918 -20.58380583 53.07289218 -24.3125 51.4375 C-26.32841245 50.66483534 -26.32841245 50.66483534 -28.3125 50.4375 C-29.98333819 51.76560215 -31.64979713 53.09922696 -33.3125 54.4375 C-36 54.8125 -36 54.8125 -38.3125 54.4375 C-40.3125 52.4375 -40.3125 52.4375 -40.4296875 50.37109375 C-39.76006892 43.46970231 -38.37473811 36.49973811 -33.3125 31.4375 C-30.625 31.25 -30.625 31.25 -27.3125 32.4375 C-25.609375 34.4453125 -25.609375 34.4453125 -23.875 36.875 C-20.96932784 40.95252395 -20.96932784 40.95252395 -16.5625 43 C-13.36352215 43.50420601 -13.36352215 43.50420601 -10.3125 43.4375 C-11.18358447 39.82655099 -11.73045632 37.89305379 -14.703125 35.56640625 C-15.64671875 35.04949219 -16.5903125 34.53257812 -17.5625 34 C-23.37048515 30.56246548 -28.12510102 26.99969695 -30.3125 20.4375 C-30.90137001 14.43102591 -29.60352507 10.36328262 -26.3125 5.4375 C-19.10966868 -1.76533132 -9.44031451 -3.86518537 0 0 Z " fill="#FA914F" transform="translate(101.3125,208.5625)"/>
<path d="M0 0 C3.46789022 3.55045904 4.59376715 6.03270783 4.65234375 11.01171875 C4.14811456 19.45432544 1.60853379 25.08798531 -4.5 30.9375 C-11.87135209 37.04622245 -18.91323797 39.37625528 -28.48046875 39.0078125 C-35.78748226 38.19920912 -41.22590423 35.96218347 -46.375 30.6875 C-48.7888643 26.62781914 -49.03074599 22.30262371 -48.375 17.6875 C-46.06509913 9.77574374 -41.04167087 2.77324364 -34.0625 -1.6875 C-23.32464332 -7.11648347 -9.76700904 -7.33116901 0 0 Z M-19.375 3.6875 C-23.74128472 11.79877992 -28.12199423 20.22557311 -27.375 29.6875 C-25.44799498 29.77548191 -25.44799498 29.77548191 -23.375 28.6875 C-22.0915104 26.13554995 -21.1123752 23.80353468 -20.1875 21.125 C-19.92775391 20.43341797 -19.66800781 19.74183594 -19.40039062 19.02929688 C-17.67469125 14.24460586 -16.84760531 9.74950148 -16.375 4.6875 C-17.365 4.3575 -18.355 4.0275 -19.375 3.6875 Z " fill="#FB914E" transform="translate(168.375,224.3125)"/>
<path d="M0 0 C3.44001598 3.36001561 4.23053665 6.02343313 4.4375 10.6875 C4.22157518 16.36200432 2.71956366 21.61612808 1 27 C2.32 27.66 3.64 28.32 5 29 C4.13830729 32.79144791 3.35621711 34.67853578 0.4375 37.3125 C-3.74973235 39.36805042 -7.33068831 40.25148896 -12 40 C-15.3125 38.5625 -15.3125 38.5625 -18 37 C-21.93082954 36.67508923 -21.93082954 36.67508923 -24.6875 38.5 C-28.94502936 40.42793782 -32.39620048 40.74254831 -37 40 C-41.3498054 37.8250973 -44.26209405 35.60033928 -46 31 C-46.28776366 26.29114007 -45.67771293 22.34258505 -42.75 18.5625 C-38.09013032 14.22034871 -34.27247936 13.73814949 -28 13.8125 C-26.80375 13.81894531 -25.6075 13.82539063 -24.375 13.83203125 C-21 14 -21 14 -16 15 C-15.34 11.37 -14.68 7.74 -14 4 C-14.66 4 -15.32 4 -16 4 C-16.391875 5.11375 -16.78375 6.2275 -17.1875 7.375 C-18.32097729 9.96730453 -18.79525805 10.85960552 -21.1875 12.5 C-25.65358643 13.29397092 -29.98777742 13.19475716 -34 10.8125 C-35.56241239 7.98062754 -35.50877767 6.17986045 -35 3 C-32.43897616 -0.63500158 -30.03822116 -2.24108488 -25.8125 -3.3125 C-16.54460104 -4.89034065 -8.46439178 -4.47703367 0 0 Z M-23 22 C-23.66 22.66 -24.32 23.32 -25 24 C-25 25.32 -25 26.64 -25 28 C-23.04105639 27.88693303 -23.04105639 27.88693303 -21 27 C-19.70339566 24.50965614 -19.70339566 24.50965614 -19 22 C-20.32 22 -21.64 22 -23 22 Z " fill="#FB914E" transform="translate(308,223)"/>
<path d="M0 0 C3.22333025 2.63129 4.69005131 4.07015392 6 8 C6.51372642 15.06373832 4.89864493 21.21912523 3 28 C3.99 28.33 4.98 28.66 6 29 C6.3125 31.1875 6.3125 31.1875 6 34 C3.10847905 37.55244002 0.5045156 39.99899653 -4 41 C-12.85280857 40.98579003 -12.85280857 40.98579003 -15.8046875 38.44921875 C-16.19914062 37.97097656 -16.59359375 37.49273437 -17 37 C-19.36895052 37.92125854 -21.67041344 38.81825268 -23.8984375 40.046875 C-27.52510448 41.69168307 -31.10346668 41.55471481 -35 41 C-38.83019557 39.01397267 -42.04532347 36.90935305 -44 33 C-44.54192749 28.20007085 -44.51086458 26.00280824 -42.3125 21.6875 C-39.52262926 18.44521779 -36.76160875 16.88080438 -33 15 C-30.73089029 14.90221834 -28.45871058 14.87024354 -26.1875 14.875 C-24.35251953 14.87113281 -24.35251953 14.87113281 -22.48046875 14.8671875 C-19.50982844 14.98054527 -16.8810519 15.30854754 -14 16 C-13.80593522 14.35492782 -13.61992065 12.70890406 -13.4375 11.0625 C-13.33308594 10.14597656 -13.22867187 9.22945312 -13.12109375 8.28515625 C-13.08113281 7.53105469 -13.04117187 6.77695313 -13 6 C-13.33 5.67 -13.66 5.34 -14 5 C-14.268125 5.763125 -14.53625 6.52625 -14.8125 7.3125 C-15.99374609 9.98584641 -16.7718127 11.18159428 -19 13 C-23.18725783 14.23892647 -26.9185482 14.35312712 -31.0625 13 C-33 11 -33 11 -33.625 7.625 C-32.83448244 3.03999815 -31.74105216 1.72785053 -28 -1 C-18.77389806 -4.28386679 -8.98148411 -4.02892816 0 0 Z M-21 23 C-21.66 23.66 -22.32 24.32 -23 25 C-23 26.32 -23 27.64 -23 29 C-21.04105639 28.88693303 -21.04105639 28.88693303 -19 28 C-17.70339566 25.50965614 -17.70339566 25.50965614 -17 23 C-18.32 23 -19.64 23 -21 23 Z " fill="#FA924F" transform="translate(428,222)"/>
<path d="M0 0 C2.5 1.625 2.5 1.625 3.5 3.625 C3.90413152 13.15852881 -0.11744975 22.53842568 -3.0625 31.4375 C-3.84544426 33.81382142 -4.62524852 36.19098001 -5.39622498 38.57121277 C-5.87311332 40.04273665 -6.35686788 41.51205884 -6.848526 42.97871399 C-8.56323725 48.25773278 -9.07721283 52.30190669 -7.5 57.625 C-10.82611739 59.8424116 -11.88071543 59.87248716 -15.75390625 59.85546875 C-16.77291016 59.85353516 -17.79191406 59.85160156 -18.84179688 59.84960938 C-19.90462891 59.83736328 -20.96746094 59.82511719 -22.0625 59.8125 C-23.12919922 59.81185547 -24.19589844 59.81121094 -25.29492188 59.81054688 C-33.21924047 59.76537976 -33.21924047 59.76537976 -35.5 58.625 C-34.87419072 53.99401134 -34.87419072 53.99401134 -33.04043579 52.18563843 C-30.42861108 49.53955994 -29.83310877 45.9095226 -28.8359375 42.4140625 C-28.47962753 41.20633682 -28.47962753 41.20633682 -28.11611938 39.97421265 C-27.35998234 37.40203897 -26.61762565 34.82610297 -25.875 32.25 C-25.36802886 30.52319026 -24.86022557 28.79662461 -24.3515625 27.0703125 C-23.86645173 25.41427786 -23.38205313 23.75803439 -22.8984375 22.1015625 C-22.67239838 21.32745026 -22.44635925 20.55333801 -22.21347046 19.75576782 C-21.62601502 17.7162442 -21.05722094 15.67296084 -20.5 13.625 C-20.24428223 12.6870459 -19.98856445 11.7490918 -19.72509766 10.78271484 C-19.23708515 8.32816335 -19.23708515 8.32816335 -21.5 5.625 C-21.34375 3.546875 -21.34375 3.546875 -20.5 1.625 C-13.67377268 -1.78811366 -7.20675739 -2.83122612 0 0 Z " fill="#FC914D" transform="translate(350.5,203.375)"/>
<path d="M0 0 C2.0625 1.6875 2.0625 1.6875 4.0625 4.6875 C3.60841902 11.03497246 1.10007215 17.23415974 -0.85351562 23.25585938 C-2.40993 28.24166136 -3.24829069 32.40405834 -2.9375 37.6875 C-2.9375 39.0075 -2.9375 40.3275 -2.9375 41.6875 C-6.9261832 43.6818416 -11.98984082 42.87235036 -16.375 42.875 C-17.96924805 42.89336914 -17.96924805 42.89336914 -19.59570312 42.91210938 C-20.61470703 42.91404297 -21.63371094 42.91597656 -22.68359375 42.91796875 C-23.61872803 42.92207764 -24.5538623 42.92618652 -25.51733398 42.93041992 C-27.9375 42.6875 -27.9375 42.6875 -30.9375 40.6875 C-29.937256 38.5331283 -28.94632557 36.69860031 -27.46362305 34.83374023 C-25.86415137 32.58434726 -25.12241005 30.73090117 -24.33203125 28.09765625 C-24.07099609 27.23076172 -23.80996094 26.36386719 -23.54101562 25.47070312 C-23.27998047 24.57287109 -23.01894531 23.67503906 -22.75 22.75 C-22.47736328 21.85603516 -22.20472656 20.96207031 -21.92382812 20.04101562 C-20.08033178 13.81748287 -19.47306028 9.0944238 -20.9375 2.6875 C-13.98945321 -0.99184393 -7.53196444 -3.36534581 0 0 Z " fill="#FB924E" transform="translate(378.9375,220.3125)"/>
<path d="M0 0 C4.14862517 0.74082592 5.88999552 1.28093176 8.5 4.625 C8.94707034 7.87371114 8.61679672 10.54534844 7.5 13.625 C4.39211047 16.66061303 2.72712116 17.625 -1.625 17.625 C-4.9742017 16.46006028 -6.45920932 15.52920212 -8.5 12.625 C-9.31674743 8.45051314 -8.66949766 6.90235981 -6.4375 3.25 C-3.5 0.625 -3.5 0.625 0 0 Z " fill="#F89451" transform="translate(377.5,201.375)"/>
<path d="M0 0 C2.82421875 0.01171875 2.82421875 0.01171875 6 1 C8.51953125 3.58203125 8.51953125 3.58203125 10.8125 6.8125 C11.58207031 7.87082031 12.35164063 8.92914063 13.14453125 10.01953125 C14.69171288 12.50479353 15.57928683 14.15156491 16 17 C15.01 17.33 14.02 17.66 13 18 C12.34 18.99 11.68 19.98 11 21 C10.01 20.34 9.02 19.68 8 19 C5.71602968 19.34605611 4.06590963 19.96704519 2 21 C2 19.68 2 18.36 2 17 C4.97 16.67 7.94 16.34 11 16 C11.33 14.68 11.66 13.36 12 12 C11.34 12 10.68 12 10 12 C9.34 10.35 8.68 8.7 8 7 C6.02 7.99 6.02 7.99 4 9 C3.01 7.35 2.02 5.7 1 4 C-0.98 4.99 -0.98 4.99 -3 6 C-2.67 7.98 -2.34 9.96 -2 12 C-2.99 12.33 -3.98 12.66 -5 13 C-4.47731534 15.76276177 -3.89130413 18.3260876 -3 21 C-0.98491642 21.73323796 -0.98491642 21.73323796 1 22 C0 23 0 23 -2.4375 23.1875 C-5 23 -5 23 -7 21 C-7.38707303 14.17461225 -5.35493417 7.87429984 -2 2 C-1.34 1.34 -0.68 0.68 0 0 Z " fill="#F0945B" transform="translate(68,240)"/>
<path d="M0 0 C3.93673644 1.31224548 6.22719294 2.91910327 9 6 C10.65 4.35 12.3 2.7 14 1 C14.99 1.33 15.98 1.66 17 2 C16.34 2 15.68 2 15 2 C14.67 3.65 14.34 5.3 14 7 C12.68 7.33 11.36 7.66 10 8 C10 8.66 10 9.32 10 10 C11.32 10.66 12.64 11.32 14 12 C13.67 13.32 13.34 14.64 13 16 C13 15.01 13 14.02 13 13 C9.48790884 14.61334867 8.20383744 15.53099868 6.63671875 19.13671875 C6.32347656 20.30847656 6.01023438 21.48023438 5.6875 22.6875 C5.36136719 23.86699219 5.03523437 25.04648438 4.69921875 26.26171875 C4.46847656 27.16535156 4.23773438 28.06898438 4 29 C3.05685873 25.58389775 2.91934883 22.54865136 3 19 C3.99 18.67 4.98 18.34 6 18 C4.68 17.34 3.36 16.68 2 16 C2.3125 14.0625 2.3125 14.0625 3 12 C3.99 11.67 4.98 11.34 6 11 C6.73323796 8.98491642 6.73323796 8.98491642 7 7 C5.68 7.33 4.36 7.66 3 8 C2.01 5.36 1.02 2.72 0 0 Z " fill="#F29459" transform="translate(223,220)"/>
<path d="M0 0 C1 3 1 3 -0.4375 6.1875 C-1.2109375 7.5796875 -1.2109375 7.5796875 -2 9 C-1.34 9 -0.68 9 0 9 C0 11 0 11 -1.5 12.625 C-1.995 13.07875 -2.49 13.5325 -3 14 C-3.66 13.67 -4.32 13.34 -5 13 C-4.34 11.68 -3.68 10.36 -3 9 C-5.50965614 9.70339566 -5.50965614 9.70339566 -8 11 C-8.88693303 13.04105639 -8.88693303 13.04105639 -9 15 C-8.01 15.33 -7.02 15.66 -6 16 C-7.32 16 -8.64 16 -10 16 C-9.98839844 15.31292969 -9.97679687 14.62585938 -9.96484375 13.91796875 C-9.95582031 13.01691406 -9.94679688 12.11585938 -9.9375 11.1875 C-9.92589844 10.29417969 -9.91429687 9.40085938 -9.90234375 8.48046875 C-9.88990033 5.86586209 -9.88990033 5.86586209 -11 3 C-11.556875 3.185625 -12.11375 3.37125 -12.6875 3.5625 C-15.399133 4.07551165 -17.34371039 3.6640724 -20 3 C-20 3.66 -20 4.32 -20 5 C-20.99 4.67 -21.98 4.34 -23 4 C-19.4822999 0.66651861 -16.80575251 0.64875662 -12.0625 0.75 C-10.85722656 0.76546875 -9.65195312 0.7809375 -8.41015625 0.796875 C-5.49398483 0.97057593 -2.83702651 1.33246435 0 2 C0 1.34 0 0.68 0 0 Z " fill="#F39358" transform="translate(292,236)"/>
<path d="M0 0 C3.46108978 3.38059932 4.23162326 6.05895142 4.4375 10.75 C4.23341354 16.12155564 2.80012844 20.96392639 1 26 C-0.90191102 19.55066264 1.05382614 13.22775634 3 7 C2.34 7 1.68 7 1 7 C0.505 5.02 0.505 5.02 0 3 C-0.9590625 2.814375 -0.9590625 2.814375 -1.9375 2.625 C-2.9584375 2.315625 -2.9584375 2.315625 -4 2 C-4.33 1.34 -4.66 0.68 -5 0 C-7.94131891 -0.98043964 -9.82501665 -1.11621202 -12.88671875 -1.09765625 C-13.82451172 -1.09443359 -14.76230469 -1.09121094 -15.72851562 -1.08789062 C-17.19321289 -1.07532227 -17.19321289 -1.07532227 -18.6875 -1.0625 C-19.67556641 -1.05798828 -20.66363281 -1.05347656 -21.68164062 -1.04882812 C-24.12115474 -1.03704303 -26.56054689 -1.02059011 -29 -1 C-29.33 -0.01 -29.66 0.98 -30 2 C-30.99 2 -31.98 2 -33 2 C-33.33 3.98 -33.66 5.96 -34 8 C-33.34 8 -32.68 8 -32 8 C-31.34 9.32 -30.68 10.64 -30 12 C-33.875 10.125 -33.875 10.125 -35 9 C-35.52839173 5.12512729 -35.34122011 3.48431242 -33.0625 0.25 C-23.62962864 -6.68027284 -9.89938989 -5.23604093 0 0 Z " fill="#EA9966" transform="translate(308,223)"/>
<path d="M0 0 C1.11859272 3.35577815 0.6924604 5.61463931 0.19140625 9.05859375 C-0.02424597 11.24592346 0.22807691 12.94153842 1 15 C-2.32611739 17.2174116 -3.38071543 17.24748716 -7.25390625 17.23046875 C-8.27291016 17.22853516 -9.29191406 17.22660156 -10.34179688 17.22460938 C-11.40462891 17.21236328 -12.46746094 17.20011719 -13.5625 17.1875 C-14.62919922 17.18685547 -15.69589844 17.18621094 -16.79492188 17.18554688 C-24.71924047 17.14037976 -24.71924047 17.14037976 -27 16 C-26.49166802 12.23834336 -25.8405007 10.49964062 -23 8 C-22.34 7.01 -21.68 6.02 -21 5 C-21 6.98 -21 8.96 -21 11 C-21.639375 11.28875 -22.27875 11.5775 -22.9375 11.875 C-25.15206079 12.82823451 -25.15206079 12.82823451 -26 15 C-18.74 15 -11.48 15 -4 15 C-4 14.34 -4 13.68 -4 13 C-3.34 13 -2.68 13 -2 13 C-2.04125 11.783125 -2.0825 10.56625 -2.125 9.3125 C-2.13754508 5.78105873 -1.59998217 3.19996434 0 0 Z " fill="#E19764" transform="translate(342,246)"/>
<path d="M0 0 C0.33 0.99 0.66 1.98 1 3 C-0.485 5.475 -0.485 5.475 -2 8 C5.26 8 12.52 8 20 8 C20 7.34 20 6.68 20 6 C20.99 5.67 21.98 5.34 23 5 C23 6.32 23 7.64 23 9 C19.0113168 10.9943416 13.94765918 10.18485036 9.5625 10.1875 C7.96825195 10.20586914 7.96825195 10.20586914 6.34179688 10.22460938 C5.32279297 10.22654297 4.30378906 10.22847656 3.25390625 10.23046875 C2.31877197 10.23457764 1.3836377 10.23868652 0.42016602 10.24291992 C-2 10 -2 10 -5 8 C-3.62845496 5.04590299 -2.01136276 2.55991624 0 0 Z " fill="#E69469" transform="translate(177,253)"/>
<path d="M0 0 C0.33 0.99 0.66 1.98 1 3 C-0.90534626 6.81069252 -2.53328054 8.71630778 -6.1875 10.9375 C-10.7745567 12.21586006 -14.4197107 12.34402311 -19 11 C-21.5625 8.9375 -21.5625 8.9375 -23 7 C-20.525 7.495 -20.525 7.495 -18 8 C-18 8.66 -18 9.32 -18 10 C-16.41632253 9.85795259 -14.83306682 9.71119847 -13.25 9.5625 C-12.36828125 9.48128906 -11.4865625 9.40007812 -10.578125 9.31640625 C-8.30649548 9.03761535 -6.20148177 8.61209423 -4 8 C-4.49831724 4.31245243 -5.10067643 2.39509338 -8 0 C-4.71023192 -1.09658936 -3.28696233 -0.79953138 0 0 Z " fill="#E79A69" transform="translate(312,251)"/>
<path d="M0 0 C0.598125 0.33 1.19625 0.66 1.8125 1 C4.05386471 2.20787988 4.05386471 2.20787988 7 2 C7.33 1.34 7.66 0.68 8 0 C9.65 0.33 11.3 0.66 13 1 C12.01 2.485 12.01 2.485 11 4 C14.3 3.67 17.6 3.34 21 3 C21 2.34 21 1.68 21 1 C21.99 1 22.98 1 24 1 C24 1.66 24 2.32 24 3 C18.67445205 6.62590499 14.4715196 8.18840633 8 7 C4.1973971 4.9949912 2.38209159 3.57313738 0 0 Z " fill="#ED985D" transform="translate(385,256)"/>
<path d="M0 0 C1.65 0 3.3 0 5 0 C1.14257496 4.18571654 -3.31318917 5.72620814 -8.875 6.29296875 C-15.46484142 6.46948236 -20.93229218 5.57417908 -27 3 C-26.01 2.67 -25.02 2.34 -24 2 C-23.34 2.33 -22.68 2.66 -22 3 C-19.03196071 3.09874103 -16.09258454 3.13893232 -13.125 3.125 C-12.30902344 3.12886719 -11.49304688 3.13273437 -10.65234375 3.13671875 C-9.86214844 3.13542969 -9.07195312 3.13414062 -8.2578125 3.1328125 C-7.17717529 3.13112061 -7.17717529 3.13112061 -6.07470703 3.12939453 C-3.94144256 2.99634791 -2.05248762 2.58204873 0 2 C0 1.34 0 0.68 0 0 Z " fill="#E89965" transform="translate(155,257)"/>
<path d="M0 0 C0.33 0 0.66 0 1 0 C1.5745952 3.73486879 2 7.21293268 2 11 C-1.99557425 12.99778712 -7.04451995 12.22876505 -11.4375 12.25 C-13.03174805 12.2809375 -13.03174805 12.2809375 -14.65820312 12.3125 C-15.67720703 12.31765625 -16.69621094 12.3228125 -17.74609375 12.328125 C-18.68122803 12.3374707 -19.6163623 12.34681641 -20.57983398 12.35644531 C-23.39913924 11.94121423 -24.26017415 11.19698784 -26 9 C-25.27981689 9.16298584 -24.55963379 9.32597168 -23.81762695 9.49389648 C-21.10597883 9.98096403 -18.66780647 10.11452642 -15.91796875 10.09765625 C-14.98662109 10.09443359 -14.05527344 10.09121094 -13.09570312 10.08789062 C-12.13599609 10.07951172 -11.17628906 10.07113281 -10.1875 10.0625 C-9.20845703 10.05798828 -8.22941406 10.05347656 -7.22070312 10.04882812 C-4.81373889 10.03708684 -2.40690143 10.02066419 0 10 C-0.185625 8.906875 -0.37125 7.81375 -0.5625 6.6875 C-1 3 -1 3 0 0 Z " fill="#DE9764" transform="translate(374,251)"/>
<path d="M0 0 C0.99 0.33 1.98 0.66 3 1 C-0.2867909 4.971539 -4.04053756 6.87508882 -9 8 C-18.70705244 8.86196504 -18.70705244 8.86196504 -23 6 C-17.39 6 -11.78 6 -6 6 C-6 5.34 -6 4.68 -6 4 C-5.01 4 -4.02 4 -3 4 C-3 3.34 -3 2.68 -3 2 C-2.01 2 -1.02 2 0 2 C0 1.34 0 0.68 0 0 Z " fill="#EB9C5B" transform="translate(105,255)"/>
<path d="M0 0 C-4.4908651 1.49695503 -9.06564239 1.00355173 -13.75195312 0.87304688 C-17.75971661 0.81375011 -20.49278493 0.84879648 -24 3 C-26.75 3.125 -26.75 3.125 -29 3 C-21.39292768 -3.35373317 -8.9226579 -3.6605776 0 0 Z " fill="#E59566" transform="translate(163,221)"/>
<path d="M0 0 C1.32 0.66 2.64 1.32 4 2 C4.33 1.34 4.66 0.68 5 0 C5.66 0 6.32 0 7 0 C5.64002446 6.04433574 2.14348206 9.63494136 -2 14 C-2.33 13.34 -2.66 12.68 -3 12 C-2.0625 9.875 -2.0625 9.875 -1 8 C-0.34 8.33 0.32 8.66 1 9 C1 8.34 1 7.68 1 7 C1.66 7 2.32 7 3 7 C2.505 6.5875 2.01 6.175 1.5 5.75 C0 4 0 4 0 0 Z " fill="#F79256" transform="translate(164,243)"/>
<path d="M0 0 C0.33 0.99 0.66 1.98 1 3 C-1.56211075 3.19569589 -4.12432391 3.38180612 -6.6875 3.5625 C-7.40873047 3.61857422 -8.12996094 3.67464844 -8.87304688 3.73242188 C-12.77314064 3.99955159 -16.21111028 4.00887596 -20 3 C-20 3.66 -20 4.32 -20 5 C-20.99 4.67 -21.98 4.34 -23 4 C-19.4822999 0.66651861 -16.80575251 0.64875662 -12.0625 0.75 C-10.85722656 0.76546875 -9.65195312 0.7809375 -8.41015625 0.796875 C-5.49398483 0.97057593 -2.83702651 1.33246435 0 2 C0 1.34 0 0.68 0 0 Z " fill="#EB9762" transform="translate(292,236)"/>
<path d="M0 0 C0.82638376 2.89234315 1 4.88742431 1 8 C0.1028125 8.3403125 0.1028125 8.3403125 -0.8125 8.6875 C-3.56351888 10.33811133 -4.52484637 12.1972081 -6 15 C-7 13 -7 13 -6.328125 10.9765625 C-2.74068869 3.15179199 -2.74068869 3.15179199 0 0 Z " fill="#EF955C" transform="translate(127,229)"/>
<path d="M0 0 C-3 2 -3 2 -6.625 3.125 C-10.09525747 4.56002983 -10.09525747 4.56002983 -10.67578125 6.97265625 C-11.00598298 9.44695223 -11.00598298 9.44695223 -11 13 C-10.01 13 -9.02 13 -8 13 C-8 13.66 -8 14.32 -8 15 C-10.475 14.01 -10.475 14.01 -13 13 C-13.43494462 8.56356484 -13.54001196 6.67136622 -10.6875 3.125 C-7.02819798 0.23159841 -4.53660731 -0.12261101 0 0 Z " fill="#E59A5F" transform="translate(408,220)"/>
<path d="M0 0 C-1.09068668 3.77545388 -1.9083091 6.47043472 -5 9 C-6.5625 7.75 -6.5625 7.75 -8 6 C-8 3.9375 -8 3.9375 -7 2 C-4.55683729 0.74709605 -2.75474605 0 0 0 Z " fill="#FB904A" transform="translate(379,203)"/>
<path d="M0 0 C4.07676171 -0.53844023 6.3189296 -0.37676235 9.9375 1.625 C12 4 12 4 12.3125 7.25 C12.1578125 8.61125 12.1578125 8.61125 12 10 C11.67 8.68 11.34 7.36 11 6 C9.35 5.67 7.7 5.34 6 5 C5.67 4.01 5.34 3.02 5 2 C2.69 2.33 0.38 2.66 -2 3 C-1.34 2.01 -0.68 1.02 0 0 Z " fill="#F09A58" transform="translate(374,202)"/>
<path d="M0 0 C0.33 0.99 0.66 1.98 1 3 C-0.485 5.475 -0.485 5.475 -2 8 C4.27 8 10.54 8 17 8 C17 8.33 17 8.66 17 9 C10.07 9 3.14 9 -4 9 C-4 4.31908701 -3.00354129 3.37898396 0 0 Z " fill="#F49255" transform="translate(177,253)"/>
<path d="M0 0 C1.11912394 3.35737181 0.69414027 5.61734615 0.1875 9.0625 C-0.02358641 11.24372619 0.33535147 12.92297334 1 15 C0 16 0 16 -2.06640625 16.09765625 C-2.89011719 16.08605469 -3.71382813 16.07445312 -4.5625 16.0625 C-5.38878906 16.05347656 -6.21507812 16.04445313 -7.06640625 16.03515625 C-8.02353516 16.01775391 -8.02353516 16.01775391 -9 16 C-9 15.67 -9 15.34 -9 15 C-7.35 15 -5.7 15 -4 15 C-4 14.34 -4 13.68 -4 13 C-3.34 13 -2.68 13 -2 13 C-2.04125 11.783125 -2.0825 10.56625 -2.125 9.3125 C-2.13754508 5.78105873 -1.59998217 3.19996434 0 0 Z " fill="#EC965E" transform="translate(342,246)"/>
<path d="M0 0 C0.33 0 0.66 0 1 0 C1.66268329 7.12384541 -0.74611936 13.30879185 -3 20 C-4.32 19.34 -5.64 18.68 -7 18 C-6.1875 16.0625 -6.1875 16.0625 -5 14 C-4.01 13.67 -3.02 13.34 -2 13 C-1.855625 11.96875 -1.71125 10.9375 -1.5625 9.875 C-1.08339543 6.57450187 -0.56124917 3.28731659 0 0 Z " fill="#ED955E" transform="translate(257,227)"/>
<path d="M0 0 C0.66 0.99 1.32 1.98 2 3 C1.525625 3.845625 1.05125 4.69125 0.5625 5.5625 C-1.05721513 9.12587329 -1.61256143 12.12561425 -2 16 C-2.99 16.33 -3.98 16.66 -5 17 C-5.66 16.67 -6.32 16.34 -7 16 C-6.36509049 14.73018099 -5.72270473 13.46405116 -5.0703125 12.203125 C-3.88274741 9.75864796 -2.8727582 7.27765412 -1.875 4.75 C-1.52179688 3.85796875 -1.16859375 2.9659375 -0.8046875 2.046875 C-0.53914062 1.37140625 -0.27359375 0.6959375 0 0 Z " fill="#EA9361" transform="translate(235,237)"/>
<path d="M0 0 C-2.64738916 1.4606285 -3.89448334 2 -7 2 C-7.33 2.99 -7.66 3.98 -8 5 C-8.99 5 -9.98 5 -11 5 C-11.33 6.98 -11.66 8.96 -12 11 C-11.34 11 -10.68 11 -10 11 C-9.34 12.32 -8.68 13.64 -8 15 C-11.875 13.125 -11.875 13.125 -13 12 C-13.375 9.25 -13.375 9.25 -13 6 C-9.02377523 1.16405096 -6.15963494 -0.16647662 0 0 Z " fill="#E29360" transform="translate(286,220)"/>
<path d="M0 0 C1 3 1 3 0.0625 5.1875 C-0.4634375 6.0846875 -0.4634375 6.0846875 -1 7 C-1.66 7 -2.32 7 -3 7 C-3 6.01 -3 5.02 -3 4 C-3.66 3.67 -4.32 3.34 -5 3 C-6.0194119 2.01979625 -7.02246356 1.02196992 -8 0 C-4.71023192 -1.09658936 -3.28696233 -0.79953138 0 0 Z " fill="#F39E66" transform="translate(312,251)"/>
<path d="M0 0 C0.76183594 -0.01417969 1.52367187 -0.02835938 2.30859375 -0.04296875 C4.79597315 0.21137334 6.41058106 0.94732804 8.5625 2.1875 C8.5625 2.5175 8.5625 2.8475 8.5625 3.1875 C7.93601562 3.09210938 7.30953125 2.99671875 6.6640625 2.8984375 C5.84679687 2.78757813 5.02953125 2.67671875 4.1875 2.5625 C2.96933594 2.38847656 2.96933594 2.38847656 1.7265625 2.2109375 C1.01242187 2.20320312 0.29828125 2.19546875 -0.4375 2.1875 C-1.0975 2.8475 -1.7575 3.5075 -2.4375 4.1875 C-2.4375 3.5275 -2.4375 2.8675 -2.4375 2.1875 C-5.0775 2.5175 -7.7175 2.8475 -10.4375 3.1875 C-6.81024566 0.76933044 -4.27031844 0.03600606 0 0 Z " fill="#EF9967" transform="translate(371.4375,218.8125)"/>
<path d="M0 0 C5.47040997 -0.28295224 9.39308327 -0.37091468 14 3 C14.875 6.1875 14.875 6.1875 15 9 C13 7 13 7 12 4 C10.02 4 8.04 4 6 4 C6 3.01 6 2.02 6 1 C4.02 1 2.04 1 0 1 C0 0.67 0 0.34 0 0 Z " fill="#E7995D" transform="translate(339,202)"/>
<path d="M0 0 C0.33 0 0.66 0 1 0 C1.40214229 6.16618181 -0.03181664 11.17745757 -2 17 C-2.66 16.67 -3.32 16.34 -4 16 C-4 14.68 -4 13.36 -4 12 C-3.34 12 -2.68 12 -2 12 C-2 9.69 -2 7.38 -2 5 C-1.34 5 -0.68 5 0 5 C0 3.35 0 1.7 0 0 Z " fill="#ED9B66" transform="translate(433,231)"/>
<path d="M0 0 C0.66 0.33 1.32 0.66 2 1 C-0.23407889 4.35111834 -1.26215824 5.81553956 -5.25 6.8125 C-6.61125 6.9053125 -6.61125 6.9053125 -8 7 C-8.33 6.01 -8.66 5.02 -9 4 C-8.34 3.01 -7.68 2.02 -7 1 C-6.34 1.99 -5.68 2.98 -5 4 C-3.35 2.68 -1.7 1.36 0 0 Z " fill="#ED9361" transform="translate(211,221)"/>
<path d="M0 0 C0.99 0.33 1.98 0.66 3 1 C1.35 5.95 -0.3 10.9 -2 16 C-2.66 15.01 -3.32 14.02 -4 13 C-3.69320313 12.43796875 -3.38640625 11.8759375 -3.0703125 11.296875 C-1.97042415 8.93653066 -1.39904149 6.79534438 -0.875 4.25 C-0.70742188 3.45078125 -0.53984375 2.6515625 -0.3671875 1.828125 C-0.24601562 1.22484375 -0.12484375 0.6215625 0 0 Z " fill="#EF9963" transform="translate(350,216)"/>
<path d="M0 0 C1.3805087 3.76668598 0.59568159 6.44789173 -0.4375 10.25 C-0.72496094 11.32765625 -1.01242188 12.4053125 -1.30859375 13.515625 C-1.53675781 14.33546875 -1.76492187 15.1553125 -2 16 C-2.33 16 -2.66 16 -3 16 C-3.33266291 9.79029227 -2.45029331 5.71735105 0 0 Z " fill="#E89462" transform="translate(207,241)"/>
<path d="M0 0 C1.13732426 3.40401948 0.83989957 5.77456664 0.0625 9.25 C-0.13214844 10.14203125 -0.32679688 11.0340625 -0.52734375 11.953125 C-0.68332031 12.62859375 -0.83929688 13.3040625 -1 14 C-1.66 14 -2.32 14 -3 14 C-3.33 14.66 -3.66 15.32 -4 16 C-3.39891424 10.34979382 -1.92471317 5.33835539 0 0 Z " fill="#E89E58" transform="translate(360,230)"/>
<path d="M0 0 C0.33 0 0.66 0 1 0 C1.5745952 3.73486879 2 7.21293268 2 11 C1.01 11.33 0.02 11.66 -1 12 C-1.66 11.34 -2.32 10.68 -3 10 C-2.01 10 -1.02 10 0 10 C-0.185625 8.906875 -0.37125 7.81375 -0.5625 6.6875 C-1 3 -1 3 0 0 Z " fill="#EE9D6D" transform="translate(374,251)"/>
<path d="M0 0 C0.66 0 1.32 0 2 0 C1.34 3.96 0.68 7.92 0 12 C-0.99 12 -1.98 12 -3 12 C-2 8 -1 4 0 0 Z " fill="#E99662" transform="translate(141,242)"/>
<path d="M0 0 C-3.465 1.485 -3.465 1.485 -7 3 C-7 4.65 -7 6.3 -7 8 C-7.99 7.34 -8.98 6.68 -10 6 C-9.8125 3.625 -9.8125 3.625 -9 1 C-5.71803757 -0.95143712 -3.5838203 -1.32734085 0 0 Z " fill="#E39562" transform="translate(192,221)"/>
<path d="M0 0 C-1.17255709 3.33727786 -2.18868404 5.77437487 -5 8 C-5.66 8 -6.32 8 -7 8 C-4.18918919 0 -4.18918919 0 0 0 Z " fill="#E99760" transform="translate(392,239)"/>
<path d="M0 0 C0.68707555 2.49064888 1 4.37886292 1 7 C-0.32 7.33 -1.64 7.66 -3 8 C-3 5.69 -3 3.38 -3 1 C-2.01 0.67 -1.02 0.34 0 0 Z " fill="#F19154" transform="translate(387,246)"/>
<path d="M0 0 C1.32 0 2.64 0 4 0 C5.4783226 2.95664519 5.06032783 5.74229737 5 9 C4.67 9 4.34 9 4 9 C4 7.02 4 5.04 4 3 C2.68 2.67 1.36 2.34 0 2 C0 1.34 0 0.68 0 0 Z M-1 3 C-0.01 3.495 -0.01 3.495 1 4 C0.67 4.99 0.34 5.98 0 7 C-0.33 5.68 -0.66 4.36 -1 3 Z " fill="#F38E54" transform="translate(194,248)"/>
<path d="M0 0 C0.66 0.33 1.32 0.66 2 1 C2 1.66 2 2.32 2 3 C1.34 3 0.68 3 0 3 C0 3.99 0 4.98 0 6 C-1.98 6 -3.96 6 -6 6 C-5.34 5.67 -4.68 5.34 -4 5 C-4 4.34 -4 3.68 -4 3 C-2 1.375 -2 1.375 0 0 Z " fill="#F19456" transform="translate(98,211)"/>
<path d="M0 0 C0.33 0 0.66 0 1 0 C1.12156361 4.25472632 0.92751122 8.14497757 -1 12 C-1.66 12 -2.32 12 -3 12 C-2.69230293 10.18667846 -2.37870936 8.37435655 -2.0625 6.5625 C-1.80146484 5.04849609 -1.80146484 5.04849609 -1.53515625 3.50390625 C-1 1 -1 1 0 0 Z " fill="#ED9C6A" transform="translate(332,212)"/>
<path d="M0 0 C1.40907283 2.81814566 0.50872691 4.17277204 -0.4375 7.125 C-0.72496094 8.03507813 -1.01242188 8.94515625 -1.30859375 9.8828125 C-1.53675781 10.58148438 -1.76492187 11.28015625 -2 12 C-2.92389881 8.55773184 -3.31142059 5.58133677 -3 2 C-2.01 1.34 -1.02 0.68 0 0 Z " fill="#E89464" transform="translate(229,237)"/>
<path d="M0 0 C1.32 0.33 2.64 0.66 4 1 C4 1.66 4 2.32 4 3 C4.99 3 5.98 3 7 3 C7.33 4.65 7.66 6.3 8 8 C6.85073734 7.04578192 5.70569459 6.08647955 4.5625 5.125 C3.92441406 4.59132812 3.28632812 4.05765625 2.62890625 3.5078125 C1 2 1 2 0 0 Z " fill="#EC9460" transform="translate(100,218)"/>
<path d="M0 0 C1.32 0 2.64 0 4 0 C4 0.66 4 1.32 4 2 C5.65 2.33 7.3 2.66 9 3 C9.33 3.99 9.66 4.98 10 6 C6.00499382 4.6302836 3.19990508 2.74277578 0 0 Z " fill="#E99763" transform="translate(79,239)"/>
<path d="M0 0 C0 0.66 0 1.32 0 2 C-1.670625 2.433125 -1.670625 2.433125 -3.375 2.875 C-7.00291092 3.69241329 -7.00291092 3.69241329 -9 6 C-8.75 4.125 -8.75 4.125 -8 2 C-5.06004981 -0.02755186 -3.72295997 0 0 0 Z " fill="#E19768" transform="translate(338,203)"/>
<path d="M0 0 C0.66 0.33 1.32 0.66 2 1 C2 2.65 2 4.3 2 6 C1.01 6.495 1.01 6.495 0 7 C-0.66 5.02 -1.32 3.04 -2 1 C-1.34 0.67 -0.68 0.34 0 0 Z " fill="#EC9B62" transform="translate(432,250)"/>
<path d="M0 0 C0.99 0.33 1.98 0.66 3 1 C-0.465 3.97 -0.465 3.97 -4 7 C-3.67 5.02 -3.34 3.04 -3 1 C-2.01 1.33 -1.02 1.66 0 2 C0 1.34 0 0.68 0 0 Z " fill="#EE9960" transform="translate(165,250)"/>
<path d="M0 0 C0.33 0.99 0.66 1.98 1 3 C-0.9375 6.1875 -0.9375 6.1875 -3 9 C-3.66 8.67 -4.32 8.34 -5 8 C-3.62845496 5.04590299 -2.01136276 2.55991624 0 0 Z " fill="#E39662" transform="translate(177,253)"/>
<path d="M0 0 C0 0.66 0 1.32 0 2 C-2.91482778 2.80967438 -4.46113217 3.21845993 -7.3125 2.0625 C-7.869375 1.711875 -8.42625 1.36125 -9 1 C-5.8035914 -0.06546953 -3.34252724 -0.07427838 0 0 Z " fill="#ED9563" transform="translate(222,219)"/>
</svg>
