<?xml version="1.0" encoding="UTF-8"?>
<svg version="1.1" xmlns="http://www.w3.org/2000/svg" width="500" height="500">
<path d="M0 0 C2.27157993 1.87819937 3.68496008 3.36992017 5 6 C5.763125 5.195625 6.52625 4.39125 7.3125 3.5625 C11.63403566 -0.558034 15.61716899 -0.33438755 21.328125 -0.2890625 C24.92702893 0.1002926 26.66163377 1.27190607 29 4 C31.33298859 10.99896578 29.6733002 17.22165288 27.5 24 C27.26152344 24.77472656 27.02304687 25.54945313 26.77734375 26.34765625 C26.19486803 28.23487758 25.59884697 30.11790951 25 32 C25.99 31.67 26.98 31.34 28 31 C28.8125 32.625 28.8125 32.625 29 35 C25 40.66666667 25 40.66666667 21 42 C10.54449547 42.90852675 10.54449547 42.90852675 5.8125 40.125 C2.61326044 36.37416742 2.68578999 33.90462194 3 29 C3.79379494 26.09922694 4.86900886 23.34667414 6 20.5625 C6.28617187 19.83095703 6.57234375 19.09941406 6.8671875 18.34570312 C7.56760423 16.55964046 8.28233811 14.77920344 9 13 C6.52999969 13.62712235 6.52999969 13.62712235 4 15 C2.60373004 17.36234714 2.60373004 17.36234714 1.8125 20.1875 C1.49539063 21.1775 1.17828125 22.1675 0.8515625 23.1875 C0.57054687 24.115625 0.28953125 25.04375 0 26 C-0.433125 27.216875 -0.86625 28.43375 -1.3125 29.6875 C-2.16866189 33.81264363 -1.64344243 36.85337098 -1 41 C-2 42 -2 42 -4.50024414 42.11352539 C-5.58426514 42.10828857 -6.66828613 42.10305176 -7.78515625 42.09765625 C-9.53989258 42.09282227 -9.53989258 42.09282227 -11.33007812 42.08789062 C-12.56177734 42.07951172 -13.79347656 42.07113281 -15.0625 42.0625 C-16.91584961 42.05573242 -16.91584961 42.05573242 -18.80664062 42.04882812 C-21.87114117 42.03699608 -24.93554721 42.02051173 -28 42 C-28 38 -28 38 -26.2421875 35.9765625 C-22.90337815 31.54420583 -21.69209052 26.65087141 -20.125 21.375 C-19.79242188 20.32570312 -19.45984375 19.27640625 -19.1171875 18.1953125 C-18.81296875 17.18984375 -18.50875 16.184375 -18.1953125 15.1484375 C-17.91703613 14.23239746 -17.63875977 13.31635742 -17.35205078 12.37255859 C-16.69005306 9.73820015 -16.69005306 9.73820015 -19 7 C-19 5.68 -19 4.36 -19 3 C-12.98498312 -0.2809183 -6.79901957 -1.21787798 0 0 Z " fill="#1802A8" transform="translate(338,220)"/>
<path d="M0 0 C2.27157993 1.87819937 3.68496008 3.36992017 5 6 C5.763125 5.195625 6.52625 4.39125 7.3125 3.5625 C11.63403566 -0.558034 15.61716899 -0.33438755 21.328125 -0.2890625 C24.92702893 0.1002926 26.66163377 1.27190607 29 4 C31.33298859 10.99896578 29.6733002 17.22165288 27.5 24 C27.26152344 24.77472656 27.02304688 25.54945313 26.77734375 26.34765625 C26.19486803 28.23487758 25.59884697 30.11790951 25 32 C25.99 31.67 26.98 31.34 28 31 C28.8125 32.625 28.8125 32.625 29 35 C25 40.66666667 25 40.66666667 21 42 C10.54449547 42.90852675 10.54449547 42.90852675 5.8125 40.125 C2.61326044 36.37416742 2.68578999 33.90462194 3 29 C3.79379494 26.09922694 4.86900886 23.34667414 6 20.5625 C6.28617188 19.83095703 6.57234375 19.09941406 6.8671875 18.34570312 C7.56760423 16.55964046 8.28233811 14.77920344 9 13 C6.52999969 13.62712235 6.52999969 13.62712235 4 15 C2.60373004 17.36234714 2.60373004 17.36234714 1.8125 20.1875 C1.49539062 21.1775 1.17828125 22.1675 0.8515625 23.1875 C0.57054687 24.115625 0.28953125 25.04375 0 26 C-0.433125 27.216875 -0.86625 28.43375 -1.3125 29.6875 C-2.16866189 33.81264363 -1.64344243 36.85337098 -1 41 C-2 42 -2 42 -4.50024414 42.11352539 C-5.58426514 42.10828857 -6.66828613 42.10305176 -7.78515625 42.09765625 C-9.53989258 42.09282227 -9.53989258 42.09282227 -11.33007812 42.08789062 C-12.56177734 42.07951172 -13.79347656 42.07113281 -15.0625 42.0625 C-16.91584961 42.05573242 -16.91584961 42.05573242 -18.80664062 42.04882812 C-21.87114117 42.03699608 -24.93554721 42.02051173 -28 42 C-28 38 -28 38 -26.2421875 35.9765625 C-22.90337815 31.54420583 -21.69209052 26.65087141 -20.125 21.375 C-19.79242188 20.32570312 -19.45984375 19.27640625 -19.1171875 18.1953125 C-18.81296875 17.18984375 -18.50875 16.184375 -18.1953125 15.1484375 C-17.91703613 14.23239746 -17.63875977 13.31635742 -17.35205078 12.37255859 C-16.69005306 9.73820015 -16.69005306 9.73820015 -19 7 C-19 5.68 -19 4.36 -19 3 C-12.98498312 -0.2809183 -6.79901957 -1.21787798 0 0 Z " fill="#1801A9" transform="translate(165,220)"/>
<path d="M0 0 C0.91001266 -0.0033284 1.82002533 -0.0066568 2.75761414 -0.01008606 C4.66433206 -0.01511255 6.57105866 -0.01749572 8.4777832 -0.01733398 C11.39614065 -0.01953837 14.31413021 -0.03778766 17.23242188 -0.05664062 C19.09244663 -0.05957188 20.95247317 -0.06155847 22.8125 -0.0625 C23.6823201 -0.06968552 24.5521402 -0.07687103 25.44831848 -0.08427429 C26.66559883 -0.07965935 26.66559883 -0.07965935 27.9074707 -0.07495117 C28.6175679 -0.07637619 29.3276651 -0.07780121 30.0592804 -0.07926941 C32.40255289 0.2082562 34.03195915 1.01179598 36.07421875 2.16796875 C36.59095125 8.23957565 35.25973295 12.93690697 32.07421875 18.16796875 C29.07421875 20.16796875 29.07421875 20.16796875 26.63671875 20.29296875 C23.09624728 18.73861542 22.54013431 16.57220595 21.1640625 13.078125 C19.81439366 10.7125764 18.5042814 10.27566949 16.07421875 9.16796875 C15.92182739 10.03107666 15.92182739 10.03107666 15.76635742 10.91162109 C14.22634374 19.14185815 11.84302126 27.07195714 9.37695312 35.06640625 C7.5402288 41.3288343 6.84193878 45.76011293 8.07421875 52.16796875 C7.57921875 53.15796875 7.57921875 53.15796875 7.07421875 54.16796875 C-1.50578125 54.16796875 -10.08578125 54.16796875 -18.92578125 54.16796875 C-19.25578125 52.84796875 -19.58578125 51.52796875 -19.92578125 50.16796875 C-18.71944583 48.6994762 -17.50457608 47.23626994 -16.22817993 45.82824707 C-14.08898566 43.10123428 -13.3197323 39.94925826 -12.46875 36.65234375 C-12.27606033 35.95530334 -12.08337067 35.25826294 -11.88484192 34.5401001 C-11.27972655 32.33639453 -10.69656381 30.12754059 -10.11328125 27.91796875 C-9.70384104 26.42019853 -9.29304584 24.92279803 -8.88085938 23.42578125 C-6.82121127 16.87937453 -6.82121127 16.87937453 -5.92578125 10.16796875 C-9.95412101 12.29403696 -12.11764755 14.63515539 -14.92578125 18.16796875 C-17.48718561 19.98573958 -18.46593793 20.2214389 -21.61328125 19.85546875 C-23.92578125 19.16796875 -23.92578125 19.16796875 -24.92578125 18.16796875 C-24.87550238 12.31048053 -23.61953461 7.3399752 -20.92578125 2.16796875 C-14.9103661 -0.83973882 -6.5833168 0.00852167 0 0 Z " fill="#1701AA" transform="translate(51.92578125,207.83203125)"/>
<path d="M0 0 C2.05960742 1.86204316 3.39817253 3.69737302 5 6 C5.48210937 5.57847656 5.96421875 5.15695313 6.4609375 4.72265625 C7.09257812 4.17480469 7.72421875 3.62695312 8.375 3.0625 C9.00148437 2.51722656 9.62796875 1.97195312 10.2734375 1.41015625 C13.39371952 -1.13830939 15.94602279 -1.32946797 19.9609375 -1.29296875 C23.13134567 -0.83745033 24.8192402 0.75315657 27 3 C28.42662219 5.85324437 28.31033868 7.83454549 28 11 C24.76709086 16.23924028 19.92620907 18.78360891 14.75 21.8125 C13.90953125 22.31458984 13.0690625 22.81667969 12.203125 23.33398438 C10.14033706 24.56462491 8.07274334 25.78622851 6 27 C7.86080363 27.71303986 7.86080363 27.71303986 10 28 C12.68743506 25.72926391 12.68743506 25.72926391 15 23 C15.66 22.34 16.32 21.68 17 21 C19.77516842 21.18501123 21.00725731 22.00580585 23.1875 23.75 C25.30775745 26.38204374 25.92143478 27.62169537 26 31 C24.84095957 34.73468585 23.80309929 37.24557339 20.9375 39.9375 C16.55111405 41.52406513 12.595338 41.90904661 8 41 C5.24379186 39.34930392 3.15616373 37.36442955 1 35 C0.34 34.34 -0.32 33.68 -1 33 C-1.61488281 33.74056641 -1.61488281 33.74056641 -2.2421875 34.49609375 C-2.78101563 35.13675781 -3.31984375 35.77742188 -3.875 36.4375 C-4.40867188 37.07558594 -4.94234375 37.71367187 -5.4921875 38.37109375 C-7.37497325 40.40508768 -8.44572358 40.94898695 -11.20703125 41.203125 C-20.15529906 41.36411333 -20.15529906 41.36411333 -24 38 C-25.96154814 35.50348419 -26.00860714 33.8859554 -26.25 30.6875 C-24.29646694 24.92457746 -20.03855845 23.08367345 -15 20 C-13.7386219 19.18971076 -12.47961211 18.37572613 -11.22265625 17.55859375 C-7.82730502 15.35283896 -4.41733215 13.17153239 -1 11 C-3.475 10.505 -3.475 10.505 -6 10 C-6.556875 10.825 -7.11375 11.65 -7.6875 12.5 C-10 15 -10 15 -12.5625 15.625 C-15 15 -15 15 -16.875 12.875 C-18.27955901 9.28557142 -18.21703115 7.65109346 -17 4 C-11.9895742 -2.09376111 -7.34179194 -3.27109542 0 0 Z " fill="#1802A9" transform="translate(225,221)"/>
<path d="M0 0 C2.42899097 3.64348645 3.35900175 6.53510141 2.71582031 10.95117188 C2.24547014 13.07125771 1.70383031 15.15701093 1.125 17.25 C0.84462891 18.32894531 0.84462891 18.32894531 0.55859375 19.4296875 C-0.8139881 24.62797619 -0.8139881 24.62797619 -2 27 C-0.68 26.34 0.64 25.68 2 25 C2.6875 26.6875 2.6875 26.6875 3 29 C1.18230336 33.14030902 -0.79507756 35.33555153 -5 37 C-10.21961089 37.65344747 -15.17350249 38.02007928 -19.6875 35 C-20.450625 34.34 -21.21375 33.68 -22 33 C-22.7425 33.66 -23.485 34.32 -24.25 35 C-29.00756047 38.16037946 -34.53312547 37.88247769 -40 37 C-42.78473144 35.62598938 -43.9203734 34.41686335 -46 32 C-47.20643566 28.38069302 -47.32268559 25.80768995 -47 22 C-44.71645754 17.60206636 -42.47668358 15.1264247 -38 13 C-31.47424309 11.04092184 -24.61620385 11.87383764 -18 13 C-17.34 9.7 -16.68 6.4 -16 3 C-16.99 2.34 -17.98 1.68 -19 1 C-19.103125 2.11375 -19.20625 3.2275 -19.3125 4.375 C-19.539375 5.57125 -19.76625 6.7675 -20 8 C-23.23914229 10.15942819 -24.24859733 10.27232978 -28 10.25 C-28.86625 10.25515625 -29.7325 10.2603125 -30.625 10.265625 C-33 10 -33 10 -36 8 C-36.50506487 4.10378527 -36.66801549 1.91542863 -34.3125 -1.3125 C-24.89407743 -8.18540296 -8.77706941 -7.82819704 0 0 Z M-27 22 C-26.67958603 24.60280568 -26.67958603 24.60280568 -26 27 C-22.24848856 25.21092278 -22.24848856 25.21092278 -20.1875 21.8125 C-20.125625 21.214375 -20.06375 20.61625 -20 20 C-23.95457848 19.65176193 -23.95457848 19.65176193 -27 22 Z " fill="#1801A9" transform="translate(453,225)"/>
<path d="M0 0 C1.10118164 -0.0309375 1.10118164 -0.0309375 2.22460938 -0.0625 C8.47258545 -0.10685121 13.16667565 1.12720055 18.0625 5.25 C21.22198525 9.13859723 21.170119 13.45598457 20.6875 18.25 C20.01392416 20.8973097 19.22082469 23.46422301 18.34375 26.05078125 C17.54452889 28.34661609 17.54452889 28.34661609 17.6875 31.25 C18.6775 31.25 19.6675 31.25 20.6875 31.25 C21 33.4375 21 33.4375 20.6875 36.25 C17.56704387 39.9608127 15.31743824 42.01820883 10.3828125 42.453125 C1.5688831 42.61386535 1.5688831 42.61386535 -2.3125 39.25 C-2.3125 38.59 -2.3125 37.93 -2.3125 37.25 C-2.951875 37.86875 -3.59125 38.4875 -4.25 39.125 C-8.81429563 42.29206227 -13.21473417 43.71906233 -18.7890625 42.875 C-22.39251791 41.8420877 -24.746287 40.83337097 -27.375 38.125 C-29.01383924 33.09922634 -29.04853001 28.45809004 -27.375 23.4375 C-23.65223193 19.48910962 -19.11218081 17.59516613 -13.74609375 16.93359375 C-8.5826658 16.81534731 -4.17808729 17.55762181 0.6875 19.25 C1.0175 15.29 1.3475 11.33 1.6875 7.25 C1.0275 6.92 0.3675 6.59 -0.3125 6.25 C-0.395 7.178125 -0.4775 8.10625 -0.5625 9.0625 C-1.3125 12.25 -1.3125 12.25 -3.04296875 13.921875 C-5.69130957 15.47167858 -7.32414667 15.68289841 -10.375 15.6875 C-11.23222656 15.70683594 -12.08945313 15.72617188 -12.97265625 15.74609375 C-15.3125 15.25 -15.3125 15.25 -17.12109375 13.41015625 C-18.3125 11.25 -18.3125 11.25 -18.3125 8.25 C-17.06255435 4.50016306 -15.62772452 3.33165261 -12.3125 1.25 C-8.25768132 0.00236348 -4.20865997 0.0291005 0 0 Z M-4.3125 24.25 C-5.6325 25.24 -6.9525 26.23 -8.3125 27.25 C-7.9825 28.9 -7.6525 30.55 -7.3125 32.25 C-5.28008273 31.61020151 -5.28008273 31.61020151 -3.3125 30.25 C-2.50078772 27.69480079 -2.50078772 27.69480079 -2.3125 25.25 C-2.9725 24.92 -3.6325 24.59 -4.3125 24.25 Z " fill="#1902A7" transform="translate(112.3125,219.75)"/>
<path d="M0 0 C1.10118164 -0.0309375 1.10118164 -0.0309375 2.22460938 -0.0625 C8.47258545 -0.10685121 13.16667565 1.12720055 18.0625 5.25 C21.22198525 9.13859723 21.170119 13.45598457 20.6875 18.25 C20.01392416 20.8973097 19.22082469 23.46422301 18.34375 26.05078125 C17.54452889 28.34661609 17.54452889 28.34661609 17.6875 31.25 C18.6775 31.25 19.6675 31.25 20.6875 31.25 C21 33.4375 21 33.4375 20.6875 36.25 C17.56704387 39.9608127 15.31743824 42.01820883 10.3828125 42.453125 C1.5688831 42.61386535 1.5688831 42.61386535 -2.3125 39.25 C-2.3125 38.59 -2.3125 37.93 -2.3125 37.25 C-3.075625 37.889375 -3.83875 38.52875 -4.625 39.1875 C-9.7198348 43.0974895 -15.12881763 42.75700763 -21.3125 42.25 C-24.38544004 40.99573876 -25.72084579 40.23399228 -27.4140625 37.41796875 C-29.29182327 32.88685038 -28.90333386 28.02250159 -27.375 23.4375 C-23.65223193 19.48910962 -19.11218081 17.59516613 -13.74609375 16.93359375 C-8.5826658 16.81534731 -4.17808729 17.55762181 0.6875 19.25 C1.0175 15.29 1.3475 11.33 1.6875 7.25 C1.0275 6.92 0.3675 6.59 -0.3125 6.25 C-0.395 7.178125 -0.4775 8.10625 -0.5625 9.0625 C-1.3125 12.25 -1.3125 12.25 -3.04296875 13.921875 C-5.69130957 15.47167858 -7.32414667 15.68289841 -10.375 15.6875 C-11.23222656 15.70683594 -12.08945312 15.72617188 -12.97265625 15.74609375 C-15.3125 15.25 -15.3125 15.25 -17.12109375 13.41015625 C-18.3125 11.25 -18.3125 11.25 -18.3125 8.25 C-17.06255435 4.50016306 -15.62772452 3.33165261 -12.3125 1.25 C-8.25768132 0.00236348 -4.20865997 0.0291005 0 0 Z M-4.3125 24.25 C-5.6325 25.24 -6.9525 26.23 -8.3125 27.25 C-7.9825 28.9 -7.6525 30.55 -7.3125 32.25 C-5.28008273 31.61020151 -5.28008273 31.61020151 -3.3125 30.25 C-2.50078772 27.69480079 -2.50078772 27.69480079 -2.3125 25.25 C-2.9725 24.92 -3.6325 24.59 -4.3125 24.25 Z " fill="#1802A7" transform="translate(285.3125,219.75)"/>
<path d="M0 0 C2.45703125 1.46484375 2.45703125 1.46484375 4 4 C4.42248633 10.45601695 2.00437187 16.73640993 -0.0625 22.75 C-2.97129971 30.82951906 -2.97129971 30.82951906 -2.4375 39.25 C-2.293125 39.8275 -2.14875 40.405 -2 41 C-3 42 -3 42 -5.50024414 42.11352539 C-6.58426514 42.10828857 -7.66828613 42.10305176 -8.78515625 42.09765625 C-10.53989258 42.09282227 -10.53989258 42.09282227 -12.33007812 42.08789062 C-13.56177734 42.07951172 -14.79347656 42.07113281 -16.0625 42.0625 C-17.91584961 42.05573242 -17.91584961 42.05573242 -19.80664062 42.04882812 C-22.87114117 42.03699608 -25.93554721 42.02051173 -29 42 C-29 38 -29 38 -27.203125 35.875 C-24.15843166 31.90178316 -23.1052117 27.77089833 -21.75 23 C-21.481875 22.11054688 -21.21375 21.22109375 -20.9375 20.3046875 C-19.12534195 14.11006558 -18.54429789 9.36869675 -20 3 C-13.73557781 -0.49642169 -7.08364035 -1.1759769 0 0 Z " fill="#1902A7" transform="translate(400,220)"/>
<path d="M0 0 C1.75570312 0.01353516 1.75570312 0.01353516 3.546875 0.02734375 C4.43890625 0.03894531 5.3309375 0.05054688 6.25 0.0625 C6.58 0.7225 6.91 1.3825 7.25 2.0625 C5.77830189 5.79834906 5.77830189 5.79834906 3.25 7.0625 C3.25 9.0425 3.25 11.0225 3.25 13.0625 C5.725 13.5575 5.725 13.5575 8.25 14.0625 C7.92 14.7225 7.59 15.3825 7.25 16.0625 C6.59 16.0625 5.93 16.0625 5.25 16.0625 C5.25 17.0525 5.25 18.0425 5.25 19.0625 C4.59 19.0625 3.93 19.0625 3.25 19.0625 C3.25 17.7425 3.25 16.4225 3.25 15.0625 C0.67672567 16.27280974 0.67672567 16.27280974 -1.75 18.0625 C-1.75 19.3825 -1.75 20.7025 -1.75 22.0625 C-3.73 22.0625 -5.71 22.0625 -7.75 22.0625 C-7.75 21.4025 -7.75 20.7425 -7.75 20.0625 C-9.4 20.0625 -11.05 20.0625 -12.75 20.0625 C-13.08 18.0825 -13.41 16.1025 -13.75 14.0625 C-14.41 14.0625 -15.07 14.0625 -15.75 14.0625 C-15.9375 11.1875 -15.9375 11.1875 -15.75 8.0625 C-14.76 7.4025 -13.77 6.7425 -12.75 6.0625 C-12.75 5.0725 -12.75 4.0825 -12.75 3.0625 C-12.09 3.0625 -11.43 3.0625 -10.75 3.0625 C-10.75 2.4025 -10.75 1.7425 -10.75 1.0625 C-7.14006828 -0.07230527 -3.7657673 -0.03765767 0 0 Z " fill="#1801AC" transform="translate(100.75,238.9375)"/>
<path d="M0 0 C0 0.33 0 0.66 0 1 C-1.65 1 -3.3 1 -5 1 C-5.33 1.66 -5.66 2.32 -6 3 C-6.66 3.66 -7.32 4.32 -8 5 C-7.67 5.99 -7.34 6.98 -7 8 C-5.35 7.67 -3.7 7.34 -2 7 C-2 8.65 -2 10.3 -2 12 C-2.66 11.34 -3.32 10.68 -4 10 C-8.02833976 12.12606821 -10.1918663 14.46718664 -13 18 C-15.56140436 19.81777083 -16.54015668 20.05347015 -19.6875 19.6875 C-22 19 -22 19 -23 18 C-22.94972113 12.14251178 -21.69375336 7.17200645 -19 2 C-13.4734994 -0.7632503 -6.04219753 -0.10985814 0 0 Z " fill="#1C0A90" transform="translate(50,208)"/>
<path d="M0 0 C2.3761363 1.7981572 3.65141783 3.22813948 4.875 5.9375 C5.0870472 9.43627878 3.68182648 11.90150178 1.875 14.8125 C-1.22118938 16.77341994 -4.44908575 16.53374911 -8 16 C-10.73883355 14.40970955 -10.94967699 13.16534703 -11.875 10.125 C-12.02524355 6.36891137 -11.28344384 4.93585637 -9 2 C-5.50875983 -0.32749345 -4.10777749 -0.50299316 0 0 Z " fill="#1702AB" transform="translate(403,202)"/>
<path d="M0 0 C1.33224609 0.03383789 1.33224609 0.03383789 2.69140625 0.06835938 C4.87932812 0.12717448 7.06379671 0.20928732 9.25 0.3125 C9.65643834 2.29893374 9.98549206 4.30223965 10.25 6.3125 C8.8125 8.1875 8.8125 8.1875 7.25 9.3125 C7.0025 8.673125 6.755 8.03375 6.5 7.375 C5.43437567 5.12508459 5.43437567 5.12508459 3.125 4.5625 C2.50625 4.48 1.8875 4.3975 1.25 4.3125 C1.25 5.3025 1.25 6.2925 1.25 7.3125 C-0.4 7.6425 -2.05 7.9725 -3.75 8.3125 C-2.76 9.7975 -2.76 9.7975 -1.75 11.3125 C-5.87168689 12.94200412 -8.45700357 13.57514601 -12.75 12.3125 C-14.19160584 6.18567518 -14.19160584 6.18567518 -12.375 2.59375 C-8.4593123 -0.80916908 -5.00574836 -0.2403055 0 0 Z " fill="#1801AC" transform="translate(109.75,220.6875)"/>
<path d="M0 0 C4.75 0.875 4.75 0.875 7 2 C7 2.66 7 3.32 7 4 C7.66 4 8.32 4 9 4 C8.25 10.75 8.25 10.75 6 13 C6 13.66 6 14.32 6 15 C2.64743168 15.85763376 0.48070178 16.1358505 -2.875 15.1875 C-5.50188183 12.48335694 -5.30729357 11.48824152 -5.3125 7.8125 C-5.23210847 6.20696626 -5.1352403 4.60184626 -5 3 C-4.360625 2.87625 -3.72125 2.7525 -3.0625 2.625 C-2.0415625 2.315625 -2.0415625 2.315625 -1 2 C-0.67 1.34 -0.34 0.68 0 0 Z " fill="#1801AD" transform="translate(444,223)"/>
<path d="M0 0 C0 3.10551666 -0.5393715 4.35261084 -2 7 C-2.66 7 -3.32 7 -4 7 C-4 8.98 -4 10.96 -4 13 C-3.34 13 -2.68 13 -2 13 C-1.67 14.98 -1.34 16.96 -1 19 C0.65 19 2.3 19 4 19 C4 19.66 4 20.32 4 21 C5.65 20.67 7.3 20.34 9 20 C9.12375 19.38125 9.2475 18.7625 9.375 18.125 C10 16 10 16 12 14 C12.99 14 13.98 14 15 14 C15 15.32 15 16.64 15 18 C15.66 18 16.32 18 17 18 C17 17.01 17 16.02 17 15 C19.97 15.495 19.97 15.495 23 16 C23.33 16.99 23.66 17.98 24 19 C28.95 19.99 28.95 19.99 34 21 C34 20.34 34 19.68 34 19 C35.98 19 37.96 19 40 19 C39.67 19.66 39.34 20.32 39 21 C33.66270554 22.77909815 28.0452132 22.89989381 22.875 20.625 C22.25625 20.08875 21.6375 19.5525 21 19 C21 18.34 21 17.68 21 17 C20.360625 17.61875 19.72125 18.2375 19.0625 18.875 C14.49820437 22.04206227 10.09776583 23.46906233 4.5234375 22.625 C0.91998209 21.5920877 -1.433787 20.58337097 -4.0625 17.875 C-5.75012927 12.69960357 -5.90911944 7.98353333 -3.625 3 C-2 1 -2 1 0 0 Z " fill="#18039E" transform="translate(89,240)"/>
<path d="M0 0 C3.3 0.33 6.6 0.66 10 1 C7.64046906 3.35953094 6.22104383 3.49141413 3 4 C2.67 6.64 2.34 9.28 2 12 C0.18757948 12.02687279 -1.62495233 12.04633715 -3.4375 12.0625 C-4.44683594 12.07410156 -5.45617187 12.08570313 -6.49609375 12.09765625 C-9 12 -9 12 -10 11 C-10.25 7.5625 -10.25 7.5625 -10 4 C-6.3558226 1.5705484 -4.28758728 1.83820425 0 2 C0 1.34 0 0.68 0 0 Z " fill="#1801AC" transform="translate(279,221)"/>
<path d="M0 0 C5.875 0.875 5.875 0.875 7 2 C7.62889891 8.03742956 6.16104544 12.80911936 3 18 C0 20 0 20 -2.4375 20.125 C-5.97797147 18.57064667 -6.53408444 16.4042372 -7.91015625 12.91015625 C-9.25160673 10.55901186 -10.52472249 9.98290646 -13 9 C-13 8.34 -13 7.68 -13 7 C-12.01 7 -11.02 7 -10 7 C-10 7.66 -10 8.32 -10 9 C-9.21625 9.12375 -8.4325 9.2475 -7.625 9.375 C-5 10 -5 10 -3 12 C-3.99 12 -4.98 12 -6 12 C-6 12.99 -6 13.98 -6 15 C-3.69 15 -1.38 15 1 15 C1.66 13.02 2.32 11.04 3 9 C1.68 9.33 0.36 9.66 -1 10 C-1 8.68 -1 7.36 -1 6 C1.6666419 4.66667905 3.16680303 5.32897967 6 6 C6 5.01 6 4.02 6 3 C4.68 3 3.36 3 2 3 C2 2.34 2 1.68 2 1 C1.34 0.67 0.68 0.34 0 0 Z " fill="#190792" transform="translate(81,208)"/>
<path d="M0 0 C1.98 0 3.96 0 6 0 C5.67 0.99 5.34 1.98 5 3 C5.66 3 6.32 3 7 3 C7.33 4.32 7.66 5.64 8 7 C7.34 7 6.68 7 6 7 C5.67 8.32 5.34 9.64 5 11 C3.68 11 2.36 11 1 11 C1 11.99 1 12.98 1 14 C-0.65 14.66 -2.3 15.32 -4 16 C-4.54330269 9.34454208 -3.77304004 5.54165256 0 0 Z " fill="#1801AC" transform="translate(33,211)"/>
<path d="M0 0 C2.6881249 -0.08164159 5.373723 -0.14079668 8.0625 -0.1875 C8.81466797 -0.21263672 9.56683594 -0.23777344 10.34179688 -0.26367188 C16.69957618 -0.34624044 21.3842457 0.79725953 26.375 5 C28.99281152 8.22192187 29.32371522 11.31992915 29.30078125 15.39453125 C28.64545747 21.07116714 26.70940492 26.56653436 25 32 C24.34 32 23.68 32 23 32 C23 30.35 23 28.7 23 27 C23.66 27 24.32 27 25 27 C24.979375 26.195625 24.95875 25.39125 24.9375 24.5625 C25 22 25 22 26 21 C26.15193163 18.87880076 26.22183514 16.75144685 26.25 14.625 C26.27578125 13.46226562 26.3015625 12.29953125 26.328125 11.1015625 C26.26302227 8.04471961 26.26302227 8.04471961 24.671875 6.1484375 C22.88627861 4.80848718 22.88627861 4.80848718 20 4 C20 4.66 20 5.32 20 6 C19.34 6 18.68 6 18 6 C18 7.65 18 9.3 18 11 C17.01 10.67 16.02 10.34 15 10 C15 7.03 15 4.06 15 1 C10.05 1 5.1 1 0 1 C0 0.67 0 0.34 0 0 Z " fill="#1C0990" transform="translate(104,220)"/>
<path d="M0 0 C3.84375 1.796875 3.84375 1.796875 5.25 3.625 C7.82353175 11.77451721 4.64428763 19.25601481 2 27 C-0.00562017 23.41419424 0.20269263 21.98653687 1 18 C0.10836423 15.88316159 0.10836423 15.88316159 -1 14 C-1 11.06406867 -0.77500573 8.23443584 -0.5 5.3125 C-0.4071875 4.31863281 -0.314375 3.32476562 -0.21875 2.30078125 C-0.1465625 1.54152344 -0.074375 0.78226563 0 0 Z " fill="#1A06A0" transform="translate(362,221)"/>
<path d="M0 0 C1.875 0.5625 1.875 0.5625 4 2 C5.8930496 6.19763171 6.20097089 8.29069096 4.9375 12.75 C2.78932405 16.35339191 1.92197188 17.58141443 -2 19 C-5.35009915 19.22608031 -8.64858651 19.17570517 -12 19 C-12 18.67 -12 18.34 -12 18 C-9.03 18 -6.06 18 -3 18 C-3 17.34 -3 16.68 -3 16 C-2.01 16 -1.02 16 0 16 C-0.33 14.35 -0.66 12.7 -1 11 C-1.66 11 -2.32 11 -3 11 C-2.34 9.02 -1.68 7.04 -1 5 C-0.34 5 0.32 5 1 5 C0.67 3.35 0.34 1.7 0 0 Z " fill="#19059E" transform="translate(245,243)"/>
<path d="M0 0 C-0.99 0.66 -1.98 1.32 -3 2 C-2.67 3.32 -2.34 4.64 -2 6 C-1.34 5.67 -0.68 5.34 0 5 C0.65772428 1.97065509 0.65772428 1.97065509 1 -1 C1.66 -1 2.32 -1 3 -1 C3.28571429 6.42857143 3.28571429 6.42857143 1 10 C2.98 11.65 4.96 13.3 7 15 C6.01 15.33 5.02 15.66 4 16 C3.34 14.68 2.68 13.36 2 12 C1.236875 12.639375 0.47375 13.27875 -0.3125 13.9375 C-4.20100155 16.92169887 -6.9228612 17.11855457 -11.6875 17.0625 C-12.68136719 17.05347656 -13.67523438 17.04445313 -14.69921875 17.03515625 C-15.83810547 17.01775391 -15.83810547 17.01775391 -17 17 C-17 16.67 -17 16.34 -17 16 C-16.32453125 15.93941406 -15.6490625 15.87882812 -14.953125 15.81640625 C-13.61507813 15.69072266 -13.61507813 15.69072266 -12.25 15.5625 C-11.36828125 15.48128906 -10.4865625 15.40007812 -9.578125 15.31640625 C-7.30649548 15.03761535 -5.20148177 14.61209423 -3 14 C-3 12.02 -3 10.04 -3 8 C-3.99 7.67 -4.98 7.34 -6 7 C-6 4.69 -6 2.38 -6 0 C-3.50907189 -1.24546405 -2.58919267 -0.7767578 0 0 Z " fill="#1D098E" transform="translate(281,245)"/>
<path d="M0 0 C0 0.66 0 1.32 0 2 C-2.64738916 3.4606285 -3.89448334 4 -7 4 C-7 6.64 -7 9.28 -7 12 C-3.58073976 11.57732392 -0.2791273 11.07672837 3 10 C4.68900615 7.57745167 4.68900615 7.57745167 5 5 C6 4 6 4 8.5625 3.9375 C9.7690625 3.9684375 9.7690625 3.9684375 11 4 C11 4.99 11 5.98 11 7 C10.01 6.34 9.02 5.68 8 5 C7.896875 6.11375 7.79375 7.2275 7.6875 8.375 C7.460625 9.57125 7.23375 10.7675 7 12 C3.76085771 14.15942819 2.75140267 14.27232978 -1 14.25 C-1.86625 14.25515625 -2.7325 14.2603125 -3.625 14.265625 C-6 14 -6 14 -9 12 C-9.4375 8.625 -9.4375 8.625 -9 5 C-6.29841945 1.57799797 -4.40812991 0 0 0 Z " fill="#1E0C8E" transform="translate(426,221)"/>
<path d="M0 0 C-4.37384413 2.91589609 -7.70542471 4.30254716 -13 4 C-13.33 6.64 -13.66 9.28 -14 12 C-13.01 12 -12.02 12 -11 12 C-11 12.66 -11 13.32 -11 14 C-10.01 14 -9.02 14 -8 14 C-8 11.69 -8 9.38 -8 7 C-5.36 7.66 -2.72 8.32 0 9 C-0.5775 9.226875 -1.155 9.45375 -1.75 9.6875 C-4.2118792 10.92469103 -4.2118792 10.92469103 -5.9375 13.625 C-8 16 -8 16 -10.5625 16.625 C-13 16 -13 16 -14.875 13.875 C-16.27955901 10.28557142 -16.21703115 8.65109346 -15 5 C-12.86951337 2.40886761 -11.13831672 0.51407852 -8.0625 -0.875 C-5.26871215 -1.04432048 -2.73219964 -0.55885902 0 0 Z " fill="#1E0E7D" transform="translate(223,220)"/>
<path d="M0 0 C2.3761363 1.7981572 3.65141783 3.22813948 4.875 5.9375 C5.0870472 9.43627878 3.68182648 11.90150178 1.875 14.8125 C-1.22118938 16.77341994 -4.44908575 16.53374911 -8 16 C-10.73883355 14.40970955 -10.94967699 13.16534703 -11.875 10.125 C-12.02524355 6.36891137 -11.28344384 4.93585637 -9 2 C-5.50875983 -0.32749345 -4.10777749 -0.50299316 0 0 Z M-8.7734375 3.26171875 C-10.77217384 6.0943228 -10.29914233 8.64960592 -10 12 C-9.01 13.485 -9.01 13.485 -8 15 C-4.91634129 15.2502157 -4.91634129 15.2502157 -2 15 C1.61593557 9.45297162 1.61593557 9.45297162 2 3 C0.56589632 2.75045995 -0.87260072 2.52607358 -2.3125 2.3125 C-3.11300781 2.18488281 -3.91351563 2.05726563 -4.73828125 1.92578125 C-7.05523401 1.79325632 -7.05523401 1.79325632 -8.7734375 3.26171875 Z " fill="#1C0B82" transform="translate(403,202)"/>
<path d="M0 0 C0.92900148 3.43358947 1.23296968 6.42779828 1 10 C0.34 10.66 -0.32 11.32 -1 12 C-1.40047444 14.32275177 -1.7397104 16.65739357 -2 19 C-2.66 19 -3.32 19 -4 19 C-4.103125 19.763125 -4.20625 20.52625 -4.3125 21.3125 C-5.06227192 24.24342658 -5.83473267 25.01517162 -8 27 C-8.33 27.99 -8.66 28.98 -9 30 C-1.08 30 6.84 30 15 30 C15 28.35 15 26.7 15 25 C16.0625 26.875 16.0625 26.875 17 29 C16.67 29.66 16.34 30.32 16 31 C7.42 31 -1.16 31 -10 31 C-10.33 29.68 -10.66 28.36 -11 27 C-9.79828823 25.61519029 -8.59171768 24.23422173 -7.35791016 22.87792969 C-4.64808832 19.13036593 -3.82313037 14.54766604 -2.6875 10.125 C-2.29208008 8.66320312 -2.29208008 8.66320312 -1.88867188 7.171875 C-1.24504841 4.78461704 -0.61601186 2.39450287 0 0 Z " fill="#1D0C86" transform="translate(43,231)"/>
<path d="M0 0 C0.33 0 0.66 0 1 0 C1 2.64 1 5.28 1 8 C0.34 8 -0.32 8 -1 8 C-1.103125 8.598125 -1.20625 9.19625 -1.3125 9.8125 C-2.09643187 12.30682867 -3.18521597 13.18521597 -5 15 C-5 15.99 -5 16.98 -5 18 C-6.65 18 -8.3 18 -10 18 C-10.99 20.475 -10.99 20.475 -12 23 C-12.33 23 -12.66 23 -13 23 C-13.20086443 19.28400809 -13.1519437 18.22791555 -11 15 C-10.01 14.67 -9.02 14.34 -8 14 C-8 13.01 -8 12.02 -8 11 C-16.415 11.495 -16.415 11.495 -25 12 C-22.41559658 9.41559658 -20.47379164 9.09262276 -16.88671875 8.8671875 C-12.1527091 8.88400459 -7.6682991 9.2053959 -3 10 C-2.01 6.7 -1.02 3.4 0 0 Z " fill="#1F0B90" transform="translate(438,228)"/>
<path d="M0 0 C0.66 0.33 1.32 0.66 2 1 C1.484375 1.350625 0.96875 1.70125 0.4375 2.0625 C-1.40146383 4.09468727 -1.40146383 4.09468727 -0.6875 7.6875 C-0.460625 8.780625 -0.23375 9.87375 0 11 C4.455 10.505 4.455 10.505 9 10 C8.34 9.01 7.68 8.02 7 7 C7.99 6.34 8.98 5.68 10 5 C10.99 5.33 11.98 5.66 13 6 C13 5.01 13 4.02 13 3 C15.475 3.495 15.475 3.495 18 4 C18.1953125 10.0546875 18.1953125 10.0546875 18 12 C17.34 12.66 16.68 13.32 16 14 C16 11.03 16 8.06 16 5 C15.34 4.67 14.68 4.34 14 4 C13.9175 4.928125 13.835 5.85625 13.75 6.8125 C13 10 13 10 11.26953125 11.671875 C8.62119043 13.22167858 6.98835333 13.43289841 3.9375 13.4375 C3.08027344 13.45683594 2.22304687 13.47617188 1.33984375 13.49609375 C-1 13 -1 13 -2.81640625 11.1640625 C-4 9 -4 9 -3.875 5.9375 C-3.00382455 3.01283955 -2.36089842 1.84765963 0 0 Z " fill="#1C088D" transform="translate(98,222)"/>
<path d="M0 0 C0.99 0 1.98 0 3 0 C3 1.65 3 3.3 3 5 C1.3603125 5.556875 1.3603125 5.556875 -0.3125 6.125 C-4.3454769 7.81755456 -5.22751252 10.03300422 -7 14 C-9.97080411 16.10831259 -11.19114823 16 -15 16 C-16.32 15.67 -17.64 15.34 -19 15 C-9.1 8.565 -9.1 8.565 1 2 C0.67 1.34 0.34 0.68 0 0 Z " fill="#1A059C" transform="translate(223,230)"/>
<path d="M0 0 C1.1346049 3.77342086 0.88752607 6.99417388 0.546875 10.87890625 C0.81826148 13.21854556 0.81826148 13.21854556 3.12109375 14.765625 C6.43050566 16.18458587 8.72892161 16.30563995 12.3125 16.1875 C13.38113281 16.16042969 14.44976562 16.13335937 15.55078125 16.10546875 C16.76314453 16.05326172 16.76314453 16.05326172 18 16 C18 15.01 18 14.02 18 13 C18.66 13 19.32 13 20 13 C19.67 11.68 19.34 10.36 19 9 C20.32 8.34 21.64 7.68 23 7 C23.8125 8.625 23.8125 8.625 24 11 C20 16.66666667 20 16.66666667 16 18 C5.54449547 18.90852675 5.54449547 18.90852675 0.8125 16.125 C-2.37032283 12.39341461 -2.24734541 9.86445974 -2 5 C-1 2.0625 -1 2.0625 0 0 Z " fill="#1E0C88" transform="translate(343,244)"/>
<path d="M0 0 C0.66 0.33 1.32 0.66 2 1 C-0.14272323 4.1950666 -2.30799734 7.24351824 -5 10 C-8.4375 10.5625 -8.4375 10.5625 -11 10 C-10.67 10.556875 -10.34 11.11375 -10 11.6875 C-8.8690399 14.30284522 -8.84337026 16.1806646 -9 19 C-12.7952131 17.50902342 -14.61042731 15.24299151 -17 12 C-16.2884375 11.1028125 -16.2884375 11.1028125 -15.5625 10.1875 C-13.83534256 7.99617076 -13.83534256 7.99617076 -13 5 C-12.34 5.33 -11.68 5.66 -11 6 C-9.1935345 7.0146239 -9.1935345 7.0146239 -7 7 C-4.31256494 4.72926391 -4.31256494 4.72926391 -2 2 C-1.34 1.34 -0.68 0.68 0 0 Z " fill="#1D0894" transform="translate(242,242)"/>
<path d="M0 0 C0.26218749 3.14624993 0.24754367 4.61837017 -1.5 7.3125 C-2.2425 8.1478125 -2.2425 8.1478125 -3 9 C-3.99 8.67 -4.98 8.34 -6 8 C-6.05447047 9.41623216 -6.09300508 10.83308191 -6.125 12.25 C-6.15980469 13.43335938 -6.15980469 13.43335938 -6.1953125 14.640625 C-5.9828378 17.20731941 -5.28654105 18.7916067 -4 21 C-7 20 -7 20 -8.16796875 18.21484375 C-9.94333196 13.48887689 -9.73096392 8.63596686 -7.6875 4.0625 C-5.28931843 1.1313892 -3.83864085 0 0 0 Z " fill="#1B0997" transform="translate(266,239)"/>
<path d="M0 0 C1.15147536 3.94791553 1.59841673 7.91723674 2 12 C1 13 1 13 -1.50024414 13.11352539 C-2.58426514 13.10828857 -3.66828613 13.10305176 -4.78515625 13.09765625 C-5.95498047 13.09443359 -7.12480469 13.09121094 -8.33007812 13.08789062 C-9.56177734 13.07951172 -10.79347656 13.07113281 -12.0625 13.0625 C-13.91584961 13.05573242 -13.91584961 13.05573242 -15.80664062 13.04882812 C-18.87114117 13.03699608 -21.93554721 13.02051173 -25 13 C-25 8.25113649 -24.01655206 7.46016266 -21 4 C-20.34 3.01 -19.68 2.02 -19 1 C-19 2.98 -19 4.96 -19 7 C-20.98 7.99 -20.98 7.99 -23 9 C-23 9.99 -23 10.98 -23 12 C-15.41 12 -7.82 12 0 12 C-0.33 11.34 -0.66 10.68 -1 10 C-1.1328125 8.125 -1.1328125 8.125 -1.125 6 C-1.12886719 4.948125 -1.12886719 4.948125 -1.1328125 3.875 C-1 2 -1 2 0 0 Z " fill="#1C0B86" transform="translate(162,249)"/>
<path d="M0 0 C1.31101491 3.93304472 0.22827584 6.66793949 -0.87109375 10.51171875 C-1.0722731 11.23994339 -1.27345245 11.96816803 -1.48072815 12.71846008 C-2.12507746 15.04375859 -2.78112034 17.36557195 -3.4375 19.6875 C-3.87642515 21.26345648 -4.31458569 22.83962613 -4.75195312 24.41601562 C-5.82577873 28.27987325 -6.9101031 32.14064633 -8 36 C-8.33 36 -8.66 36 -9 36 C-9.2358396 30.22192976 -8.86783046 25.48675196 -7 20 C-6.34 20 -5.68 20 -5 20 C-5.020625 19.030625 -5.04125 18.06125 -5.0625 17.0625 C-5 14 -5 14 -4 13 C-3.76807135 11.48530552 -3.58784762 9.96245438 -3.4375 8.4375 C-3.35371094 7.61121094 -3.26992188 6.78492188 -3.18359375 5.93359375 C-3.12300781 5.29550781 -3.06242187 4.65742188 -3 4 C-2.34 4 -1.68 4 -1 4 C-0.67 2.68 -0.34 1.36 0 0 Z " fill="#1D0B8A" transform="translate(66,220)"/>
<path d="M0 0 C0.66 0.33 1.32 0.66 2 1 C2 1.66 2 2.32 2 3 C2.77923828 3.57234375 2.77923828 3.57234375 3.57421875 4.15625 C5 6 5 6 4.70703125 9.46875 C4.42661988 10.81631933 4.12768666 12.16013769 3.8125 13.5 C3.67263672 14.17675781 3.53277344 14.85351562 3.38867188 15.55078125 C2.66148966 18.88726434 1.91445857 21.12831214 0 24 C-0.66 24 -1.32 24 -2 24 C-2.33 24.99 -2.66 25.98 -3 27 C-2.3900874 22.01155691 -1.36525565 17.39844654 0.0625 12.5625 C0.42472656 11.32628906 0.78695312 10.09007812 1.16015625 8.81640625 C1.43730469 7.88699219 1.71445313 6.95757812 2 6 C1.34 5.34 0.68 4.68 0 4 C0 2.68 0 1.36 0 0 Z " fill="#1D0B90" transform="translate(146,223)"/>
<path d="M0 0 C0 0.33 0 0.66 0 1 C-3.63 1 -7.26 1 -11 1 C-11.66 2.65 -12.32 4.3 -13 6 C-13.33 6.33 -13.66 6.66 -14 7 C-14.36760731 9.32817964 -14.70241581 11.6618385 -15 14 C-15.66 14 -16.32 14 -17 14 C-16.95875 13.21625 -16.9175 12.4325 -16.875 11.625 C-16.71271266 8.83883881 -16.71271266 8.83883881 -19 7 C-19 5.68 -19 4.36 -19 3 C-12.68284595 -0.44572039 -7.09629025 -0.31461385 0 0 Z " fill="#1C0B8E" transform="translate(338,220)"/>
<path d="M0 0 C0 3.10551666 -0.5393715 4.35261084 -2 7 C-2.66 7 -3.32 7 -4 7 C-4 8.98 -4 10.96 -4 13 C-3.34 13 -2.68 13 -2 13 C-1.67 14.98 -1.34 16.96 -1 19 C0.65 19 2.3 19 4 19 C4 19.66 4 20.32 4 21 C6.97 21 9.94 21 13 21 C13 21.33 13 21.66 13 22 C7.41899126 23.57413067 3.07536444 22.54763391 -2 20 C-4.86706113 17.04605823 -5.19663725 14.47682874 -5.375 10.5 C-5.24497692 6.59930768 -4.51496205 4.09533791 -2 1 C-1.34 0.67 -0.68 0.34 0 0 Z " fill="#1F0C89" transform="translate(89,240)"/>
<path d="M0 0 C1.04027344 -0.03738281 2.08054688 -0.07476562 3.15234375 -0.11328125 C6.74710064 0.41266305 7.82849387 1.51869651 10.0625 4.3125 C10.3925 4.9725 10.7225 5.6325 11.0625 6.3125 C11.7225 5.9825 12.3825 5.6525 13.0625 5.3125 C12.7325 7.2925 12.4025 9.2725 12.0625 11.3125 C13.0525 11.3125 14.0425 11.3125 15.0625 11.3125 C15.0625 11.9725 15.0625 12.6325 15.0625 13.3125 C11.0625 13.3125 11.0625 13.3125 9.375 12.25 C7.48281929 9.45678086 7.49063008 6.61521776 7.0625 3.3125 C4.56110398 2.06180199 2.78857309 2.17947533 0 2.1875 C-0.89847656 2.18492187 -1.79695312 2.18234375 -2.72265625 2.1796875 C-4.91128893 2.06511777 -4.91128893 2.06511777 -5.9375 3.3125 C-7.60367115 3.35313832 -9.27138095 3.355221 -10.9375 3.3125 C-7.65217154 0.02717154 -4.45492599 0.10462743 0 0 Z " fill="#1D0990" transform="translate(158.9375,219.6875)"/>
<path d="M0 0 C3 1 3 1 4.1875 3.0625 C4.455625 3.701875 4.72375 4.34125 5 5 C6.32 4.01 7.64 3.02 9 2 C7.79618552 4.49361571 6.54571278 6.68143083 5 9 C6.32 9.33 7.64 9.66 9 10 C9 10.66 9 11.32 9 12 C8.21625 12.28875 7.4325 12.5775 6.625 12.875 C3.90328368 13.84912254 3.90328368 13.84912254 2 16 C2.0928125 14.6078125 2.0928125 14.6078125 2.1875 13.1875 C2.32377263 10.02056752 2.32377263 10.02056752 0.5 8.25 C0.005 7.8375 -0.49 7.425 -1 7 C-1 6.34 -1 5.68 -1 5 C-0.01 5 0.98 5 2 5 C2 4.01 2 3.02 2 2 C1.34 2 0.68 2 0 2 C0 1.34 0 0.68 0 0 Z " fill="#1B0892" transform="translate(338,221)"/>
<path d="M0 0 C3.90034228 1.26497588 5.98561978 2.37411561 8 6 C9.4181055 11.30799264 8.4979765 15.23701616 7.0625 20.375 C6.86720703 21.11105469 6.67191406 21.84710938 6.47070312 22.60546875 C5.99119804 24.40653661 5.49707535 26.20370196 5 28 C4.67 28 4.34 28 4 28 C3.81887221 22.92842187 4.18548172 18.83420234 5.5546875 13.96484375 C6.24232929 10.93077513 6.12913859 8.09932621 6 5 C5.34 5 4.68 5 4 5 C4 4.34 4 3.68 4 3 C2.68 2.34 1.36 1.68 0 1 C0 0.67 0 0.34 0 0 Z " fill="#1E0F82" transform="translate(447,222)"/>
<path d="M0 0 C0.66 0.33 1.32 0.66 2 1 C1.2575 1.680625 1.2575 1.680625 0.5 2.375 C-1.22609337 3.87635519 -1.22609337 3.87635519 -1 6 C-0.34 6 0.32 6 1 6 C1 6.99 1 7.98 1 9 C0.360625 9.103125 -0.27875 9.20625 -0.9375 9.3125 C-1.9584375 9.6528125 -1.9584375 9.6528125 -3 10 C-3.33 10.99 -3.66 11.98 -4 13 C-3.34 13 -2.68 13 -2 13 C-0.68 15.64 0.64 18.28 2 21 C-2.24180013 18.87909994 -3.14065292 18.18353093 -5 14 C-5.56663412 9.54787478 -5.31427331 7.54744384 -3.0625 3.625 C-1 1 -1 1 0 0 Z " fill="#190984" transform="translate(411,240)"/>
<path d="M0 0 C0.66 0.33 1.32 0.66 2 1 C2.3125 3.1875 2.3125 3.1875 2 6 C-0.5 8.8125 -0.5 8.8125 -3 11 C-3.99 10.67 -4.98 10.34 -6 10 C-5.34 10 -4.68 10 -4 10 C-4 9.01 -4 8.02 -4 7 C-4.99 6.67 -5.98 6.34 -7 6 C-7 5.34 -7 4.68 -7 4 C-6.030625 3.525625 -5.06125 3.05125 -4.0625 2.5625 C-1.19522563 1.29806053 -1.19522563 1.29806053 0 0 Z " fill="#1A0797" transform="translate(304,250)"/>
<path d="M0 0 C4.875 3.625 4.875 3.625 6 7 C6.7346836 14.78764618 4.31396352 21.64490166 2 29 C1.67 29 1.34 29 1 29 C0.71208013 24.29730874 0.63954416 20.82183932 2.5625 16.4375 C4.45545377 11.91087141 4.10730004 9.7455716 3 5 C1.56308045 3.14198761 1.56308045 3.14198761 0 2 C0 1.34 0 0.68 0 0 Z " fill="#1F0D89" transform="translate(300,223)"/>
<path d="M0 0 C1.22589844 0.01353516 1.22589844 0.01353516 2.4765625 0.02734375 C3.41628906 0.04474609 3.41628906 0.04474609 4.375 0.0625 C4.045 0.7225 3.715 1.3825 3.375 2.0625 C0.735 2.0625 -1.905 2.0625 -4.625 2.0625 C-6.55742285 5.40770258 -7.1713853 8.51017482 -7.75 12.3125 C-7.91757812 13.39015625 -8.08515625 14.4678125 -8.2578125 15.578125 C-8.37898438 16.39796875 -8.50015625 17.2178125 -8.625 18.0625 C-9.285 17.7325 -9.945 17.4025 -10.625 17.0625 C-10.23526207 11.13579556 -9.3834126 6.35865218 -6.625 1.0625 C-4.21954362 -0.14022819 -2.67503047 -0.03821472 0 0 Z " fill="#231186" transform="translate(37.625,208.9375)"/>
<path d="M0 0 C3.0390625 0.2421875 3.0390625 0.2421875 6.625 0.875 C8.40777344 1.18050781 8.40777344 1.18050781 10.2265625 1.4921875 C11.14179688 1.65976563 12.05703125 1.82734375 13 2 C13 2.66 13 3.32 13 4 C12.01 4 11.02 4 10 4 C9.67 4.99 9.34 5.98 9 7 C7.35 6.67 5.7 6.34 4 6 C4 4.68 4 3.36 4 2 C2.02 2 0.04 2 -2 2 C-1.34 1.34 -0.68 0.68 0 0 Z " fill="#180595" transform="translate(434,219)"/>
<path d="M0 0 C1.53445094 3.06890187 0.54984289 5.70094266 0 9 C0.99 9.33 1.98 9.66 3 10 C3 10.66 3 11.32 3 12 C3.99 12 4.98 12 6 12 C6 12.66 6 13.32 6 14 C8.97 14 11.94 14 15 14 C15 14.33 15 14.66 15 15 C4.08270086 15.57236326 4.08270086 15.57236326 0 12 C-2.19569297 9.20548168 -1.99481869 7.93886052 -1.6875 4.3125 C-1 1 -1 1 0 0 Z " fill="#1F0C84" transform="translate(201,247)"/>
<path d="M0 0 C0.66 0.33 1.32 0.66 2 1 C1.52153935 5.30614589 0.34073619 7.24880549 -3 10 C-6.28519475 11.09506492 -8.73663415 11.09960608 -12.1875 11.0625 C-13.81751953 11.04896484 -13.81751953 11.04896484 -15.48046875 11.03515625 C-16.31191406 11.02355469 -17.14335937 11.01195312 -18 11 C-18 10.67 -18 10.34 -18 10 C-13.38 9.67 -8.76 9.34 -4 9 C-4 8.01 -4 7.02 -4 6 C-3.01 6 -2.02 6 -1 6 C-1.33 4.35 -1.66 2.7 -2 1 C-1.34 0.67 -0.68 0.34 0 0 Z " fill="#1E0B87" transform="translate(192,251)"/>
<path d="M0 0 C0.66 0.33 1.32 0.66 2 1 C1.484375 1.350625 0.96875 1.70125 0.4375 2.0625 C-1.40146383 4.09468727 -1.40146383 4.09468727 -0.6875 7.6875 C-0.460625 8.780625 -0.23375 9.87375 0 11 C3.63 11 7.26 11 11 11 C8.49936853 13.50063147 7.52188302 13.32420142 4.0625 13.375 C2.74958984 13.41753906 2.74958984 13.41753906 1.41015625 13.4609375 C-1 13 -1 13 -2.82421875 11.16796875 C-4 9 -4 9 -3.875 5.9375 C-3.00382455 3.01283955 -2.36089842 1.84765963 0 0 Z " fill="#200F80" transform="translate(98,222)"/>
<path d="M0 0 C3.36591866 1.44253657 5.51047079 3.33264727 8 6 C9.98 4.02 11.96 2.04 14 0 C14.66 0.33 15.32 0.66 16 1 C15.525625 1.61875 15.05125 2.2375 14.5625 2.875 C12.97582559 4.90705546 12.97582559 4.90705546 12 7 C9.0625 7.75 9.0625 7.75 6 8 C5.34 7.34 4.68 6.68 4 6 C1.42938689 5.35232207 1.42938689 5.35232207 -1 5 C-0.01 4.67 0.98 4.34 2 4 C2 3.34 2 2.68 2 2 C1.34 2 0.68 2 0 2 C0 1.34 0 0.68 0 0 Z " fill="#1E0C8E" transform="translate(223,221)"/>
<path d="M0 0 C2.64 0.66 5.28 1.32 8 2 C7.401875 2.2475 6.80375 2.495 6.1875 2.75 C3.864026 3.86434075 3.864026 3.86434075 2.5625 6.125 C1 8 1 8 -1.5625 8.4375 C-2.366875 8.293125 -3.17125 8.14875 -4 8 C-4.66 7.01 -5.32 6.02 -6 5 C-5.01 5 -4.02 5 -3 5 C-3 5.66 -3 6.32 -3 7 C-2.01 7 -1.02 7 0 7 C0 4.69 0 2.38 0 0 Z " fill="#1B0797" transform="translate(215,227)"/>
<path d="M0 0 C1.1446875 -0.00515625 2.289375 -0.0103125 3.46875 -0.015625 C6.5 0.25 6.5 0.25 9.5 2.25 C9.5 2.91 9.5 3.57 9.5 4.25 C8.84 4.25 8.18 4.25 7.5 4.25 C7.5 3.59 7.5 2.93 7.5 2.25 C4.2 2.58 0.9 2.91 -2.5 3.25 C-2.5 2.59 -2.5 1.93 -2.5 1.25 C-4.81 1.58 -7.12 1.91 -9.5 2.25 C-5.92878282 -0.13081145 -4.23325367 -0.01906871 0 0 Z " fill="#200F90" transform="translate(393.5,219.75)"/>
<path d="M0 0 C0.75410156 0.00322266 1.50820313 0.00644531 2.28515625 0.00976562 C3.06246094 0.01814453 3.83976562 0.02652344 4.640625 0.03515625 C5.43339844 0.03966797 6.22617187 0.04417969 7.04296875 0.04882812 C8.99222008 0.0605706 10.94143238 0.07850479 12.890625 0.09765625 C12.890625 0.42765625 12.890625 0.75765625 12.890625 1.09765625 C7.940625 1.09765625 2.990625 1.09765625 -2.109375 1.09765625 C-2.109375 1.75765625 -2.109375 2.41765625 -2.109375 3.09765625 C-8.734375 4.09765625 -8.734375 4.09765625 -12.109375 4.09765625 C-8.1570763 0.85112518 -5.06474809 -0.0383693 0 0 Z " fill="#1E0C88" transform="translate(281.109375,219.90234375)"/>
<path d="M0 0 C0.66 0 1.32 0 2 0 C2 0.66 2 1.32 2 2 C3.32 1.34 4.64 0.68 6 0 C6.6875 1.6875 6.6875 1.6875 7 4 C5.75 6.75 5.75 6.75 4 9 C3.01 9 2.02 9 1 9 C1.66 7.68 2.32 6.36 3 5 C3.66 5 4.32 5 5 5 C5 4.34 5 3.68 5 3 C3.35 3 1.7 3 0 3 C0 2.01 0 1.02 0 0 Z " fill="#1E0C8B" transform="translate(449,250)"/>
<path d="M0 0 C0.99 0 1.98 0 3 0 C3 1.65 3 3.3 3 5 C1.40233897 5.86627399 -0.20339944 6.71766465 -1.8125 7.5625 C-2.70582031 8.03816406 -3.59914062 8.51382813 -4.51953125 9.00390625 C-7 10 -7 10 -10 9 C-6.37 6.69 -2.74 4.38 1 2 C0.67 1.34 0.34 0.68 0 0 Z " fill="#1F0E8A" transform="translate(223,230)"/>
<path d="M0 0 C1.60080151 4.00200378 0.29279692 7.04556236 -1 11 C-0.34 11 0.32 11 1 11 C1.99 12.98 2.98 14.96 4 17 C0.83884224 15.63016497 0.0072908 15.0109362 -2 12 C-2.33775739 7.4402752 -1.99840383 4.1217079 0 0 Z " fill="#1F0A8B" transform="translate(170,244)"/>
<path d="M0 0 C0.33 0 0.66 0 1 0 C0.25 7.75 0.25 7.75 -2 10 C-4.68839385 10.26991906 -7.29141936 10.08737357 -10 10 C-10 9.67 -10 9.34 -10 9 C-8.02 9 -6.04 9 -4 9 C-3.71125 8.071875 -3.4225 7.14375 -3.125 6.1875 C-2 3 -2 3 0 0 Z " fill="#1C0897" transform="translate(405,208)"/>
<path d="M0 0 C0 0.33 0 0.66 0 1 C-1.65 1 -3.3 1 -5 1 C-5.33 1.66 -5.66 2.32 -6 3 C-6.66 3.66 -7.32 4.32 -8 5 C-8.16687448 7.58354218 -8.16687448 7.58354218 -8 10 C-8.66 8.68 -9.32 7.36 -10 6 C-10.66 6 -11.32 6 -12 6 C-9.75322901 -0.74031297 -6.49815287 -0.31958129 0 0 Z " fill="#11028A" transform="translate(50,208)"/>
<path d="M0 0 C0.99 0 1.98 0 3 0 C2.0547226 2.36319349 1.41996722 3.73002108 -0.75 5.125 C-3.40261904 6.15657407 -5.41354949 6.19964343 -8.25 6.125 C-9.14203125 6.10695313 -10.0340625 6.08890625 -10.953125 6.0703125 C-11.96632812 6.03550781 -11.96632812 6.03550781 -13 6 C-13 5.67 -13 5.34 -13 5 C-10.03 5 -7.06 5 -4 5 C-4 4.34 -4 3.68 -4 3 C-2.68 3 -1.36 3 0 3 C0 2.01 0 1.02 0 0 Z " fill="#1F0D87" transform="translate(246,256)"/>
<path d="M0 0 C0.75 1.5625 0.75 1.5625 1 4 C-0.13084437 6.50286409 -1.52139516 8.67007722 -3 11 C-3.99 10.34 -4.98 9.68 -6 9 C-5.75 7.125 -5.75 7.125 -5 5 C-3.68352881 4.30062468 -2.34977849 3.63270867 -1 3 C-0.67 2.01 -0.34 1.02 0 0 Z " fill="#1B0696" transform="translate(432,246)"/>
<path d="M0 0 C-2.71209558 1.80806372 -4.89366697 3.06810009 -8 4 C-8.99 3.34 -9.98 2.68 -11 2 C-10 0 -10 0 -8.3125 -0.6875 C-5.37519398 -1.08443325 -2.88840266 -0.59080963 0 0 Z " fill="#1A0995" transform="translate(223,220)"/>
<path d="M0 0 C1.98 0 3.96 0 6 0 C5.67 0.66 5.34 1.32 5 2 C2.07345473 2.97551509 0.05345004 3.16478088 -3 3.1875 C-4.299375 3.20876953 -4.299375 3.20876953 -5.625 3.23046875 C-8 3 -8 3 -11 1 C-7.37 1.33 -3.74 1.66 0 2 C0 1.34 0 0.68 0 0 Z " fill="#1D0C84" transform="translate(123,259)"/>
<path d="M0 0 C0.33 0 0.66 0 1 0 C1.05395478 1.62463842 1.09277195 3.24978541 1.125 4.875 C1.14820313 5.77992188 1.17140625 6.68484375 1.1953125 7.6171875 C1 10 1 10 -1 12 C-3.125 11.625 -3.125 11.625 -5 11 C-4.54625 10.484375 -4.0925 9.96875 -3.625 9.4375 C-1.61799617 6.42699426 -0.87268191 3.49072763 0 0 Z " fill="#1E0D8F" transform="translate(377,246)"/>
<path d="M0 0 C0.33 0 0.66 0 1 0 C1.19392201 5.52677733 0.7479503 9.75614911 -1 15 C-1.33 15 -1.66 15 -2 15 C-2.19392201 9.47322267 -1.7479503 5.24385089 0 0 Z " fill="#200E90" transform="translate(453,235)"/>
<path d="M0 0 C1.04916965 3.40980136 1.37043252 6.44384783 1 10 C-1 12.375 -1 12.375 -3 14 C-2.40380045 9.13103697 -1.43023178 4.67209049 0 0 Z " fill="#261193" transform="translate(43,231)"/>
<path d="M0 0 C0.66 0 1.32 0 2 0 C1.71682074 1.60568666 1.42312209 3.20952047 1.125 4.8125 C0.96257812 5.70582031 0.80015625 6.59914062 0.6328125 7.51953125 C0 10 0 10 -2 13 C-3.18771723 9.57056481 -2.80226223 7.62215325 -1.5625 4.25 C-1.27503906 3.45078125 -0.98757813 2.6515625 -0.69140625 1.828125 C-0.46324219 1.22484375 -0.23507812 0.6215625 0 0 Z " fill="#1E0E8E" transform="translate(365,235)"/>
<path d="M0 0 C0.66 0.33 1.32 0.66 2 1 C2.25 3.3125 2.25 3.3125 2 6 C0 7.8125 0 7.8125 -2 9 C-2.20140476 5.37471432 -1.85776765 3.13498292 0 0 Z " fill="#1E0B86" transform="translate(131,250)"/>
<path d="M0 0 C0.99 0.66 1.98 1.32 3 2 C1.02 4.31 -0.96 6.62 -3 9 C-3.66 8.67 -4.32 8.34 -5 8 C-4.67 7.01 -4.34 6.02 -4 5 C-3.01 5 -2.02 5 -1 5 C-0.67 3.35 -0.34 1.7 0 0 Z " fill="#1B078D" transform="translate(221,252)"/>
<path d="M0 0 C0.66 0.33 1.32 0.66 2 1 C1.2575 1.680625 1.2575 1.680625 0.5 2.375 C-1.22609337 3.87635519 -1.22609337 3.87635519 -1 6 C-0.34 6 0.32 6 1 6 C1 6.99 1 7.98 1 9 C-0.32 9 -1.64 9 -3 9 C-3.36923077 3.46153846 -3.36923077 3.46153846 -1.5 1.125 C-1.005 0.75375 -0.51 0.3825 0 0 Z " fill="#1C0895" transform="translate(411,240)"/>
<path d="M0 0 C0.66 0 1.32 0 2 0 C3.17673198 2.35346396 3.16623866 3.8806033 3.1875 6.5 C3.20167969 7.2940625 3.21585937 8.088125 3.23046875 8.90625 C3 11 3 11 1 13 C1.020625 11.783125 1.04125 10.56625 1.0625 9.3125 C1.06824116 6.08022678 0.78766315 3.15065259 0 0 Z " fill="#21118C" transform="translate(380,223)"/>
<path d="M0 0 C0.66 0.33 1.32 0.66 2 1 C1.74438677 3.3431213 1.40729228 5.67843403 1 8 C0.01 8.495 0.01 8.495 -1 9 C-1 7.02 -1 5.04 -1 3 C-1.99 3.33 -2.98 3.66 -4 4 C-3.67 3.01 -3.34 2.02 -3 1 C-2.01 0.67 -1.02 0.34 0 0 Z " fill="#19069D" transform="translate(189,243)"/>
<path d="M0 0 C0 0.66 0 1.32 0 2 C-0.99 2 -1.98 2 -3 2 C-3.33 2.99 -3.66 3.98 -4 5 C-6.0625 6.1875 -6.0625 6.1875 -8 7 C-6.4365884 2.43002763 -5.27390657 0 0 0 Z " fill="#1D0B8A" transform="translate(266,239)"/>
<path d="M0 0 C2.31 0.33 4.62 0.66 7 1 C7 1.33 7 1.66 7 2 C5.35 2.33 3.7 2.66 2 3 C2 3.99 2 4.98 2 6 C1.01 6 0.02 6 -1 6 C-0.67 4.02 -0.34 2.04 0 0 Z " fill="#190598" transform="translate(107,239)"/>
<path d="M0 0 C0.99 0 1.98 0 3 0 C2.34 1.32 1.68 2.64 1 4 C-2.63 4 -6.26 4 -10 4 C-10 3.67 -10 3.34 -10 3 C-6.7 3 -3.4 3 0 3 C0 2.01 0 1.02 0 0 Z " fill="#1B0690" transform="translate(281,230)"/>
<path d="M0 0 C1.32 0.33 2.64 0.66 4 1 C2.71034824 2.37562854 1.37310707 3.70766393 0 5 C-0.66 5 -1.32 5 -2 5 C-2.33 5.66 -2.66 6.32 -3 7 C-2.38722388 4.03824877 -1.74627478 2.61941217 0 0 Z " fill="#1B059C" transform="translate(100,221)"/>
<path d="M0 0 C2.97 0.495 2.97 0.495 6 1 C6.33 2.32 6.66 3.64 7 5 C6.01 4.67 5.02 4.34 4 4 C4 3.34 4 2.68 4 2 C2.02 2.99 2.02 2.99 0 4 C0 2.68 0 1.36 0 0 Z " fill="#1B0791" transform="translate(106,255)"/>
</svg>
