<?xml version="1.0" encoding="UTF-8"?>
<svg version="1.1" xmlns="http://www.w3.org/2000/svg" width="500" height="500">
<path d="M0 0 C4.38024155 1.86922396 7.41575106 3.56859009 9.25 8.0625 C9 11 9 11 7.5625 13.375 C3.87877417 15.71102126 1.31376798 15.28758453 -3 15 C-2.505 16.155 -2.01 17.31 -1.5 18.5 C0.53694745 23.99005838 0.86281981 28.46229467 -1.0625 34.125 C-5.87781403 41.27030469 -11.43573104 44.06590873 -19.6875 46.38671875 C-24.3136795 47.2432166 -28.41723089 46.95172632 -33 46 C-33 46.33 -33 46.66 -33 47 C-32.09290283 47.01401855 -32.09290283 47.01401855 -31.16748047 47.02832031 C-28.4025212 47.08231722 -25.63920094 47.16590394 -22.875 47.25 C-21.44800781 47.27126953 -21.44800781 47.27126953 -19.9921875 47.29296875 C-13.54682775 47.51676596 -9.6668131 48.3331869 -5 53 C-4.20974797 59.54780254 -4.20974797 59.54780254 -6.05859375 62.9453125 C-11.05443636 69.20026992 -17.15741773 72.02427967 -25 73 C-36.17641212 73.66278723 -47.23139253 74.14404539 -57.0625 68.125 C-59.36654407 65.59798393 -60 64.42134103 -60 61 C-58.78106173 57.72811307 -57.90806354 55.62429368 -55 53.625 C-53 53 -53 53 -50 53 C-50.103125 52.13375 -50.20625 51.2675 -50.3125 50.375 C-49.88541057 45.76243413 -48.14957658 44.30705541 -45 41 C-45.495 40.34 -45.99 39.68 -46.5 39 C-48.38537533 35.22924935 -48.67212751 32.09528856 -48 28 C-45.40737261 21.46207005 -41.16987668 18.22470901 -35 15 C-30.12971339 12.96957065 -25.93164119 12.72234324 -20.75 12.8125 C-20.03070313 12.81314453 -19.31140625 12.81378906 -18.5703125 12.81445312 C-13.28196429 12.85901786 -13.28196429 12.85901786 -11 14 C-11.226875 13.13375 -11.45375 12.2675 -11.6875 11.375 C-12.06905628 7.25419217 -11.19821049 5.45433077 -9 2 C-5.41123098 -0.39251268 -4.23750792 -0.55967086 0 0 Z M-23 22 C-26.04157942 27.22771463 -27.50610724 30.92671312 -27 37 C-23.61571159 35.9497036 -22.97132891 34.94675369 -21.25 31.75 C-20.06488343 28.19465028 -19.72903575 25.70317814 -20 22 C-20.99 22 -21.98 22 -23 22 Z M-39 58 C-39 59.32 -39 60.64 -39 62 C-34.28400182 62.92470553 -31.32734391 63.22923777 -27 61 C-27 60.01 -27 59.02 -27 58 C-30.96 58 -34.92 58 -39 58 Z " fill="#FCDE5E" transform="translate(184,206)"/>
<path d="M0 0 C2.375 2.5 2.375 2.5 2.65795898 6.14697266 C2.52031862 10.54610576 1.51881825 14.46331484 0.22265625 18.6484375 C0.00306747 19.3870401 -0.2165213 20.1256427 -0.44276428 20.8866272 C-1.13918051 23.21927794 -1.85077218 25.5469815 -2.5625 27.875 C-3.03676749 29.4593483 -3.51008363 31.04398172 -3.98242188 32.62890625 C-7.41541358 44.08082716 -7.41541358 44.08082716 -8.625 46.5 C-7.635 46.5 -6.645 46.5 -5.625 46.5 C-4.875 48.6875 -4.875 48.6875 -4.625 51.5 C-6.80132949 55.30857661 -9.43188157 57.49381459 -13.55859375 59.0625 C-17.59193221 59.91643933 -21.65914523 59.54958971 -25.625 58.5 C-27.92578125 56.9453125 -27.92578125 56.9453125 -29.625 55.5 C-31.048125 56.5209375 -31.048125 56.5209375 -32.5 57.5625 C-36.54814285 59.86632114 -39.78137645 59.85824163 -44.32421875 59.17578125 C-48.76525411 57.87136849 -50.7028013 54.83156495 -53.2265625 51.1875 C-55.96911584 45.9168947 -55.45239818 39.65199305 -53.96875 34 C-51.09278248 26.85966686 -45.98315375 20.81446148 -39.625 16.5 C-34.17711412 14.68403804 -28.16113706 15.07131947 -22.625 16.5 C-21.91915353 11.515638 -21.57329257 7.45804931 -22.625 2.5 C-17.06126795 -3.06373205 -6.82311291 -2.82335706 0 0 Z M-28.625 25.5 C-32.85933014 32.41607256 -34.96263282 38.22799601 -34.625 46.5 C-33.635 46.5 -32.645 46.5 -31.625 46.5 C-30.28222827 42.83671014 -28.95103731 39.16937804 -27.625 35.5 C-27.2125 34.365625 -26.8 33.23125 -26.375 32.0625 C-25.43773416 29.30517526 -25.43773416 29.30517526 -25.625 25.5 C-26.615 25.5 -27.605 25.5 -28.625 25.5 Z " fill="#FDDE5C" transform="translate(358.625,203.5)"/>
<path d="M0 0 C1.35931641 -0.01836914 1.35931641 -0.01836914 2.74609375 -0.03710938 C4.05126953 -0.04000977 4.05126953 -0.04000977 5.3828125 -0.04296875 C6.17316895 -0.04707764 6.96352539 -0.05118652 7.77783203 -0.05541992 C9.875 0.1875 9.875 0.1875 12.875 2.1875 C12.36376259 6.78863666 12.36376259 6.78863666 10.02734375 8.6953125 C6.70639458 12.54062206 5.92890847 16.95649698 4.6875 21.8125 C4.42775391 22.75996094 4.16800781 23.70742187 3.90039062 24.68359375 C2.27135491 30.83772868 1.30085289 36.83700125 0.875 43.1875 C5.38121764 43.64167177 5.38121764 43.64167177 9.45703125 42.12890625 C11.50611214 39.32341533 12.30862041 36.23447963 13.25 32.9375 C13.68258411 31.49709223 14.11620416 30.05699523 14.55078125 28.6171875 C14.76943848 27.88338867 14.9880957 27.14958984 15.21337891 26.39355469 C16.2499787 22.93720201 17.32898032 19.49639755 18.4375 16.0625 C18.81003906 14.88429687 19.18257812 13.70609375 19.56640625 12.4921875 C21.34907526 7.99028307 23.42549535 4.33184577 27.25 1.3125 C30.45780198 -0.06227228 32.41601281 -0.31693563 35.875 0.1875 C38.57490662 1.98743774 40.4168865 3.271273 41.875 6.1875 C42.32769417 10.71444175 42.56761379 13.89254096 39.875 17.6875 C36.78556075 20.26203271 36.30561846 20.54920295 32.5625 20.5625 C30.7371875 20.376875 30.7371875 20.376875 28.875 20.1875 C28.78863281 20.83074219 28.70226562 21.47398437 28.61328125 22.13671875 C26.90634994 33.11432288 23.94771081 44.98946238 14.875 52.1875 C7.47479042 56.62762575 -0.26565448 57.36845336 -8.64453125 55.6796875 C-13.60076666 54.24953002 -17.04442763 52.48163118 -20.125 48.1875 C-24.56721592 39.32272399 -19.87593773 28.93435371 -17.18359375 20.09765625 C-15.26816546 13.64812234 -14.7738662 7.91106207 -15.125 1.1875 C-10.1242559 -0.12022597 -5.13032503 0.00368029 0 0 Z " fill="#FCDE5E" transform="translate(94.125,206.8125)"/>
<path d="M0 0 C1.640625 1.3828125 1.640625 1.3828125 4.015625 3.8828125 C4.758125 3.2434375 5.500625 2.6040625 6.265625 1.9453125 C10.75329458 -1.42043968 14.4343199 -1.50210509 20.015625 -1.1171875 C23.4948374 0.15406318 25.48047819 1.25847455 27.890625 4.0703125 C30.87159238 11.52273095 28.28981449 17.87826253 25.79296875 25.125 C24.70095322 27.81438355 24.70095322 27.81438355 26.015625 29.8828125 C26.675625 30.5428125 27.335625 31.2028125 28.015625 31.8828125 C28.015625 34.1953125 28.015625 34.1953125 27.015625 36.8828125 C21.85592727 41.81817554 18.23537435 43.1844831 11.3046875 43.10546875 C8.02812293 42.78675854 5.74510393 41.68027423 3.015625 39.8828125 C0.28089305 35.78071457 0.39680401 32.70385976 1.015625 27.8828125 C1.91903876 24.93689807 2.97134162 22.11575324 4.140625 19.265625 C5.18797839 16.83652218 5.18797839 16.83652218 5.015625 13.8828125 C1.02921889 16.54041657 0.52742595 19.61764113 -0.734375 24.0078125 C-0.96769531 24.74257812 -1.20101563 25.47734375 -1.44140625 26.234375 C-2.99673277 31.52434784 -2.99215852 35.46290357 -1.984375 40.8828125 C-5.38335173 43.14879698 -6.54756673 43.12023904 -10.52734375 43.078125 C-12.13706055 43.06845703 -12.13706055 43.06845703 -13.77929688 43.05859375 C-14.89884766 43.04183594 -16.01839844 43.02507812 -17.171875 43.0078125 C-18.30302734 42.99878906 -19.43417969 42.98976563 -20.59960938 42.98046875 C-23.39474328 42.95688112 -26.18945345 42.9239655 -28.984375 42.8828125 C-29.644375 41.5628125 -30.304375 40.2428125 -30.984375 38.8828125 C-30.40300781 38.2846875 -29.82164062 37.6865625 -29.22265625 37.0703125 C-26.1173828 32.64814298 -24.75988971 28.01280505 -23.171875 22.8828125 C-22.84767578 21.89796875 -22.52347656 20.913125 -22.18945312 19.8984375 C-21.88845703 18.94453125 -21.58746094 17.990625 -21.27734375 17.0078125 C-21.0043042 16.14414063 -20.73126465 15.28046875 -20.44995117 14.390625 C-19.92234173 11.54867212 -20.3172642 9.67351728 -20.984375 6.8828125 C-20.984375 5.5628125 -20.984375 4.2428125 -20.984375 2.8828125 C-15.49833652 -1.23171636 -6.30651853 -3.55052028 0 0 Z " fill="#FCDE5D" transform="translate(269.984375,220.1171875)"/>
<path d="M0 0 C3.42345651 3.84095121 4.55563031 6.93178358 5 12 C4.45375004 14.71752491 3.85267444 17.23597079 3.0625 19.875 C2.86720703 20.56335938 2.67191406 21.25171875 2.47070312 21.9609375 C1.99154926 23.64381938 1.49730601 25.3223926 1 27 C1.99 27 2.98 27 4 27 C5.09659065 29.69163159 5.09578609 30.76053477 4 33.5 C0.32702209 38.09122239 -3.25959122 39.77899571 -8.9375 40.5 C-12.23069984 40.37284943 -14.25045129 39.42202896 -17.0625 37.75 C-19.00031419 36.57794447 -19.00031419 36.57794447 -21 36 C-24.22310282 37.5369171 -24.22310282 37.5369171 -26.14453125 38.95703125 C-29.57945899 40.88782221 -33.19622889 40.58739968 -37 40 C-41.12611421 38.25786289 -43.73295974 35.86236489 -46 32 C-46.83751601 27.42327112 -46.41237211 23.95024878 -44.5625 19.6875 C-41.17799491 16.1378971 -37.55658081 14.65516824 -33 13 C-33.515625 12.484375 -34.03125 11.96875 -34.5625 11.4375 C-36 9 -36 9 -36 5.5 C-34.79050213 1.26675744 -33.7621637 0.20822652 -30 -2 C-20.56732531 -5.93028112 -8.72531706 -5.43654371 0 0 Z M-17 4 C-19.29045014 8.81209901 -19.29045014 8.81209901 -20 14 C-19.01 14.33 -18.02 14.66 -17 15 C-15.39644899 11.49223216 -14.77963136 8.85645121 -15 5 C-15.66 4.67 -16.32 4.34 -17 4 Z M-24 23 C-24.33 24.65 -24.66 26.3 -25 28 C-23.00016466 27.20882096 -23.00016466 27.20882096 -21 26 C-20.67 25.01 -20.34 24.02 -20 23 C-21.32 23 -22.64 23 -24 23 Z " fill="#FDDF5D" transform="translate(405,223)"/>
<path d="M0 0 C3.55800479 3.35239145 5.8844053 6.43947155 6.25 11.375 C6.20772091 17.10381637 4.53458348 22.51934471 3 28 C3.99 28.33 4.98 28.66 6 29 C6.4375 31.125 6.4375 31.125 6 34 C3.10248909 37.25580527 0.14090732 39.61969756 -4 41 C-10.39569629 41.35531646 -14.43545025 39.88532209 -20 37 C-20.598125 37.474375 -21.19625 37.94875 -21.8125 38.4375 C-26.17902951 41.55644965 -30.82198052 41.6372947 -36 41 C-40.3498054 38.8250973 -43.26209405 36.60033928 -45 32 C-45.29757445 27.13059989 -44.48745023 23.79764583 -41.9375 19.625 C-38.36080529 16.42880473 -35.55741556 15.39039797 -31 14 C-31.4846875 13.58621094 -31.969375 13.17242187 -32.46875 12.74609375 C-34.5947612 10.32179016 -34.5426034 8.07201534 -34.41015625 4.93359375 C-34 3 -34 3 -31.9375 0.625 C-22.46007918 -4.61782854 -9.60787996 -5.2406618 0 0 Z M-15 5 C-15.45375 5.928125 -15.9075 6.85625 -16.375 7.8125 C-18 11 -18 11 -20 14 C-18.02 14.99 -18.02 14.99 -16 16 C-14.28577587 12.72317444 -14.28577587 12.72317444 -13 9 C-13.65682309 6.59313185 -13.65682309 6.59313185 -15 5 Z M-20 23 C-21.32 23.99 -22.64 24.98 -24 26 C-23.67 26.99 -23.34 27.98 -23 29 C-21.68 28.34 -20.36 27.68 -19 27 C-19.33 25.68 -19.66 24.36 -20 23 Z " fill="#FCDF5E" transform="translate(231,222)"/>
<path d="M0 0 C1.35931641 -0.01836914 1.35931641 -0.01836914 2.74609375 -0.03710938 C4.05126953 -0.04000977 4.05126953 -0.04000977 5.3828125 -0.04296875 C6.17316895 -0.04707764 6.96352539 -0.05118652 7.77783203 -0.05541992 C9.875 0.1875 9.875 0.1875 12.875 2.1875 C12.53218401 5.27284395 12.34150944 6.77452443 9.96875 8.875 C7.22724771 11.9029279 6.51918289 15.06026433 5.625 18.9375 C5.45226562 19.63488281 5.27953125 20.33226562 5.1015625 21.05078125 C4.68011971 22.75996588 4.27581845 24.47336153 3.875 26.1875 C1.76536105 19.28755304 3.69527605 11.87198679 5.875 5.1875 C6.535 5.1875 7.195 5.1875 7.875 5.1875 C7.875 4.1975 7.875 3.2075 7.875 2.1875 C0.945 2.1875 -5.985 2.1875 -13.125 2.1875 C-13.08375 3.96125 -13.0425 5.735 -13 7.5625 C-12.9296875 10.5859375 -12.9296875 10.5859375 -13.125 13.1875 C-13.785 13.8475 -14.445 14.5075 -15.125 15.1875 C-15.125 10.5675 -15.125 5.9475 -15.125 1.1875 C-9.93502001 0.149504 -5.26063821 0.00377377 0 0 Z " fill="#F9E475" transform="translate(94.125,206.8125)"/>
<path d="M0 0 C-1.36125 0.86625 -1.36125 0.86625 -2.75 1.75 C-7.90631832 4.90676004 -7.90631832 4.90676004 -10.3828125 10.078125 C-10.58019837 14.0521605 -10.45584708 16.22550254 -8.390625 19.734375 C-5.29339724 22.66965621 -3.46117693 22.68616469 0.75 22.8125 C2.50570313 22.88404297 2.50570313 22.88404297 4.296875 22.95703125 C5.18890625 22.97121094 6.0809375 22.98539062 7 23 C4.6058839 25.3941161 3.96213689 25.29598923 0.6875 25.3125 C-4.73323284 25.17350685 -7.35535753 23.51129308 -11.3125 19.875 C-13.67210053 15.85493983 -13.78715979 12.55428162 -13 8 C-10.41367908 2.62841039 -6.30324982 -2.10108327 0 0 Z " fill="#F8E173" transform="translate(372,238)"/>
<path d="M0 0 C0.66 0 1.32 0 2 0 C2.05395478 1.62463842 2.09277195 3.24978541 2.125 4.875 C2.14820313 5.77992188 2.17140625 6.68484375 2.1953125 7.6171875 C2 10 2 10 0 12 C-2 12.33333333 -4 12.66666667 -6 13 C-6.66 13.66 -7.32 14.32 -8 15 C-8.12375 14.360625 -8.2475 13.72125 -8.375 13.0625 C-8.58125 12.381875 -8.7875 11.70125 -9 11 C-9.66 10.67 -10.32 10.34 -11 10 C-4.25 8.875 -4.25 8.875 -2 10 C-1.66376204 8.7090864 -1.33110751 7.41723903 -1 6.125 C-0.814375 5.40570313 -0.62875 4.68640625 -0.4375 3.9453125 C0.07313965 2.00710683 0.07313965 2.00710683 0 0 Z " fill="#FBE472" transform="translate(217,227)"/>
<path d="M0 0 C0.33 0.99 0.66 1.98 1 3 C-1.25033432 6.7505572 -3.80862989 8.98370106 -7.921875 10.56640625 C-11.92364991 11.40136304 -16.05505494 11.00512968 -20 10 C-20.33 9.34 -20.66 8.68 -21 8 C-14.07 8.495 -14.07 8.495 -7 9 C-7 8.34 -7 7.68 -7 7 C-6.01 7 -5.02 7 -4 7 C-3.34 5.35 -2.68 3.7 -2 2 C-1.34 2 -0.68 2 0 2 C0 1.34 0 0.68 0 0 Z " fill="#FAE276" transform="translate(353,252)"/>
<path d="M0 0 C0.66 0 1.32 0 2 0 C1.69106068 1.6256807 1.3777305 3.25052748 1.0625 4.875 C0.88847656 5.77992188 0.71445312 6.68484375 0.53515625 7.6171875 C0 10 0 10 -1 12 C-0.01 12.33 0.98 12.66 2 13 C0.35 13.33 -1.3 13.66 -3 14 C-2.95875 13.05125 -2.9175 12.1025 -2.875 11.125 C-2.65026182 7.89755144 -2.65026182 7.89755144 -5 6 C-3.625 4 -3.625 4 -2 2 C-1.34 2 -0.68 2 0 2 C0 1.34 0 0.68 0 0 Z " fill="#FCE069" transform="translate(351,238)"/>
<path d="M0 0 C1.32 0 2.64 0 4 0 C4 1.32 4 2.64 4 4 C2.081875 4.12375 2.081875 4.12375 0.125 4.25 C-2.06368189 4.46191288 -2.06368189 4.46191288 -4 5 C-5.30065921 6.93383287 -5.30065921 6.93383287 -6 9 C-8.125 9.75 -8.125 9.75 -10 10 C-10 10.66 -10 11.32 -10 12 C-10.66 11.67 -11.32 11.34 -12 11 C-8.18485314 5.63494972 -5.2923165 3.91968978 1 2 C0.67 1.34 0.34 0.68 0 0 Z " fill="#F9DF76" transform="translate(199,234)"/>
<path d="M0 0 C0.66975771 2.08369065 1 3.87002453 1 6.0625 C0 8 0 8 -3.375 9.875 C-5.169375 10.431875 -5.169375 10.431875 -7 11 C-7.99 10.34 -8.98 9.68 -10 9 C-9.34 6.69 -8.68 4.38 -8 2 C-7.34 2 -6.68 2 -6 2 C-6 4.31 -6 6.62 -6 9 C-2.91910327 6.22719294 -1.31224548 3.93673644 0 0 Z " fill="#F6DE74" transform="translate(163,234)"/>
<path d="M0 0 C0.33 0.66 0.66 1.32 1 2 C3.52733235 2.65555119 3.52733235 2.65555119 6 3 C4.52307692 8.66153846 4.52307692 8.66153846 1.875 10.375 C1.25625 10.58125 0.6375 10.7875 0 11 C0 10.34 0 9.68 0 9 C-0.66 8.67 -1.32 8.34 -2 8 C-1.34 7.01 -0.68 6.02 0 5 C0.66 5 1.32 5 2 5 C2 4.34 2 3.68 2 3 C1.34 3 0.68 3 0 3 C0 2.01 0 1.02 0 0 Z " fill="#FAE165" transform="translate(404,249)"/>
<path d="M0 0 C0.33 0 0.66 0 1 0 C1.27338172 6.06907418 0.46092445 10.77622054 -1.5 16.5 C-1.73847656 17.22703125 -1.97695313 17.9540625 -2.22265625 18.703125 C-2.80460176 20.47223935 -3.40080457 22.23665346 -4 24 C-4.33 24 -4.66 24 -5 24 C-5 21.36 -5 18.72 -5 16 C-4.34 16 -3.68 16 -3 16 C-3.04125 15.113125 -3.0825 14.22625 -3.125 13.3125 C-2.99870082 9.96557176 -2.32094425 8.03040151 -1 5 C-0.63128912 3.34080104 -0.28718326 1.6752357 0 0 Z " fill="#F7E379" transform="translate(298,227)"/>
<path d="M0 0 C0.85722656 -0.02578125 1.71445312 -0.0515625 2.59765625 -0.078125 C5.37608273 0.31150409 6.21207227 1.10028677 7.9375 3.25 C6.82890625 3.21519531 5.7203125 3.18039063 4.578125 3.14453125 C3.11459852 3.11638651 1.65105561 3.08908708 0.1875 3.0625 C-0.54210937 3.03736328 -1.27171875 3.01222656 -2.0234375 2.98632812 C-5.40736604 2.94018364 -7.64108557 2.99675872 -10.578125 4.76171875 C-11.06796875 5.25285156 -11.5578125 5.74398437 -12.0625 6.25 C-12.7225 5.59 -13.3825 4.93 -14.0625 4.25 C-9.25560074 1.17892547 -5.68230482 0.10284715 0 0 Z " fill="#F7E17D" transform="translate(263.0625,218.75)"/>
<path d="M0 0 C2.64 0 5.28 0 8 0 C5.49231872 2.74650807 3.6194903 3.87586795 -0.19140625 4.16796875 C-0.97386719 4.17441406 -1.75632813 4.18085938 -2.5625 4.1875 C-3.74005859 4.20876953 -3.74005859 4.20876953 -4.94140625 4.23046875 C-7 4 -7 4 -9 2 C-6.36 2 -3.72 2 -1 2 C-0.67 1.34 -0.34 0.68 0 0 Z " fill="#FBE37D" transform="translate(202,259)"/>
<path d="M0 0 C0.99 0.33 1.98 0.66 3 1 C2.67 1.66 2.34 2.32 2 3 C1.34 3 0.68 3 0 3 C0.33 3.66 0.66 4.32 1 5 C1.2275015 6.87056791 1.40962811 8.74685958 1.5625 10.625 C1.64628906 11.62789062 1.73007812 12.63078125 1.81640625 13.6640625 C1.87699219 14.43492187 1.93757813 15.20578125 2 16 C1.01 16.33 0.02 16.66 -1 17 C-0.98259766 16.00419922 -0.98259766 16.00419922 -0.96484375 14.98828125 C-0.8893287 9.46032661 -0.8893287 9.46032661 -1.625 4 C-1.74875 3.34 -1.8725 2.68 -2 2 C-1.34 1.34 -0.68 0.68 0 0 Z " fill="#F8E274" transform="translate(338,204)"/>
<path d="M0 0 C1.65 0 3.3 0 5 0 C6.41687119 4.25061356 5.19320039 6.71851625 4 11 C3.34 11 2.68 11 2 11 C2.66 8.03 3.32 5.06 4 2 C1.00667261 2.9977758 0.05233685 3.7522025 -2 6 C-1.34 4.02 -0.68 2.04 0 0 Z " fill="#F8E476" transform="translate(329,227)"/>
<path d="M0 0 C0.99 0.33 1.98 0.66 3 1 C3 1.99 3 2.98 3 4 C3.66 4.66 4.32 5.32 5 6 C1.37 5.67 -2.26 5.34 -6 5 C-5.67 4.01 -5.34 3.02 -5 2 C-3.35 2 -1.7 2 0 2 C0 1.34 0 0.68 0 0 Z " fill="#FEE071" transform="translate(383,233)"/>
<path d="M0 0 C-0.99 0.33 -1.98 0.66 -3 1 C-3 1.66 -3 2.32 -3 3 C-4.98 3.99 -4.98 3.99 -7 5 C-7 7.64 -7 10.28 -7 13 C-9 12 -9 12 -9.8125 9.8125 C-10.06362983 6.04555258 -9.02687734 4.14515449 -7 1 C-4.05692338 -1.11533632 -3.53327797 -1.17775932 0 0 Z " fill="#F8E47E" transform="translate(134,260)"/>
<path d="M0 0 C0.33 0 0.66 0 1 0 C1 1.98 1 3.96 1 6 C-0.32 6.33 -1.64 6.66 -3 7 C-2.67 7.66 -2.34 8.32 -2 9 C0.52733235 9.65555119 0.52733235 9.65555119 3 10 C3 10.33 3 10.66 3 11 C1.02 11 -0.96 11 -3 11 C-3.66 9.68 -4.32 8.36 -5 7 C-4.360625 6.21625 -3.72125 5.4325 -3.0625 4.625 C-1.01857687 2.20460719 -1.01857687 2.20460719 0 0 Z " fill="#F7E077" transform="translate(244,252)"/>
<path d="M0 0 C1.32 0 2.64 0 4 0 C4.625 2.875 4.625 2.875 5 6 C4.34 6.66 3.68 7.32 3 8 C0.875 7.625 0.875 7.625 -1 7 C-0.34 6.67 0.32 6.34 1 6 C1 5.01 1 4.02 1 3 C-0.98 3.99 -0.98 3.99 -3 5 C-3 4.01 -3 3.02 -3 2 C-2.01 2 -1.02 2 0 2 C0 1.34 0 0.68 0 0 Z " fill="#FBE273" transform="translate(210,243)"/>
<path d="M0 0 C0.66 0 1.32 0 2 0 C1.86722656 0.64066406 1.73445313 1.28132812 1.59765625 1.94140625 C0.57506994 6.94983993 -0.33884147 11.93111794 -1 17 C-1.33 17 -1.66 17 -2 17 C-2 12.71 -2 8.42 -2 4 C-1.34 4 -0.68 4 0 4 C0 2.68 0 1.36 0 0 Z " fill="#FAE278" transform="translate(325,233)"/>
<path d="M0 0 C0.33 0 0.66 0 1 0 C2.125 5.75 2.125 5.75 1 8 C0.34 8 -0.32 8 -1 8 C-1 9.98 -1 11.96 -1 14 C-1.66 14 -2.32 14 -3 14 C-2.48594831 9.03083364 -1.76615118 4.70973649 0 0 Z " fill="#FAE379" transform="translate(112,225)"/>
<path d="M0 0 C0.33 1.32 0.66 2.64 1 4 C0.195625 4.61875 -0.60875 5.2375 -1.4375 5.875 C-4.03874519 7.74164041 -4.03874519 7.74164041 -5 10 C-5.66 10 -6.32 10 -7 10 C-5.6062718 5.56541027 -3.39417765 3.12621626 0 0 Z " fill="#F6E274" transform="translate(314,224)"/>
<path d="M0 0 C2.31 0.33 4.62 0.66 7 1 C5.02 1.99 5.02 1.99 3 3 C5.64 3.33 8.28 3.66 11 4 C11 4.33 11 4.66 11 5 C9.54176788 5.0270043 8.08339325 5.04639787 6.625 5.0625 C5.81289062 5.07410156 5.00078125 5.08570313 4.1640625 5.09765625 C2 5 2 5 0 4 C0 2.68 0 1.36 0 0 Z " fill="#FBE072" transform="translate(148,250)"/>
<path d="M0 0 C0.99 0.66 1.98 1.32 3 2 C2.64950425 5.24208567 2.43778819 6.61527704 -0.0625 8.8125 C-0.701875 9.204375 -1.34125 9.59625 -2 10 C-2 8.35 -2 6.7 -2 5 C-1.34 4.67 -0.68 4.34 0 4 C0 2.68 0 1.36 0 0 Z " fill="#F7E075" transform="translate(295,250)"/>
<path d="M0 0 C1.65 0.33 3.3 0.66 5 1 C2.78065836 4.32901247 1.65316671 4.75023244 -2 6 C-2 4.68 -2 3.36 -2 2 C-1.34 2 -0.68 2 0 2 C0 1.34 0 0.68 0 0 Z " fill="#FBE16A" transform="translate(382,255)"/>
<path d="M0 0 C0.33 0 0.66 0 1 0 C1.14285714 7.42857143 1.14285714 7.42857143 0 11 C-0.99 11 -1.98 11 -3 11 C-2.01 7.37 -1.02 3.74 0 0 Z " fill="#FADE7C" transform="translate(330,239)"/>
<path d="M0 0 C0.33 0.66 0.66 1.32 1 2 C3.52733235 2.65555119 3.52733235 2.65555119 6 3 C5.34 4.98 4.68 6.96 4 9 C2 5.25 2 5.25 2 3 C1.34 3 0.68 3 0 3 C0 2.01 0 1.02 0 0 Z " fill="#F8E86D" transform="translate(404,249)"/>
<path d="M0 0 C0.33 0 0.66 0 1 0 C1.33 2.97 1.66 5.94 2 9 C0.35 9 -1.3 9 -3 9 C-2.01 6.03 -1.02 3.06 0 0 Z " fill="#FAE070" transform="translate(108,239)"/>
<path d="M0 0 C0.66 0.33 1.32 0.66 2 1 C1.34 1.66 0.68 2.32 0 3 C-0.39764263 4.98821313 -0.73775349 6.98944339 -1 9 C-1.66 9 -2.32 9 -3 9 C-2.25 2.25 -2.25 2.25 0 0 Z " fill="#F9E57A" transform="translate(137,249)"/>
<path d="M0 0 C5.66153846 1.47692308 5.66153846 1.47692308 7.375 4.125 C7.684375 5.053125 7.684375 5.053125 8 6 C7.01 6 6.02 6 5 6 C4.34 5.01 3.68 4.02 3 3 C2.01 2.67 1.02 2.34 0 2 C0 1.34 0 0.68 0 0 Z " fill="#F7DF76" transform="translate(399,221)"/>
<path d="M0 0 C-1.0975223 2.99324263 -1.67682892 3.84610901 -4.625 5.25 C-5.40875 5.4975 -6.1925 5.745 -7 6 C-5.52522876 2.59668175 -4.14385429 0 0 0 Z " fill="#F9DF75" transform="translate(147,223)"/>
<path d="M0 0 C0.66 0 1.32 0 2 0 C1.67 1.98 1.34 3.96 1 6 C1.99 6.33 2.98 6.66 4 7 C2.35 7.33 0.7 7.66 -1 8 C-0.67 5.36 -0.34 2.72 0 0 Z " fill="#FCEB71" transform="translate(349,244)"/>
</svg>
